<?xml version="1.0" encoding="utf-8"?>
<!-- Generator: Adobe Illustrator 28.0.0, SVG Export Plug-In . SVG Version: 6.00 Build 0)  -->
<svg version="1.1" id="Layer_1" xmlns="http://www.w3.org/2000/svg" xmlns:xlink="http://www.w3.org/1999/xlink" x="0px" y="0px"
	 viewBox="0 0 500 500" style="enable-background:new 0 0 500 500;" xml:space="preserve">
<style type="text/css">
	.st0{fill:#8C593E;}
	.st1{fill:#CE9D5F;}
	.st2{fill:#B07E5E;}
	.st3{fill:#BB9278;}
	.st4{fill:#AD8671;}
	.st5{fill:#8F7F82;}
	.st6{fill:#AB734D;}
	.st7{fill:#C58E44;}
	.st8{fill:#B19080;}
	.st9{fill:#C4ADA1;}
	.st10{fill:#BB772B;}
	.st11{fill:#9E705D;}
	.st12{fill:#966244;}
	.st13{fill:#5A3B35;}
	.st14{fill:#896759;}
	.st15{fill:#9D7A69;}
	.st16{fill:#70432A;}
	.st17{fill:#9D6035;}
	.st18{fill:#917672;}
	.st19{fill:#B4988E;}
	.st20{fill:#874D2F;}
	.st21{fill:#773A1B;}
	.st22{fill:#6F5D61;}
	.st23{fill:#A9887A;}
	.st24{fill:#574556;}
	.st25{fill:#D3C0BA;}
	.st26{fill:#E9E0DB;}
	.st27{fill:#F7F3F1;}
</style>
<path class="st0" d="M330.79,104.42c-4.9,1.2-9.81,2.4-14.71,3.6c-2.11,0.31-4.22,0.63-6.33,0.94c-2.49,0.24-4.97,0.47-7.46,0.71
	c-0.16-0.37-0.26-0.75-0.29-1.15c-0.67-3.27-1.34-6.55-2-9.82c-0.02-4,0.26-8.03-0.23-11.97c-0.17-1.38-2.24-2.53-3.45-3.78
	c-0.56,0.9-1.11,1.8-1.67,2.7c0,0-0.02,0.04-0.02,0.04c-0.4,0.08-0.81,0.16-1.21,0.23c-0.42-1.52-0.85-3.03-1.27-4.55
	c4.59-1.02,9.18-2.03,13.77-3.05c2.54-0.24,5.08-0.48,7.61-0.72c3.7-0.63,7.39-1.26,11.09-1.88c1.29-0.11,2.58-0.22,3.87-0.33
	c0.92,0.16,1.83,0.32,2.75,0.48c0.13,0.7,0.27,1.4,0.41,2.1c-1.3,1.6-3.82,3.29-3.7,4.78C328.5,90,329.77,97.2,330.79,104.42z"/>
<path class="st1" d="M232.39,95.64c1.61-0.27,6.4-0.42,8.02-0.69c1.11,1.21,0.23,2.67,0.16,3.5c0.89,3.66,1.78,7.32,2.67,10.98
	c0.02,0.39,0.13,0.74,0.34,1.07c-0.17,1.84-0.34,3.68-0.51,5.51c-2.86,0.38-5.72,0.77-8.58,1.15c-0.98-0.25-2.19-1.01-2.91-0.69
	c-7.33,3.28-14.58,6.74-21.85,10.15c-0.87,0.14-1.74,0.27-2.61,0.41c-2.33-6.64-4.67-13.29-7-19.93c-0.43-0.43-0.87-0.86-1.3-1.29
	c0.58-1.5,1.16-3,1.74-4.49c0.5-0.15,0.99-0.29,1.49-0.44c2.29-0.26,4.58-0.53,6.87-0.79c1.28,0.9,2.84,2.81,3.78,2.54
	c6.37-1.84,12.6-4.14,18.88-6.29C231.88,96.15,232.15,95.92,232.39,95.64z"/>
<path class="st2" d="M259.83,288.68c-0.01,2.51-0.03,5.02-0.04,7.53c-1.37,1.18-3.15,2.12-3.99,3.6c-1.07,1.89-1.37,4.22-2.01,6.35
	c-3.89,2.92-7.78,5.84-11.67,8.76c-0.22-1.37-0.72-2.76-0.61-4.09c0.65-7.63,2.19-15.26,2.03-22.86
	c-0.34-15.66-1.56-31.3-2.42-46.95c2.7-1.53,5.39-3.06,9.28-5.27c0.38,4.76,0.69,8.79,1.01,12.82c0.37,3.3,0.74,6.59,1.1,9.89
	c-0.53,8.55-1.07,17.09-1.6,25.64c0.69,0.06,1.39,0.11,2.08,0.17c0.69-1.46,1.37-2.93,2.06-4.39c1.23-0.44,2.47-0.89,3.7-1.33
	C259.11,281.92,259.47,285.3,259.83,288.68z"/>
<path class="st3" d="M261.26,145.61c0.13,7.08,0.26,14.15,0.39,21.23c0.32,2.11,0.64,4.23,0.95,6.34
	c-0.32,3.61-0.63,7.21-0.95,10.83c-0.87,3.74-1.65,7.49-2.62,11.19c-1.72,6.57-3.53,13.12-5.37,19.66c-0.81,2.86-1.78,5.68-2.26,7.2
	c-4.39-1.7-7.3-2.83-10.21-3.96c0.42-4.86,0.83-9.72,1.25-14.59c0.03-0.46,0.05-0.92,0.08-1.38c3.65,0.09,5.71-1.83,4.75-5.24
	c-0.45-1.58-3.05-2.56-4.67-3.81c-0.04-1.66-0.08-3.33-0.12-4.99c-0.04-4.72-0.1-9.45-0.12-14.17c-0.01-3.98,0.03-7.96,0.05-11.95
	c3.32,5.4,6.64,10.79,9.96,16.19c0.76-0.02,1.52-0.04,2.28-0.06c1.35-5.42,2.7-10.84,4.05-16.26c0.47-5.44,0.95-10.88,1.42-16.32
	C260.5,145.55,260.88,145.58,261.26,145.61z"/>
<path class="st4" d="M198.79,105.82c0.43,0.43,0.87,0.86,1.3,1.28c-4.3,6.28,1.48,12.18,0.84,18.38c-0.07,0.68,2.5,1.64,3.84,2.46
	c-0.78,0.75-1.57,1.51-2.35,2.26c-0.71,0.17-1.42,0.34-2.13,0.51c-0.96,0.21-1.92,0.42-2.88,0.64c-3.56,1.13-7.12,2.25-10.68,3.38
	c-0.49-0.76-0.97-1.51-1.46-2.26c-0.29,0.95-0.58,1.91-0.87,2.86c-4.55,0.81-9.1,1.61-13.66,2.42c0.24-1.01,0.48-2.03,0.71-3.04
	c1.3-1.59,3.86-3.34,3.67-4.73c-0.8-5.84-2.41-11.57-3.95-18.28c0.8-0.17,3.08-0.31,5.04-1.18c1.37-0.6,2.3-2.19,3.42-3.34
	c1.16-0.65,2.31-1.3,3.47-1.95c2.08-0.34,4.15-0.69,6.23-1.03C192.5,104.73,195.65,105.27,198.79,105.82z"/>
<path class="st5" d="M102.68,407.88c-12.15-0.03-24.29-0.06-36.44-0.08c-0.84-0.09-1.67-0.17-2.51-0.26
	c-3.4-0.84-6.79-1.69-10.19-2.53c0.46-2.66-1.17-6.66,4.04-6.28c1.62-1.25,3.23-2.49,4.85-3.74c4.15-0.52,8.29-1.05,12.44-1.57
	c0.86,1.28,1.71,2.55,2.56,3.83c0.93-0.8,1.87-1.61,2.8-2.41c1.55-0.2,3.1-0.4,4.65-0.6c2.64-0.04,5.27-0.08,7.9-0.12
	c1.63-0.13,3.25-0.25,4.88-0.38c2.98,0.36,5.95,0.73,8.93,1.09c-1.9,5.77-0.24,10.93,4.3,13.35c-1.86,0.11-3.73,0.23-5.59,0.34
	C104.43,408.3,103.56,408.09,102.68,407.88z"/>
<path class="st1" d="M108.64,135.62c5.34-3.05,10.68-6.1,16.01-9.15c2.03-0.72,4.06-1.43,6.09-2.15c1.57-0.5,3.13-0.99,4.7-1.49
	c3.17-1.39,6.33-2.77,9.5-4.16c0.78-0.22,1.55-0.45,2.33-0.67c2.45-0.52,4.89-1.04,7.34-1.56c0.35-0.27,0.71-0.55,1.06-0.82
	c1.64-0.5,3.27-1,4.91-1.5c0.14,0.47,0.29,0.94,0.43,1.4c1.5,5.53,3,11.06,4.5,16.59c1.43,1.5,5.36,3.5,3.34,6.08
	c-5.32,1.01-20.03,3.69-25.35,4.71c0.68-0.9,1.17-2.12,2.07-2.63c4.7-2.66,6.67-7.17,3.39-11.59c-1.25-1.68-6.11-0.88-9.32-0.86
	c-1.76,0.01-3.49,0.87-5.26,1.18c-2.46,0.43-5.14,0.24-7.39,1.15c-4.03,1.63-7.68,4.22-11.74,5.74
	C113.36,136.62,110.87,135.77,108.64,135.62z"/>
<path class="st6" d="M242.12,314.92c3.89-2.92,7.78-5.84,11.67-8.76c0,12.07,0,24.14,0,37.84c3.3-2.8,4.75-4.04,6.21-5.27
	c0.66,2.55,1.32,5.09,1.98,7.64c0.28,1.2,0.57,2.4,0.85,3.6c-1.37,0.81-2.75,1.62-4.12,2.43c-3.39,0.91-6.86,1.59-10.11,2.86
	c-1.1,0.43-1.63,2.35-2.42,3.59c-1.67,0.39-3.34,0.78-5.02,1.17c0.01-2.48,0.03-4.96,0.04-7.44c0.37-0.84,0.74-1.68,1.11-2.53
	c0.06-0.82,0.13-1.64,0.19-2.46c0.68-0.4,1.99-0.85,1.96-1.18c-0.7-7.58-1.55-15.14-2.37-22.7
	C242.11,320.77,242.12,317.85,242.12,314.92z"/>
<path class="st7" d="M108.64,135.62c2.23,0.14,4.72,1,6.62,0.28c4.06-1.52,7.71-4.11,11.74-5.74c2.25-0.91,4.93-0.72,7.39-1.15
	c1.77-0.31,3.51-1.16,5.26-1.18c3.21-0.03,8.06-0.82,9.32,0.86c3.28,4.41,1.31,8.92-3.39,11.59c-0.9,0.51-1.39,1.74-2.07,2.63
	c-0.71,0.32-1.42,0.65-2.13,0.97c-0.93-0.01-1.86-0.01-2.78-0.02c-7.13-0.97-14.11-3.08-21.47-0.39c-3.79,1.38-8.14,1.23-12.23,1.77
	c-0.94,0.13-1.89,0.26-2.83,0.4c-0.57-0.03-1.15-0.06-1.72-0.09c-0.06-0.32-0.13-0.63-0.22-0.94c-0.36-2-0.71-4-1.07-6
	c0.33-0.45,0.66-0.89,0.99-1.34c1.21-0.03,2.43-0.06,3.64-0.1c0.24,0.23,0.49,0.46,0.73,0.69c0.21-0.41,0.42-0.82,0.63-1.23
	C106.25,136.31,107.44,135.97,108.64,135.62z"/>
<path class="st2" d="M258.7,161.84c-1.35,5.42-2.7,10.84-4.05,16.26c-0.76,0.02-1.52,0.04-2.28,0.06
	c-3.32-5.4-6.64-10.79-9.96-16.19c0.43-3.4,0.86-6.8,1.28-10.19c8.96-1.76,5.68-9.66,7.54-14.97c0.01-3.27,0.32-6.57-0.03-9.8
	c-0.68-6.28,1.84-8.8,8.06-7.67c0.02,2.86,0.05,5.71,0.07,8.57c-0.21,5.51-0.42,11.01-0.62,16.52c-2.02,1.1-5.62,2-5.79,3.33
	c-0.67,5.3-0.28,10.74-0.28,16.58C255.38,163.2,257.04,162.52,258.7,161.84z"/>
<path class="st8" d="M242.52,347.59c-0.06,0.82-0.13,1.64-0.19,2.46c-0.38,0.4-0.77,0.79-1.15,1.19c-1.24,0.45-2.48,0.91-3.72,1.36
	c0.59-3.3,1.56-6.59,1.7-9.91c0.78-17.87,1.66-35.74,1.85-53.61c0.09-8.47-1.86-16.96-1.91-25.44c-0.13-20.17,0.31-40.35,0.52-60.53
	c0.94,0.14,1.89,0.27,2.83,0.41c-0.42,4.86-0.83,9.72-1.25,14.59c-0.02,1.29-0.05,2.58-0.07,3.87c0,6.35,0,12.7,0,19.05
	c0.86,15.65,2.08,31.29,2.42,46.95c0.16,7.6-1.38,15.23-2.03,22.86c-0.11,1.34,0.39,2.73,0.61,4.09c-0.01,2.92-0.01,5.85-0.01,8.78
	C242.25,331.66,242.39,339.62,242.52,347.59z"/>
<path class="st9" d="M63.83,238.14c0.12-1.2,0.23-2.41,0.34-3.61c0.3-0.88,0.6-1.76,0.89-2.64c0.41-1.63,0.82-3.26,1.23-4.88
	c0.3-0.45,0.6-0.9,0.91-1.35c2.17-7.88,4.13-15.82,6.55-23.62c3.64-11.75,7.53-23.43,11.48-35.08c0.55-1.62,2.05-2.92,3.11-4.36
	c0.59,1.32,1.18,2.63,1.78,3.95c-0.81,7.15-1.62,14.31-2.43,21.46c0.06,6.66,0.8,13.53-4.78,18.5c-0.64-0.15-1.28-0.3-1.91-0.45
	c1.4-5.75,2.79-11.51,4.19-17.26c-0.73-0.15-1.45-0.29-2.18-0.44c-2.64,8.24-5.28,16.47-7.92,24.71c-2.93,8.37-5.86,16.75-8.8,25.12
	C65.48,238.17,64.65,238.16,63.83,238.14z"/>
<path class="st10" d="M292.13,81.36c0.42,1.52,0.85,3.03,1.27,4.55c0.18,2.14,0.36,4.28,0.53,6.42c0.18,1.63,0.37,3.25,0.55,4.88
	c-0.04,0.92-0.08,1.83-0.12,2.75c0.16,1.22,0.32,2.44,0.48,3.66c-0.23,0.87-0.47,1.74-0.7,2.6c0.49,0.8,0.98,1.6,1.47,2.4
	l-0.01,0.61c-0.37,0.27-0.74,0.54-1.11,0.8c-0.71,0.09-1.41,0.18-2.12,0.26c-1.36,0.23-2.72,0.46-4.08,0.69l-0.07,0.33l0.3,0.15
	c-1.25-0.01-2.51-0.01-3.76-0.02c-3.75-3.42-4.09-7.18-2.15-11.87c0.98-2.35,0.25-5.41,0.32-9.37c-2.99,1.71-4.77,2.72-6.65,3.8
	c-1.94-2.04-3.74-3.94-5.55-5.84c0.24-0.88,0.47-1.75,0.71-2.63c0,0-0.15-0.53-0.15-0.53c6.59-1.43,13.17-2.86,19.76-4.29
	C291.41,80.93,291.77,81.14,292.13,81.36z"/>
<path class="st11" d="M237.46,352.59c1.24-0.45,2.48-0.91,3.73-1.36c0.01,0.45,0.03,0.89,0.04,1.34c-0.01,2.48-0.03,4.96-0.04,7.44
	c-0.74,3.08-1.66,6.12-2.16,9.23c-0.34,2.14,0.58,4.66-0.22,6.52c-6.31,14.81-7.3,30.29-6.35,46.07c-0.85,4.93-1.7,9.85-2.55,14.78
	c-0.42,0.01-0.84,0.02-1.27,0.03c-0.42,0.83-0.85,1.67-1.27,2.5c0,0,0-0.01,0-0.01c-0.74,0.43-1.47,0.86-2.21,1.29
	c0.89-4.88,2.15-9.72,2.62-14.64c1.94-20.75,3.62-41.53,5.49-62.29c0.14-1.57,1-3.07,1.53-4.61
	C235.69,356.79,236.57,354.69,237.46,352.59L237.46,352.59z"/>
<path class="st0" d="M391.33,150.69c0.44-2.53,0.88-5.07,1.32-7.6c0.04-0.41,0.08-0.82,0.11-1.22c0.19-1.17,0.38-2.35,0.58-3.52
	c0.12-0.47,0.25-0.94,0.37-1.41c1.01-5.94,2.03-11.88,3.04-17.81c0.81,0.1,1.61,0.19,2.42,0.29c0.28,1.64,0.56,3.28,0.84,4.93
	c0.06,1.04,0.12,2.08,0.19,3.12c-0.07,0.46-0.14,0.92-0.21,1.39c-1.92,11.86-3.83,23.73-5.75,35.59c-0.25,1.41-0.49,2.82-0.74,4.23
	c-0.31,4.83-0.62,9.66-0.94,14.49c-0.72,2.1-1.44,4.2-2.16,6.3c-0.12,2.1-0.23,4.21-0.35,6.31c-1.04-1.11-2.22-2.12-3.09-3.35
	c-0.91-1.29-1.53-2.79-2.27-4.2c2.04-12.04,4.07-24.09,6.11-36.13C390.97,151.62,391.15,151.16,391.33,150.69z"/>
<path class="st12" d="M258.72,352.39c1.37-0.81,2.75-1.62,4.12-2.43c2.5,10.79,5.54,21.5,7.3,32.41c1.14,7.08,0.4,14.45,0.51,21.7
	c-0.97,0.67-1.93,1.33-2.9,2c1.08,0.55,2.15,1.11,3.23,1.66c0.66,4.64,1.32,9.27,1.99,13.91c-0.92-0.47-1.83-0.94-2.75-1.4
	c-0.16-2.73-0.32-5.47-0.48-8.2c-0.45,0.06-0.9,0.12-1.35,0.18c-0.63,1.75-1.26,3.49-1.88,5.24c-0.76-0.07-1.53-0.14-2.29-0.21
	c0-3.28-0.28-6.6,0.09-9.84c0.32-2.83,1.38-5.57,2.11-8.36c3.17-10.37,0.62-20.57-1.83-31.22c-0.42-0.04-1.83-0.19-3.23-0.34
	c-0.4-0.41-0.81-0.82-1.21-1.22C259.66,361.65,259.19,357.02,258.72,352.39z"/>
<path class="st13" d="M360.53,339.08c-0.59-0.32-1.18-0.64-1.76-0.97c0.66-1.36,1.32-2.72,1.98-4.07c4.62,0.29,8.33,5.97,13.62,2.3
	c18.12,0,36.24-0.09,54.35,0.11c2.01,0.02,4,1.65,6,2.53c-0.51,0.57-1.02,1.15-1.53,1.72c-23.76-0.23-47.52-0.46-71.27-0.69
	C361.46,339.7,360.99,339.39,360.53,339.08z"/>
<path class="st0" d="M225.16,440.42c0.74-0.43,1.47-0.86,2.21-1.29c0.41,2.89,0.81,5.77,1.4,9.9c4.74-4.19,7.95-7.04,11.16-9.88
	c0.12,3.14,1.04,6.52,0.18,9.37c-1.61,5.4-4.25,10.49-6.46,15.7c-2.42-1.18-4.77-3.16-7.27-3.36c-3.83-0.31-7.77,0.59-11.66,0.98
	c0.49-1.63,0.98-3.26,1.46-4.89C221.89,452.91,223.11,446.44,225.16,440.42z"/>
<path class="st12" d="M258.74,278.54c-1.23,0.44-2.47,0.89-3.7,1.33c-0.42-3.8-0.82-7.61-1.26-11.41c-0.39-3.34-0.84-6.67-1.27-10
	c-0.37-3.3-0.74-6.59-1.11-9.89c0.8-2.64,2.1-5.24,2.29-7.92c0.34-4.82,3.13-12.87,8.57-13.31c0.4,0.58-0.6,5.71-0.21,6.28
	c0.11,8.57,0.21,17.14,0.32,25.72c-0.85,3.05-1.69,6.1-2.54,9.15c-1.15,0.86-2.29,1.72-3.44,2.58c1.15,0.84,2.3,1.67,3.45,2.51
	c-0.01,1.62-0.02,3.25-0.03,4.87C259.45,278.37,259.09,278.4,258.74,278.54z"/>
<path class="st11" d="M214.73,461.85c3.89-0.39,7.82-1.29,11.66-0.98c2.5,0.2,4.85,2.18,7.27,3.36c2.79,0.43,5.69,0.54,8.32,1.42
	c1.61,0.54,2.8,2.3,4.18,3.5l0.02,0.04c-0.46,0.35-0.92,0.71-1.37,1.06c-0.78,0.08-1.56,0.17-2.34,0.25
	c-5.74-0.37-11.49-0.74-17.52-1.12c0,2.53,0,3.96,0,5.4c-5.49,0.38-10.99,0.76-16.48,1.15c4.71-3.02-0.32-6.14,0.1-9.2
	C210.62,465.1,212.67,463.47,214.73,461.85z"/>
<path class="st4" d="M252.81,32.59c1.67,3.81,3.98,7.49,4.86,11.48c1.18,5.32,1.25,10.88,1.8,16.33c-1.06-0.06-2.11-0.12-3.17-0.18
	c-2.49-1.68-4.98-3.36-7.47-5.04c-0.03-1.23-0.07-2.45-0.1-3.68c-0.8-1.29-1.59-2.58-2.39-3.87c-0.42-0.44-0.84-0.88-1.26-1.32
	c-0.57-1.13-1.14-2.26-1.71-3.39c-0.7,0.77-1.41,1.54-2.11,2.31c-0.02,0.83-0.04,1.66-0.06,2.49c0.02,1.27,0.04,2.53,0.06,3.8
	c-0.01,2.49-0.02,4.99-0.04,7.48c-0.02,0.83-0.04,1.66-0.06,2.49c-0.42,1.29-0.84,2.57-1.26,3.86c-0.33-0.07-0.67-0.13-1.01-0.18
	c-0.66-2.89-1.32-5.77-1.98-8.66c0.17-4.18,0.33-8.37,0.5-12.55c1.88-3.37,3.75-6.75,5.63-10.12c1.85,2.06,3.7,4.13,5.55,6.19
	c1.22-2.38,2.44-4.76,3.68-7.13C252.37,32.75,252.63,32.69,252.81,32.59z"/>
<path class="st14" d="M256.31,60.21c1.06,0.06,2.11,0.12,3.17,0.18c-0.25,6.64-0.49,13.29-0.74,19.93c-3.11-0.53-7.92-0.04-8.99-1.8
	c-2.87-4.73-4.14-10.43-6.04-15.75c-0.82-1.26-1.64-2.52-2.46-3.77c0.01-2.49,0.02-4.99,0.03-7.48c1.27-1.74,2.55-3.47,3.82-5.21
	c0.42,0.44,0.84,0.88,1.26,1.32c0.8,1.29,1.59,2.58,2.39,3.86c0.03,1.23,0.07,2.45,0.1,3.68c0.56,1.86,0.6,4.21,1.8,5.46
	C252.16,62.25,254.81,64.94,256.31,60.21z"/>
<path class="st15" d="M243.7,62.78c1.9,5.32,3.17,11.01,6.04,15.75c1.07,1.76,5.89,1.27,8.99,1.8c0.19,1.68,0.38,3.35,0.57,5.03
	c0.26,2.16,0.53,4.32,0.79,6.47c-0.03,0.36-0.05,0.72-0.05,1.07c-0.46,0-0.92,0-1.38,0.01c-4.08,0-8.13-0.2-12.02,0.91
	c-1.4,0.4-4.56,3.59-5.96,4.87c-0.84-1.41-0.15-4.77-0.99-6.18c0.03-0.33,0.02-0.66-0.04-0.99c0.45-0.8,0.9-1.6,1.35-2.4
	c0.12-0.81,0.24-1.63,0.36-2.44c0.18-0.86,0.36-1.72,0.54-2.59c-0.27-2.49-0.55-4.98-0.82-7.47c0.09-1.28,0.18-2.55,0.27-3.83
	c-0.35-1.71-0.7-3.41-1.06-5.12c-0.24,0.06-0.48,0.14-0.71,0.25c0.11-0.85,0.22-1.71,0.33-2.56c0.42-1.29,0.84-2.57,1.26-3.86
	C242.02,61.93,242.86,62.36,243.7,62.78z"/>
<path class="st7" d="M270.73,88.17c1.81,1.9,3.61,3.8,5.55,5.84c1.89-1.08,3.66-2.09,6.65-3.8c-0.06,3.97,0.66,7.02-0.32,9.37
	c-1.95,4.69-1.6,8.46,2.15,11.87c-1.2,0.37-2.39,0.75-3.59,1.12c-2.56-3.17-9.48-3.81-13.37-1.24c-1.18-0.02-2.36-0.05-3.54-0.07
	c-0.57-0.31-1.15-0.62-1.72-0.93c-0.75-1.12-1.51-2.24-2.26-3.37c-0.03-0.38-0.06-0.76-0.1-1.14c4.04-3.28,8.09-6.56,11.31-9.17
	C271.18,93.14,270.95,90.66,270.73,88.17z"/>
<path class="st4" d="M259.26,119.33c-6.21-1.13-8.74,1.39-8.06,7.67c0.35,3.23,0.04,6.53,0.03,9.8c-2.42,0.33-4.85,0.65-7.64,1.03
	c-0.3-0.95-0.7-2.24-1.11-3.53c-0.29-2.04-0.57-4.08-0.86-6.12c0.07-4.28,0.14-8.56,0.21-12.84c1.49-1.17,2.97-2.34,4.46-3.5
	c3.33-0.04,6.66-0.08,9.99-0.12c0.83,0.41,1.66,0.83,2.5,1.24c0,0,0.06,0.15,0.06,0.15c0.42,0.81,0.85,1.62,1.27,2.43
	c0.11,0.85,0.21,1.69,0.32,2.54C260.04,118.49,259.65,118.91,259.26,119.33z"/>
<path class="st2" d="M241.12,221.97c0.03-1.29,0.05-2.58,0.07-3.87c2.91,1.13,5.82,2.26,10.21,3.96c0.48-1.52,1.46-4.34,2.26-7.2
	c1.84-6.54,3.64-13.09,5.37-19.66c0.97-3.7,1.75-7.46,2.62-11.19c0.26,6.41,0.52,12.82,0.77,19.23c-0.44,1.25-0.87,2.51-1.31,3.76
	c-3.6,4.09-3.24,9.33,0.89,12.72c0.14,2.87,0.29,5.73,0.43,8.6c-0.38,0.01-0.75,0.04-1.12,0.09c-1.76-1.2-3.53-2.4-5.12-3.49
	c-2.48,2.31-4.68,4.36-7.6,7.08C247.08,226.64,247.74,221.15,241.12,221.97z"/>
<path class="st16" d="M270.22,420.25c0.92,0.47,1.83,0.94,2.75,1.4c0.27,2.5,0.54,5,0.8,7.51c0.69,3.35,1.37,6.71,2.06,10.06
	c1.18,3.1,2.36,6.2,3.55,9.31c0.65,1.46,1.29,2.93,1.94,4.39c3.64,1.98,7.29,3.95,10.93,5.93c-1.42,0.86-2.84,1.71-4.26,2.56
	c1.17,0.99,2.2,2.24,3.53,2.91c1.98,1,4.17,1.6,6.27,2.37c-2.07,0.44-4.14,0.87-6.21,1.31c-2.9-0.03-5.8-0.07-8.7-0.1
	c-0.05-0.82-0.11-1.64-0.16-2.46c-0.21-1.42,0.09-3.32-0.72-4.19c-8.9-9.62-9.78-22.54-14.06-34.03
	C267.27,425.43,269.39,422.6,270.22,420.25z"/>
<path class="st17" d="M260,338.73c-1.46,1.24-2.91,2.47-6.21,5.27c0-13.7,0-25.77,0-37.84c0.63-2.14,0.94-4.46,2.01-6.35
	c0.84-1.48,2.63-2.42,3.99-3.6c0.24,0.37,0.48,0.74,0.72,1.1c-0.16,1.27-0.31,2.55-0.47,3.82c0.24,1.72,0.48,3.44,0.72,5.16
	c0.27,0.36,0.54,0.72,0.81,1.08c-0.13,0.85-0.26,1.69-0.4,2.54C260.78,319.52,260.39,329.12,260,338.73z"/>
<path class="st18" d="M53.54,405.01c3.4,0.84,6.79,1.69,10.19,2.53c-0.07,0.35-0.1,0.7-0.1,1.05c-10.97-0.53-21.96-0.91-32.91-1.72
	c-2.24-0.16-4.85-1.44-6.44-3.04c-4.66-4.72-4.02-7.09,2.03-9.98c1.15-0.04,2.3-0.08,3.45-0.12c7.39,0.35,14.79,0.69,22.18,1.04
	c0.57,0.07,1.14,0.15,1.71,0.22c-1.65,0.83-3.3,1.66-4.96,2.48c-6.53,0.81-13.49-1.75-19.98,3.07c2.93,2.09,5.99,3.81,9.25,4.31
	c3.85,0.6,7.87,0.15,11.81,0.15C51.04,405.01,52.29,405.01,53.54,405.01z"/>
<path class="st11" d="M384.69,188.22c0.74,1.41,1.36,2.91,2.27,4.2c0.87,1.23,2.05,2.24,3.09,3.35c-1.27,13.36-2.53,26.72-3.8,40.08
	c-0.64,1.32-1.28,2.64-1.92,3.95c-0.79-0.02-1.59-0.05-2.38-0.07c-0.35-0.27-0.53-0.62-0.55-1.05c0.39-0.12,0.76-0.3,1.1-0.53
	l-0.05-0.52c-0.1-1.8-0.2-3.59-0.3-5.39c0.35-0.41,0.7-0.81,1.05-1.22c0.26-4.85,4.71-10.52-2.71-13.88
	c0.25-1.6,0.51-3.19,0.76-4.79c0.03-2.17,0.06-4.35,0.09-6.52C382.46,199.96,383.57,194.09,384.69,188.22z"/>
<path class="st13" d="M297.78,466.7c-2.1-0.77-4.29-1.37-6.27-2.37c-1.33-0.67-2.36-1.92-3.53-2.91c1.42-0.85,2.84-1.71,4.26-2.56
	c1.03,0.2,2.05,0.4,3.08,0.59c0.38,0.05,0.76,0.1,1.14,0.15c0.94,0.16,1.88,0.32,2.81,0.47c0.43,0.09,0.87,0.18,1.3,0.28
	c5.54,3.43,11.13,6.78,16.48,10.47c0.35,0.24-0.88,4.36-1.8,4.54c-2.77,0.55-5.74,0.05-8.64-0.04c0.2-3.46-1.54-4.99-4.91-4.89
	C300.4,469.18,299.09,467.94,297.78,466.7z"/>
<path class="st5" d="M130.48,405.87c-6.27,0.64-12.54,1.29-18.8,1.93c0.05-3.91,0.1-7.82,0.15-11.73c1.14-0.44,2.29-0.88,3.43-1.31
	c2.31-0.13,4.63-0.25,6.94-0.38c3.35,0.93,6.69,1.86,10.04,2.78C136.51,401.04,131.48,403.05,130.48,405.87z"/>
<path class="st12" d="M224.95,474.78c0-1.43,0-2.86,0-5.4c6.03,0.39,11.77,0.75,17.52,1.12c1.32,1.28,2.53,3.47,3.99,3.65
	c3.59,0.45,7.3-0.02,10.97-0.13c0.92-0.36,1.87-0.65,2.75-1.1c5.02-2.56,11.26-1.54,13.67,2.28c-10.54,0.29-21.07,0.79-31.61,0.8
	C236.47,476.03,230.71,475.22,224.95,474.78z"/>
<path class="st17" d="M331.63,77.96c-0.14-0.7-0.27-1.4-0.41-2.1c1.35-0.34,2.69-0.69,4.04-1.03c1.53,0.64,3.07,1.28,4.6,1.92
	c0,0-0.07-0.07-0.07-0.08c3.59-0.33,7.18-0.66,10.76-1c1.1-0.28,2.2-0.56,3.3-0.83c1.45,0.22,2.91,0.43,4.36,0.65
	c0.49-0.23,0.98-0.47,1.47-0.7c3.73,0.09,7.46,0.19,11.18,0.28c3.45,0.19,6.9,0.37,10.35,0.56c0.53,0.6,1.06,1.2,1.59,1.8
	c-2.87,0.94-5.74,1.88-8.6,2.82c-2.11-0.66-4.22-1.32-6.34-1.98c-2.86,0.34-5.76,1.17-8.57,0.93c-9.38-0.81-17.6,1.34-24.27,8.27
	C333.89,84.3,332.76,81.13,331.63,77.96z"/>
<path class="st14" d="M252.81,32.59c-0.18,0.1-0.45,0.16-0.53,0.32c-1.24,2.37-2.45,4.75-3.68,7.13c-1.85-2.06-3.7-4.13-5.55-6.19
	c-0.35-0.8-0.71-1.61-1.06-2.41c0.17-0.84,0.35-1.68,0.52-2.53c-0.01-0.84-0.02-1.67-0.03-2.51c0.08-1.24,0.15-2.48,0.23-3.71
	c1.13-1.95,2.27-3.9,3.6-6.2c1.45,0.33,3.21,0.73,4.96,1.13c0.35,0.86,0.7,1.72,1.05,2.58c0.23,0.86,0.46,1.72,0.7,2.58
	C252.95,26.05,252.88,29.32,252.81,32.59z"/>
<path class="st8" d="M161.02,115.53c-0.14-0.47-0.29-0.94-0.43-1.4c-0.13-0.83-0.26-1.65-0.39-2.48c6.49-1.5,12.98-2.99,19.46-4.49
	c-1.12,1.15-2.05,2.74-3.42,3.34c-1.96,0.87-4.25,1.01-5.04,1.18c1.53,6.71,3.15,12.44,3.95,18.28c0.19,1.38-2.38,3.14-3.68,4.73
	c-1.04-4.41-2.53-8.78-3.01-13.25C167.81,115.45,166.68,114.23,161.02,115.53z"/>
<path class="st15" d="M470.98,305c1.59,6.39,4.24,17.18,5.83,23.57c-1.4-0.38-2.92,0.38-4.32,0c-3.2-14.75-7.34-35.02-10.53-49.78
	c1.04-0.08,2.09-0.16,3.13-0.24c1.86,7.93,3.72,15.86,5.58,23.79C470.77,303.23,470.88,304.11,470.98,305z"/>
<path class="st18" d="M433.2,340.69c0.51-0.57,1.02-1.15,1.53-1.72c3.69-0.6,8.13-2.78,10.93-1.48c6.86,3.21,7.11,0.06,6.67-5.09
	c-0.45-1.12-0.91-2.24-1.36-3.37c2.56-0.04,5.13-0.07,7.69-0.11c-0.18,0.92-0.36,1.83-0.53,2.75c1.91,7.48,8.09,7.51,14.01,7.99
	c-5.31,0.57-10.62,1.52-15.94,1.61C448.54,341.41,440.87,340.92,433.2,340.69z"/>
<path class="st4" d="M90.13,166.55c-0.59-1.32-1.18-2.63-1.78-3.95c1.06-4.51,2.12-9.02,3.18-13.53c-0.36-0.88-0.72-1.76-1.08-2.64
	c-0.24-0.66-0.48-1.33-0.72-1.99c1.23-0.04,2.46-0.08,3.68-0.12c1.3,6.81,2.59,13.61,3.92,20.61c1.59-0.33,3.18-0.65,4.77-0.98
	c0.11,4.22,0.21,8.44,0.32,12.66c-0.22-0.01-0.44-0.03-0.66-0.04c-0.73-3.1-1.46-6.19-2.19-9.29c-0.36,0.07-0.73,0.13-1.09,0.2
	c0,2.22,0,4.43,0,6.64c-0.59,0-1.17,0-1.75,0c-0.21-1.86-0.41-3.72-0.79-7.13c-0.69,2.19-0.86,2.73-1.03,3.27
	c-1.07-0.03-2.14-0.05-3.2-0.08C91.19,168.97,90.66,167.76,90.13,166.55z"/>
<path class="st15" d="M440.81,181.44c1.35,4.26,3.08,10.07,4.22,14.38c2.53,9.59,4.86,19.22,7.27,28.84
	c-1.18-0.44-2.37-0.89-3.55-1.33c-2.88-10.37-5.75-20.74-8.63-31.12c-0.51-1.83-3.42-9.24-3.93-11.07"/>
<path class="st8" d="M243.7,151.78c-0.43,3.4-0.85,6.8-1.28,10.19c-0.02,3.98-0.07,7.97-0.05,11.95c0.01,4.72,0.08,9.45,0.12,14.17
	c-0.93,0.07-1.86,0.14-2.79,0.2c-0.2-14.64-2.43-29.36,1.84-43.81C242.25,146.92,242.97,149.35,243.7,151.78z"/>
<path class="st1" d="M270.73,88.17c0.22,2.48,0.45,4.97,0.76,8.48c-3.22,2.61-7.26,5.89-11.3,9.16c-0.17-0.43-0.34-0.85-0.51-1.27
	c0.27-4.15,0.62-8.31,0.67-12.46c0-0.34-2.05-0.71-3.14-1.06c-0.07-0.35-0.12-0.71-0.17-1.06c0.37-0.25,0.75-0.5,1.13-0.75
	c0.8-0.19,1.61-0.37,2.41-0.56c2.42-0.8,4.84-1.59,7.25-2.39c1.2-0.24,2.41-0.48,3.61-0.72C271.21,86.42,270.97,87.3,270.73,88.17z"
	/>
<path class="st16" d="M331.63,77.96c1.13,3.17,2.26,6.34,3.39,9.51c0.24,1.24,0.48,2.48,0.73,3.71c-1.03,3.45-1.45,6.7,2.79,8.42
	l0.09,0.06c0.21,0.78,0.41,1.55,0.62,2.33c-0.14,0.29-0.13,0.58,0.01,0.87c-2.82,0.52-5.63,1.04-8.45,1.56
	c-1.02-7.22-2.3-14.42-2.86-21.68C327.81,81.25,330.33,79.56,331.63,77.96z"/>
<path class="st8" d="M112.34,231.92c0.08,1.25,0.17,2.49,0.25,3.74c-1.63,0.84-3.26,1.67-4.9,2.51c-0.4-1.26-0.79-2.53-1.19-3.79
	c-0.55-7.93-2.95-32.02-3.5-39.95c1.06-1.31,0.87,1.26,1.93-0.06c1.27,7.87,5.63,28.02,6.9,35.88
	C112,230.82,112.17,231.37,112.34,231.92z"/>
<path class="st19" d="M129.28,322.17c2.07,10.01,4.14,20.03,6.21,30.04c-0.9,0.47-1.8,0.94-2.7,1.4
	c-2.34-9.32-4.72-18.63-6.94-27.98c-0.24-1.03,0.45-2.28,0.71-3.43C127.46,322.19,128.37,322.18,129.28,322.17z"/>
<path class="st20" d="M273.84,475.22c-2.41-3.81-8.65-4.84-13.67-2.28c-0.87,0.45-1.83,0.73-2.75,1.1
	c-0.37-1.99-0.74-3.98-1.11-5.97c1.68-0.02,3.35-0.04,5.03-0.06c3.84,0.36,7.68,0.99,11.52,0.99c3.34,0,6.67-0.7,10.01-1.09
	c2.9,0.03,5.8,0.07,8.7,0.1c-1.84,0.84-3.75,1.55-5.49,2.56c-1.62,0.94-3.06,2.21-4.58,3.33c-0.11,0.38-0.15,0.76-0.11,1.15
	C278.87,475.1,276.36,475.16,273.84,475.22z"/>
<path class="st9" d="M132.79,353.62c0.9-0.47,1.8-0.94,2.7-1.41c2.57,10.07,5.13,20.13,7.69,30.2c-0.09,2.14-0.17,4.27-0.26,6.41
	c-0.86,0.77-1.73,1.53-2.59,2.3C137.82,378.62,135.3,366.12,132.79,353.62z"/>
<path class="st19" d="M39.17,330.69c2.41-10.33,4.82-20.67,7.24-31c1.3-0.44,2.6-0.87,3.9-1.31c-1.14,5.61-2.08,11.28-3.47,16.83
	c-1.37,5.43-3.2,10.74-4.83,16.1C41.06,331.11,40.12,330.9,39.17,330.69z"/>
<path class="st18" d="M140.34,391.12c0.86-0.77,1.73-1.53,2.59-2.3c0.84-0.04,1.67-0.08,2.51-0.12c0,0,0,0.01,0,0.01
	c0.41,0.34,0.82,0.67,1.23,1.01c0.93,0.47,1.86,0.95,2.79,1.42c0.32,0.87,0.65,1.73,0.97,2.6c-0.99,5.42-2.54,10.42-8.86,11.88
	c0.24-11.45,0.24-11.45-7.51-11.99c0.02-0.79,0.04-1.58,0.06-2.38C136.19,391.2,138.26,391.16,140.34,391.12z"/>
<path class="st8" d="M425.9,133.11c1.88,4.35,3.98,8.61,5.58,13.06c1.23,3.41,1.83,7.04,2.71,10.57c-0.03,1.59,1.67,3.04,1.63,4.62
	c-1.27,0.15-4.28,0.44-5.55,0.59c-0.46-0.92-0.93-1.84-1.39-2.77c-1.21-4.11-2.42-8.23-3.63-12.34c0.75-1.44,2.15-2.91,2.11-4.33
	C427.27,139.37,426.43,136.24,425.9,133.11z"/>
<path class="st21" d="M397.19,73.9c2-0.78,3.99-1.56,5.99-2.34c2.62-0.56,5.24-1.13,7.86-1.69l-0.14,0.29c0,0,0.16-0.28,0.16-0.28
	c0.65,2.7,1.3,5.39,1.95,8.09c-0.35,0.44-0.71,0.87-1.06,1.31c-1.71,0.31-3.42,0.63-5.14,0.94c-1.75,0.32-3.5,0.64-5.25,0.96
	c-0.49-0.29-0.98-0.59-1.48-0.88c-1.15-1.13-2.3-2.26-3.46-3.38C396.82,75.9,397.01,74.9,397.19,73.9z"/>
<path class="st21" d="M281.5,473.89c1.52-1.12,2.96-2.39,4.58-3.33c1.74-1.01,3.65-1.72,5.49-2.56c2.07-0.44,4.14-0.87,6.21-1.31
	c1.31,1.24,2.62,2.48,3.93,3.72c-0.06,1.6-0.11,3.21-0.17,4.81c-3.73-0.08-7.46-0.17-11.19-0.25c-0.57-0.67-1.15-1.33-1.72-2
	c-0.76,0.69-1.51,1.37-2.27,2.06c-1.22,0.03-2.43,0.06-3.65,0.08C282.32,474.71,281.91,474.3,281.5,473.89z"/>
<path class="st1" d="M104.89,145.25c4.1-0.54,8.44-0.39,12.23-1.77c7.36-2.68,14.34-0.58,21.47,0.39c0.06,0.52,0.12,1.03,0.18,1.54
	c-9.93,0.75-19.86,1.61-29.8,2.14C107.66,147.63,106.25,146.06,104.89,145.25z"/>
<path class="st19" d="M369.89,261.61c4.06,0.04,4.97-2.09,4.19,0.88c-2.33,8.94-12.26,52.22-14.62,61.15
	c-1.02-0.06-2.05-0.11-3.07-0.17C358.64,312.76,367.65,272.32,369.89,261.61z"/>
<path class="st3" d="M243.7,151.78c-0.72-2.43-1.44-4.86-2.17-7.29c-0.01-3.41-0.01-6.82-0.02-10.23c0.33,0.03,0.65,0.04,0.98,0.04
	c0.41,1.29,0.81,2.59,1.11,3.53c2.79-0.37,5.21-0.7,7.64-1.03C249.37,142.12,252.65,150.02,243.7,151.78z"/>
<path class="st22" d="M134.06,393.62c7.75,0.54,7.75,0.54,7.51,11.99c-3.7,0.09-7.4,0.17-11.09,0.26c1.01-2.82,6.04-4.82,1.76-8.7
	C132.85,395.99,133.45,394.8,134.06,393.62z"/>
<path class="st16" d="M194.7,475.63c-2.69,0.05-5.4,0.29-8.06,0.05c-1.21-0.11-2.32-1.18-3.48-1.82c0.66-1.16,1.07-2.61,2.02-3.43
	c1.7-1.47,3.73-2.56,5.62-3.8c2.1-0.77,4.19-1.53,6.29-2.3c-0.4,3.31-0.79,6.61-1.19,9.92C195.5,474.71,195.1,475.17,194.7,475.63z"
	/>
<path class="st11" d="M161.02,115.53c5.67-1.3,6.79-0.09,7.44,5.91c0.48,4.47,1.97,8.84,3.01,13.25c-0.24,1.01-0.48,2.03-0.71,3.04
	c-0.86,0.19-1.73,0.37-2.59,0.56c-0.88-2.05-1.77-4.11-2.65-6.16C164.02,126.6,162.52,121.07,161.02,115.53z"/>
<path class="st23" d="M430.28,161.95c1.27-0.15,2.54-0.31,3.8-0.46c0.67-0.04,1.35-0.08,2.02-0.13c1.62,6.86,3.24,13.72,4.86,20.58
	c-1.58-0.16-3.15-0.32-4.73-0.48C434.25,174.96,432.26,168.46,430.28,161.95z"/>
<path class="st0" d="M102.11,163.95c-1.59,0.33-3.18,0.65-4.77,0.98c-1.33-7-2.63-13.8-3.92-20.61c2.22-0.09,4.45-0.18,6.67-0.27
	c0.02,0.32,0.03,0.64,0.02,0.96c0.07,2.28,0.15,4.55,0.22,6.82C100.93,155.87,101.52,159.91,102.11,163.95z"/>
<path class="st20" d="M401.95,77.95c1.78,0.05,3.56,0.1,5.33,0.14c0.43,3.81,0.87,7.63,1.18,10.34c-1.46,2.7-2.59,4.79-3.73,6.88
	c-1.64,0.05-3.28,0.11-4.92,0.16c-0.09-0.84-0.19-1.68-0.28-2.53c0.6-3.96,1.21-7.92,1.81-11.88
	C401.55,80.03,401.75,78.99,401.95,77.95z"/>
<path class="st15" d="M457.5,242.1c1.68,7.95,3.37,15.9,5.05,23.85c-0.96,0.47-1.92,0.93-2.89,1.4c-0.96-4.24-1.93-8.47-2.89-12.71
	c-0.21-0.43-0.43-0.87-0.64-1.3c-0.67-3.68-1.33-7.36-2-11.04C455.26,242.24,456.38,242.17,457.5,242.1z"/>
<path class="st23" d="M424.55,144.39c-1.5-5.59-2.99-11.19-4.49-16.78c-0.78-2.92-5.72-14.82-1.45-14.86
	c0.88,3.7,6.41,16.66,7.29,20.36c0.54,3.14,1.37,6.26,1.47,9.41c0.05,1.42-1.36,2.88-2.11,4.33
	C425.03,146.03,424.79,145.21,424.55,144.39z"/>
<path class="st18" d="M356.4,323.47c1.02,0.06,2.05,0.11,3.07,0.17c0.39,0.4,0.78,0.81,1.17,1.21c0.85,1.04,1.7,2.09,2.55,3.13
	c-0.82,2.02-1.63,4.03-2.45,6.05c-0.66,1.36-1.32,2.72-1.98,4.07c-2.47-2.25-4.94-4.5-7.4-6.74c-0.12-0.9-0.24-1.79-0.36-2.69
	c0.39-0.19,0.68-0.48,0.86-0.88c0.76-0.94,1.52-1.88,2.28-2.81C354.9,324.48,355.65,323.98,356.4,323.47z"/>
<path class="st24" d="M472.13,339.67c-5.92-0.49-12.1-0.51-14-8c5.03,0,10.06,0,15.62,0c-0.56,3.23-0.97,5.59-1.38,7.95
	C472.37,339.62,472.13,339.67,472.13,339.67z"/>
<path class="st2" d="M260,338.73c0.39-9.61,0.78-19.21,1.17-28.82c0.42,0.03,0.84,0.06,1.26,0.09c-0.15,12.12-0.3,24.24-0.45,36.37
	C261.32,343.82,260.66,341.28,260,338.73z"/>
<path class="st3" d="M209.71,126.63c7.27-3.41,14.52-6.87,21.85-10.15c0.72-0.32,1.93,0.43,2.91,0.69c-2.5,1.87-4.74,4.43-7.55,5.48
	c-5.57,2.08-11.45,3.32-17.2,4.91C209.72,127.25,209.72,126.94,209.71,126.63z"/>
<path class="st11" d="M416.5,101.69c-0.16,2.11-0.32,4.23-0.49,6.34c-0.9,1.27-1.8,2.55-2.71,3.82c-0.43,1.63-0.86,3.27-1.29,4.9
	c-1.77-2.41-3.54-4.83-5.31-7.24c-0.36-0.02-0.68-0.15-0.97-0.36c0.87-1.64,1.73-3.27,2.6-4.91c1.94-2.08,3.88-4.16,5.82-6.24
	C414.93,99.23,415.72,100.46,416.5,101.69z"/>
<path class="st15" d="M197.09,464.33c-2.1,0.77-4.19,1.53-6.29,2.3c4.05-2.16,7.94-4.74,12.19-6.36c4.21-1.61,8.78-2.25,13.2-3.31
	c-0.49,1.63-0.98,3.26-1.46,4.89c-2.06,1.63-4.11,3.25-6.16,4.88c-0.02-0.41-0.03-0.81-0.02-1.22c0.39-3.61-1.82-4.26-4.58-3.63
	C201.61,462.42,199.38,463.49,197.09,464.33z"/>
<path class="st21" d="M408.33,104.24c-0.87,1.64-1.73,3.27-2.6,4.91c-0.33,0.12-0.67,0.24-1,0.36c-1.81-0.5-3.63-1.01-5.44-1.51
	c0.18-4.17,0.35-8.34,0.53-12.52c1.64-0.05,3.28-0.11,4.91-0.16c0.35,0.45,0.71,0.9,1.06,1.34
	C406.65,99.18,407.49,101.71,408.33,104.24z"/>
<path class="st9" d="M30.22,375.16c1.62-7.2,3.23-14.41,4.85-21.61c0.86,0.93,1.73,1.85,2.59,2.78c-1.59,6.62-3.17,13.24-4.76,19.86
	C32.01,375.84,31.11,375.5,30.22,375.16z"/>
<path class="st13" d="M472.37,339.62c0.41-2.36,0.82-4.73,1.38-7.95c-5.56,0-10.59,0-15.62,0c0.17-0.91,0.35-1.83,0.53-2.74
	c2.47,0,4.95-0.01,7.42-0.01c0.86-0.02,1.73-0.04,2.59-0.06c0.83-0.2,1.65-0.41,2.48-0.61c1.58-0.12,3.16-0.25,4.74-0.37
	c0,0-0.06-0.09-0.05-0.09c0.96,0.63,1.92,1.27,2.87,1.9c0.7,0.58,1.39,1.17,2.09,1.75c-0.23,0.32-0.23,0.64,0.02,0.95
	c-0.27,0.54-0.53,1.08-0.8,1.61c-0.77,0.79-1.54,1.58-2.31,2.37C475.93,337.47,474.15,338.55,472.37,339.62z"/>
<path class="st12" d="M208.54,465.5c-0.01,0.41,0,0.81,0.02,1.22c-0.42,3.06,4.61,6.19-0.1,9.2c-1.21,0.07-2.41,0.13-3.62,0.2
	c-2.1-0.64-4.21-1.27-6.31-1.91C199.5,468.6,202.88,465.74,208.54,465.5z"/>
<path class="st6" d="M401.57,81.17c0.02,1.06,0.04,2.12,0.05,3.17c-2.56,1.12-5.12,2.23-7.68,3.35c-3.2,0.94-6.4,1.88-9.59,2.82
	c-1.29,0.36-2.58,0.73-3.86,1.09c1.96-1.97,3.6-4.55,5.94-5.77c4.33-2.27,9.08-3.74,13.66-5.54
	C400.58,80.58,401.07,80.88,401.57,81.17z"/>
<path class="st14" d="M378.68,237.52c-1.31,4.64-2.63,9.28-3.94,13.93l-2.13-0.46c1.02-6.64,7.59-38.28,8.61-44.92
	c1.08-0.36-0.43,8.17,0,10.03c0.12,0.51,0.19,1.02,0.1,1.54c-0.57,3.37-2.07,12.72-2.07,12.92
	C379.06,232.9,378.87,235.18,378.68,237.52z"/>
<path class="st17" d="M100.13,144.62c-2.16,0.54-4.31,1.09-6.47,1.64c-1.2,0.29-2.39,0.59-3.58,0.88c-0.48-0.31-0.96-0.61-1.45-0.92
	c-0.21-2.16-0.41-4.32-0.62-6.54c4.13-0.39,7.59-0.72,11.05-1.05C99.42,140.62,99.77,142.62,100.13,144.62z"/>
<path class="st19" d="M30.22,375.16c0.89,0.34,1.79,0.69,2.68,1.03c-1.05,5.85-2.09,11.7-3.14,17.55c-1.15,0.04-2.3,0.08-3.45,0.12
	C27.62,387.62,28.92,381.39,30.22,375.16z"/>
<path class="st8" d="M37.66,356.32c-0.86-0.93-1.73-1.85-2.59-2.78c1.37-7.62,2.74-15.24,4.11-22.85c0.94,0.21,1.89,0.41,2.83,0.62
	C40.56,339.65,39.11,347.99,37.66,356.32z"/>
<path class="st11" d="M405.8,96.66c-0.36-0.45-0.71-0.9-1.06-1.34c1.14-2.09,2.27-4.18,3.73-6.88c-0.31-2.71-0.75-6.52-1.18-10.34
	c1.74,0.05,3.48,0.09,5.22,0.14c-6.5,5.01-0.53,9.92,0.12,14.87C410.35,94.29,408.08,95.47,405.8,96.66z"/>
<path class="st9" d="M50.32,298.38c-1.3,0.44-2.61,0.87-3.91,1.31c1.48-5.54,2.96-11.08,4.44-16.61c1.03,0.08,2.05,0.16,3.07,0.24
	C52.72,288.34,51.52,293.36,50.32,298.38z"/>
<path class="st19" d="M457.5,242.1c-1.12,0.07-2.24,0.14-3.37,0.2c-1.8-6.33-3.59-12.65-5.39-18.98c1.18,0.44,2.37,0.89,3.55,1.33
	C454.03,230.47,455.76,236.29,457.5,242.1z"/>
<path class="st9" d="M120.12,287.14c0.43-2.86,0.86-5.73,1.29-8.59c1.4,7.52,2.8,15.04,4.2,22.56c-1.15-0.61-2.31-1.22-3.45-1.83
	C121.49,295.24,120.8,291.19,120.12,287.14z"/>
<path class="st23" d="M372.61,250.98c0.61,0.5,1.23,1,1.84,1.5c0.17,2.72,0.8,5.5,0.41,8.13c-0.49,3.29-1.8,6.46-3.3,11.5
	c-0.74-4.45-1.19-7.14-1.63-9.82C370.82,258.52,371.72,254.75,372.61,250.98z"/>
<path class="st9" d="M107.69,238.18c1.63-0.84,3.26-1.67,4.9-2.51c1.48,5.82,2.96,11.64,4.44,17.46c-1.43,0.02-2.86,0.04-4.29,0.07
	c0,0,0.03,0.03,0.03,0.03c-0.66-4.24-0.58-6.21-4.93-11.45C107.79,240.57,107.74,239.37,107.69,238.18z"/>
<path class="st19" d="M53.82,272.32c1.73-6.43,5.35-16.83,7.08-23.26c0.5,0.13,1.01,0.26,1.51,0.39
	c-1.64,6.46-3.29,12.92-4.93,19.38C56.56,273.58,54.42,272.47,53.82,272.32z"/>
<path class="st22" d="M111.82,396.07c-0.05,3.91-0.1,7.82-0.15,11.73c-0.19,0.28-0.45,0.4-0.78,0.37c-4.54-2.42-6.2-7.58-4.3-13.35
	c1.69-0.19,3.37-0.38,5.06-0.58C111.71,394.85,111.77,395.46,111.82,396.07z"/>
<path class="st4" d="M99.06,138.62c-3.46,0.33-6.92,0.66-11.05,1.05c0.21,2.22,0.42,4.38,0.62,6.54c-1.23-2-2.46-3.99-3.68-5.99
	c2.12-1.06,4.14-2.67,6.38-3.05c2.82-0.48,5.81,0.03,8.72,0.11C99.72,137.73,99.39,138.17,99.06,138.62z"/>
<path class="st18" d="M251.28,17.62c-1.75-0.4-3.5-0.8-4.96-1.13c-1.34,2.3-2.47,4.25-3.6,6.2c0.75-3.85,1.5-7.7,2.26-11.54
	c1.26,0.11,2.51,0.22,3.77,0.33C249.59,13.52,250.44,15.57,251.28,17.62z"/>
<path class="st20" d="M405.8,96.66c2.27-1.18,4.55-2.37,6.82-3.55c0.51,1.63,1.02,3.26,1.52,4.9c-1.94,2.08-3.88,4.16-5.82,6.24
	C407.49,101.71,406.65,99.18,405.8,96.66z"/>
<path class="st19" d="M105.19,196.76c-0.82-0.76-2.3-1.47-2.37-2.3c-0.51-5.95-0.74-11.92-1.05-17.89c0.22,0.02,0.44,0.03,0.66,0.04
	C103.35,183.33,104.27,190.04,105.19,196.76z"/>
<path class="st23" d="M122.16,299.28c1.15,0.61,2.31,1.22,3.46,1.84c0.74,4.94,1.49,9.88,2.24,14.81c-1.18-0.02-2.36-0.03-3.54-0.05
	C123.6,310.35,122.88,304.81,122.16,299.28z"/>
<path class="st11" d="M239.69,188.3c0.93-0.07,1.86-0.13,2.79-0.2c0.04,1.66,0.08,3.33,0.12,4.99c-0.03,3.02-0.05,6.03-0.08,9.05
	c-0.03,0.46-0.05,0.92-0.08,1.38c-0.94-0.13-1.89-0.27-2.83-0.4C239.64,198.17,239.66,193.23,239.69,188.3z"/>
<path class="st4" d="M399.29,107.99c1.81,0.5,3.63,1.01,5.44,1.51c-0.59,1.46-1.18,2.92-1.77,4.38c-0.65,0.01-1.29,0.02-1.94,0.03
	c-0.62,1.84-1.24,3.67-1.86,5.51c-0.81-0.1-1.61-0.19-2.42-0.29C397.6,115.41,398.45,111.7,399.29,107.99z"/>
<path class="st6" d="M397.19,73.9c-0.19,1-0.37,2-0.56,3c-4.61,0.17-9.22,0.35-13.84,0.52c-0.53-0.6-1.06-1.2-1.59-1.8
	c2.49-0.19,4.98-0.37,7.47-0.56c1.71-0.17,3.43-0.34,5.14-0.51C394.94,74.33,396.07,74.12,397.19,73.9z"/>
<path class="st14" d="M459.67,267.35c0.96-0.47,1.92-0.93,2.89-1.4c0.85,4.2,1.69,8.4,2.54,12.6c-1.04,0.08-2.09,0.16-3.13,0.24
	C461.2,274.98,460.43,271.16,459.67,267.35z"/>
<path class="st3" d="M231.56,96.33c-6.28,2.15-12.51,4.45-18.88,6.29c-0.94,0.27-2.51-1.64-3.78-2.54c4.07-0.9,8.14-1.8,12.2-2.7
	c2.92-0.7,5.85-1.39,8.77-2.09c0.37,0.17,3.27,0.35,3.65,0.19C233.69,95.83,231.86,96.13,231.56,96.33z"/>
<path class="st8" d="M198.79,105.82c-3.14-0.55-6.29-1.09-9.43-1.64c-0.03-0.39-0.07-0.78-0.12-1.17c3.63-0.93,11.11-2.87,14.75-3.8
	c0.14,0.36-1.18,2.16-3.45,2.11C199.95,102.82,199.37,104.32,198.79,105.82z"/>
<path class="st25" d="M53.92,283.32c-1.02-0.08-2.05-0.16-3.07-0.24c0.92-3.72,1.85-7.44,2.78-11.16c0.93,0,1.86-0.01,2.79-0.01
	C55.58,275.71,54.75,279.52,53.92,283.32z"/>
<path class="st25" d="M62.42,249.45c-0.5-0.13-1-0.26-1.51-0.39c0.97-3.64,1.95-7.28,2.92-10.91c0.82,0.01,1.64,0.03,2.47,0.04
	C65,241.94,63.71,245.7,62.42,249.45z"/>
<path class="st3" d="M267.81,111.33c3.89-2.57,10.81-1.93,13.37,1.24c-2.97,0.28-5.95,0.57-8.92,0.86
	C270.77,112.73,269.29,112.03,267.81,111.33z"/>
<path class="st3" d="M258.71,144.42c0.21-5.51,0.42-11.01,0.62-16.52c0.39,5.03,0.79,10.06,1.18,15.09
	c-0.24,0.49-0.48,0.98-0.72,1.48C259.43,144.49,259.07,144.47,258.71,144.42z"/>
<path class="st3" d="M261.12,206.99c0.53,3.37,1.06,6.74,1.58,10.1c-0.23,0.87-0.46,1.74-0.69,2.61
	C257.88,216.32,257.51,211.09,261.12,206.99z"/>
<path class="st8" d="M221.1,97.38c-4.07,0.9-8.14,1.8-12.2,2.7c-2.29,0.27-4.58,0.53-6.87,0.8c0.57-0.72,1.14-1.44,1.71-2.15
	c0.74-0.16,1.49-0.31,2.23-0.47c0.9,0.01,1.8,0.02,2.7,0.03c4.09-0.65,16.98-2.27,21.07-2.92C229.82,95.71,221.96,97.35,221.1,97.38
	z"/>
<path class="st11" d="M198.53,474.21c2.1,0.64,4.21,1.27,6.31,1.91c-3.38-0.16-6.76-0.33-10.14-0.49c0.4-0.46,0.8-0.92,1.2-1.38
	C196.78,474.24,197.66,474.23,198.53,474.21z"/>
<path class="st4" d="M161.84,114.21c0.44,2.19,0.88,4.38,1.32,6.58c-2.95-0.08-5.89-0.16-8.84-0.24
	C156.83,118.44,159.34,116.32,161.84,114.21z"/>
<path class="st12" d="M275.83,439.22c-0.69-3.35-1.37-6.71-2.06-10.06C274.45,432.51,275.14,435.86,275.83,439.22z"/>
<path class="st16" d="M301.54,475.23c0.06-1.6,0.11-3.21,0.17-4.81c3.37-0.1,5.1,1.43,4.91,4.89
	C304.93,475.28,303.23,475.25,301.54,475.23z"/>
<path class="st11" d="M247.67,112.38c-1.21,1.45-2.43,2.9-3.64,4.35c-0.42-0.1-0.75-0.34-0.96-0.71c0.17-1.84,0.34-3.68,0.51-5.51
	c0,0,0.46-0.08,0.46-0.08l0.45-0.12C245.54,110.99,246.6,111.69,247.67,112.38z"/>
<path class="st11" d="M413.01,77.96c-0.65-2.7-1.3-5.39-1.95-8.09C415.98,71.54,415.34,74.55,413.01,77.96z"/>
<path class="st2" d="M259.84,268.48c0.27,0.45,0.55,0.89,0.82,1.34c-0.27,1.25-0.54,2.5-0.81,3.76c-1.15-0.84-2.3-1.67-3.45-2.51
	C257.55,270.21,258.69,269.35,259.84,268.48z"/>
<path class="st11" d="M411.05,69.86c-2.62,0.56-5.24,1.13-7.86,1.69C405.8,70.99,408.42,70.43,411.05,69.86z"/>
<path class="st9" d="M209.71,126.63c0.01,0.31,0.01,0.62,0.02,0.93c-2.43,0.88-4.87,1.76-7.3,2.64c0.78-0.76,1.57-1.51,2.35-2.26
	c0.77-0.3,1.55-0.61,2.32-0.91C207.97,126.9,208.84,126.76,209.71,126.63z"/>
<path class="st8" d="M242.49,134.3c-0.33,0-0.65-0.01-0.98-0.04c0.04-2.03,0.08-4.05,0.12-6.08
	C241.92,130.21,242.2,132.25,242.49,134.3z"/>
<path class="st26" d="M262.6,173.18c-0.32-2.11-0.64-4.23-0.95-6.34C261.97,168.95,262.29,171.06,262.6,173.18z"/>
<path class="st19" d="M381.35,205.83c-0.03,2.17-0.06,4.35-0.09,6.52C381.29,210.18,381.32,208,381.35,205.83z"/>
<path class="st8" d="M237.45,352.6c-0.88,2.09-1.77,4.19-2.65,6.28C235.69,356.79,236.57,354.69,237.45,352.6z"/>
<path class="st27" d="M190.94,91.78c-2.1-0.09-4.2-0.18-6.3-0.27"/>
<path class="st4" d="M100.33,151.84c-0.07-2.27-0.15-4.55-0.22-6.82c0.55,0.15,1.11,0.29,1.66,0.44
	C101.29,147.58,100.81,149.71,100.33,151.84z"/>
<path class="st20" d="M270.98,407.74c-1.08-0.55-2.15-1.11-3.23-1.66c0.97-0.67,1.93-1.33,2.9-2
	C270.76,405.3,270.87,406.52,270.98,407.74z"/>
<path class="st2" d="M260.76,306.29c-0.24-1.72-0.48-3.44-0.72-5.16c0.38,0,0.76,0.02,1.14,0.07
	C261.04,302.9,260.9,304.6,260.76,306.29z"/>
<path class="st27" d="M393.82,74.55c-1.71,0.17-3.42,0.34-5.14,0.51C390.4,74.89,392.11,74.72,393.82,74.55z"/>
<path class="st4" d="M240.3,67.67c0.35,1.71,0.7,3.41,1.06,5.12c-0.39-0.03-0.77-0.06-1.15-0.11
	C240.24,71.01,240.27,69.34,240.3,67.67z"/>
<path class="st19" d="M124.32,315.88c1.18,0.02,2.36,0.03,3.54,0.05c0.39,0.85,0.78,1.69,1.17,2.54c-1.07,0.07-2.15,0.13-3.22,0.2
	C125.31,317.73,124.82,316.81,124.32,315.88z"/>
<path class="st9" d="M184.41,135.31c0.29-0.95,0.58-1.91,0.87-2.86c0.49,0.75,0.97,1.5,1.46,2.26
	C185.96,134.92,185.19,135.12,184.41,135.31z"/>
<path class="st3" d="M294.93,111.18c-0.14-0.38-0.29-0.75-0.44-1.13c0.37-0.27,0.74-0.54,1.11-0.8c2.13-0.24,4.26-0.48,6.39-0.73
	c0.04,0.4,0.14,0.78,0.29,1.15C299.84,110.17,297.39,110.68,294.93,111.18z"/>
<path class="st23" d="M125.81,318.66c1.07-0.07,2.15-0.13,3.22-0.2c0.08,1.24,0.16,2.47,0.25,3.71c-0.91,0.01-1.81,0.02-2.72,0.03
	C126.3,321.02,126.05,319.84,125.81,318.66z"/>
<path class="st12" d="M286.37,475.04c0.76-0.69,1.51-1.37,2.27-2.06c0.57,0.67,1.15,1.33,1.72,2
	C289.03,475,287.7,475.02,286.37,475.04z"/>
<path class="st12" d="M281.31,452.91c-0.65-1.46-1.3-2.93-1.94-4.39C280.02,449.99,280.67,451.45,281.31,452.91z"/>
<path class="st27" d="M241,89.12c-0.45,0.8-0.9,1.6-1.35,2.4C240.11,90.72,240.55,89.92,241,89.12z"/>
<path class="st27" d="M211.05,90c-0.88-0.2-1.76-0.39-2.64-0.59C209.29,89.61,210.17,89.81,211.05,90z"/>
<path class="st27" d="M102.68,407.88c0.88,0.21,1.75,0.42,2.63,0.63C104.43,408.3,103.56,408.09,102.68,407.88z"/>
<path class="st26" d="M470.98,305c-0.1-0.89-0.2-1.77-0.3-2.66C470.77,303.23,470.88,304.11,470.98,305z"/>
<path class="st27" d="M241.91,84.09c-0.18,0.86-0.36,1.72-0.54,2.59C241.55,85.82,241.73,84.95,241.91,84.09z"/>
<path class="st26" d="M354.14,324.98c-0.76,0.94-1.52,1.87-2.28,2.81C352.62,326.86,353.38,325.92,354.14,324.98z"/>
<path class="st9" d="M193.22,120.02c0.98-0.01,1.97-0.02,2.95-0.03C195.19,120,194.21,120.01,193.22,120.02z"/>
<path class="st27" d="M90.46,146.43c0.36,0.88,0.72,1.76,1.08,2.64C91.18,148.19,90.82,147.31,90.46,146.43z"/>
<path class="st26" d="M351,328.68c0.12,0.9,0.24,1.79,0.36,2.69C351.24,330.47,351.12,329.58,351,328.68z"/>
<path class="st18" d="M242.52,28.91c-0.29-0.05-0.59-0.1-0.88-0.16c0.28-0.78,0.57-1.57,0.85-2.35
	C242.5,27.23,242.51,28.07,242.52,28.91z"/>
<path class="st4" d="M253.03,22.78c-0.23-0.86-0.46-1.72-0.7-2.58C252.56,21.06,252.79,21.92,253.03,22.78z"/>
<path class="st25" d="M65.07,231.89c-0.3,0.88-0.6,1.76-0.89,2.64C64.48,233.65,64.77,232.77,65.07,231.89z"/>
<path class="st9" d="M138.77,145.42c-0.06-0.51-0.12-1.03-0.18-1.54c0.93,0,1.85,0.01,2.78,0.01
	C140.51,144.4,139.64,144.91,138.77,145.42z"/>
<path class="st1" d="M101.75,106.17c-0.29,0.36-0.58,0.71-0.87,1.07c-0.19-0.28-0.38-0.55-0.57-0.83
	C100.79,106.33,101.27,106.25,101.75,106.17z"/>
<path class="st26" d="M360.53,339.08c0.46,0.31,0.93,0.62,1.39,0.93C361.46,339.7,360.99,339.39,360.53,339.08z"/>
<path class="st27" d="M67.21,225.66c-0.3,0.45-0.6,0.9-0.91,1.35C66.6,226.56,66.91,226.11,67.21,225.66z"/>
<path class="st16" d="M296.47,459.59c-0.38-0.05-0.76-0.1-1.14-0.15C295.74,459.19,296.12,459.24,296.47,459.59z"/>
<path class="st16" d="M300.58,460.33c-0.43-0.09-0.87-0.18-1.3-0.28C299.72,460.15,300.15,460.24,300.58,460.33z"/>
<path class="st9" d="M112.34,231.92c-0.17-0.55-0.33-1.11-0.5-1.66C112.01,230.81,112.17,231.37,112.34,231.92z"/>
<path class="st12" d="M281.5,473.89c0.41,0.41,0.81,0.82,1.22,1.23c-0.44-0.03-0.89-0.05-1.33-0.08
	C281.35,474.65,281.39,474.27,281.5,473.89z"/>
<path class="st13" d="M302,108.52c-2.13,0.24-4.26,0.49-6.39,0.73c0,0,0-0.61,0-0.61c-0.08-0.83-0.17-1.65-0.25-2.48
	c-0.17-0.84-0.35-1.69-0.52-2.53c-0.16-1.22-0.32-2.44-0.48-3.66c0.04-0.92,0.08-1.83,0.13-2.75c-0.18-1.63-0.37-3.25-0.55-4.88
	c0.23-2.22,0.45-4.43,0.68-6.65c0,0,0.02-0.04,0.02-0.04c0.95,1.58,2.14,3.06,2.8,4.75c1.04,2.69,1.72,5.53,2.56,8.3
	C300.66,101.97,301.33,105.25,302,108.52z"/>
<path class="st16" d="M299.99,98.7c-0.83-2.77-1.51-5.6-2.56-8.3c-0.65-1.69-1.85-3.18-2.8-4.75c0.56-0.9,1.11-1.8,1.67-2.7
	c1.2,1.25,3.28,2.4,3.45,3.78C300.25,90.66,299.97,94.7,299.99,98.7z"/>
<path class="st16" d="M294.61,85.68c-0.23,2.22-0.46,4.43-0.68,6.65c-0.18-2.14-0.35-4.28-0.53-6.42
	C293.81,85.84,294.21,85.77,294.61,85.68z"/>
<path class="st8" d="M384.07,257.09c-1.73,12.21-3.46,24.41-5.19,36.62c-0.77-0.11-1.53-0.22-2.29-0.33
	c1.62-12.14,3.24-24.29,4.85-36.43C382.32,256.99,383.2,257.04,384.07,257.09z"/>
<path class="st22" d="M360.75,334.04c0.82-2.02,1.63-4.03,2.45-6.05c0.43-0.07,0.8-0.23,1.14-0.51c2.07-0.01,4.13-0.02,6.2-0.03
	c1.7,0.48,3.41,0.96,5.11,1.44c-0.42,2.49-0.85,4.97-1.27,7.46C369.08,340,365.37,334.33,360.75,334.04z"/>
<path class="st0" d="M384.07,257.09c-0.88-0.05-1.75-0.1-2.63-0.14c0.17-5.74,0.34-11.48,0.51-17.22c0.79,0.02,1.59,0.05,2.38,0.07
	c0.32,0.38,0.64,0.76,0.95,1.14C384.88,246.32,384.48,251.71,384.07,257.09z"/>
<path class="st14" d="M376.59,293.38c0.76,0.11,1.53,0.22,2.29,0.33c-0.26,6.23-0.53,12.46-0.79,18.69
	c-0.87-0.79-2.5-1.59-2.48-2.36C375.76,304.49,376.23,298.93,376.59,293.38z"/>
<path class="st18" d="M375.64,328.88c-1.7-0.48-3.41-0.96-5.11-1.44c1.26-2.46,2.99-19.98,7.64-18.71
	c0.39,0.93-1.11,15.34-0.72,16.27c-0.15,0.8-0.29,1.59-0.44,2.39C376.55,327.88,376.1,328.38,375.64,328.88z"/>
<path class="st19" d="M364.33,327.47c-0.33,0.27-0.71,0.44-1.14,0.51c-0.85-1.04-1.7-2.09-2.55-3.13
	C361.87,325.72,363.1,326.6,364.33,327.47z"/>
<path class="st14" d="M247.67,112.38c-1.06-0.69-2.13-1.39-3.19-2.08c-0.42-0.29-0.83-0.58-1.25-0.88
	c-0.89-3.66-1.78-7.32-2.67-10.98c1.1-1.54,1.91-3.94,3.37-4.45c3.82-1.34,7.93-1.84,11.93-2.68c1.27,4.41,2.55,8.82,3.82,13.23
	c0.17,0.42,0.34,0.85,0.51,1.27c0.03,0.38,0.06,0.76,0.1,1.14c-0.35,0.08-0.69,0.18-1.02,0.31c-0.62,0.98-1.23,1.95-1.85,2.93
	C254.16,110.93,250.92,111.65,247.67,112.38z"/>
<path class="st14" d="M207.09,127.03c-0.77,0.3-1.55,0.6-2.32,0.91c-1.34-0.83-3.91-1.78-3.84-2.46c0.64-6.2-5.14-12.1-0.84-18.38
	C202.42,113.75,204.76,120.39,207.09,127.03z"/>
<path class="st15" d="M243.23,109.43c0.42,0.29,0.83,0.58,1.25,0.88c0,0-0.45,0.12-0.45,0.12s-0.46,0.08-0.46,0.08
	C243.36,110.17,243.25,109.81,243.23,109.43z"/>
<path class="st6" d="M253.7,240.64c-0.19,2.68-1.49,5.28-2.29,7.92c-0.32-4.03-0.64-8.06-1.01-12.82c-3.88,2.21-6.58,3.74-9.28,5.27
	c0-6.35,0-12.7,0-19.05c6.62-0.82,5.96,4.67,7.48,10.03c2.92-2.72,5.12-4.77,7.6-7.08c1.6,1.09,3.36,2.29,5.12,3.49"/>
<path class="st6" d="M252.51,258.46c0.43,3.33,0.88,6.67,1.27,10c0.45,3.8,0.84,7.61,1.26,11.41c-0.69,1.46-1.37,2.93-2.06,4.39
	c-0.69-0.06-1.39-0.11-2.08-0.17C251.44,275.55,251.98,267.01,252.51,258.46z"/>
<path class="st6" d="M259.79,144.46c0.18,0.33,0.29,0.69,0.33,1.06c-0.47,5.44-0.95,10.88-1.42,16.32
	c-1.66,0.68-3.33,1.36-6.06,2.48c0-5.83-0.4-11.27,0.28-16.58c0.17-1.33,3.77-2.23,5.79-3.33
	C259.07,144.47,259.43,144.49,259.79,144.46z"/>
<path class="st2" d="M242.53,202.13c0.02-3.01,0.05-6.03,0.08-9.05c1.62,1.25,4.22,2.23,4.67,3.81
	C248.24,200.3,246.17,202.22,242.53,202.13z"/>
<path class="st18" d="M79.16,377.68c0.4,4.39,0.79,8.77,1.19,13.16c-0.03,1.33-0.07,2.66-0.1,3.99c-0.93,0.8-1.87,1.61-2.8,2.41
	c-0.85-1.28-1.71-2.55-2.56-3.83c0.68-5.27,1.35-10.53,2.03-15.8C77.65,377.64,78.41,377.66,79.16,377.68z"/>
<path class="st15" d="M57.26,386.18c-0.7,4.36-0.62,8.25,5.17,8.81c-1.62,1.25-3.23,2.49-4.85,3.74c-1.31-1.25-2.62-2.49-3.93-3.74
	c-0.57-0.07-1.14-0.15-1.71-0.22c0.53-2.88,1.06-5.77,1.59-8.65C54.77,386.14,56.02,386.16,57.26,386.18z"/>
<path class="st22" d="M53.66,394.99c1.31,1.25,2.62,2.49,3.93,3.74c-5.21-0.39-3.58,3.61-4.04,6.28c-1.26,0-2.51,0.01-3.76,0.01
	c-0.36-2.51-0.72-5.03-1.08-7.54C50.35,396.65,52.01,395.82,53.66,394.99z"/>
<path class="st19" d="M97.89,391.14c-0.07,0.86-0.14,1.73-0.21,2.59c-1.63,0.13-3.25,0.25-4.88,0.38c0.73-3.09,1.46-6.18,2.2-9.27
	c0.77,0.06,1.55,0.13,2.32,0.19C97.5,387.06,97.69,389.1,97.89,391.14z"/>
<path class="st19" d="M80.24,394.83c0.03-1.33,0.07-2.66,0.1-3.99c1.52,1.13,3.03,2.26,4.55,3.39
	C83.34,394.43,81.79,394.63,80.24,394.83z"/>
<path class="st8" d="M154.61,116.45c0.36-0.28,0.71-0.55,1.07-0.82C155.32,115.9,154.97,116.17,154.61,116.45z"/>
<path class="st17" d="M261.35,468.01c-1.68,0.02-3.35,0.04-5.03,0.06c-3.38,0.36-6.77,0.73-10.15,1.09
	c-1.38-1.21-2.57-2.96-4.18-3.5c-2.63-0.89-5.53-0.99-8.32-1.42c2.21-5.22,4.84-10.31,6.46-15.7c0.85-2.85-0.06-6.23-0.18-9.37
	c0-0.86,0-1.71,0-2.57c1.59-3.87,3.83-7.61,4.57-11.63c0.64-3.47-0.43-7.26-0.75-10.91c-0.85-2.51-1.71-5.01-2.56-7.52
	c0-0.83,0-1.66-0.01-2.49c0.63-4.21,1.68-8.41,1.81-12.63c0.32-10.94-0.16-21.93,3.21-32.56c0.79-1.24,1.31-3.16,2.42-3.59
	c3.25-1.27,6.72-1.95,10.11-2.86c0.47,4.63,0.94,9.25,1.41,13.88c-1.38,1.51-3.92,3-3.95,4.53c-0.21,11.24-9.19,20.52-6.41,32.62
	c1.69,7.35,1.53,8.34,8.92,6.29c0.46,13.8,0.81,27.47,1.49,41.13c0.12,2.4,1.58,4.74,2.43,7.11
	C262.19,461.3,261.77,464.66,261.35,468.01z"/>
<path class="st12" d="M246.2,358.84c-3.37,10.63-2.88,21.62-3.21,32.56c-0.13,4.22-1.18,8.42-1.81,12.63
	c-1.42-1.04-2.84-2.08-4.98-3.63c0,5.43,0.42,9.99-0.17,14.43c-0.32,2.45-2.34,4.68-3.59,7c-0.94-15.77,0.04-31.25,6.35-46.07
	c0.79-1.86-0.13-4.38,0.22-6.52c0.5-3.11,1.42-6.16,2.16-9.23C242.85,359.62,244.53,359.23,246.2,358.84z"/>
<path class="st2" d="M242.52,347.59c-0.14-7.96-0.27-15.93-0.41-23.89c0.82,7.57,1.66,15.13,2.36,22.7
	C244.51,346.73,243.2,347.19,242.52,347.59z"/>
<path class="st2" d="M241.22,352.57c-0.01-0.45-0.03-0.89-0.04-1.34c0.38-0.4,0.77-0.79,1.15-1.19
	C241.96,350.88,241.59,351.73,241.22,352.57z"/>
<path class="st16" d="M294.48,97.22c-0.04,0.92-0.09,1.83-0.13,2.75C294.4,99.05,294.44,98.13,294.48,97.22z"/>
<path class="st16" d="M294.84,103.63c0.17,0.84,0.35,1.69,0.52,2.53c-0.41,0.01-0.81,0.03-1.22,0.07
	C294.37,105.36,294.6,104.49,294.84,103.63z"/>
<path class="st0" d="M294.14,106.23c0.4-0.04,0.81-0.07,1.22-0.07c0.09,0.83,0.17,1.65,0.26,2.48
	C295.12,107.83,294.63,107.03,294.14,106.23z"/>
<path class="st6" d="M232.45,421.83c1.25-2.33,3.27-4.55,3.59-7c0.59-4.43,0.17-9,0.17-14.43c2.13,1.56,3.55,2.59,4.98,3.63
	c0,0.83,0,1.66,0.01,2.49c0.85,2.51,1.71,5.01,2.56,7.52c0.31,3.65,1.39,7.44,0.75,10.91c-0.74,4.02-2.98,7.77-4.57,11.63
	c-2.92,1.64-5.85,3.29-9.4,5.29c-0.26-2.16-0.44-3.71-0.62-5.27C230.76,431.68,231.61,426.76,232.45,421.83z"/>
<path class="st12" d="M229.91,436.61c0.18,1.55,0.37,3.11,0.62,5.27c3.55-2,6.48-3.64,9.4-5.29c0,0.85,0,1.71,0,2.56
	c-3.21,2.84-6.42,5.69-11.16,9.88c-0.58-4.13-0.99-7.02-1.4-9.9c0,0,0,0.01,0,0.01c0.42-0.83,0.85-1.67,1.27-2.5
	C229.06,436.63,229.49,436.62,229.91,436.61z"/>
<path class="st0" d="M228.64,436.63c-0.42,0.83-0.85,1.67-1.27,2.5C227.79,438.3,228.22,437.47,228.64,436.63z"/>
<path class="st11" d="M392.56,183.16c-0.72,2.1-1.44,4.2-2.16,6.3C391.12,187.36,391.84,185.26,392.56,183.16z"/>
<path class="st11" d="M394.24,164.44c-0.25,1.41-0.5,2.82-0.74,4.23C393.74,167.25,393.99,165.85,394.24,164.44z"/>
<path class="st20" d="M262.61,457.95c-0.84-2.37-2.31-4.7-2.43-7.11c-0.67-13.66-1.02-27.33-1.49-41.13
	c-7.39,2.05-7.24,1.05-8.92-6.29c-2.78-12.1,6.2-21.38,6.41-32.62c0.03-1.53,2.57-3.02,3.95-4.53c0.4,0.41,0.81,0.81,1.21,1.22
	c-0.78,6.74-1.37,13.5-2.39,20.2c-0.86,5.69,1.77,10.03,7.45,11.36c-0.73,2.78-1.79,5.53-2.11,8.36c-0.37,3.24-0.09,6.56-0.09,9.84
	c0.76,0.07,1.53,0.14,2.29,0.21c0.63-1.75,1.26-3.49,1.88-5.24c0.45-0.06,0.9-0.12,1.35-0.18c0.16,2.73,0.32,5.47,0.48,8.2
	c-0.83,2.35-2.94,5.18-2.28,6.98c4.27,11.49,5.15,24.41,14.06,34.03c0.81,0.87,0.51,2.77,0.72,4.19c-3.55-0.9-7.2-1.5-10.61-2.77
	C268.81,461.46,265.77,459.56,262.61,457.95z"/>
<path class="st21" d="M266.41,399.06c-5.68-1.33-8.31-5.67-7.45-11.36c1.02-6.7,1.61-13.46,2.39-20.2c1.4,0.15,2.81,0.29,3.23,0.34
	C267.02,378.48,269.58,388.69,266.41,399.06z"/>
<path class="st24" d="M375.64,328.88c0.46-0.5,0.92-0.99,1.37-1.49c1.61,0.4,3.22,0.8,4.82,1.2c1.67,0.33,3.33,0.66,5,0.99
	c2.22-0.38,4.44-0.75,6.66-1.13c2.39-0.05,4.77-0.11,7.16-0.16c0.9-0.22,1.81-0.44,2.71-0.66c0,0,0.56,0.17,0.56,0.17l0.58-0.03
	c0.6,1.08,1.2,2.15,1.8,3.23c1.09-0.93,2.17-1.86,3.26-2.79c2.5-0.16,5.01-0.32,7.51-0.48c0.6,0.67,1.2,1.33,1.8,2
	c0.6-0.84,1.21-1.68,1.81-2.52c0.43-0.4,0.85-0.79,1.28-1.19c3.03,0.66,6.06,1.32,9.08,1.98c1.22,0.21,2.45,0.42,3.67,0.63
	c1.71,1.3,3.31,3.49,5.16,3.73c4.08,0.54,8.29,0.1,12.44,0.06c0.44,5.15,0.19,8.3-6.67,5.09c-2.8-1.31-7.24,0.88-10.93,1.48
	c-2-0.88-3.99-2.51-6-2.53c-18.12-0.2-36.24-0.11-54.35-0.11C374.79,333.85,375.21,331.36,375.64,328.88z"/>
<path class="st21" d="M246.16,469.16c3.38-0.36,6.77-0.73,10.15-1.09c0.37,1.99,0.74,3.98,1.11,5.97c-3.66,0.1-7.37,0.57-10.97,0.12
	c-1.46-0.18-2.67-2.38-3.99-3.65c0.78-0.08,1.56-0.17,2.34-0.25c0.46-0.35,0.92-0.71,1.37-1.06L246.16,469.16z"/>
<path class="st17" d="M246.18,469.2c-0.46,0.35-0.91,0.71-1.37,1.06C245.26,469.9,245.72,469.55,246.18,469.2z"/>
<path class="st11" d="M256.31,60.21c-1.5,4.72-4.14,2.03-5.67,0.43c-1.2-1.26-1.24-3.6-1.8-5.46
	C251.33,56.85,253.82,58.53,256.31,60.21z"/>
<path class="st11" d="M245.1,46.32c-1.27,1.74-2.55,3.47-3.82,5.21c-0.02-1.27-0.04-2.53-0.06-3.8c0.02-0.83,0.04-1.66,0.06-2.49
	c0.7-0.77,1.41-1.54,2.11-2.31C243.95,44.05,244.52,45.18,245.1,46.32z"/>
<path class="st11" d="M243.7,62.78c-0.84-0.43-1.68-0.85-2.52-1.28c0.02-0.83,0.04-1.66,0.06-2.49
	C242.06,60.27,242.88,61.52,243.7,62.78z"/>
<path class="st11" d="M248.74,51.5c-0.8-1.29-1.59-2.58-2.39-3.86C247.15,48.92,247.94,50.21,248.74,51.5z"/>
<path class="st15" d="M241.27,45.23c-0.02,0.83-0.04,1.66-0.06,2.49C241.23,46.89,241.25,46.06,241.27,45.23z"/>
<path class="st2" d="M259.68,104.54c-1.27-4.41-2.54-8.82-3.82-13.23c0.45-0.1,0.9-0.19,1.34-0.29c1.1,0.35,3.15,0.72,3.14,1.06
	C260.3,96.24,259.95,100.39,259.68,104.54z"/>
<path class="st2" d="M259.27,107.27c0.33-0.13,0.67-0.24,1.02-0.31c0.75,1.12,1.5,2.24,2.26,3.37c-0.78,0.24-1.56,0.47-2.35,0.71
	c0,0-0.09-0.13-0.09-0.13C259.83,109.69,259.55,108.48,259.27,107.27z"/>
<path class="st3" d="M249.4,111.59c0.81-0.07,8.49-1.78,9.3-1.85c0.5,0.42,1,0.85,1.49,1.27c-0.89,0.45-0.74,1.9-1.62,2.36
	C258.15,112.56,249.83,112.4,249.4,111.59z"/>
<path class="st11" d="M259.27,107.27c0.28,1.21,0.56,2.42,0.85,3.63c-0.9-0.23-1.8-0.47-2.7-0.7
	C258.03,109.23,258.65,108.25,259.27,107.27z"/>
<path class="st0" d="M262.61,457.95c3.15,1.6,6.2,3.5,9.49,4.73c3.41,1.27,7.06,1.87,10.61,2.77c0.05,0.82,0.11,1.64,0.16,2.45
	c-3.33,0.39-6.67,1.09-10.01,1.09c-3.84,0-7.68-0.63-11.52-0.99C261.77,464.66,262.19,461.3,262.61,457.95z"/>
<path class="st5" d="M48.7,397.48c0.36,2.51,0.72,5.03,1.08,7.54c-3.95,0-7.96,0.44-11.81-0.15c-3.26-0.51-6.33-2.22-9.25-4.31
	C35.21,395.73,42.17,398.29,48.7,397.48z"/>
<path class="st4" d="M385.28,240.94c-0.32-0.38-0.63-0.76-0.95-1.14c0.64-1.32,1.28-2.63,1.92-3.95
	C385.92,237.54,385.6,239.24,385.28,240.94z"/>
<path class="st0" d="M382.5,238.15c0,0-0.05-0.53-0.05-0.52C382.46,237.63,382.5,238.15,382.5,238.15z"/>
<path class="st19" d="M122.19,394.38c0.19-1.07,0.37-2.14,0.56-3.2c0.45-0.88,1.32-1.77,1.28-2.62c-0.45-9.44-1.05-18.88-1.61-28.32
	c0.77-0.15,1.54-0.3,2.31-0.46c0.64,2.45,1.63,4.87,1.86,7.36c0.57,6.26,0.94,12.55,1.09,18.84c0.11,4.5,2.44,5.76,6.44,5.26
	c-0.02,0.79-0.04,1.58-0.06,2.38c-0.61,1.18-1.21,2.37-1.82,3.55C128.89,396.24,125.54,395.31,122.19,394.38z"/>
<path class="st19" d="M111.66,394.25c1.2,0.17,2.4,0.34,3.6,0.51c-1.15,0.44-2.29,0.88-3.43,1.31
	C111.77,395.46,111.71,394.85,111.66,394.25z"/>
<path class="st10" d="M382.8,77.42c4.61-0.17,9.23-0.35,13.84-0.52c1.15,1.13,2.3,2.25,3.45,3.38c-4.58,1.81-9.32,3.28-13.66,5.55
	c-2.35,1.23-3.98,3.8-5.94,5.77c-0.65,0.27-1.3,0.53-1.95,0.8c-1.97-0.02-4.04-0.44-5.89,0.02c-5.14,1.29-10.18,2.94-15.26,4.45
	c0,0-0.06-0.04-0.06-0.04c-0.79-0.19-1.58-0.38-2.36-0.57c-5.45,1.13-10.9,2.27-16.35,3.4c0,0-0.09-0.06-0.09-0.06
	c-0.93-2.81-1.86-5.61-2.79-8.42c-0.24-1.24-0.49-2.48-0.73-3.71c6.67-6.93,14.89-9.08,24.27-8.27c2.81,0.24,5.71-0.59,8.57-0.94
	c2.11,0.66,4.23,1.32,6.34,1.98C377.07,79.3,379.93,78.36,382.8,77.42z"/>
<path class="st6" d="M374.2,80.25c-2.11-0.66-4.23-1.32-6.34-1.98C369.97,78.93,372.09,79.59,374.2,80.25z"/>
<path class="st13" d="M449.13,328.29c0.61,0.25,1.23,0.5,1.84,0.75c0.45,1.12,0.91,2.25,1.36,3.37c-4.16,0.04-8.36,0.48-12.44-0.06
	c-1.85-0.24-3.45-2.43-5.16-3.73c1.69,0.08,3.37,0.17,5.06,0.25c1.18-0.11,2.36-0.23,3.54-0.34c0,0-0.04,0.02-0.04,0.02
	C445.23,328.45,447.18,328.37,449.13,328.29z"/>
<path class="st8" d="M96.72,187.99c0.01-4.62,0.02-9.24,0.03-13.87c0.58,0,1.16,0,1.75,0c0.56,4.44,1.28,8.87,1.64,13.33
	c0.31,3.94,0.21,7.91,0.29,11.86c-0.19,5.37-0.38,10.74-0.56,16.11c-1.01,0-2.02-0.01-3.04-0.01
	C96.79,206.27,96.75,197.13,96.72,187.99z"/>
<path class="st9" d="M94.92,170.27c0,3.34,0,6.69,0,10.03c-1.07,0-2.14-0.01-3.21-0.01c0-3.37,0-6.73,0-10.1
	C92.78,170.21,93.85,170.24,94.92,170.27z"/>
<path class="st9" d="M112.74,253.19c1.24,9.64,2.48,19.27,3.73,28.91c-5.38,1.7,0.5,5.25-1.24,7.55c-1.25-2.83-3.16-5.55-3.63-8.51
	c-1.16-7.27-1.78-14.63-2.36-21.98c-0.15-1.93-1.84-15.51-1.47-17.48c0.83-0.01,2.85-1.86,3.68-1.88L112.74,253.19z"/>
<path class="st8" d="M115.22,289.65c1.74-2.3-4.14-5.85,1.24-7.55c0.52,1.67,1.04,3.35,1.57,5.02c0.27,8.34,0.53,16.68,0.8,25.02
	c-1.02-0.02-2.04-0.03-3.06-0.05C115.58,304.61,115.4,297.13,115.22,289.65z"/>
<path class="st17" d="M338.62,99.66c5.45-1.13,10.9-2.27,16.34-3.4c0.79,0.19,1.58,0.38,2.37,0.57c0,0,0.06,0.04,0.06,0.04
	c0.05,0.36,0.12,0.73,0.21,1.09c-6.12,1.34-12.24,2.69-18.37,4.03C339.03,101.21,338.82,100.44,338.62,99.66z"/>
<path class="st17" d="M335.74,91.18c0.93,2.81,1.86,5.61,2.79,8.42C334.3,97.89,334.71,94.64,335.74,91.18z"/>
<path class="st15" d="M422.41,144.41c1.26,5.32,2.51,10.65,3.77,15.97c0.16,1.49,0.32,2.97,0.49,4.46c0.11,1.5,0.23,2.99,0.34,4.49
	c-1.25-0.35-2.51-0.69-3.76-1.04c-1.68-7.13-7.49-13.35-4.75-21.46c-0.47-0.82-0.94-1.64-1.4-2.45c0,0,0,0,0,0
	c-0.36-1.25-0.72-2.5-1.07-3.75c-0.55-1.66-1.1-3.33-1.65-4.99c-0.23-5.01-0.45-10.03-0.68-15.04c1.04,0,2.08,0,3.12,0"/>
<path class="st23" d="M416.81,120.59c-1.04,0-2.08,0-3.12,0c-0.12-2.91-0.25-5.83-0.37-8.74c0.9-1.27,1.8-2.55,2.71-3.82
	C419.71,112,419.8,116.2,416.81,120.59z"/>
<path class="st6" d="M357.6,97.96c-0.09-0.36-0.16-0.72-0.21-1.09c5.08-1.51,10.12-3.16,15.26-4.45c1.85-0.46,3.92-0.04,5.89-0.02
	C371.56,94.25,364.58,96.11,357.6,97.96z"/>
<path class="st14" d="M198.53,474.21c-0.88,0.01-1.75,0.03-2.63,0.04c0.4-3.31,0.79-6.61,1.19-9.92c2.29-0.84,4.52-1.92,6.87-2.46
	c2.76-0.63,4.97,0.02,4.58,3.63C202.88,465.74,199.5,468.6,198.53,474.21z"/>
<path class="st8" d="M412.43,135.67c0.6,5.03,1.21,10.06,1.81,15.09c-1.57-0.03-3.13-0.07-4.7-0.1c-0.06-4.59-0.12-9.19-0.18-13.78
	c-0.89-9.13-1.77-18.25-2.66-27.38c1.77,2.41,3.54,4.83,5.31,7.24C412.16,123.06,412.29,129.36,412.43,135.67z"/>
<path class="st23" d="M405.41,324.7c-1.14-21.86-2.31-43.72-3.34-65.58c-0.09-1.94,0.81-3.92,1.25-5.88
	c0.61-0.35,1.21-0.7,1.82-1.05c1.06,24.28,2.12,48.56,3.18,72.84C407.34,324.92,406.38,324.81,405.41,324.7z"/>
<path class="st19" d="M400.92,205.41c-0.64-6.15-1.32-12.29-1.89-18.44c-0.07-0.78,0.42-1.62,0.65-2.43
	c1.45,0.36,2.9,0.73,4.34,1.09c0.36,15.07,0.72,30.13,1.09,45.2c-0.67-0.04-1.35-0.08-2.02-0.11c0.06-2.89,0.12-5.78,0.19-8.66
	c0-3.08,0.01-6.17,0.01-9.25C402.5,210.34,401.71,207.87,400.92,205.41z"/>
<path class="st19" d="M399.09,173.56c0.13-5.98,0.26-11.96,0.39-17.94c1.94,0.38,3.88,0.77,5.82,1.15c-0.33,7.58-0.67,15.16-1,22.74
	c-0.63-4.59-1.27-9.19-1.9-13.78c-0.69,0-1.38,0-2.07-0.01C399.92,168.33,399.5,170.95,399.09,173.56z"/>
<path class="st11" d="M405.3,156.77c-1.94-0.38-3.88-0.77-5.82-1.15c0.87-7.9,1.74-15.79,2.62-23.69c0.8-0.08,1.61-0.15,2.41-0.23
	c0.33,2.15,0.67,4.29,1,6.44C405.44,144.35,405.37,150.56,405.3,156.77z"/>
<path class="st11" d="M399.09,173.56c0.41-2.61,0.82-5.22,1.23-7.83c0.69,0,1.38,0,2.07,0.01c0.63,4.59,1.27,9.19,1.9,13.78
	c-0.09,2.04-0.18,4.08-0.26,6.12c-1.45-0.36-2.9-0.73-4.34-1.09c-0.04-0.45-0.09-0.9-0.13-1.35c-0.11-1.73-0.23-3.46-0.34-5.19
	C399.18,176.52,399.14,175.04,399.09,173.56z"/>
<path class="st0" d="M403.1,230.72c0.67,0.04,1.35,0.08,2.02,0.11c0.01,4.13,0.02,8.27,0.03,12.4c0.04,0.57,0.07,1.14,0.11,1.72
	c-0.04,2.41-0.08,4.83-0.13,7.24c-0.61,0.35-1.21,0.7-1.82,1.05C403.24,245.73,403.17,238.22,403.1,230.72z"/>
<path class="st14" d="M405.41,324.7c0.97,0.11,1.94,0.21,2.9,0.32c0.42,1.06,0.84,2.12,1.25,3.18c-1.09,0.93-2.17,1.86-3.26,2.79
	c-0.6-1.08-1.2-2.15-1.8-3.23c0.02-0.89,0.03-1.78,0.05-2.67C404.81,324.9,405.09,324.76,405.41,324.7z"/>
<path class="st23" d="M403.51,212.1c0,3.08-0.36,15.53-0.37,18.61c-0.77-3.08-1.44-22.81-2.21-25.9
	C401.71,204.81,402.74,212.1,403.51,212.1z"/>
<path class="st14" d="M400.65,328.29c-2.39,0.05-4.78,0.11-7.16,0.16C395.88,328.39,398.27,328.34,400.65,328.29z"/>
<path class="st23" d="M404.56,325.09c-0.02,0.89-0.03,1.78-0.05,2.67c0,0-0.58,0.03-0.58,0.03s-0.56-0.17-0.56-0.17
	C403.76,326.78,404.16,325.94,404.56,325.09z"/>
<path class="st19" d="M79.16,377.68c-0.75-0.02-1.5-0.04-2.25-0.06c-0.9-15.58-1.59-31.15,2.05-46.53c0.5-0.23,1.01-0.47,1.51-0.7
	c-0.48-0.26-0.96-0.52-1.44-0.78c0.31-10.42,0.61-20.83,0.92-31.25c0.77,0.07,1.54,0.13,2.31,0.2
	C81.22,324.93,80.19,351.3,79.16,377.68z"/>
<path class="st19" d="M57.45,357.48c-0.09-1.39,1.16-2.47,1.07-3.86c0.48-1.26,0.96-2.53,1.43-3.79c-0.47-1.66-0.94-3.31-1.4-4.97
	c1.51-13.7,2.99-27.41,4.53-41.11c0.62-5.54,1.36-11.06,2.04-16.59c0.87-0.46,1.74-0.92,2.61-1.38
	c-2.29,23.83-4.58,47.66-6.87,71.49C60.18,357.44,58.14,357.3,57.45,357.48z"/>
<path class="st9" d="M93.79,199.23c-2.1,21.14-4.18,42.28-6.36,63.42c-0.11,1.06-0.99,2.05-1.5,3.07c-1.06,0.43-2.13,0.86-3.2,1.3
	c2.61-22.62,5.21-45.23,7.82-67.85C91.62,199.19,92.71,199.21,93.79,199.23z"/>
<path class="st25" d="M67.74,285.77c-0.87,0.46-1.74,0.92-2.61,1.38c1.57-8.83,3.18-17.66,4.7-26.5c0.99-5.76,3.44-17.73,4.36-23.5
	c3.17-0.45,2.54,6.96,1.78,10.08c-0.91,3.72-1.55,7.52-2.2,11.3c-1.47,8.49-2.85,17-4.37,25.49
	C69.28,284.68,68.31,285.19,67.74,285.77z"/>
<path class="st9" d="M73.89,239.37c1.53-8.77,3.05-17.53,4.58-26.3c0.9-1.51,1.8-3.03,2.69-4.54c0.67,0.52,1.34,1.04,2.01,1.55
	c-1.95,8.51-3.79,17.05-5.96,25.5C76.84,237.04,75.03,238.12,73.89,239.37z"/>
<path class="st23" d="M53.53,386.12c0.88-7.51,1.76-15.01,2.64-22.52c0.95-0.43,1.9-0.86,2.85-1.28
	c-0.59,7.95-1.17,15.91-1.76,23.86C56.02,386.16,54.77,386.14,53.53,386.12z"/>
<path class="st25" d="M82.25,298.55c-0.77-0.07-1.54-0.13-2.31-0.2c0.81-5.43,1.61-10.87,2.42-16.3c0.87-0.03,1.74-0.05,2.61-0.08
	C84.06,287.5,83.16,293.02,82.25,298.55z"/>
<path class="st19" d="M93.79,199.23c-1.08-0.02-2.16-0.04-3.24-0.06c-0.11-3.74-0.23-7.48-0.35-11.22c0-1.85,1.39-8.1,1.39-9.95
	c0.53-0.06,4.26,1.68,3.26,1.77c2.05,1.63-1.5,7.17-0.73,9.53C94,192.6,93.89,195.91,93.79,199.23z"/>
<path class="st19" d="M84.97,281.97c-0.87,0.03-1.74,0.05-2.61,0.08c0.12-5.01,0.24-10.02,0.37-15.03c1.07-0.43,2.14-0.86,3.2-1.3
	C85.61,271.14,85.29,276.55,84.97,281.97z"/>
<path class="st9" d="M59.02,362.31c-0.95,0.43-1.9,0.86-2.85,1.28c0.89-1.94,0.37-4.3,1.25-6.23c0.68-0.17,2.77,0.07,3.46-0.11
	C60.25,358.94,59.63,360.63,59.02,362.31z"/>
<path class="st25" d="M79.02,329.6c0.48,0.26,0.96,0.52,1.44,0.78c-0.5,0.23-1.01,0.47-1.51,0.7C78.98,330.59,79,330.09,79.02,329.6
	z"/>
<path class="st9" d="M99.76,304.5c0.08,7.13,0.16,14.26,0.24,21.39c-0.39,2.13-0.77,4.26-1.16,6.39c-1.43-0.36-2.86-0.72-4.28-1.09
	c0.99-8.86,1.98-17.72,2.97-26.57C98.27,304.58,99.01,304.54,99.76,304.5z"/>
<path class="st9" d="M97.79,353.65c-0.16,10.46-0.32,20.92-0.48,31.38c-0.77-0.06-1.55-0.12-2.32-0.19
	c-0.06-4.81-0.1-9.61-0.19-14.42c-0.11-5.67-0.28-11.34-0.42-17.01C95.51,353.49,96.65,353.57,97.79,353.65z"/>
<path class="st8" d="M97.79,353.65c-1.14-0.08-2.28-0.16-3.42-0.24c0.06-7.41,0.12-14.81,0.18-22.22c1.43,0.36,2.86,0.72,4.29,1.09
	c0.17,1.66,0.34,3.32,0.51,4.98C98.83,342.72,98.31,348.19,97.79,353.65z"/>
<path class="st25" d="M100.32,243.16c-0.12,6.32-0.24,12.65-0.35,18.97c-0.83-0.04-1.66-0.09-2.49-0.13
	c0.07-6.28,0.14-12.57,0.21-18.85C98.56,243.16,99.44,243.16,100.32,243.16z"/>
<path class="st19" d="M97.48,262c0.83,0.04,1.66,0.09,2.49,0.13c-0.03,8.75-0.06,17.5-0.09,26.25c-0.79-0.02-1.57-0.05-2.36-0.07
	C97.5,279.54,97.49,270.77,97.48,262z"/>
<path class="st19" d="M100.32,243.16c-0.88,0-1.76,0-2.63-0.01c0.03-5.43,0.06-10.86,0.09-16.28c0.79-0.41,1.57-0.82,2.36-1.23
	c0.61,2.92,1.22,5.85,1.83,8.77C101.42,237.32,100.87,240.24,100.32,243.16z"/>
<path class="st8" d="M97.52,288.31c0.79,0.02,1.57,0.05,2.36,0.07c-0.04,5.37-0.08,10.75-0.12,16.12c-0.74,0.04-1.49,0.08-2.23,0.12
	C97.52,299.18,97.52,293.75,97.52,288.31z"/>
<path class="st9" d="M100.14,225.64c-0.79,0.41-1.57,0.82-2.36,1.23c-0.32-3.82-0.64-7.64-0.95-11.46c1.01,0,2.03,0.01,3.04,0.01
	C99.95,218.83,100.04,222.24,100.14,225.64z"/>
<path class="st12" d="M243.76,414.05c-0.85-2.51-1.71-5.01-2.56-7.52C242.05,409.03,242.9,411.54,243.76,414.05z"/>
<path class="st27" d="M58.55,344.85c0.47,1.66,0.94,3.31,1.4,4.97c-0.8,0.07-1.6,0.14-2.4,0.21
	C57.89,348.3,58.22,346.57,58.55,344.85z"/>
<path class="st9" d="M57.55,350.03c0.8-0.07,1.6-0.14,2.4-0.21c-0.48,1.26-1.55,4.92-2.03,6.19
	C57.61,354.81,57.88,351.22,57.55,350.03z"/>
<path class="st19" d="M402,132.33c0.61-2.77,1.16-24.04,1.77-26.82c0.48,0,1.18,3.53,1.66,3.53c0.26,5.74,0.43,22.11,0.69,27.85
	c-0.2,0.41-0.4,0.82-0.6,1.24"/>
<path class="st8" d="M421.97,326.01c0.13-6.61,0.25-13.21,0.38-19.82c1.05,0,2.1,0,3.15-0.01c0.09,4.32-0.45,8.79,0.49,12.92
	c0.72,3.18,3.31,5.94,5.07,8.88C428.02,327.32,425,326.67,421.97,326.01z"/>
<path class="st14" d="M417.08,327.72c1.21-0.17,2.41-0.35,3.62-0.52c-0.6,0.84-1.21,1.68-1.81,2.52
	C418.28,329.05,417.68,328.38,417.08,327.72z"/>
<path class="st15" d="M122.42,360.24c-0.7-5.99-1.4-11.97-2.1-17.96c1.11,0.05,2.22,0.11,3.33,0.16c0.36,5.78,0.72,11.56,1.08,17.34
	C123.96,359.94,123.19,360.09,122.42,360.24z"/>
<path class="st6" d="M356.81,119.24c-0.73-0.35-1.47-0.7-2.2-1.05C355.35,118.54,356.08,118.89,356.81,119.24z"/>
<path class="st15" d="M442.67,301.08c-0.93-3.38-2.33-6.72-2.72-10.16c-1.7-14.84-3.11-29.71-4.63-44.58
	c1.46,0.74,2.93,1.47,4.39,2.21c1.12,9.08,2.29,18.16,3.36,27.24c1,8.46,1.9,16.93,2.85,25.4
	C444.84,301.15,443.75,301.12,442.67,301.08z"/>
<path class="st23" d="M417.07,225.93c-0.37-2.8-0.78-5.59-1.09-8.4c-0.54-4.88-1.29-9.75-1.47-14.64
	c-0.24-6.47-0.02-12.95,0.01-19.43c0.61-1.93,1.22-3.87,1.83-5.8c0.53,6.02,1.06,12.03,1.59,18.05c0.35,1.21,0.71,2.41,1.07,3.62
	c-0.12,1.74-0.24,3.47-0.36,5.21c-0.11,6.48-0.22,12.96-0.34,19.45C417.9,224.63,417.48,225.28,417.07,225.93z"/>
<path class="st23" d="M425.49,306.18c-1.05,0-2.1,0-3.15,0.01c-0.76-8.01-1.52-16.02-2.28-24.03c1.01-1.17,2.02-2.34,3.03-3.51
	C423.89,287.83,424.69,297.01,425.49,306.18z"/>
<path class="st0" d="M423.09,278.65c-1.01,1.17-2.02,2.34-3.03,3.51c-0.12-11.21-0.24-22.43-0.35-33.64
	c0.86-0.46,1.73-0.91,2.59-1.37C422.56,257.65,422.83,268.15,423.09,278.65z"/>
<path class="st15" d="M422.3,247.15c-0.86,0.46-1.73,0.91-2.59,1.37c-0.88-7.53-1.76-15.06-2.64-22.59
	c0.41-0.65-0.07-2.66,0.35-3.31c0.83-0.15,0.79-23.61,1.62-23.76C419.53,206.73,421.8,239.28,422.3,247.15z"/>
<path class="st11" d="M409.71,153.13c-0.05-0.82-0.11-1.64-0.16-2.47c1.57,0.03,3.13,0.07,4.7,0.1c0.04,2.46,0.07,4.92,0.11,7.38
	c-0.11,1.26-0.23,2.52-0.34,3.79c-0.09,1.6-0.18,3.2-0.27,4.79c-1.22,0.02-2.44,0.03-3.67,0.05c0.06-1.83,0.13-3.67,0.19-5.51
	C410.08,158.56,409.89,155.84,409.71,153.13z"/>
<path class="st14" d="M434.27,205.82c0.23,4.07,0.46,8.14,0.69,12.21c-0.72,0.98-1.43,1.96-2.15,2.93
	c-0.75-6.26-1.5-12.52-2.25-18.78c0.96-0.05,1.93-0.09,2.89-0.14c0,0,0.1-0.04,0.1-0.04C433.8,203.28,434.03,204.55,434.27,205.82z"
	/>
<path class="st11" d="M428.75,175.46c0.44,1.21,1.54,8.54,1.98,9.75c0.07,0.49,0.14,0.99,0.21,1.48c0.21,3.05,0.43,6.1,0.64,9.15
	c-1.01-0.01-2.03-0.02-3.04-0.03c-0.64-4.08-3.13-13.77-3.77-17.85C425.7,177.29,427.82,176.13,428.75,175.46z"/>
<path class="st4" d="M432.81,220.97c0.72-0.98,1.43-1.96,2.15-2.93c1,6.12,1.99,12.24,2.99,18.36c-0.63,0.01-1.26,0.02-1.89,0.04
	C434.98,231.28,433.89,226.12,432.81,220.97z"/>
<path class="st11" d="M442.67,301.08c1.08,0.04,2.17,0.07,3.25,0.11c0.11,5.22,0.23,10.44,0.34,15.66
	c-0.75,1.06-1.49,2.12-2.24,3.18C443.57,313.71,443.12,307.4,442.67,301.08z"/>
<path class="st11" d="M416.35,177.66c-0.61,1.93-1.22,3.87-1.83,5.8c-1.25-2.99-2.51-5.97-3.76-8.96c1.15-1.63,2.3-3.26,3.44-4.89
	C414.92,172.29,415.63,174.98,416.35,177.66z"/>
<path class="st19" d="M423.25,168.29c1.25,0.35,2.51,0.69,3.76,1.04c0.57,2.18,1.14,4.37,1.7,6.55c-1.31,1.07-2.61,2.14-3.91,3.22
	C424.28,175.49,423.77,171.89,423.25,168.29z"/>
<path class="st11" d="M449.13,328.29c-1.95,0.08-3.9,0.17-5.85,0.25c0.59-1.6,1.18-3.21,1.77-4.81c0.91-0.91,1.83-1.82,2.74-2.72
	C448.23,323.43,448.68,325.86,449.13,328.29z"/>
<path class="st8" d="M414.2,169.61c-1.15,1.63-2.3,3.26-3.44,4.89c-0.23-2.57-0.46-5.15-0.69-7.72c1.22-0.02,2.45-0.03,3.67-0.05
	C413.89,167.69,414.04,168.65,414.2,169.61z"/>
<path class="st14" d="M428.54,195.81c1.01,0.01,2.03,0.02,3.04,0.03c0.21,1.24,0.42,2.48,0.63,3.71c-0.94,0.05-1.89,0.09-2.83,0.14
	C429.09,198.4,428.82,197.11,428.54,195.81z"/>
<path class="st15" d="M447.78,321.01c-0.91,0.91-1.83,1.82-2.74,2.72c-0.34-1.24-0.68-2.47-1.02-3.71c0.74-1.06,1.49-2.12,2.23-3.18
	C446.77,318.23,447.28,319.62,447.78,321.01z"/>
<path class="st11" d="M429.37,199.7c0.94-0.05,1.89-0.09,2.83-0.14c0.42,0.83,0.83,1.66,1.25,2.49c-0.96,0.05-1.93,0.09-2.89,0.14
	C430.17,201.36,429.77,200.53,429.37,199.7z"/>
<path class="st26" d="M419.01,199.33c-0.36-1.21-0.71-2.41-1.07-3.62C418.3,196.92,418.65,198.12,419.01,199.33z"/>
<path class="st23" d="M417.1,144.38c0.47,0.82,0.94,1.64,1.4,2.45C418.03,146.01,417.56,145.2,417.1,144.38z"/>
<path class="st8" d="M414.01,161.93c0.11-1.26,0.23-2.52,0.34-3.79C414.24,159.41,414.12,160.67,414.01,161.93z"/>
<path class="st4" d="M434.27,205.82c-0.24-1.27-0.47-2.54-0.71-3.81C433.8,203.28,434.03,204.55,434.27,205.82z"/>
<path class="st23" d="M416.02,140.62c0.36,1.25,0.72,2.5,1.07,3.75C416.73,143.12,416.38,141.87,416.02,140.62z"/>
<path class="st11" d="M443.32,328.52c-1.18,0.11-2.36,0.23-3.54,0.34C440.96,328.75,442.14,328.64,443.32,328.52z"/>
<path class="st27" d="M436.06,236.43c0.63-0.01,1.26-0.03,1.89-0.04C437.32,236.41,436.69,236.42,436.06,236.43z"/>
<path class="st8" d="M117.89,333.47c-0.4-5.83-0.79-11.67-1.19-17.5c1.37,0.84,2.75,1.68,4.12,2.53c-0.02,1.78-0.04,3.55-0.06,5.33
	C119.81,327.03,118.85,330.25,117.89,333.47z"/>
<path class="st19" d="M117.89,333.47c0.96-3.22,1.92-6.44,2.88-9.65c0.96,6.21,1.92,12.42,2.88,18.62
	c-1.11-0.05-2.22-0.11-3.33-0.16C119.51,339.34,118.7,336.41,117.89,333.47z"/>
<path class="st19" d="M120.82,318.49c-1.37-0.84-2.75-1.68-4.12-2.53c-0.31-1.29-0.63-2.58-0.94-3.87c1.02,0.02,2.04,0.03,3.06,0.05
	C119.49,314.26,120.16,316.37,120.82,318.49z"/>
<path class="st27" d="M98.84,332.28c0.39-2.13,0.77-4.26,1.16-6.39"/>
<path class="st27" d="M99.35,337.26"/>
<path class="st19" d="M405.15,243.23c0.04,0.57,0.07,1.14,0.11,1.72C405.22,244.38,405.19,243.8,405.15,243.23z"/>
<path class="st8" d="M409.71,153.13c0.19,2.71,0.37,5.43,0.55,8.14C410.07,158.56,409.89,155.84,409.71,153.13z"/>
<path class="st15" d="M120.12,285.04c-1.45-8-5.72-25.55-6.6-31.59c-0.05-0.35,0.22-0.64,0.57-0.65c0.74-0.02,1.5-0.11,2.23-0.12
	c0.3,0,0.54,0.23,0.57,0.53c0.56,6.15,4.66,22.48,5.13,28.36c0.01,0.15-0.05,0.29-0.14,0.41c-0.3,0.41-0.46,1.76-0.62,3.03
	C121.17,285.66,120.24,285.69,120.12,285.04z"/>
<path class="st19" d="M82.65,212.69c-1.08-0.02-3.45,2.38-4.52,2.35c0.7-3.57,1.47-5.6,2.35-7.25c1.09-4.65,1.97-7.6,2.24-9.23
	c-0.07-0.37,3.65,1.81,3.88,2.45c-0.4,1.62-1.56,3.03-2.34,5.61C83.2,209.75,83.57,209.31,82.65,212.69z"/>
<path class="st6" d="M262.9,284.77"/>
<path class="st6" d="M262.61,313.32c-3.88,2.21-3.14-41.94-5.83-40.41c0-6.35,0-12.7,0-19.05c6.62-0.82,5.05,4.52,6.57,9.87"/>
<path class="st19" d="M439.85,249.66c-1.12,0.07-3.03-1.28-4.16-1.21c-1.8-6.33,1.65-8.35-0.15-14.68c1.18,0.44,1.02,1.03,2.21,1.47
	C439.49,241.05,438.12,243.84,439.85,249.66z"/>
</svg>
