<?xml version="1.0" encoding="utf-8"?>
<!-- Generator: Adobe Illustrator 28.0.0, SVG Export Plug-In . SVG Version: 6.00 Build 0)  -->
<svg version="1.1" id="Layer_1" xmlns="http://www.w3.org/2000/svg" xmlns:xlink="http://www.w3.org/1999/xlink" x="0px" y="0px"
	 viewBox="0 0 500 500" style="enable-background:new 0 0 500 500;" xml:space="preserve">
<style type="text/css">
	.st0{fill:#8C593E;}
	.st1{fill:#CE9D5F;}
	.st2{fill:#B07E5E;}
	.st3{fill:#BB9278;}
	.st4{fill:#AD8671;}
	.st5{fill:#8F7F82;}
	.st6{fill:#AB734D;}
	.st7{fill:#C58E44;}
	.st8{fill:#B19080;}
	.st9{fill:#C4ADA1;}
	.st10{fill:#BB772B;}
	.st11{fill:#9E705D;}
	.st12{fill:#966244;}
	.st13{fill:#5A3B35;}
	.st14{fill:#896759;}
	.st15{fill:#9D7A69;}
	.st16{fill:#70432A;}
	.st17{fill:#9D6035;}
	.st18{fill:#917672;}
	.st19{fill:#B4988E;}
	.st20{fill:#874D2F;}
	.st21{fill:#773A1B;}
	.st22{fill:#6F5D61;}
	.st23{fill:#A9887A;}
	.st24{fill:#574556;}
	.st25{fill:#D3C0BA;}
	.st26{fill:#F7F3F1;}
	.st27{fill:#E9E0DB;}
</style>
<path class="st0" d="M321.99,140.89c-4.92-1.13-9.84-2.26-14.76-3.38c-2.03-0.67-4.05-1.33-6.08-2c-2.33-0.9-4.66-1.81-6.99-2.71
	c0.02-0.4,0.11-0.79,0.25-1.16c0.87-3.23,1.74-6.45,2.62-9.68c1.77-3.58,3.84-7.06,5.16-10.8c0.47-1.31-0.87-3.27-1.38-4.93
	c-0.9,0.55-1.8,1.11-2.71,1.66c0,0-0.04,0.02-0.04,0.02c-0.4-0.11-0.79-0.22-1.19-0.34c0.3-1.55,0.6-3.09,0.9-4.64
	c4.56,1.15,9.12,2.3,13.67,3.46c2.38,0.93,4.75,1.85,7.13,2.78c3.58,1.1,7.17,2.2,10.75,3.29c1.2,0.48,2.4,0.96,3.61,1.44
	c0.75,0.55,1.5,1.11,2.24,1.66c-0.19,0.69-0.39,1.37-0.58,2.06c-1.88,0.84-4.89,1.23-5.45,2.61
	C326.41,126.97,324.32,133.97,321.99,140.89z"/>
<path class="st1" d="M237.99,88.88c1.56,0.48,3.12,0.97,4.68,1.45c0.45,1.58,0.91,3.15,1.37,4.73c-0.85,3.67-1.7,7.34-2.54,11.01
	c-0.16,0.36-0.21,0.73-0.18,1.11c-0.98,1.57-1.95,3.13-2.93,4.7c-2.73-0.94-5.46-1.88-8.19-2.82c-0.76-0.67-1.51-1.89-2.3-1.92
	c-8.02-0.36-16.05-0.52-24.08-0.74c-0.84-0.27-1.68-0.54-2.52-0.81c0.89-6.98,1.79-13.97,2.68-20.95c-0.19-0.58-0.39-1.16-0.58-1.73
	c1.19-1.08,2.38-2.16,3.57-3.24c0.51,0.09,1.02,0.18,1.53,0.27c2.17,0.79,4.33,1.58,6.5,2.37c0.74,1.38,1.28,3.79,2.24,3.97
	c6.52,1.21,13.12,1.96,19.7,2.85C237.3,89.11,237.65,89.02,237.99,88.88z"/>
<path class="st2" d="M259.83,288.68c-0.01,2.51-0.03,5.02-0.04,7.53c-1.37,1.18-3.15,2.12-3.99,3.6c-1.07,1.89-1.37,4.22-2.01,6.35
	c-3.89,2.92-7.78,5.84-11.67,8.76c-0.22-1.37-0.72-2.76-0.61-4.09c0.65-7.63,2.19-15.26,2.03-22.86
	c-0.34-15.66-1.56-31.3-2.42-46.95c2.7-1.53,5.39-3.06,9.28-5.27c0.38,4.76,0.69,8.79,1.01,12.82c0.37,3.3,0.74,6.59,1.1,9.89
	c-0.53,8.55-1.07,17.09-1.6,25.64c0.69,0.06,1.39,0.11,2.08,0.17c0.69-1.46,1.37-2.93,2.06-4.39c1.23-0.44,2.47-0.89,3.7-1.33
	C259.11,281.92,259.47,285.3,259.83,288.68z"/>
<path class="st3" d="M261.26,145.61c0.13,7.08,0.26,14.15,0.39,21.23c0.32,2.11,0.64,4.23,0.95,6.34
	c-0.32,3.61-0.63,7.21-0.95,10.83c-0.87,3.74-1.65,7.49-2.62,11.19c-1.72,6.57-3.53,13.12-5.37,19.66c-0.81,2.86-1.78,5.68-2.26,7.2
	c-4.39-1.7-7.3-2.83-10.21-3.96c0.42-4.86,0.83-9.72,1.25-14.59c0.03-0.46,0.05-0.92,0.08-1.38c3.65,0.09,5.71-1.83,4.75-5.24
	c-0.45-1.58-3.05-2.56-4.67-3.81c-0.04-1.66-0.08-3.33-0.12-4.99c-0.04-4.72-0.1-9.45-0.12-14.17c-0.01-3.98,0.03-7.96,0.05-11.95
	c3.32,5.4,6.64,10.79,9.96,16.19c0.76-0.02,1.52-0.04,2.28-0.06c1.35-5.42,2.7-10.84,4.05-16.26c0.47-5.44,0.95-10.88,1.42-16.32
	C260.5,145.55,260.88,145.58,261.26,145.61z"/>
<path class="st4" d="M203.4,82.9c0.19,0.58,0.39,1.16,0.58,1.73c-6.67,3.68-4.14,11.55-7.5,16.8c-0.37,0.58,1.5,2.58,2.33,3.93
	c-1.04,0.32-2.08,0.64-3.11,0.96c-0.71-0.17-1.42-0.34-2.13-0.5c-0.95-0.24-1.91-0.48-2.86-0.72c-3.69-0.59-7.37-1.18-11.06-1.77
	c-0.09-0.89-0.19-1.78-0.29-2.67c-0.69,0.72-1.37,1.44-2.06,2.16c-4.43-1.32-8.86-2.64-13.29-3.97c0.67-0.8,1.34-1.6,2-2.4
	c1.87-0.83,4.95-1.26,5.41-2.58c1.91-5.58,3.04-11.43,4.68-18.11c0.79,0.21,2.89,1.1,5.03,1.21c1.49,0.08,3.04-0.93,4.56-1.45
	c1.33-0.06,2.65-0.12,3.98-0.18c2.01,0.62,4.02,1.25,6.03,1.87C198.27,79.1,200.84,81,203.4,82.9z"/>
<path class="st5" d="M99.22,331.08c-12.15-0.03-24.29-0.06-36.44-0.08c-0.84-0.09-1.67-0.17-2.51-0.26
	c-3.4-0.84-6.79-1.69-10.19-2.53c0.46-2.66-1.17-6.66,4.04-6.28c1.62-1.25,3.23-2.49,4.85-3.74c4.15-0.52,8.29-1.05,12.44-1.57
	c0.86,1.28,1.71,2.55,2.56,3.83c0.93-0.8,1.87-1.61,2.8-2.41c1.55-0.2,3.1-0.4,4.65-0.6c2.64-0.04,5.27-0.08,7.9-0.12
	c1.63-0.13,3.25-0.25,4.88-0.38c2.98,0.36,5.95,0.73,8.93,1.09c-1.9,5.77-0.24,10.93,4.3,13.35c-1.86,0.11-3.73,0.23-5.59,0.34
	C100.97,331.5,100.1,331.29,99.22,331.08z"/>
<path class="st1" d="M109.46,69.08c6.14-0.33,12.28-0.66,18.41-0.99c2.14,0.27,4.27,0.54,6.41,0.81c1.62,0.26,3.25,0.52,4.87,0.78
	c3.45,0.18,6.9,0.36,10.36,0.55c0.79,0.15,1.59,0.3,2.38,0.45c2.42,0.63,4.84,1.26,7.26,1.89c0.44-0.09,0.88-0.17,1.32-0.26
	c1.69,0.29,3.37,0.58,5.06,0.87c-0.08,0.48-0.16,0.97-0.24,1.45c-1.14,5.62-2.29,11.23-3.43,16.85c-2.96,1.4-5.92,2.81-8.88,4.21
	c-5.21-1.48-10.42-2.96-15.62-4.44c1.01-0.5,2-1.37,3.03-1.42c5.4-0.27,9.18-3.41,8.23-8.83c-0.36-2.07-5.06-3.53-7.94-4.95
	c-1.58-0.78-3.51-0.79-5.23-1.31c-2.39-0.72-4.7-2.1-7.12-2.29c-4.33-0.35-8.76,0.33-13.07-0.14
	C113.23,72.08,111.39,70.2,109.46,69.08z"/>
<path class="st6" d="M242.12,314.92c3.89-2.92,7.78-5.84,11.67-8.76c0,12.07,0,24.14,0,37.84c3.3-2.8,4.75-4.04,6.21-5.27
	c0.66,2.55,1.32,5.09,1.98,7.64c0.28,1.2,0.57,2.4,0.85,3.6c-1.37,0.81-2.75,1.62-4.12,2.43c-3.39,0.91-6.86,1.59-10.11,2.86
	c-1.1,0.43-1.63,2.35-2.42,3.59c-1.67,0.39-3.34,0.78-5.02,1.17c0.01-2.48,0.03-4.96,0.04-7.44c0.37-0.84,0.74-1.68,1.11-2.53
	c0.06-0.82,0.13-1.64,0.19-2.46c0.68-0.4,1.99-0.85,1.96-1.18c-0.7-7.58-1.55-15.14-2.37-22.7
	C242.11,320.77,242.12,317.85,242.12,314.92z"/>
<path class="st7" d="M109.46,69.08c1.93,1.13,3.77,3.01,5.79,3.23c4.31,0.47,8.73-0.21,13.07,0.14c2.42,0.19,4.73,1.57,7.12,2.29
	c1.72,0.52,3.66,0.54,5.23,1.31c2.88,1.42,7.58,2.88,7.94,4.95c0.95,5.42-2.83,8.56-8.23,8.83c-1.03,0.05-2.02,0.93-3.03,1.42
	c-0.78-0.03-1.56-0.06-2.34-0.09c-0.83-0.42-1.65-0.84-2.48-1.26c-5.93-4.07-11.23-9.08-19.01-9.98c-4.01-0.47-7.82-2.55-11.72-3.91
	c-0.9-0.31-1.8-0.61-2.71-0.92c-0.5-0.29-1-0.57-1.49-0.85c0.09-0.31,0.16-0.62,0.23-0.93c0.58-1.95,1.16-3.9,1.74-5.84
	c0.5-0.25,0.99-0.5,1.49-0.75c1.1,0.52,2.2,1.03,3.3,1.55c0.11,0.32,0.23,0.63,0.34,0.95c0.37-0.27,0.74-0.54,1.11-0.81
	C107.02,68.61,108.24,68.85,109.46,69.08z"/>
<path class="st2" d="M258.7,161.84c-1.35,5.42-2.7,10.84-4.05,16.26c-0.76,0.02-1.52,0.04-2.28,0.06
	c-3.32-5.4-6.64-10.79-9.96-16.19c0.43-3.4,0.86-6.8,1.28-10.19c8.96-1.76,5.68-9.66,7.54-14.97c0.01-3.27,0.32-6.57-0.03-9.8
	c-0.68-6.28,1.84-8.8,8.06-7.67c0.02,2.86,0.05,5.71,0.07,8.57c-0.21,5.51-0.42,11.01-0.62,16.52c-2.02,1.1-5.62,2-5.79,3.33
	c-0.67,5.3-0.28,10.74-0.28,16.58C255.38,163.2,257.04,162.52,258.7,161.84z"/>
<path class="st8" d="M242.52,347.59c-0.06,0.82-0.13,1.64-0.19,2.46c-0.38,0.4-0.77,0.79-1.15,1.19c-1.24,0.45-2.48,0.91-3.72,1.36
	c0.59-3.3,1.56-6.59,1.7-9.91c0.78-17.87,1.66-35.74,1.85-53.61c0.09-8.47-1.86-16.96-1.91-25.44c-0.13-20.17,0.31-40.35,0.52-60.53
	c0.94,0.14,1.89,0.27,2.83,0.41c-0.42,4.86-0.83,9.72-1.25,14.59c-0.02,1.29-0.05,2.58-0.07,3.87c0,6.35,0,12.7,0,19.05
	c0.86,15.65,2.08,31.29,2.42,46.95c0.16,7.6-1.38,15.23-2.03,22.86c-0.11,1.34,0.39,2.73,0.61,4.09c-0.01,2.92-0.01,5.85-0.01,8.78
	C242.25,331.66,242.39,339.62,242.52,347.59z"/>
<path class="st9" d="M60.37,161.34c0.12-1.2,0.23-2.41,0.34-3.61c0.3-0.88,0.6-1.76,0.89-2.64c0.41-1.63,0.82-3.26,1.23-4.88
	c0.3-0.45,0.6-0.9,0.91-1.35c2.17-7.88,4.13-15.82,6.55-23.62c3.64-11.75,7.53-23.43,11.48-35.08c0.55-1.62,2.05-2.92,3.11-4.36
	c0.59,1.32,1.18,2.63,1.78,3.95c-0.81,7.15-1.62,14.31-2.43,21.46c0.06,6.66,0.8,13.53-4.78,18.5c-0.64-0.15-1.28-0.3-1.91-0.45
	c1.4-5.75,2.79-11.51,4.19-17.26c-0.73-0.15-1.45-0.29-2.18-0.44c-2.64,8.24-5.28,16.47-7.92,24.71c-2.93,8.37-5.86,16.75-8.8,25.12
	C62.01,161.37,61.19,161.36,60.37,161.34z"/>
<path class="st10" d="M297.79,102.93c-0.3,1.55-0.6,3.09-0.9,4.64c-0.8,1.99-1.6,3.99-2.41,5.98c-0.57,1.54-1.13,3.07-1.7,4.61
	c-0.45,0.8-0.9,1.6-1.34,2.4c-0.41,1.16-0.81,2.32-1.22,3.49c-0.6,0.67-1.19,1.34-1.79,2.01c0.08,0.94,0.16,1.87,0.24,2.81
	l-0.28,0.54c-0.45,0.07-0.9,0.15-1.35,0.22c-0.67-0.24-1.34-0.48-2.01-0.72c-1.32-0.41-2.63-0.81-3.95-1.22l-0.21,0.26l0.2,0.26
	c-1.12-0.57-2.24-1.14-3.35-1.71c-1.82-4.73-0.44-8.25,3.41-11.57c1.93-1.66,2.65-4.72,4.49-8.24c-3.44,0.19-5.48,0.3-7.65,0.41
	c-0.82-2.69-1.58-5.2-2.34-7.71c0.61-0.68,1.21-1.35,1.82-2.03c0,0,0.1-0.54,0.1-0.54c6.53,1.68,13.05,3.36,19.58,5.03
	C297.34,102.22,297.57,102.57,297.79,102.93z"/>
<path class="st11" d="M237.46,352.59c1.24-0.45,2.48-0.91,3.73-1.36c0.01,0.45,0.03,0.89,0.04,1.34c-0.01,2.48-0.03,4.96-0.04,7.44
	c-0.74,3.08-1.66,6.12-2.16,9.23c-0.34,2.14,0.58,4.66-0.22,6.52c-6.31,14.81-7.3,30.29-6.35,46.07c-0.85,4.93-1.7,9.85-2.55,14.78
	c-0.42,0.01-0.84,0.02-1.27,0.03c-0.42,0.83-0.85,1.67-1.27,2.5c0,0,0-0.01,0-0.01c-0.74,0.43-1.47,0.86-2.21,1.29
	c0.89-4.88,2.15-9.72,2.62-14.64c1.94-20.75,3.62-41.53,5.49-62.29c0.14-1.57,1-3.07,1.53-4.61
	C235.69,356.79,236.57,354.69,237.46,352.59L237.46,352.59z"/>
<path class="st0" d="M385.37,222.46c0.44-2.53,0.88-5.07,1.32-7.6c0.04-0.41,0.08-0.82,0.11-1.22c0.19-1.17,0.38-2.35,0.58-3.52
	c0.12-0.47,0.25-0.94,0.37-1.41c1.01-5.94,2.03-11.88,3.04-17.81c0.81,0.1,1.61,0.19,2.42,0.29c0.28,1.64,0.56,3.28,0.84,4.93
	c0.06,1.04,0.12,2.08,0.19,3.12c-0.07,0.46-0.14,0.92-0.21,1.39c-1.92,11.86-3.83,23.73-5.75,35.59c-0.25,1.41-0.49,2.82-0.74,4.23
	c-0.31,4.83-0.62,9.66-0.94,14.49c-0.72,2.1-1.44,4.2-2.16,6.3c-0.12,2.1-0.23,4.21-0.35,6.31c-1.04-1.11-2.22-2.12-3.09-3.35
	c-0.91-1.29-1.53-2.79-2.27-4.2c2.04-12.04,4.07-24.09,6.11-36.13C385.01,223.4,385.19,222.93,385.37,222.46z"/>
<path class="st12" d="M258.72,352.39c1.37-0.81,2.75-1.62,4.12-2.43c2.5,10.79,5.54,21.5,7.3,32.41c1.14,7.08,0.4,14.45,0.51,21.7
	c-0.97,0.67-1.93,1.33-2.9,2c1.08,0.55,2.15,1.11,3.23,1.66c0.66,4.64,1.32,9.27,1.99,13.91c-0.92-0.47-1.83-0.94-2.75-1.4
	c-0.16-2.73-0.32-5.47-0.48-8.2c-0.45,0.06-0.9,0.12-1.35,0.18c-0.63,1.75-1.26,3.49-1.88,5.24c-0.76-0.07-1.53-0.14-2.29-0.21
	c0-3.28-0.28-6.6,0.09-9.84c0.32-2.83,1.38-5.57,2.11-8.36c3.17-10.37,0.62-20.57-1.83-31.22c-0.42-0.04-1.83-0.19-3.23-0.34
	c-0.4-0.41-0.81-0.82-1.21-1.22C259.66,361.65,259.19,357.02,258.72,352.39z"/>
<path class="st13" d="M354.57,410.85c-0.59-0.32-1.18-0.64-1.76-0.97c0.66-1.36,1.32-2.72,1.98-4.07c4.62,0.29,8.33,5.97,13.62,2.3
	c18.12,0,36.24-0.09,54.35,0.11c2.01,0.02,4,1.65,6,2.53c-0.51,0.57-1.02,1.15-1.53,1.72c-23.76-0.23-47.52-0.46-71.27-0.69
	C355.5,411.47,355.03,411.16,354.57,410.85z"/>
<path class="st0" d="M225.16,440.42c0.74-0.43,1.47-0.86,2.21-1.29c0.41,2.89,0.81,5.77,1.4,9.9c4.74-4.19,7.95-7.04,11.16-9.88
	c0.12,3.14,1.04,6.52,0.18,9.37c-1.61,5.4-4.25,10.49-6.46,15.7c-2.42-1.18-4.77-3.16-7.27-3.36c-3.83-0.31-7.77,0.59-11.66,0.98
	c0.49-1.63,0.98-3.26,1.46-4.89C221.89,452.91,223.11,446.44,225.16,440.42z"/>
<path class="st12" d="M258.74,278.54c-1.23,0.44-2.47,0.89-3.7,1.33c-0.42-3.8-0.82-7.61-1.26-11.41c-0.39-3.34-0.84-6.67-1.27-10
	c-0.37-3.3-0.74-6.59-1.11-9.89c0.8-2.64,2.1-5.24,2.29-7.92c0.34-4.82,3.13-12.87,8.57-13.31c0.4,0.58-0.6,5.71-0.21,6.28
	c0.11,8.57,0.21,17.14,0.32,25.72c-0.85,3.05-1.69,6.1-2.54,9.15c-1.15,0.86-2.29,1.72-3.44,2.58c1.15,0.84,2.3,1.67,3.45,2.51
	c-0.01,1.62-0.02,3.25-0.03,4.87C259.45,278.37,259.09,278.4,258.74,278.54z"/>
<path class="st11" d="M214.73,461.85c3.89-0.39,7.82-1.29,11.66-0.98c2.5,0.2,4.85,2.18,7.27,3.36c2.79,0.43,5.69,0.54,8.32,1.42
	c1.61,0.54,2.8,2.3,4.18,3.5l0.02,0.04c-0.46,0.35-0.92,0.71-1.37,1.06c-0.78,0.08-1.56,0.17-2.34,0.25
	c-5.74-0.37-11.49-0.74-17.52-1.12c0,2.53,0,3.96,0,5.4c-5.49,0.38-10.99,0.76-16.48,1.15c4.71-3.02-0.32-6.14,0.1-9.2
	C210.62,465.1,212.67,463.47,214.73,461.85z"/>
<path class="st4" d="M252.81,32.59c1.67,3.81,3.98,7.49,4.86,11.48c1.18,5.32,1.25,10.88,1.8,16.33c-1.06-0.06-2.11-0.12-3.17-0.18
	c-2.49-1.68-4.98-3.36-7.47-5.04c-0.03-1.23-0.07-2.45-0.1-3.68c-0.8-1.29-1.59-2.58-2.39-3.87c-0.42-0.44-0.84-0.88-1.26-1.32
	c-0.57-1.13-1.14-2.26-1.71-3.39c-0.7,0.77-1.41,1.54-2.11,2.31c-0.02,0.83-0.04,1.66-0.06,2.49c0.02,1.27,0.04,2.53,0.06,3.8
	c-0.01,2.49-0.02,4.99-0.04,7.48c-0.02,0.83-0.04,1.66-0.06,2.49c-0.42,1.29-0.84,2.57-1.26,3.86c-0.33-0.07-0.67-0.13-1.01-0.18
	c-0.66-2.89-1.32-5.77-1.98-8.66c0.17-4.18,0.33-8.37,0.5-12.55c1.88-3.37,3.75-6.75,5.63-10.12c1.85,2.06,3.7,4.13,5.55,6.19
	c1.22-2.38,2.44-4.76,3.68-7.13C252.37,32.75,252.63,32.69,252.81,32.59z"/>
<path class="st14" d="M256.31,60.21c1.06,0.06,2.11,0.12,3.17,0.18c-0.25,6.64-0.49,13.29-0.74,19.93c-3.11-0.53-7.92-0.04-8.99-1.8
	c-2.87-4.73-4.14-10.43-6.04-15.75c-0.82-1.26-1.64-2.52-2.46-3.77c0.01-2.49,0.02-4.99,0.03-7.48c1.27-1.74,2.55-3.47,3.82-5.21
	c0.42,0.44,0.84,0.88,1.26,1.32c0.8,1.29,1.59,2.58,2.39,3.86c0.03,1.23,0.07,2.45,0.1,3.68c0.56,1.86,0.6,4.21,1.8,5.46
	C252.16,62.25,254.81,64.94,256.31,60.21z"/>
<path class="st15" d="M243.7,62.78c1.9,5.32,3.17,11.01,6.04,15.75c1.07,1.76,5.89,1.27,8.99,1.8c0.19,1.68,0.38,3.35,0.57,5.03
	c0.26,2.16,0.53,4.32,0.79,6.47c-0.03,0.36,0.61,3.7,0.6,4.06c-0.46,0-2.18-0.92-2.64-0.92c-4.08,0-5.9-1.78-9.92-1.26
	c-1.54,0.2-4.52,1.75-5.92,3.03c-0.84-1.41-1.68-2.82-2.52-4.23c0.03-0.33,0.02-0.66-0.04-0.99c0.45-0.8,0.9-1.6,1.35-2.4
	c0.12-0.81,0.24-1.63,0.36-2.44c0.18-0.86,0.36-1.72,0.54-2.59c-0.27-2.49-0.55-4.98-0.82-7.47c0.09-1.28,0.18-2.55,0.27-3.83
	c-0.35-1.71-0.7-3.41-1.06-5.12c-0.24,0.06-0.48,0.14-0.71,0.25c0.11-0.85,0.22-1.71,0.33-2.56c0.42-1.29,0.84-2.57,1.26-3.86
	C242.02,61.93,242.86,62.36,243.7,62.78z"/>
<path class="st7" d="M275.61,99.41c0.76,2.51,1.52,5.01,2.34,7.71c2.17-0.12,4.21-0.23,7.65-0.41c-1.84,3.52-2.56,6.57-4.49,8.24
	c-3.85,3.32-5.23,6.84-3.41,11.57c-1.24-0.2-2.47-0.41-3.71-0.61c-0.86-3.98-6.76-7.66-11.39-7.11c-1.04-0.55-2.09-1.1-3.13-1.65
	c-0.37-0.53-0.75-1.07-1.12-1.61c-0.17-1.34-0.34-2.68-0.51-4.02c0.14-0.35,0.29-0.71,0.43-1.06c5.08-1.11,10.17-2.23,14.22-3.12
	C273.78,104.05,274.69,101.73,275.61,99.41z"/>
<path class="st4" d="M259.26,119.33c-6.21-1.13-8.74,1.39-8.06,7.67c0.35,3.23,0.04,6.53,0.03,9.8c-2.42,0.33-4.85,0.65-7.64,1.03
	c-0.3-0.95-0.7-2.24-1.11-3.53c-0.29-2.04-0.57-4.08-0.86-6.12c0.07-4.28,0.31-13.33,0.37-17.61c1.49-1.17,2.87,0.14,4.36-1.03
	c3.33-0.04,6.6,2.22,9.92,2.19c0.83,0.41,1.66,0.83,2.5,1.24c0,0,0.06,0.15,0.06,0.15c0.42,0.81,0.85,1.62,1.27,2.43
	c0.11,0.85,0.21,1.69,0.32,2.54C260.04,118.49,259.65,118.91,259.26,119.33z"/>
<path class="st2" d="M241.12,221.97c0.03-1.29,0.05-2.58,0.07-3.87c2.91,1.13,5.82,2.26,10.21,3.96c0.48-1.52,1.46-4.34,2.26-7.2
	c1.84-6.54,3.64-13.09,5.37-19.66c0.97-3.7,1.75-7.46,2.62-11.19c0.26,6.41,0.52,12.82,0.77,19.23c-0.44,1.25-0.87,2.51-1.31,3.76
	c-3.6,4.09-3.24,9.33,0.89,12.72c0.14,2.87,0.29,5.73,0.43,8.6c-0.38,0.01-0.75,0.04-1.12,0.09c-1.76-1.2-3.53-2.4-5.12-3.49
	c-2.48,2.31-4.68,4.36-7.6,7.08C247.08,226.64,247.74,221.15,241.12,221.97z"/>
<path class="st16" d="M270.22,420.25c0.92,0.47,1.83,0.94,2.75,1.4c0.27,2.5,0.54,5,0.8,7.51c0.69,3.35,1.37,6.71,2.06,10.06
	c1.18,3.1,2.36,6.2,3.55,9.31c0.65,1.46,1.29,2.93,1.94,4.39c3.64,1.98,7.29,3.95,10.93,5.93c-1.42,0.86-2.84,1.71-4.26,2.56
	c1.17,0.99,2.2,2.24,3.53,2.91c1.98,1,4.17,1.6,6.27,2.37c-2.07,0.44-4.14,0.87-6.21,1.31c-2.9-0.03-5.8-0.07-8.7-0.1
	c-0.05-0.82-0.11-1.64-0.16-2.46c-0.21-1.42,0.09-3.32-0.72-4.19c-8.9-9.62-9.78-22.54-14.06-34.03
	C267.27,425.43,269.39,422.6,270.22,420.25z"/>
<path class="st17" d="M260,338.73c-1.46,1.24-2.91,2.47-6.21,5.27c0-13.7,0-25.77,0-37.84c0.63-2.14,0.94-4.46,2.01-6.35
	c0.84-1.48,2.63-2.42,3.99-3.6c0.24,0.37,0.48,0.74,0.72,1.1c-0.16,1.27-0.31,2.55-0.47,3.82c0.24,1.72,0.48,3.44,0.72,5.16
	c0.27,0.36,0.54,0.72,0.81,1.08c-0.13,0.85-0.26,1.69-0.4,2.54C260.78,319.52,260.39,329.12,260,338.73z"/>
<path class="st18" d="M50.08,328.21c3.4,0.84,6.79,1.69,10.19,2.53c-0.07,0.35-0.1,0.7-0.1,1.05c-10.97-0.53-21.96-0.91-32.91-1.72
	c-2.24-0.16-4.85-1.44-6.44-3.04c-4.66-4.72-4.02-7.09,2.03-9.98c1.15-0.04,2.3-0.08,3.45-0.12c7.39,0.35,14.79,0.69,22.18,1.04
	c0.57,0.07,1.14,0.15,1.71,0.22c-1.65,0.83-3.3,1.66-4.96,2.48c-6.53,0.81-13.49-1.75-19.98,3.07c2.93,2.09,5.99,3.81,9.25,4.31
	c3.85,0.6,7.87,0.15,11.81,0.15C47.57,328.21,48.83,328.21,50.08,328.21z"/>
<path class="st11" d="M378.72,259.99c0.74,1.41,1.36,2.91,2.27,4.2c0.87,1.23,2.05,2.24,3.09,3.35c-1.27,13.36-2.53,26.72-3.8,40.08
	c-0.64,1.32-1.28,2.64-1.92,3.95c-0.79-0.02-1.59-0.05-2.38-0.07c-0.35-0.27-0.53-0.62-0.55-1.05c0.39-0.12,0.76-0.3,1.1-0.53
	l-0.05-0.52c-0.1-1.8-0.2-3.59-0.3-5.39c0.35-0.41,0.7-0.81,1.05-1.22c0.26-4.86,4.71-10.52-2.71-13.88
	c0.25-1.6,0.51-3.19,0.76-4.79c0.03-2.17,0.06-4.35,0.09-6.52C376.5,271.73,377.61,265.86,378.72,259.99z"/>
<path class="st13" d="M297.78,466.7c-2.1-0.77-4.29-1.37-6.27-2.37c-1.33-0.67-2.36-1.92-3.53-2.91c1.42-0.85,2.84-1.71,4.26-2.56
	c1.03,0.2,2.05,0.4,3.08,0.59c0.38,0.05,0.76,0.1,1.14,0.15c0.94,0.16,1.88,0.32,2.81,0.47c0.43,0.09,0.87,0.18,1.3,0.28
	c5.54,3.43,11.13,6.78,16.48,10.47c0.35,0.24-0.88,4.36-1.8,4.54c-2.77,0.55-5.74,0.05-8.64-0.04c0.2-3.46-1.54-4.99-4.91-4.89
	C300.4,469.18,299.09,467.94,297.78,466.7z"/>
<path class="st5" d="M127.01,329.07c-6.27,0.64-12.54,1.29-18.8,1.93c0.05-3.91,0.1-7.82,0.15-11.73c1.14-0.44,2.29-0.88,3.43-1.31
	c2.31-0.13,4.63-0.25,6.94-0.38c3.35,0.93,6.69,1.86,10.04,2.78C133.05,324.24,128.02,326.25,127.01,329.07z"/>
<path class="st12" d="M224.95,474.78c0-1.43,0-2.86,0-5.4c6.03,0.39,11.77,0.75,17.52,1.12c1.32,1.28,2.53,3.47,3.99,3.65
	c3.59,0.45,7.3-0.02,10.97-0.13c0.92-0.36,1.87-0.65,2.75-1.1c5.02-2.56,11.26-1.54,13.67,2.28c-10.54,0.29-21.07,0.79-31.61,0.8
	C236.47,476.03,230.71,475.22,224.95,474.78z"/>
<path class="st17" d="M334.61,117.62c0.19-0.69,0.39-1.37,0.58-2.06c1.36,0.3,2.72,0.59,4.08,0.89c1.08,1.26,2.17,2.52,3.25,3.78
	c0,0-0.03-0.1-0.03-0.1c3.36,1.31,6.71,2.63,10.06,3.94c1.11,0.25,2.22,0.49,3.33,0.74c1.2,0.85,2.4,1.69,3.6,2.54
	c0.54,0.01,1.08,0.02,1.63,0.03c3.29,1.76,6.58,3.51,9.87,5.27c3,1.71,6,3.43,9,5.14c0.2,0.77,0.41,1.55,0.61,2.32
	c-2.98-0.45-5.97-0.89-8.95-1.34c-1.59-1.54-3.18-3.08-4.77-4.61c-2.71-0.98-5.68-1.54-8.08-3.01c-8.02-4.93-16.33-6.7-25.4-3.5
	C333.78,124.29,334.2,120.95,334.61,117.62z"/>
<path class="st14" d="M252.81,32.59c-0.18,0.1-0.45,0.16-0.53,0.32c-1.24,2.37-2.45,4.75-3.68,7.13c-1.85-2.06-3.7-4.13-5.55-6.19
	c-0.35-0.8-0.71-1.61-1.06-2.41c0.17-0.84,0.35-1.68,0.52-2.53c-0.01-0.84-0.02-1.67-0.03-2.51c0.08-1.24,0.15-2.48,0.23-3.71
	c1.13-1.95,2.27-3.9,3.6-6.2c1.45,0.33,3.21,0.73,4.96,1.13c0.35,0.86,0.7,1.72,1.05,2.58c0.23,0.86,0.46,1.72,0.7,2.58
	C252.95,26.05,252.88,29.32,252.81,32.59z"/>
<path class="st8" d="M165.29,74.63c0.08-0.48,0.16-0.97,0.24-1.45c0.26-0.8,0.12,0.34,0.37-0.45c6.47,1.57,13.33,1.21,19.8,2.78
	c-1.52,0.52-3.07,1.53-4.56,1.45c-2.14-0.11-4.25-1-5.03-1.21c-1.64,6.68-2.77,12.53-4.68,18.11c-0.45,1.32-3.53,1.74-5.41,2.58
	c1.05-4.41,1.68-8.98,3.26-13.19C171.4,77.6,170.93,76.01,165.29,74.63z"/>
<path class="st15" d="M465.02,376.77c1.59,6.39,4.24,17.18,5.83,23.57c-1.4-0.38-2.92,0.38-4.32,0
	c-3.2-14.75-7.34-35.02-10.53-49.78c1.04-0.08,2.09-0.16,3.13-0.24c1.86,7.93,3.72,15.86,5.58,23.79
	C464.81,375,464.91,375.88,465.02,376.77z"/>
<path class="st18" d="M427.24,412.46c0.51-0.57,1.02-1.15,1.53-1.72c3.69-0.6,8.13-2.78,10.93-1.48c6.86,3.21,7.11,0.06,6.67-5.09
	c-0.45-1.12-0.91-2.24-1.36-3.37c2.56-0.04,5.13-0.07,7.69-0.11c-0.18,0.92-0.36,1.83-0.53,2.75c1.91,7.48,8.09,7.51,14.01,7.99
	c-5.31,0.57-10.62,1.52-15.94,1.61C442.58,413.18,434.9,412.69,427.24,412.46z"/>
<path class="st4" d="M86.66,89.75c-0.59-1.32-1.18-2.63-1.78-3.95c1.06-4.51,2.12-9.02,3.18-13.53c-0.36-0.88-0.72-1.76-1.08-2.64
	c-0.24-0.66-0.48-1.33-0.72-1.99c1.23-0.04,2.46-0.08,3.68-0.12c1.3,6.81,2.59,13.61,3.92,20.61c1.59-0.33,3.18-0.65,4.77-0.98
	c0.11,4.22,0.21,8.44,0.32,12.66c-0.22-0.01-0.44-0.03-0.66-0.04c-0.73-3.1-1.46-6.19-2.19-9.29c-0.36,0.07-0.73,0.13-1.09,0.2
	c0,2.22,0,4.43,0,6.64c-0.59,0-1.17,0-1.75,0c-0.21-1.86-0.41-3.72-0.79-7.13c-0.69,2.19-0.86,2.73-1.03,3.27
	c-1.07-0.03-2.14-0.05-3.2-0.08C87.72,92.17,87.19,90.96,86.66,89.75z"/>
<path class="st15" d="M434.84,253.21c1.35,4.26,3.08,10.07,4.22,14.38c2.53,9.59,4.86,19.22,7.27,28.84
	c-1.18-0.44-2.37-0.89-3.55-1.33c-2.88-10.37-5.75-20.74-8.63-31.12c-0.51-1.83-3.42-9.24-3.93-11.07"/>
<path class="st8" d="M243.7,151.78c-0.43,3.4-0.85,6.8-1.28,10.19c-0.02,3.98-0.07,7.97-0.05,11.95c0.01,4.72,0.08,9.45,0.12,14.17
	c-0.93,0.07-1.86,0.14-2.79,0.2c-0.2-14.64-2.43-29.36,1.84-43.81C242.25,146.92,242.97,149.35,243.7,151.78z"/>
<path class="st1" d="M275.61,99.41c-0.92,2.32-1.83,4.64-3.13,7.92c-4.05,0.89-9.13,2-14.21,3.12c0.04-0.46,0.08-0.91,0.12-1.37
	c2.11-3.59,4.28-7.14,6.19-10.84c0.16-0.3-1.51-1.55-2.33-2.36c0.1-0.35,0.21-0.69,0.32-1.03c0.45-0.06,0.9-0.11,1.34-0.17
	c0.8,0.19,1.6,0.39,2.41,0.58c2.52,0.37,5.04,0.75,7.55,1.12c1.18,0.33,2.37,0.65,3.55,0.98C276.82,98.06,276.21,98.74,275.61,99.41
	z"/>
<path class="st16" d="M334.61,117.62c-0.41,3.34-0.83,6.68-1.24,10.02c-0.34,1.21-0.68,2.43-1.02,3.64
	c-2.47,2.62-4.3,5.34-1.29,8.77l0.05,0.1c-0.16,0.79-0.33,1.57-0.49,2.36c-0.25,0.2-0.38,0.46-0.39,0.78c-2.75-0.8-5.5-1.6-8.25-2.4
	c2.33-6.91,4.42-13.92,7.17-20.66C329.72,118.85,332.73,118.46,334.61,117.62z"/>
<path class="st8" d="M108.87,155.12c0.08,1.25,0.17,2.49,0.25,3.74c-1.63,0.84-3.26,1.67-4.9,2.51c-0.4-1.26-0.79-2.53-1.19-3.79
	c-0.55-7.93-2.95-32.02-3.5-39.95c1.06-1.31,0.87,1.26,1.93-0.06c1.27,7.87,5.63,28.02,6.9,35.88
	C108.54,154.01,108.71,154.57,108.87,155.12z"/>
<path class="st19" d="M125.81,245.37c2.07,10.01,4.14,20.03,6.21,30.04c-0.9,0.47-1.8,0.94-2.7,1.4
	c-2.34-9.32-4.72-18.63-6.94-27.98c-0.24-1.03,0.45-2.28,0.71-3.43C124,245.39,124.91,245.38,125.81,245.37z"/>
<path class="st20" d="M273.84,475.22c-2.41-3.81-8.65-4.84-13.67-2.28c-0.87,0.45-1.83,0.73-2.75,1.1
	c-0.37-1.99-0.74-3.98-1.11-5.97c1.68-0.02,3.35-0.04,5.03-0.06c3.84,0.36,7.68,0.99,11.52,0.99c3.34,0,6.67-0.7,10.01-1.09
	c2.9,0.03,5.8,0.07,8.7,0.1c-1.84,0.84-3.75,1.55-5.49,2.56c-1.62,0.94-3.06,2.21-4.58,3.33c-0.11,0.38-0.15,0.76-0.11,1.15
	C278.87,475.1,276.36,475.16,273.84,475.22z"/>
<path class="st9" d="M129.33,276.82c0.9-0.47,1.8-0.94,2.7-1.41c2.57,10.07,5.13,20.13,7.69,30.2c-0.09,2.14-0.17,4.27-0.26,6.41
	c-0.86,0.77-1.73,1.53-2.59,2.3C134.36,301.82,131.84,289.32,129.33,276.82z"/>
<path class="st19" d="M35.71,253.89c2.41-10.33,4.82-20.67,7.24-31c1.3-0.44,2.6-0.87,3.9-1.31c-1.14,5.61-2.08,11.28-3.47,16.83
	c-1.37,5.43-3.2,10.74-4.83,16.1C37.6,254.31,36.66,254.1,35.71,253.89z"/>
<path class="st18" d="M136.87,314.32c0.86-0.77,1.73-1.53,2.59-2.3c0.84-0.04,1.67-0.08,2.51-0.12c0,0,0,0.01,0,0.01
	c0.41,0.34,0.82,0.67,1.23,1.01c0.93,0.47,1.86,0.95,2.79,1.42c0.32,0.87,0.65,1.73,0.97,2.6c-0.99,5.42-2.54,10.42-8.86,11.88
	c0.24-11.45,0.24-11.45-7.51-11.99c0.02-0.79,0.04-1.58,0.06-2.38C132.73,314.4,134.8,314.36,136.87,314.32z"/>
<path class="st8" d="M419.94,204.88c1.88,4.35,3.98,8.61,5.58,13.06c1.23,3.41,1.83,7.04,2.71,10.57c-0.03,1.59,1.67,3.04,1.63,4.62
	c-1.27,0.15-4.28,0.44-5.55,0.59c-0.46-0.92-0.93-1.84-1.39-2.77c-1.21-4.11-2.42-8.23-3.63-12.34c0.75-1.44,2.15-2.91,2.11-4.33
	C421.3,211.14,420.47,208.01,419.94,204.88z"/>
<path class="st21" d="M395.02,143.41c2.14,0.2,4.27,0.4,6.41,0.59c2.6,0.67,5.19,1.34,7.79,2.01l-0.25,0.2c0,0,0.27-0.18,0.27-0.18
	c-0.63,2.7-1.26,5.4-1.89,8.1c-0.51,0.23-1.02,0.46-1.54,0.7c-1.67-0.49-3.34-0.98-5.01-1.47c-1.71-0.5-3.42-1-5.12-1.5
	c-0.31-0.48-0.62-0.97-0.92-1.45c-0.52-1.53-1.05-3.05-1.57-4.57C393.79,145.03,394.41,144.22,395.02,143.41z"/>
<path class="st21" d="M281.5,473.89c1.52-1.12,2.96-2.39,4.58-3.33c1.74-1.01,3.65-1.72,5.49-2.56c2.07-0.44,4.14-0.87,6.21-1.31
	c1.31,1.24,2.62,2.48,3.93,3.72c-0.06,1.6-0.11,3.21-0.17,4.81c-3.73-0.08-7.46-0.17-11.19-0.25c-0.57-0.67-1.15-1.33-1.72-2
	c-0.76,0.69-1.51,1.37-2.27,2.06c-1.22,0.03-2.43,0.06-3.65,0.08C282.32,474.71,281.91,474.3,281.5,473.89z"/>
<path class="st1" d="M101.79,76c3.9,1.36,7.72,3.44,11.72,3.91c7.78,0.9,13.08,5.92,19.01,9.99c-0.18,0.49-0.36,0.97-0.53,1.46
	c-9.21-3.78-18.47-7.48-27.59-11.46C103.2,79.36,102.65,77.33,101.79,76z"/>
<path class="st19" d="M363.93,333.38c4.06,0.04,4.97-2.09,4.19,0.88c-2.33,8.94-12.26,52.22-14.62,61.15
	c-1.02-0.06-2.05-0.11-3.07-0.17C352.68,384.53,361.69,344.09,363.93,333.38z"/>
<path class="st3" d="M243.7,151.78c-0.72-2.43-1.44-4.86-2.17-7.29c-0.01-3.41-0.01-6.82-0.02-10.23c0.33,0.03,0.65,0.04,0.98,0.04
	c0.41,1.29,0.81,2.59,1.11,3.53c2.79-0.37,5.21-0.7,7.64-1.03C249.37,142.12,252.65,150.02,243.7,151.78z"/>
<path class="st22" d="M130.6,316.82c7.75,0.54,7.75,0.54,7.51,11.99c-3.7,0.09-7.4,0.17-11.09,0.26c1.01-2.82,6.04-4.82,1.76-8.7
	C129.39,319.19,129.99,318,130.6,316.82z"/>
<path class="st16" d="M194.7,475.63c-2.69,0.05-5.4,0.29-8.06,0.05c-1.21-0.11-2.32-1.18-3.48-1.82c0.66-1.16,1.07-2.61,2.02-3.43
	c1.7-1.47,3.73-2.56,5.62-3.8c2.1-0.77,4.19-1.53,6.29-2.3c-0.4,3.31-0.79,6.61-1.19,9.92C195.5,474.71,195.1,475.17,194.7,475.63z"
	/>
<path class="st11" d="M165.29,74.63c5.65,1.38,6.11,2.97,4,8.62c-1.58,4.21-2.21,8.78-3.26,13.19c-0.67,0.8-1.33,1.6-2,2.4
	c-0.86-0.22-1.71-0.44-2.57-0.66c0.13-2.23,0.27-4.46,0.4-6.7C163,85.86,164.14,80.24,165.29,74.63z"/>
<path class="st23" d="M424.32,233.72c1.27-0.15,2.54-0.31,3.8-0.46c0.67-0.04,1.35-0.08,2.02-0.13c1.62,6.86,3.24,13.72,4.86,20.58
	c-1.58-0.16-3.15-0.32-4.73-0.48C428.29,246.73,426.3,240.23,424.32,233.72z"/>
<path class="st0" d="M98.65,87.15c-1.59,0.33-3.18,0.65-4.77,0.98c-1.33-7-2.63-13.8-3.92-20.61c2.22-0.09,4.45-0.18,6.67-0.27
	c0.02,0.32,0.03,0.64,0.02,0.96c0.07,2.28,0.15,4.55,0.22,6.82C97.47,79.07,98.06,83.11,98.65,87.15z"/>
<path class="st20" d="M395.99,149.72c1.78,0.05,3.56,0.1,5.33,0.14c0.43,3.81,0.87,7.63,1.18,10.34c-1.46,2.7-2.59,4.79-3.73,6.88
	c-1.64,0.05-3.28,0.11-4.92,0.16c-0.09-0.84-0.19-1.68-0.28-2.53c0.6-3.96,1.21-7.92,1.81-11.88
	C395.59,151.8,395.79,150.76,395.99,149.72z"/>
<path class="st15" d="M451.54,313.87c1.68,7.95,3.37,15.9,5.05,23.85c-0.96,0.47-1.92,0.93-2.89,1.4
	c-0.96-4.24-1.93-8.47-2.89-12.71c-0.21-0.43-0.43-0.87-0.64-1.3c-0.67-3.68-1.33-7.36-2-11.04
	C449.3,314.01,450.42,313.94,451.54,313.87z"/>
<path class="st23" d="M418.59,216.16c-1.5-5.59-2.99-11.19-4.49-16.78c-0.78-2.92-5.72-14.82-1.45-14.86
	c0.88,3.7,6.41,16.66,7.29,20.36c0.54,3.14,1.37,6.26,1.47,9.41c0.05,1.42-1.36,2.88-2.11,4.33
	C419.06,217.8,418.83,216.98,418.59,216.16z"/>
<path class="st18" d="M350.44,395.24c1.02,0.06,2.05,0.11,3.07,0.17c0.39,0.4,0.78,0.8,1.17,1.21c0.85,1.04,1.7,2.09,2.55,3.13
	c-0.82,2.02-1.63,4.03-2.45,6.05c-0.66,1.36-1.32,2.72-1.98,4.07c-2.47-2.25-4.94-4.5-7.4-6.74c-0.12-0.9-0.24-1.79-0.36-2.69
	c0.39-0.19,0.68-0.48,0.86-0.88c0.76-0.94,1.52-1.88,2.28-2.81C348.93,396.25,349.68,395.75,350.44,395.24z"/>
<path class="st24" d="M466.17,411.44c-5.92-0.49-12.1-0.51-14-8c5.03,0,10.06,0,15.62,0c-0.56,3.23-0.97,5.59-1.38,7.95
	C466.4,411.39,466.17,411.44,466.17,411.44z"/>
<path class="st2" d="M260,338.73c0.39-9.61,0.78-19.21,1.17-28.82c0.42,0.03,0.84,0.06,1.26,0.09c-0.15,12.12-0.3,24.24-0.45,36.37
	C261.32,343.82,260.66,341.28,260,338.73z"/>
<path class="st3" d="M203.82,106.39c8.03,0.22,16.06,0.38,24.08,0.74c0.79,0.04,1.53,1.25,2.3,1.92c-3.07,0.56-6.22,1.84-9.2,1.51
	c-5.91-0.64-11.72-2.17-17.58-3.33C203.55,106.95,203.69,106.67,203.82,106.39z"/>
<path class="st11" d="M410.54,173.46c-0.16,2.11-0.32,4.23-0.49,6.34c-0.9,1.27-1.8,2.55-2.71,3.82c-0.43,1.63-0.86,3.27-1.29,4.9
	c-1.77-2.41-3.54-4.83-5.31-7.24c-0.36-0.02-0.68-0.15-0.97-0.36c0.87-1.64,1.73-3.27,2.6-4.91c1.94-2.08,3.88-4.16,5.82-6.24
	C408.97,171,409.76,172.23,410.54,173.46z"/>
<path class="st15" d="M197.09,464.33c-2.1,0.77-4.19,1.53-6.29,2.3c4.05-2.16,7.94-4.74,12.19-6.36c4.21-1.61,8.78-2.25,13.2-3.31
	c-0.49,1.63-0.98,3.26-1.46,4.89c-2.06,1.63-4.11,3.25-6.16,4.88c-0.02-0.41-0.03-0.81-0.02-1.22c0.39-3.61-1.82-4.26-4.58-3.63
	C201.61,462.42,199.38,463.49,197.09,464.33z"/>
<path class="st21" d="M402.37,176.01c-0.87,1.64-1.73,3.27-2.6,4.91c-0.33,0.12-0.67,0.24-1,0.36c-1.81-0.5-3.63-1.01-5.44-1.51
	c0.18-4.17,0.35-8.34,0.53-12.52c1.64-0.05,3.28-0.11,4.91-0.16c0.35,0.45,0.71,0.9,1.06,1.34
	C400.68,170.95,401.53,173.48,402.37,176.01z"/>
<path class="st9" d="M26.76,298.36c1.62-7.2,3.23-14.41,4.85-21.61c0.86,0.93,1.73,1.85,2.59,2.78c-1.59,6.62-3.17,13.24-4.76,19.86
	C28.55,299.04,27.65,298.7,26.76,298.36z"/>
<path class="st13" d="M466.4,411.39c0.41-2.36,0.82-4.73,1.38-7.95c-5.56,0-10.59,0-15.62,0c0.17-0.91,0.35-1.83,0.53-2.74
	c2.47,0,4.95-0.01,7.42-0.01c0.86-0.02,1.73-0.04,2.59-0.06c0.83-0.2,1.65-0.41,2.48-0.61c1.58-0.12,3.16-0.25,4.74-0.37
	c0,0-0.06-0.09-0.05-0.09c0.96,0.63,1.92,1.27,2.87,1.9c0.7,0.58,1.39,1.17,2.09,1.75c-0.23,0.32-0.23,0.64,0.02,0.95
	c-0.27,0.54-0.53,1.08-0.8,1.61c-0.77,0.79-1.54,1.58-2.31,2.37C469.97,409.24,468.18,410.32,466.4,411.39z"/>
<path class="st12" d="M208.54,465.5c-0.01,0.41,0,0.81,0.02,1.22c-0.42,3.06,4.61,6.19-0.1,9.2c-1.21,0.07-2.41,0.13-3.62,0.2
	c-2.1-0.64-4.21-1.27-6.31-1.91C199.5,468.6,202.88,465.74,208.54,465.5z"/>
<path class="st6" d="M395.67,151.87c-0.46,0.95-0.92,1.91-1.37,2.86c-2.79-0.15-5.58-0.3-8.36-0.45c-3.28-0.6-6.56-1.19-9.84-1.79
	c-1.31-0.25-2.63-0.51-3.94-0.76c2.63-0.88,5.25-2.45,7.9-2.49c4.89-0.08,9.79,0.73,14.69,1.18
	C395.06,150.9,395.36,151.39,395.67,151.87z"/>
<path class="st14" d="M372.72,309.29c-1.31,4.64-2.63,9.28-3.94,13.93l-2.13-0.46c1.02-6.64,7.59-38.28,8.61-44.92
	c1.08-0.36-0.43,8.17,0,10.03c0.12,0.51,0.19,1.02,0.1,1.54c-0.57,3.37-2.07,12.72-2.07,12.92
	C373.1,304.67,372.91,306.95,372.72,309.29z"/>
<path class="st17" d="M97.82,73.29c-2.17-0.48-4.34-0.96-6.52-1.44c-1.2-0.27-2.4-0.55-3.6-0.82c-0.29-0.49-0.59-0.98-0.88-1.47
	c0.79-2.02,1.57-4.05,2.38-6.13c3.86,1.5,7.11,2.76,10.35,4.02C98.98,69.4,98.4,71.35,97.82,73.29z"/>
<path class="st19" d="M26.76,298.36c0.89,0.34,1.79,0.69,2.68,1.03c-1.05,5.85-2.09,11.7-3.14,17.55c-1.15,0.04-2.3,0.08-3.45,0.12
	C24.16,310.82,25.46,304.59,26.76,298.36z"/>
<path class="st8" d="M34.2,279.52c-0.86-0.93-1.73-1.85-2.59-2.78c1.37-7.62,2.74-15.24,4.11-22.85c0.94,0.21,1.89,0.41,2.83,0.62
	C37.09,262.85,35.65,271.19,34.2,279.52z"/>
<path class="st11" d="M399.84,168.43c-0.36-0.45-0.71-0.9-1.06-1.34c1.14-2.09,2.27-4.18,3.73-6.88c-0.31-2.71-0.75-6.52-1.18-10.34
	c1.74,0.05,3.48,0.09,5.22,0.14c-6.5,5.01-0.53,9.92,0.12,14.87C404.39,166.06,402.12,167.24,399.84,168.43z"/>
<path class="st9" d="M46.85,221.58c-1.3,0.44-2.61,0.87-3.91,1.31c1.48-5.54,2.96-11.08,4.44-16.61c1.03,0.08,2.05,0.16,3.07,0.24
	C49.26,211.54,48.06,216.56,46.85,221.58z"/>
<path class="st19" d="M451.54,313.87c-1.12,0.07-2.24,0.14-3.37,0.2c-1.8-6.33-3.59-12.65-5.39-18.98c1.18,0.44,2.37,0.89,3.55,1.33
	C448.07,302.24,449.8,308.06,451.54,313.87z"/>
<path class="st9" d="M116.66,210.33c0.43-2.86,0.86-5.73,1.29-8.59c1.4,7.52,2.8,15.04,4.2,22.56c-1.15-0.61-2.31-1.22-3.45-1.83
	C118.03,218.43,117.34,214.38,116.66,210.33z"/>
<path class="st23" d="M366.65,322.76c0.61,0.5,1.23,1,1.84,1.5c0.17,2.72,0.8,5.5,0.41,8.13c-0.49,3.29-1.8,6.46-3.3,11.5
	c-0.74-4.45-1.19-7.14-1.63-9.82C364.86,330.29,365.75,326.52,366.65,322.76z"/>
<path class="st9" d="M104.23,161.37c1.63-0.84,3.26-1.67,4.9-2.51c1.48,5.82,2.96,11.64,4.44,17.46c-1.43,0.02-2.86,0.04-4.29,0.07
	c0,0,0.03,0.03,0.03,0.03c-0.66-4.24-0.58-6.21-4.93-11.45C104.32,163.77,104.28,162.57,104.23,161.37z"/>
<path class="st19" d="M52.24,191.56c1.73-6.43,3.47-12.87,5.21-19.3c0.5,0.13,1.01,0.26,1.51,0.39c-1.64,6.46-3.29,12.92-4.93,19.38
	C53.43,191.87,52.84,191.71,52.24,191.56z"/>
<path class="st22" d="M108.36,319.27c-0.05,3.91-0.1,7.82-0.15,11.73c-0.19,0.28-0.45,0.4-0.78,0.37c-4.54-2.42-6.2-7.58-4.3-13.35
	c1.69-0.19,3.37-0.38,5.06-0.58C108.25,318.05,108.31,318.66,108.36,319.27z"/>
<path class="st4" d="M99.56,67.45c-3.24-1.26-6.48-2.52-10.35-4.02c-0.81,2.08-1.59,4.11-2.38,6.13c-0.2-2.34-0.4-4.67-0.6-7.01
	c2.37,0,4.9-0.52,7.07,0.14c2.74,0.83,5.18,2.63,7.75,4.01C100.55,66.95,100.05,67.2,99.56,67.45z"/>
<path class="st18" d="M251.28,17.62c-1.75-0.4-3.5-0.8-4.96-1.13c-1.34,2.3-2.47,4.25-3.6,6.2c0.75-3.85,1.5-7.7,2.26-11.54
	c1.26,0.11,2.51,0.22,3.77,0.33C249.59,13.52,250.44,15.57,251.28,17.62z"/>
<path class="st20" d="M399.84,168.43c2.27-1.18,4.55-2.37,6.82-3.55c0.51,1.63,1.02,3.26,1.52,4.9c-1.94,2.08-3.88,4.16-5.82,6.24
	C401.53,173.48,400.68,170.95,399.84,168.43z"/>
<path class="st19" d="M101.73,119.96c-0.82-0.76-2.3-1.47-2.37-2.3c-0.51-5.95-0.74-11.92-1.05-17.89c0.22,0.02,0.44,0.03,0.66,0.04
	C99.89,106.53,100.81,113.24,101.73,119.96z"/>
<path class="st23" d="M118.69,222.48c1.15,0.61,2.31,1.22,3.46,1.84c0.74,4.94,1.49,9.88,2.24,14.81c-1.18-0.02-2.36-0.03-3.54-0.05
	C120.13,233.55,119.41,228.01,118.69,222.48z"/>
<path class="st11" d="M239.69,188.3c0.93-0.07,1.86-0.13,2.79-0.2c0.04,1.66,0.08,3.33,0.12,4.99c-0.03,3.02-0.05,6.03-0.08,9.05
	c-0.03,0.46-0.05,0.92-0.08,1.38c-0.94-0.13-1.89-0.27-2.83-0.4C239.64,198.17,239.66,193.23,239.69,188.3z"/>
<path class="st4" d="M393.33,179.76c1.81,0.5,3.63,1.01,5.44,1.51c-0.59,1.46-1.18,2.92-1.77,4.38c-0.65,0.01-1.29,0.02-1.94,0.03
	c-0.62,1.84-1.24,3.67-1.86,5.51c-0.81-0.1-1.61-0.19-2.42-0.29C391.64,187.18,392.49,183.47,393.33,179.76z"/>
<path class="st6" d="M395.02,143.41c-0.61,0.81-1.23,1.62-1.84,2.43c-4.2-1.91-8.4-3.83-12.6-5.74c-0.2-0.77-0.41-1.55-0.61-2.32
	c2.31,0.95,4.62,1.9,6.93,2.85c1.61,0.62,3.21,1.23,4.82,1.85C392.82,142.79,393.92,143.1,395.02,143.41z"/>
<path class="st14" d="M453.71,339.12c0.96-0.47,1.92-0.93,2.89-1.4c0.85,4.2,1.69,8.4,2.54,12.6c-1.04,0.08-2.09,0.16-3.13,0.24
	C455.23,346.75,454.47,342.94,453.71,339.12z"/>
<path class="st3" d="M236.94,89.12c-6.58-0.89-13.18-1.64-19.7-2.85c-0.96-0.18-1.5-2.59-2.24-3.97c4.04,1.02,8.08,2.04,12.12,3.06
	c2.93,0.69,5.85,1.38,8.78,2.07c0.25,0.32,4.95,2.34,5.36,2.37C241.26,90.2,236.9,88.74,236.94,89.12z"/>
<path class="st8" d="M203.4,82.9c-2.57-1.9-5.13-3.8-7.7-5.7c-1.31-0.11-6.72-1.54-6.59-1.91c3.66,0.8,18.28,3.32,21.94,4.12
	c-0.04,0.39-1.78,0.9-4.09,0.25C205.78,80.74,204.59,81.82,203.4,82.9z"/>
<path class="st25" d="M50.46,206.52c-1.02-0.08-2.05-0.16-3.07-0.24c0.92-3.72,1.85-7.44,2.78-11.16c0.93,0,1.86-0.01,2.79-0.01
	C52.12,198.91,51.29,202.72,50.46,206.52z"/>
<path class="st25" d="M58.96,172.65c-0.5-0.13-1-0.26-1.51-0.39c0.97-3.64,1.95-7.28,2.92-10.91c0.82,0.01,1.64,0.03,2.47,0.04
	C61.54,165.14,60.25,168.9,58.96,172.65z"/>
<path class="st3" d="M262.6,118.8c4.63-0.55,10.53,3.13,11.39,7.11c-2.78-1.08-5.57-2.16-8.35-3.24
	C264.63,121.38,263.62,120.09,262.6,118.8z"/>
<path class="st3" d="M258.71,144.42c0.21-5.51,0.42-11.01,0.62-16.52c0.39,5.03,0.79,10.06,1.18,15.09
	c-0.24,0.49-0.48,0.98-0.72,1.48C259.43,144.49,259.07,144.47,258.71,144.42z"/>
<path class="st3" d="M261.12,206.99c0.53,3.37,1.06,6.74,1.58,10.1c-0.23,0.87-0.46,1.74-0.69,2.61
	C257.88,216.32,257.51,211.09,261.12,206.99z"/>
<path class="st8" d="M227.12,85.37c-4.04-1.02-8.08-2.04-12.12-3.06c-2.17-0.79-4.33-1.58-6.49-2.37c0.84-0.38,1.67-0.77,2.5-1.16
	c0.73,0.19,1.47,0.39,2.2,0.58c0.8,0.41,1.6,0.83,2.4,1.24c3.94,1.26,19.51,5.83,21.64,7.31C237.03,89.4,231.16,86.93,227.12,85.37z
	"/>
<path class="st11" d="M198.53,474.21c2.1,0.64,4.21,1.27,6.31,1.91c-3.38-0.16-6.76-0.33-10.14-0.49c0.4-0.46,0.8-0.92,1.2-1.38
	C196.78,474.24,197.66,474.23,198.53,474.21z"/>
<path class="st4" d="M161.86,91.48c-0.13,2.23-0.26,4.46-0.4,6.7c-2.83-0.83-5.66-1.66-8.49-2.48
	C155.93,94.28,158.9,92.88,161.86,91.48z"/>
<path class="st12" d="M275.83,439.22c-0.69-3.35-1.37-6.71-2.06-10.06C274.45,432.51,275.14,435.86,275.83,439.22z"/>
<path class="st26" d="M149.51,70.23c-3.45-0.18-6.9-0.36-10.36-0.55"/>
<path class="st16" d="M301.54,475.23c0.06-1.6,0.11-3.21,0.17-4.81c3.37-0.1,5.1,1.43,4.91,4.89
	C304.93,475.28,303.23,475.25,301.54,475.23z"/>
<path class="st11" d="M244.14,110.69c-1.74,0.75-3.47,1.5-5.21,2.25c-0.34-0.28-0.52-0.64-0.54-1.07c0.98-1.57,1.95-3.13,2.93-4.7
	c0,0,0.45,0.13,0.45,0.13l0.46,0.1C242.86,108.5,243.5,109.6,244.14,110.69z"/>
<path class="st11" d="M407.34,154.14c0.63-2.7,1.26-5.4,1.89-8.1C412.87,149.74,410.95,152.14,407.34,154.14z"/>
<path class="st2" d="M259.84,268.48c0.27,0.45,0.55,0.89,0.82,1.34c-0.27,1.25-0.54,2.5-0.81,3.76c-1.15-0.84-2.3-1.67-3.45-2.51
	C257.55,270.21,258.69,269.35,259.84,268.48z"/>
<path class="st26" d="M273.87,96.4c-2.52-0.37-5.04-0.75-7.55-1.12C268.84,95.66,271.36,96.03,273.87,96.4z"/>
<path class="st11" d="M409.22,146.02c-2.6-0.67-5.19-1.34-7.79-2.01C404.03,144.68,406.62,145.35,409.22,146.02z"/>
<path class="st9" d="M203.82,106.39c-0.13,0.28-0.27,0.56-0.4,0.84c-2.57-0.31-5.14-0.61-7.71-0.92c1.04-0.32,2.08-0.64,3.11-0.97
	c0.83,0.08,1.65,0.15,2.48,0.23C202.14,105.85,202.98,106.12,203.82,106.39z"/>
<path class="st8" d="M242.49,134.3c-0.33,0-0.65-0.01-0.98-0.04c0.04-2.03,0.08-4.05,0.12-6.08
	C241.92,130.21,242.2,132.25,242.49,134.3z"/>
<path class="st27" d="M262.6,173.18c-0.32-2.11-0.64-4.23-0.95-6.34C261.97,168.95,262.29,171.06,262.6,173.18z"/>
<path class="st19" d="M375.38,277.6c-0.03,2.17-0.06,4.35-0.09,6.52C375.33,281.95,375.36,279.77,375.38,277.6z"/>
<path class="st8" d="M237.45,352.6c-0.88,2.09-1.77,4.19-2.65,6.28C235.69,356.79,236.57,354.69,237.45,352.6z"/>
<path class="st26" d="M134.29,68.9c-2.14-0.27-4.27-0.54-6.41-0.81"/>
<path class="st4" d="M96.87,75.04c-0.07-2.27-0.15-4.55-0.22-6.82c0.55,0.15,1.11,0.29,1.66,0.44
	C97.83,70.78,97.35,72.91,96.87,75.04z"/>
<path class="st26" d="M52.96,195.1c-0.93,0.01-1.86,0.01-2.79,0.01c0.69-1.19,1.39-2.38,2.08-3.56c0.59,0.16,1.19,0.32,1.78,0.47
	C53.67,193.05,53.31,194.07,52.96,195.1z"/>
<path class="st20" d="M270.98,407.74c-1.08-0.55-2.15-1.11-3.23-1.66c0.97-0.67,1.93-1.33,2.9-2
	C270.76,405.3,270.87,406.52,270.98,407.74z"/>
<path class="st2" d="M260.76,306.29c-0.24-1.72-0.48-3.44-0.72-5.16c0.38,0,0.76,0.02,1.14,0.07
	C261.04,302.9,260.9,304.6,260.76,306.29z"/>
<path class="st26" d="M391.72,142.48c-1.61-0.62-3.21-1.23-4.82-1.85C388.51,141.25,390.12,141.86,391.72,142.48z"/>
<path class="st4" d="M240.3,67.67c0.35,1.71,0.7,3.41,1.06,5.12c-0.39-0.03-0.77-0.06-1.15-0.11
	C240.24,71.01,240.27,69.34,240.3,67.67z"/>
<path class="st19" d="M120.86,239.08c1.18,0.02,2.36,0.03,3.54,0.05c0.39,0.85,0.78,1.69,1.17,2.54c-1.07,0.07-2.15,0.13-3.22,0.2
	C121.85,240.93,121.35,240.01,120.86,239.08z"/>
<path class="st9" d="M177.32,102.8c0.69-0.72,1.37-1.44,2.06-2.16c0.1,0.89,0.19,1.78,0.29,2.67
	C178.88,103.15,178.1,102.98,177.32,102.8z"/>
<path class="st3" d="M286.91,130.83c0.04-0.4,0.08-0.8,0.12-1.2c0.45-0.07,0.9-0.15,1.36-0.22c2.01,0.74,4.02,1.48,6.03,2.22
	c-0.14,0.37-0.23,0.76-0.25,1.16C291.75,132.14,289.33,131.48,286.91,130.83z"/>
<path class="st23" d="M122.34,241.86c1.07-0.07,2.15-0.13,3.22-0.2c0.08,1.24,0.16,2.47,0.25,3.71c-0.91,0.01-1.81,0.02-2.72,0.03
	C122.84,244.22,122.59,243.04,122.34,241.86z"/>
<path class="st12" d="M286.37,475.04c0.76-0.69,1.51-1.37,2.27-2.06c0.57,0.67,1.15,1.33,1.72,2
	C289.03,475,287.7,475.02,286.37,475.04z"/>
<path class="st12" d="M281.31,452.91c-0.65-1.46-1.3-2.93-1.94-4.39C280.02,449.99,280.67,451.45,281.31,452.91z"/>
<path class="st26" d="M215.61,80.6c-0.8-0.41-1.6-0.83-2.4-1.24C214.01,79.78,214.81,80.19,215.61,80.6z"/>
<path class="st26" d="M99.22,331.08c0.88,0.21,1.75,0.42,2.63,0.63C100.97,331.5,100.1,331.29,99.22,331.08z"/>
<path class="st27" d="M465.02,376.77c-0.1-0.89-0.2-1.77-0.3-2.66C464.81,375,464.91,375.88,465.02,376.77z"/>
<path class="st27" d="M348.18,396.75c-0.76,0.94-1.52,1.87-2.28,2.81C346.66,398.63,347.42,397.69,348.18,396.75z"/>
<path class="st9" d="M190.72,105.09c0.95,0.24,1.91,0.48,2.86,0.72C192.63,105.57,191.67,105.33,190.72,105.09z"/>
<path class="st26" d="M87.9,73.14c0.12,0.94,0.25,1.89,0.37,2.83C88.14,75.03,88.02,74.08,87.9,73.14z"/>
<path class="st27" d="M345.04,400.45c0.12,0.9,0.24,1.79,0.36,2.69C345.28,402.24,345.16,401.35,345.04,400.45z"/>
<path class="st18" d="M242.52,28.91c-0.29-0.05-0.59-0.1-0.88-0.16c0.28-0.78,0.57-1.57,0.85-2.35
	C242.5,27.23,242.51,28.07,242.52,28.91z"/>
<path class="st4" d="M253.03,22.78c-0.23-0.86-0.46-1.72-0.7-2.58C252.56,21.06,252.79,21.92,253.03,22.78z"/>
<path class="st25" d="M61.61,155.09c-0.3,0.88-0.6,1.76-0.89,2.64C61.01,156.85,61.31,155.97,61.61,155.09z"/>
<path class="st9" d="M131.99,91.35c0.18-0.49,0.35-0.97,0.53-1.46c0.83,0.42,1.65,0.84,2.48,1.26C134,91.22,133,91.29,131.99,91.35z
	"/>
<path class="st1" d="M105.8,68.38c-0.37,0.27-0.74,0.54-1.11,0.81c-0.11-0.32-0.23-0.63-0.34-0.95
	C104.83,68.29,105.31,68.34,105.8,68.38z"/>
<path class="st27" d="M354.57,410.85c0.46,0.31,0.93,0.62,1.39,0.93C355.5,411.47,355.03,411.16,354.57,410.85z"/>
<path class="st26" d="M63.75,148.86c-0.3,0.45-0.6,0.9-0.91,1.35C63.14,149.76,63.44,149.31,63.75,148.86z"/>
<path class="st16" d="M296.47,459.59c-0.38-0.05-0.76-0.1-1.14-0.15C295.74,459.19,296.12,459.24,296.47,459.59z"/>
<path class="st16" d="M300.58,460.33c-0.43-0.09-0.87-0.18-1.3-0.28C299.72,460.15,300.15,460.24,300.58,460.33z"/>
<path class="st9" d="M108.87,155.12c-0.17-0.55-0.33-1.11-0.5-1.66C108.54,154.01,108.71,154.57,108.87,155.12z"/>
<path class="st12" d="M281.5,473.89c0.41,0.41,0.81,0.82,1.22,1.23c-0.44-0.03-0.89-0.05-1.33-0.08
	C281.35,474.65,281.39,474.27,281.5,473.89z"/>
<path class="st13" d="M294.42,131.63c-2.01-0.74-4.02-1.48-6.03-2.22c0,0,0.28-0.55,0.28-0.55c0.29-0.78,0.59-1.55,0.88-2.33
	c0.22-0.83,0.45-1.66,0.67-2.49c0.41-1.16,0.81-2.32,1.21-3.49c0.45-0.8,0.9-1.6,1.35-2.4c0.57-1.54,1.13-3.07,1.7-4.61
	c1.2-1.88,2.4-3.76,3.59-5.64c0,0,0.04-0.02,0.04-0.02c0.14,1.84,0.54,3.7,0.37,5.5c-0.28,2.87-0.94,5.71-1.44,8.56
	C296.16,125.18,295.29,128.4,294.42,131.63z"/>
<path class="st16" d="M297.03,121.95c0.5-2.85,1.16-5.69,1.44-8.56c0.18-1.81-0.22-3.67-0.37-5.5c0.9-0.55,1.8-1.11,2.71-1.66
	c0.51,1.66,1.85,3.61,1.38,4.93C300.87,114.89,298.81,118.37,297.03,121.95z"/>
<path class="st16" d="M298.07,107.91c-1.2,1.88-2.4,3.76-3.59,5.64c0.8-1.99,1.61-3.99,2.41-5.98
	C297.28,107.68,297.67,107.8,298.07,107.91z"/>
<path class="st8" d="M378.11,328.86c-1.73,12.21-3.46,24.41-5.19,36.62c-0.77-0.11-1.53-0.22-2.29-0.33
	c1.62-12.14,3.24-24.29,4.85-36.43C376.36,328.76,377.24,328.81,378.11,328.86z"/>
<path class="st22" d="M354.78,405.81c0.82-2.02,1.63-4.03,2.45-6.05c0.43-0.07,0.8-0.23,1.14-0.51c2.07-0.01,4.13-0.02,6.2-0.03
	c1.7,0.48,3.41,0.96,5.11,1.44c-0.42,2.49-0.85,4.97-1.27,7.46C363.11,411.78,359.41,406.1,354.78,405.81z"/>
<path class="st0" d="M378.11,328.86c-0.88-0.05-1.75-0.1-2.63-0.14c0.17-5.74,0.34-11.48,0.51-17.22c0.79,0.02,1.59,0.05,2.38,0.07
	c0.32,0.38,0.64,0.76,0.95,1.14C378.92,318.09,378.52,323.48,378.11,328.86z"/>
<path class="st14" d="M370.63,365.15c0.76,0.11,1.53,0.22,2.29,0.33c-0.26,6.23-0.53,12.46-0.79,18.69
	c-0.87-0.79-2.5-1.59-2.48-2.36C369.79,376.26,370.26,370.71,370.63,365.15z"/>
<path class="st18" d="M369.68,400.65c-1.7-0.48-3.41-0.96-5.11-1.44c1.26-2.46,2.99-19.98,7.64-18.71
	c0.39,0.93-1.11,15.34-0.72,16.27c-0.15,0.8-0.29,1.59-0.44,2.39C370.59,399.65,370.13,400.15,369.68,400.65z"/>
<path class="st19" d="M358.37,399.24c-0.33,0.27-0.71,0.44-1.14,0.51c-0.85-1.04-1.7-2.09-2.55-3.13
	C355.91,397.49,357.14,398.37,358.37,399.24z"/>
<path class="st14" d="M244.14,110.69c-0.64-1.1-1.28-2.19-1.92-3.29c-0.24-0.45-0.48-0.89-0.72-1.34c0.85-3.67,1.7-7.34,2.54-11.01
	c1.68-0.88,3.47-2.66,5.01-2.46c4.01,0.52,7.91,1.91,11.86,2.95c-0.84,4.51-1.68,9.02-2.53,13.54c-0.04,0.46-0.08,0.91-0.12,1.37
	c-0.14,0.36-0.28,0.71-0.43,1.07c-0.34-0.09-0.69-0.15-1.05-0.18c-0.99,0.6-1.98,1.19-2.97,1.79
	C250.59,112.31,247.36,111.5,244.14,110.69z"/>
<path class="st14" d="M201.3,105.58c-0.83-0.08-1.65-0.16-2.48-0.23c-0.83-1.34-2.7-3.35-2.33-3.93c3.35-5.25,0.83-13.12,7.5-16.8
	C203.09,91.61,202.2,98.6,201.3,105.58z"/>
<path class="st15" d="M241.5,106.06c0.24,0.45,0.48,0.9,0.72,1.34c0,0-0.46-0.1-0.46-0.1s-0.45-0.13-0.45-0.13
	C241.28,106.79,241.34,106.42,241.5,106.06z"/>
<path class="st6" d="M253.7,240.64c-0.19,2.68-1.49,5.28-2.29,7.92c-0.32-4.03-0.64-8.06-1.01-12.82c-3.88,2.21-6.58,3.74-9.28,5.27
	c0-6.35,0-12.7,0-19.05c6.62-0.82,5.96,4.67,7.48,10.03c2.92-2.72,5.12-4.77,7.6-7.08c1.6,1.09,3.36,2.29,5.12,3.49"/>
<path class="st6" d="M252.51,258.46c0.43,3.33,0.88,6.67,1.27,10c0.45,3.8,0.84,7.61,1.26,11.41c-0.69,1.46-1.37,2.93-2.06,4.39
	c-0.69-0.06-1.39-0.11-2.08-0.17C251.44,275.55,251.98,267.01,252.51,258.46z"/>
<path class="st6" d="M259.79,144.46c0.18,0.33,0.29,0.69,0.33,1.06c-0.47,5.44-0.95,10.88-1.42,16.32
	c-1.66,0.68-3.33,1.36-6.06,2.48c0-5.83-0.4-11.27,0.28-16.58c0.17-1.33,3.77-2.23,5.79-3.33
	C259.07,144.47,259.43,144.49,259.79,144.46z"/>
<path class="st2" d="M242.53,202.13c0.02-3.01,0.05-6.03,0.08-9.05c1.62,1.25,4.22,2.23,4.67,3.81
	C248.24,200.3,246.17,202.22,242.53,202.13z"/>
<path class="st18" d="M75.7,300.88c0.4,4.39,0.79,8.77,1.19,13.16c-0.03,1.33-0.07,2.66-0.1,3.99c-0.93,0.8-1.87,1.61-2.8,2.41
	c-0.85-1.28-1.71-2.55-2.56-3.83c0.68-5.27,1.35-10.53,2.03-15.8C74.19,300.84,74.94,300.86,75.7,300.88z"/>
<path class="st15" d="M53.8,309.37c-0.7,4.36-0.62,8.25,5.17,8.81c-1.62,1.25-3.23,2.49-4.85,3.74c-1.31-1.25-2.62-2.49-3.93-3.74
	c-0.57-0.07-1.14-0.15-1.71-0.22c0.53-2.88,1.06-5.77,1.59-8.65C51.31,309.34,52.56,309.36,53.8,309.37z"/>
<path class="st22" d="M50.2,318.19c1.31,1.25,2.62,2.49,3.93,3.74c-5.21-0.39-3.58,3.61-4.04,6.28c-1.26,0-2.51,0.01-3.76,0.01
	c-0.36-2.51-0.72-5.03-1.08-7.54C46.89,319.85,48.54,319.02,50.2,318.19z"/>
<path class="st19" d="M94.42,314.34c-0.07,0.86-0.14,1.73-0.21,2.59c-1.63,0.13-3.25,0.25-4.88,0.38c0.73-3.09,1.46-6.18,2.2-9.27
	c0.77,0.06,1.55,0.13,2.32,0.19C94.04,310.26,94.23,312.3,94.42,314.34z"/>
<path class="st19" d="M76.78,318.03c0.03-1.33,0.07-2.66,0.1-3.99c1.52,1.13,3.03,2.26,4.55,3.39
	C79.88,317.63,78.33,317.83,76.78,318.03z"/>
<path class="st8" d="M159.15,72.57c0.44-0.09,0.88-0.17,1.32-0.26C160.03,72.4,159.59,72.48,159.15,72.57z"/>
<path class="st17" d="M261.35,468.01c-1.68,0.02-3.35,0.04-5.03,0.06c-3.38,0.36-6.77,0.73-10.15,1.09
	c-1.38-1.21-2.57-2.96-4.18-3.5c-2.63-0.89-5.53-0.99-8.32-1.42c2.21-5.22,4.84-10.31,6.46-15.7c0.85-2.85-0.06-6.23-0.18-9.37
	c0-0.86,0-1.71,0-2.57c1.59-3.87,3.83-7.61,4.57-11.63c0.64-3.47-0.43-7.26-0.75-10.91c-0.85-2.51-1.71-5.01-2.56-7.52
	c0-0.83,0-1.66-0.01-2.49c0.63-4.21,1.68-8.41,1.81-12.63c0.32-10.94-0.16-21.93,3.21-32.56c0.79-1.24,1.31-3.16,2.42-3.59
	c3.25-1.27,6.72-1.95,10.11-2.86c0.47,4.63,0.94,9.25,1.41,13.88c-1.38,1.51-3.92,3-3.95,4.53c-0.21,11.24-9.19,20.52-6.41,32.62
	c1.69,7.35,1.53,8.34,8.92,6.29c0.46,13.8,0.81,27.47,1.49,41.13c0.12,2.4,1.58,4.74,2.43,7.11
	C262.19,461.3,261.77,464.66,261.35,468.01z"/>
<path class="st12" d="M246.2,358.84c-3.37,10.63-2.88,21.62-3.21,32.56c-0.13,4.22-1.18,8.42-1.81,12.63
	c-1.42-1.04-2.84-2.08-4.98-3.63c0,5.43,0.42,9.99-0.17,14.43c-0.32,2.45-2.34,4.68-3.59,7c-0.94-15.77,0.04-31.25,6.35-46.07
	c0.79-1.86-0.13-4.38,0.22-6.52c0.5-3.11,1.42-6.16,2.16-9.23C242.85,359.62,244.53,359.23,246.2,358.84z"/>
<path class="st2" d="M242.52,347.59c-0.14-7.96-0.27-15.93-0.41-23.89c0.82,7.57,1.66,15.13,2.36,22.7
	C244.51,346.73,243.2,347.19,242.52,347.59z"/>
<path class="st2" d="M241.22,352.57c-0.01-0.45-0.03-0.89-0.04-1.34c0.38-0.4,0.77-0.79,1.15-1.19
	C241.96,350.88,241.59,351.73,241.22,352.57z"/>
<path class="st16" d="M292.78,118.15c-0.45,0.8-0.9,1.6-1.35,2.4C291.88,119.75,292.33,118.95,292.78,118.15z"/>
<path class="st16" d="M290.22,124.04c-0.22,0.83-0.45,1.66-0.67,2.49c-0.37-0.18-0.74-0.34-1.12-0.48
	C289.02,125.38,289.62,124.71,290.22,124.04z"/>
<path class="st0" d="M288.42,126.05c0.38,0.14,0.75,0.3,1.12,0.48c-0.29,0.78-0.59,1.55-0.88,2.33
	C288.58,127.93,288.5,126.99,288.42,126.05z"/>
<path class="st6" d="M232.45,421.83c1.25-2.33,3.27-4.55,3.59-7c0.59-4.43,0.17-9,0.17-14.43c2.13,1.56,3.55,2.59,4.98,3.63
	c0,0.83,0,1.66,0.01,2.49c0.85,2.51,1.71,5.01,2.56,7.52c0.31,3.65,1.39,7.44,0.75,10.91c-0.74,4.02-2.98,7.77-4.57,11.63
	c-2.92,1.64-5.85,3.29-9.4,5.29c-0.26-2.16-0.44-3.71-0.62-5.27C230.76,431.68,231.61,426.76,232.45,421.83z"/>
<path class="st12" d="M229.91,436.61c0.18,1.55,0.37,3.11,0.62,5.27c3.55-2,6.48-3.64,9.4-5.29c0,0.85,0,1.71,0,2.56
	c-3.21,2.84-6.42,5.69-11.16,9.88c-0.58-4.13-0.99-7.02-1.4-9.9c0,0,0,0.01,0,0.01c0.42-0.83,0.85-1.67,1.27-2.5
	C229.06,436.63,229.49,436.62,229.91,436.61z"/>
<path class="st0" d="M228.64,436.63c-0.42,0.83-0.85,1.67-1.27,2.5C227.79,438.3,228.22,437.47,228.64,436.63z"/>
<path class="st11" d="M386.6,254.93c-0.72,2.1-1.44,4.2-2.16,6.3C385.16,259.13,385.88,257.03,386.6,254.93z"/>
<path class="st11" d="M388.28,236.21c-0.25,1.41-0.5,2.82-0.74,4.23C387.78,239.03,388.03,237.62,388.28,236.21z"/>
<path class="st20" d="M262.61,457.95c-0.84-2.37-2.31-4.7-2.43-7.11c-0.67-13.66-1.02-27.33-1.49-41.13
	c-7.39,2.05-7.24,1.05-8.92-6.29c-2.78-12.1,6.2-21.38,6.41-32.62c0.03-1.53,2.57-3.02,3.95-4.53c0.4,0.41,0.81,0.81,1.21,1.22
	c-0.78,6.74-1.37,13.5-2.39,20.2c-0.86,5.69,1.77,10.03,7.45,11.36c-0.73,2.78-1.79,5.53-2.11,8.36c-0.37,3.24-0.09,6.56-0.09,9.84
	c0.76,0.07,1.53,0.14,2.29,0.21c0.63-1.75,1.26-3.49,1.88-5.24c0.45-0.06,0.9-0.12,1.35-0.18c0.16,2.73,0.32,5.47,0.48,8.2
	c-0.83,2.35-2.94,5.18-2.28,6.98c4.27,11.49,5.15,24.41,14.06,34.03c0.81,0.87,0.51,2.77,0.72,4.19c-3.55-0.9-7.2-1.5-10.61-2.77
	C268.81,461.46,265.77,459.56,262.61,457.95z"/>
<path class="st21" d="M266.41,399.06c-5.68-1.33-8.31-5.67-7.45-11.36c1.02-6.7,1.61-13.46,2.39-20.2c1.4,0.15,2.81,0.29,3.23,0.34
	C267.02,378.48,269.58,388.69,266.41,399.06z"/>
<path class="st24" d="M369.68,400.65c0.46-0.5,0.92-0.99,1.37-1.49c1.61,0.4,3.22,0.8,4.82,1.2c1.67,0.33,3.33,0.66,5,0.99
	c2.22-0.38,4.44-0.75,6.66-1.13c2.39-0.05,4.77-0.11,7.16-0.16c0.9-0.22,1.81-0.44,2.71-0.66c0,0,0.56,0.17,0.56,0.17l0.58-0.03
	c0.6,1.08,1.2,2.15,1.8,3.23c1.09-0.93,2.17-1.86,3.26-2.79c2.5-0.16,5.01-0.32,7.51-0.48c0.6,0.67,1.2,1.33,1.8,2
	c0.6-0.84,1.21-1.68,1.81-2.52c0.43-0.4,0.85-0.79,1.28-1.19c3.03,0.66,6.06,1.32,9.08,1.98c1.22,0.21,2.45,0.42,3.67,0.63
	c1.71,1.3,3.31,3.49,5.16,3.73c4.08,0.54,8.29,0.1,12.44,0.06c0.44,5.15,0.19,8.3-6.67,5.09c-2.8-1.31-7.24,0.88-10.93,1.48
	c-2-0.88-3.99-2.51-6-2.53c-18.12-0.2-36.24-0.11-54.35-0.11C368.83,405.62,369.25,403.13,369.68,400.65z"/>
<path class="st21" d="M246.16,469.16c3.38-0.36,6.77-0.73,10.15-1.09c0.37,1.99,0.74,3.98,1.11,5.97c-3.66,0.1-7.37,0.57-10.97,0.12
	c-1.46-0.18-2.67-2.38-3.99-3.65c0.78-0.08,1.56-0.17,2.34-0.25c0.46-0.35,0.92-0.71,1.37-1.06L246.16,469.16z"/>
<path class="st17" d="M246.18,469.2c-0.46,0.35-0.91,0.71-1.37,1.06C245.26,469.9,245.72,469.55,246.18,469.2z"/>
<path class="st11" d="M256.31,60.21c-1.5,4.72-4.14,2.03-5.67,0.43c-1.2-1.26-1.24-3.6-1.8-5.46
	C251.33,56.85,253.82,58.53,256.31,60.21z"/>
<path class="st11" d="M245.1,46.32c-1.27,1.74-2.55,3.47-3.82,5.21c-0.02-1.27-0.04-2.53-0.06-3.8c0.02-0.83,0.04-1.66,0.06-2.49
	c0.7-0.77,1.41-1.54,2.11-2.31C243.95,44.05,244.52,45.18,245.1,46.32z"/>
<path class="st11" d="M243.7,62.78c-0.84-0.43-1.68-0.85-2.52-1.28c0.02-0.83,0.04-1.66,0.06-2.49
	C242.06,60.27,242.88,61.52,243.7,62.78z"/>
<path class="st11" d="M248.74,51.5c-0.8-1.29-1.59-2.58-2.39-3.86C247.15,48.92,247.94,50.21,248.74,51.5z"/>
<path class="st15" d="M241.27,45.23c-0.02,0.83-0.04,1.66-0.06,2.49C241.23,46.89,241.25,46.06,241.27,45.23z"/>
<path class="st2" d="M258.39,109.09c0.84-4.51,1.69-9.02,2.53-13.54c0.44,0.11,0.89,0.23,1.33,0.34c0.82,0.81,2.49,2.05,2.33,2.36
	C262.67,101.94,260.49,105.5,258.39,109.09z"/>
<path class="st2" d="M256.79,111.34c0.36,0.03,0.71,0.09,1.05,0.18c0.17,1.34,0.34,2.68,0.51,4.02c-0.8-0.14-1.61-0.28-2.41-0.42
	c0,0-0.02-0.16-0.02-0.16C256.21,113.75,256.5,112.54,256.79,111.34z"/>
<path class="st3" d="M255.94,115.12c0.8,0.14,1.61,0.28,2.41,0.42c0.37,0.54,1.17,2.57,1.54,3.1c-0.97,0.21-2.37-1.07-3.34-0.85
	C256.35,116.9,256.14,116.01,255.94,115.12z"/>
<path class="st11" d="M256.79,111.34c-0.29,1.21-0.58,2.42-0.87,3.62c-0.7-0.61-1.4-1.22-2.1-1.84
	C254.81,112.53,255.8,111.93,256.79,111.34z"/>
<path class="st0" d="M262.61,457.95c3.15,1.6,6.2,3.5,9.49,4.73c3.41,1.27,7.06,1.87,10.61,2.77c0.05,0.82,0.11,1.64,0.16,2.45
	c-3.33,0.39-6.67,1.09-10.01,1.09c-3.84,0-7.68-0.63-11.52-0.99C261.77,464.66,262.19,461.3,262.61,457.95z"/>
<path class="st5" d="M45.24,320.68c0.36,2.51,0.72,5.03,1.08,7.54c-3.95,0-7.96,0.44-11.81-0.15c-3.26-0.51-6.33-2.22-9.25-4.31
	C31.75,318.93,38.71,321.49,45.24,320.68z"/>
<path class="st4" d="M379.32,312.71c-0.32-0.38-0.63-0.76-0.95-1.14c0.64-1.32,1.28-2.63,1.92-3.95
	C379.96,309.31,379.64,311.01,379.32,312.71z"/>
<path class="st0" d="M376.54,309.92c0,0-0.05-0.53-0.05-0.52C376.49,309.4,376.54,309.92,376.54,309.92z"/>
<path class="st19" d="M118.73,317.58c0.19-1.07,0.37-2.14,0.56-3.2c0.45-0.88,1.32-1.77,1.28-2.62c-0.45-9.44-1.05-18.88-1.61-28.32
	c0.77-0.15,1.54-0.3,2.31-0.46c0.64,2.45,1.63,4.87,1.86,7.36c0.57,6.26,0.94,12.55,1.09,18.84c0.11,4.5,2.44,5.76,6.44,5.26
	c-0.02,0.79-0.04,1.58-0.06,2.38c-0.61,1.18-1.21,2.37-1.82,3.55C125.42,319.44,122.08,318.51,118.73,317.58z"/>
<path class="st19" d="M108.2,317.44c1.2,0.17,2.4,0.34,3.6,0.51c-1.15,0.44-2.29,0.88-3.43,1.31
	C108.31,318.66,108.25,318.05,108.2,317.44z"/>
<path class="st10" d="M380.58,140.1c4.2,1.92,8.4,3.83,12.6,5.74c0.52,1.52,1.05,3.05,1.57,4.57c-4.9-0.44-9.8-1.25-14.69-1.17
	c-2.65,0.04-5.27,1.61-7.9,2.49c-0.7-0.05-1.4-0.11-2.1-0.16c-1.75-0.9-3.42-2.21-5.28-2.62c-5.17-1.16-10.42-1.94-15.63-2.87
	c0,0-0.04-0.07-0.04-0.07c-0.62-0.52-1.24-1.05-1.86-1.57c-5.38-1.43-10.76-2.87-16.14-4.3c0,0-0.05-0.1-0.05-0.1
	c0.43-2.92,0.86-5.85,1.28-8.77c0.34-1.22,0.68-2.43,1.02-3.64c9.07-3.2,17.38-1.43,25.4,3.5c2.4,1.48,5.37,2.04,8.08,3.01
	c1.59,1.54,3.18,3.08,4.78,4.62C374.61,139.21,377.6,139.65,380.58,140.1z"/>
<path class="st6" d="M371.63,138.76c-1.59-1.54-3.19-3.08-4.78-4.62C368.45,135.69,370.04,137.22,371.63,138.76z"/>
<path class="st13" d="M443.17,400.06c0.61,0.25,1.23,0.5,1.84,0.75c0.45,1.12,0.91,2.25,1.36,3.37c-4.16,0.04-8.36,0.48-12.44-0.06
	c-1.85-0.24-3.45-2.43-5.16-3.73c1.69,0.08,3.37,0.17,5.06,0.25c1.18-0.11,2.36-0.23,3.54-0.34c0,0-0.04,0.02-0.04,0.02
	C439.26,400.23,441.21,400.14,443.17,400.06z"/>
<path class="st8" d="M93.25,111.19c0.01-4.62,0.02-9.24,0.03-13.87c0.58,0,1.16,0,1.75,0c0.56,4.44,1.28,8.87,1.64,13.33
	c0.31,3.94,0.21,7.91,0.29,11.86c-0.19,5.37-0.38,10.74-0.56,16.11c-1.01,0-2.02-0.01-3.04-0.01
	C93.33,129.47,93.29,120.33,93.25,111.19z"/>
<path class="st9" d="M91.46,93.47c0,3.34,0,6.69,0,10.03c-1.07,0-2.14-0.01-3.21-0.01c0-3.37,0-6.73,0-10.1
	C89.32,93.41,90.39,93.44,91.46,93.47z"/>
<path class="st9" d="M109.28,176.39c1.24,9.64,2.48,19.27,3.73,28.91c-5.38,1.7,0.5,5.25-1.24,7.55c-1.25-2.83-3.16-5.55-3.63-8.51
	c-1.16-7.27-1.78-14.63-2.36-21.98c-0.15-1.93-1.84-15.51-1.47-17.48c0.83-0.01,2.85-1.86,3.68-1.88L109.28,176.39z"/>
<path class="st8" d="M111.76,212.85c1.74-2.3-4.14-5.85,1.24-7.55c0.52,1.67,1.04,3.35,1.57,5.02c0.27,8.34,0.53,16.68,0.8,25.02
	c-1.02-0.02-2.04-0.03-3.06-0.05C112.12,227.81,111.94,220.33,111.76,212.85z"/>
<path class="st17" d="M331.12,140.15c5.38,1.43,10.76,2.87,16.13,4.3c0.62,0.52,1.24,1.05,1.86,1.57c0,0,0.04,0.07,0.04,0.06
	c-0.11,0.35-0.21,0.71-0.3,1.07c-6.07-1.55-12.15-3.09-18.22-4.64C330.79,141.72,330.96,140.93,331.12,140.15z"/>
<path class="st17" d="M332.35,131.28c-0.43,2.92-0.86,5.85-1.28,8.77C328.05,136.62,329.88,133.9,332.35,131.28z"/>
<path class="st15" d="M416.45,216.18c1.26,5.32,2.51,10.65,3.77,15.97c0.16,1.49,0.32,2.97,0.49,4.46c0.11,1.5,0.23,2.99,0.34,4.49
	c-1.25-0.35-2.51-0.69-3.76-1.04c-1.68-7.13-7.49-13.35-4.75-21.46c-0.47-0.82-0.94-1.64-1.4-2.45c0,0,0,0,0,0
	c-0.36-1.25-0.72-2.5-1.07-3.75c-0.55-1.66-1.1-3.33-1.65-4.99c-0.23-5.01-0.45-10.03-0.68-15.04c1.04,0,2.08,0,3.12,0"/>
<path class="st23" d="M410.85,192.36c-1.04,0-2.08,0-3.12,0c-0.12-2.91-0.25-5.83-0.37-8.74c0.9-1.27,1.8-2.55,2.71-3.82
	C413.75,183.77,413.84,187.97,410.85,192.36z"/>
<path class="st6" d="M348.85,147.15c0.08-0.36,0.18-0.72,0.3-1.07c5.22,0.93,10.46,1.72,15.63,2.87c1.86,0.42,3.52,1.72,5.28,2.62
	C362.99,150.1,355.92,148.62,348.85,147.15z"/>
<path class="st14" d="M198.53,474.21c-0.88,0.01-1.75,0.03-2.63,0.04c0.4-3.31,0.79-6.61,1.19-9.92c2.29-0.84,4.52-1.92,6.87-2.46
	c2.76-0.63,4.97,0.02,4.58,3.63C202.88,465.74,199.5,468.6,198.53,474.21z"/>
<path class="st8" d="M406.47,207.44c0.6,5.03,1.21,10.06,1.81,15.09c-1.57-0.03-3.13-0.07-4.7-0.1c-0.06-4.59-0.12-9.19-0.18-13.78
	c-0.89-9.13-1.77-18.25-2.66-27.38c1.77,2.41,3.54,4.83,5.31,7.24C406.19,194.83,406.33,201.14,406.47,207.44z"/>
<path class="st23" d="M399.45,396.47c-1.14-21.86-2.31-43.72-3.34-65.58c-0.09-1.94,0.81-3.92,1.25-5.88
	c0.61-0.35,1.21-0.7,1.82-1.05c1.06,24.28,2.12,48.56,3.18,72.84C401.38,396.69,400.41,396.58,399.45,396.47z"/>
<path class="st19" d="M394.96,277.18c-0.64-6.15-1.32-12.29-1.89-18.44c-0.07-0.78,0.42-1.62,0.65-2.43
	c1.45,0.36,2.9,0.73,4.34,1.09c0.36,15.06,0.72,30.13,1.09,45.2c-0.67-0.04-1.35-0.08-2.02-0.11c0.06-2.89,0.12-5.78,0.19-8.66
	c0-3.08,0.01-6.17,0.01-9.25C396.54,282.11,395.75,279.64,394.96,277.18z"/>
<path class="st19" d="M393.13,245.33c0.13-5.98,0.26-11.96,0.39-17.94c1.94,0.38,3.88,0.77,5.82,1.15c-0.33,7.58-0.67,15.16-1,22.74
	c-0.63-4.59-1.27-9.19-1.9-13.78c-0.69,0-1.38,0-2.07-0.01C393.95,240.11,393.54,242.72,393.13,245.33z"/>
<path class="st11" d="M399.33,228.54c-1.94-0.38-3.88-0.77-5.82-1.15c0.87-7.9,1.74-15.79,2.62-23.69c0.8-0.08,1.61-0.15,2.41-0.23
	c0.33,2.15,0.67,4.29,1,6.44C399.48,216.12,399.41,222.33,399.33,228.54z"/>
<path class="st11" d="M393.13,245.33c0.41-2.61,0.82-5.22,1.23-7.83c0.69,0,1.38,0,2.07,0.01c0.63,4.59,1.27,9.19,1.9,13.78
	c-0.09,2.04-0.18,4.08-0.26,6.12c-1.45-0.36-2.9-0.73-4.34-1.09c-0.04-0.45-0.09-0.9-0.13-1.35c-0.11-1.73-0.23-3.46-0.34-5.19
	C393.22,248.29,393.17,246.81,393.13,245.33z"/>
<path class="st0" d="M397.14,302.49c0.67,0.04,1.35,0.08,2.02,0.11c0.01,4.13,0.02,8.27,0.03,12.4c0.04,0.57,0.07,1.14,0.11,1.72
	c-0.04,2.41-0.08,4.83-0.13,7.24c-0.61,0.35-1.21,0.7-1.82,1.05C397.28,317.5,397.21,309.99,397.14,302.49z"/>
<path class="st14" d="M399.45,396.47c0.97,0.11,1.94,0.21,2.9,0.32c0.42,1.06,0.84,2.12,1.25,3.18c-1.09,0.93-2.17,1.86-3.26,2.79
	c-0.6-1.08-1.2-2.15-1.8-3.23c0.02-0.89,0.03-1.78,0.05-2.67C398.85,396.67,399.13,396.54,399.45,396.47z"/>
<path class="st23" d="M397.55,283.87c0,3.08-0.36,15.53-0.37,18.61c-0.77-3.08-1.44-22.81-2.21-25.9
	C395.75,276.58,396.78,283.87,397.55,283.87z"/>
<path class="st14" d="M394.69,400.06c-2.39,0.05-4.78,0.11-7.16,0.16C389.92,400.17,392.31,400.11,394.69,400.06z"/>
<path class="st23" d="M398.6,396.86c-0.02,0.89-0.03,1.78-0.05,2.67c0,0-0.58,0.03-0.58,0.03s-0.56-0.17-0.56-0.17
	C397.8,398.55,398.2,397.71,398.6,396.86z"/>
<path class="st19" d="M75.7,300.88c-0.75-0.02-1.5-0.04-2.25-0.06c-0.9-15.58-1.59-31.15,2.05-46.53c0.5-0.23,1.01-0.47,1.51-0.7
	c-0.48-0.26-0.96-0.52-1.44-0.78c0.31-10.42,0.61-20.83,0.92-31.25c0.77,0.07,1.54,0.13,2.31,0.2
	C77.76,248.13,76.73,274.5,75.7,300.88z"/>
<path class="st19" d="M53.99,280.67c-0.09-1.39,1.16-2.47,1.07-3.86c0.48-1.26,0.96-2.53,1.43-3.79c-0.47-1.66-0.94-3.31-1.4-4.97
	c1.51-13.7,2.99-27.41,4.53-41.11c0.62-5.54,1.36-11.06,2.04-16.59c0.87-0.46,1.74-0.92,2.61-1.38
	c-2.29,23.83-4.58,47.66-6.87,71.49C56.72,280.63,54.68,280.5,53.99,280.67z"/>
<path class="st9" d="M90.32,122.43c-2.1,21.14-4.18,42.28-6.36,63.42c-0.11,1.06-0.99,2.05-1.5,3.07c-1.06,0.43-2.13,0.86-3.2,1.3
	c2.61-22.62,5.21-45.23,7.82-67.85C88.16,122.39,89.24,122.41,90.32,122.43z"/>
<path class="st25" d="M64.28,208.97c-0.87,0.46-1.74,0.92-2.61,1.38c1.57-8.83,3.18-17.66,4.7-26.5c0.99-5.76,3.44-17.73,4.36-23.5
	c3.17-0.45,2.54,6.96,1.78,10.08c-0.91,3.72-1.55,7.52-2.2,11.3c-1.47,8.49-2.85,17-4.37,25.49
	C65.82,207.88,64.85,208.39,64.28,208.97z"/>
<path class="st9" d="M70.43,162.57c1.53-8.77,3.05-17.53,4.58-26.3c0.9-1.51,1.8-3.03,2.69-4.54c0.67,0.52,1.34,1.04,2.01,1.55
	c-1.95,8.51-3.79,17.05-5.96,25.5C73.38,160.24,71.57,161.32,70.43,162.57z"/>
<path class="st23" d="M50.07,309.32c0.88-7.51,1.76-15.01,2.64-22.52c0.95-0.43,1.9-0.86,2.85-1.28
	c-0.59,7.95-1.17,15.91-1.76,23.86C52.56,309.36,51.31,309.34,50.07,309.32z"/>
<path class="st25" d="M78.79,221.75c-0.77-0.07-1.54-0.13-2.31-0.2c0.81-5.43,1.61-10.87,2.42-16.3c0.87-0.03,1.74-0.05,2.61-0.08
	C80.6,210.7,79.69,216.22,78.79,221.75z"/>
<path class="st19" d="M90.32,122.43c-1.08-0.02-2.16-0.04-3.24-0.06c-0.11-3.74-0.23-7.48-0.35-11.22c0-1.85,1.39-8.1,1.39-9.95
	c0.53-0.06,4.26,1.68,3.26,1.77c2.05,1.63-1.5,7.17-0.73,9.53C90.54,115.8,90.43,119.11,90.32,122.43z"/>
<path class="st19" d="M81.51,205.17c-0.87,0.03-1.74,0.05-2.61,0.08c0.12-5.01,0.24-10.02,0.37-15.03c1.07-0.43,2.14-0.86,3.2-1.3
	C82.14,194.34,81.83,199.75,81.51,205.17z"/>
<path class="st9" d="M55.56,285.51c-0.95,0.43-1.9,0.86-2.85,1.28c0.89-1.94,0.37-4.3,1.25-6.23c0.68-0.17,2.77,0.07,3.46-0.11
	C56.79,282.14,56.17,283.83,55.56,285.51z"/>
<path class="st25" d="M75.56,252.8c0.48,0.26,0.96,0.52,1.44,0.78c-0.5,0.23-1.01,0.47-1.51,0.7
	C75.51,253.79,75.54,253.29,75.56,252.8z"/>
<path class="st9" d="M96.3,227.7c0.08,7.13,0.16,14.26,0.24,21.39c-0.39,2.13-0.77,4.26-1.16,6.39c-1.43-0.36-2.86-0.72-4.28-1.09
	c0.99-8.86,1.98-17.72,2.97-26.57C94.81,227.78,95.55,227.74,96.3,227.7z"/>
<path class="st9" d="M94.33,276.85c-0.16,10.46-0.32,20.92-0.48,31.38c-0.77-0.06-1.55-0.12-2.32-0.19
	c-0.06-4.81-0.1-9.61-0.19-14.42c-0.11-5.67-0.28-11.34-0.42-17.01C92.05,276.69,93.19,276.77,94.33,276.85z"/>
<path class="st8" d="M94.33,276.85c-1.14-0.08-2.28-0.16-3.42-0.24c0.06-7.41,0.12-14.81,0.18-22.22c1.43,0.36,2.86,0.72,4.29,1.09
	c0.17,1.66,0.34,3.32,0.51,4.98C95.37,265.92,94.85,271.39,94.33,276.85z"/>
<path class="st25" d="M96.86,166.36c-0.12,6.32-0.24,12.65-0.35,18.97c-0.83-0.04-1.66-0.09-2.49-0.13
	c0.07-6.28,0.14-12.57,0.21-18.85C95.1,166.36,95.98,166.36,96.86,166.36z"/>
<path class="st19" d="M94.02,185.2c0.83,0.04,1.66,0.09,2.49,0.13c-0.03,8.75-0.06,17.5-0.09,26.25c-0.79-0.02-1.57-0.05-2.36-0.07
	C94.04,202.74,94.03,193.97,94.02,185.2z"/>
<path class="st19" d="M96.86,166.36c-0.88,0-1.76,0-2.63-0.01c0.03-5.43,0.06-10.86,0.09-16.28c0.79-0.41,1.57-0.82,2.36-1.23
	c0.61,2.92,1.22,5.85,1.83,8.77C97.96,160.52,97.41,163.44,96.86,166.36z"/>
<path class="st8" d="M94.05,211.51c0.79,0.02,1.57,0.05,2.36,0.07c-0.04,5.37-0.08,10.75-0.12,16.12c-0.74,0.04-1.49,0.08-2.23,0.12
	C94.06,222.38,94.06,216.95,94.05,211.51z"/>
<path class="st9" d="M96.67,148.84c-0.79,0.41-1.57,0.82-2.36,1.23c-0.32-3.82-0.64-7.64-0.95-11.46c1.01,0,2.03,0.01,3.04,0.01
	C96.49,142.03,96.58,145.43,96.67,148.84z"/>
<path class="st12" d="M243.76,414.05c-0.85-2.51-1.71-5.01-2.56-7.52C242.05,409.03,242.9,411.54,243.76,414.05z"/>
<path class="st26" d="M55.09,268.05c0.47,1.66,0.94,3.31,1.4,4.97c-0.8,0.07-1.6,0.14-2.4,0.21
	C54.42,271.5,54.76,269.77,55.09,268.05z"/>
<path class="st9" d="M54.09,273.23c0.8-0.07,1.6-0.14,2.4-0.21c-0.48,1.26-1.55,4.92-2.03,6.19
	C54.14,278.01,54.41,274.42,54.09,273.23z"/>
<path class="st19" d="M396.04,204.1c0.61-2.77,1.16-24.04,1.77-26.82c0.48,0,1.18,3.53,1.66,3.53c0.26,5.74,0.43,22.11,0.69,27.85
	c-0.2,0.41-0.4,0.82-0.6,1.24"/>
<path class="st8" d="M416.01,397.78c0.13-6.61,0.25-13.21,0.38-19.82c1.05,0,2.1,0,3.15-0.01c0.09,4.32-0.45,8.79,0.49,12.92
	c0.72,3.18,3.31,5.94,5.07,8.88C422.06,399.1,419.03,398.44,416.01,397.78z"/>
<path class="st14" d="M411.11,399.49c1.21-0.17,2.41-0.35,3.62-0.52c-0.6,0.84-1.21,1.68-1.81,2.52
	C412.32,400.82,411.71,400.15,411.11,399.49z"/>
<path class="st15" d="M118.96,283.44c-0.7-5.99-1.4-11.97-2.1-17.96c1.11,0.05,2.22,0.11,3.33,0.16c0.36,5.78,0.72,11.56,1.08,17.34
	C120.5,283.13,119.73,283.29,118.96,283.44z"/>
<path class="st6" d="M349.11,146.02c-0.62-0.53-1.24-1.05-1.86-1.57C347.87,144.97,348.49,145.49,349.11,146.02z"/>
<path class="st15" d="M436.71,372.85c-0.93-3.38-2.33-6.72-2.72-10.16c-1.7-14.84-3.11-29.71-4.63-44.58
	c1.46,0.73,2.93,1.47,4.39,2.21c1.12,9.08,2.29,18.16,3.36,27.24c1,8.46,1.9,16.93,2.85,25.4
	C438.88,372.92,437.79,372.89,436.71,372.85z"/>
<path class="st23" d="M411.11,297.7c-0.37-2.8-0.78-5.59-1.09-8.4c-0.54-4.88-1.29-9.75-1.47-14.64
	c-0.24-6.47-0.02-12.95,0.01-19.43c0.61-1.93,1.22-3.87,1.83-5.8c0.53,6.02,1.06,12.03,1.59,18.05c0.35,1.21,0.71,2.41,1.07,3.62
	c-0.12,1.74-0.24,3.47-0.36,5.21c-0.11,6.48-0.22,12.96-0.34,19.45C411.94,296.4,411.52,297.05,411.11,297.7z"/>
<path class="st23" d="M419.53,377.95c-1.05,0-2.1,0-3.15,0.01c-0.76-8.01-1.52-16.02-2.28-24.03c1.01-1.17,2.02-2.34,3.03-3.51
	C417.93,359.6,418.73,368.78,419.53,377.95z"/>
<path class="st0" d="M417.13,350.42c-1.01,1.17-2.02,2.34-3.03,3.51c-0.12-11.21-0.24-22.43-0.35-33.64
	c0.86-0.46,1.73-0.91,2.59-1.37C416.6,329.42,416.87,339.92,417.13,350.42z"/>
<path class="st15" d="M416.34,318.92c-0.86,0.46-1.73,0.91-2.59,1.37c-0.88-7.53-1.76-15.06-2.64-22.59
	c0.41-0.65-0.07-2.66,0.35-3.31c0.83-0.15,0.79-23.61,1.62-23.76C413.57,278.5,415.84,311.05,416.34,318.92z"/>
<path class="st11" d="M403.74,224.9c-0.05-0.82-0.11-1.64-0.16-2.47c1.57,0.03,3.13,0.07,4.7,0.1c0.04,2.46,0.07,4.92,0.11,7.38
	c-0.11,1.26-0.23,2.52-0.34,3.79c-0.09,1.6-0.18,3.2-0.27,4.79c-1.22,0.02-2.44,0.03-3.67,0.05c0.06-1.83,0.13-3.67,0.19-5.51
	C404.11,230.33,403.93,227.61,403.74,224.9z"/>
<path class="st14" d="M428.31,277.59c0.23,4.07,0.46,8.14,0.69,12.21c-0.72,0.98-1.43,1.96-2.15,2.93
	c-0.75-6.26-1.5-12.52-2.25-18.78c0.96-0.05,1.93-0.09,2.89-0.14c0,0,0.1-0.04,0.1-0.04C427.83,275.05,428.07,276.32,428.31,277.59z
	"/>
<path class="st11" d="M422.78,247.23c0.44,1.21,1.54,8.54,1.98,9.75c0.07,0.49,0.14,0.99,0.21,1.48c0.21,3.05,0.43,6.1,0.64,9.15
	c-1.01-0.01-2.03-0.02-3.04-0.03c-0.64-4.08-3.13-13.77-3.77-17.85C419.73,249.06,421.86,247.9,422.78,247.23z"/>
<path class="st4" d="M426.85,292.74c0.72-0.98,1.43-1.96,2.15-2.93c1,6.12,1.99,12.24,2.99,18.36c-0.63,0.01-1.26,0.02-1.89,0.04
	C429.02,303.05,427.93,297.89,426.85,292.74z"/>
<path class="st11" d="M436.71,372.85c1.08,0.04,2.17,0.07,3.25,0.11c0.11,5.22,0.23,10.44,0.34,15.66
	c-0.75,1.06-1.49,2.12-2.24,3.18C437.61,385.48,437.16,379.17,436.71,372.85z"/>
<path class="st11" d="M410.39,249.43c-0.61,1.93-1.22,3.87-1.83,5.8c-1.25-2.99-2.51-5.97-3.76-8.96c1.15-1.63,2.3-3.26,3.44-4.89
	C408.96,244.07,409.67,246.75,410.39,249.43z"/>
<path class="st19" d="M417.29,240.06c1.25,0.35,2.51,0.69,3.76,1.04c0.57,2.18,1.14,4.37,1.7,6.55c-1.31,1.07-2.61,2.14-3.91,3.22
	C418.32,247.26,417.81,243.66,417.29,240.06z"/>
<path class="st11" d="M443.17,400.06c-1.95,0.08-3.9,0.17-5.85,0.25c0.59-1.6,1.18-3.21,1.77-4.81c0.91-0.91,1.83-1.82,2.74-2.72
	C442.27,395.2,442.72,397.63,443.17,400.06z"/>
<path class="st8" d="M408.24,241.38c-1.15,1.63-2.3,3.26-3.44,4.89c-0.23-2.57-0.46-5.15-0.69-7.72c1.22-0.02,2.45-0.03,3.67-0.05
	C407.93,239.46,408.08,240.42,408.24,241.38z"/>
<path class="st14" d="M422.58,267.58c1.01,0.01,2.03,0.02,3.04,0.03c0.21,1.24,0.42,2.48,0.63,3.71c-0.94,0.05-1.89,0.09-2.83,0.14
	C423.13,270.17,422.85,268.88,422.58,267.58z"/>
<path class="st15" d="M441.82,392.78c-0.91,0.91-1.83,1.82-2.74,2.72c-0.34-1.24-0.68-2.47-1.02-3.71c0.74-1.06,1.49-2.12,2.23-3.18
	C440.81,390,441.31,391.39,441.82,392.78z"/>
<path class="st11" d="M423.41,271.47c0.94-0.05,1.89-0.09,2.83-0.14c0.42,0.83,0.83,1.66,1.25,2.49c-0.96,0.05-1.93,0.09-2.89,0.14
	C424.2,273.13,423.81,272.3,423.41,271.47z"/>
<path class="st27" d="M413.05,271.1c-0.36-1.21-0.71-2.41-1.07-3.62C412.34,268.69,412.69,269.89,413.05,271.1z"/>
<path class="st23" d="M411.13,216.15c0.47,0.82,0.94,1.64,1.4,2.45C412.07,217.78,411.6,216.97,411.13,216.15z"/>
<path class="st8" d="M408.05,233.7c0.11-1.26,0.23-2.52,0.34-3.79C408.27,231.18,408.16,232.44,408.05,233.7z"/>
<path class="st4" d="M428.31,277.59c-0.24-1.27-0.47-2.54-0.71-3.81C427.83,275.05,428.07,276.32,428.31,277.59z"/>
<path class="st23" d="M410.06,212.39c0.36,1.25,0.72,2.5,1.07,3.75C410.77,214.89,410.41,213.64,410.06,212.39z"/>
<path class="st11" d="M437.36,400.29c-1.18,0.11-2.36,0.23-3.54,0.34C435,400.52,436.18,400.41,437.36,400.29z"/>
<path class="st26" d="M430.1,308.2c0.63-0.01,1.26-0.03,1.89-0.04C431.36,308.18,430.73,308.19,430.1,308.2z"/>
<path class="st8" d="M114.43,256.67c-0.4-5.83-0.79-11.67-1.19-17.5c1.37,0.84,2.75,1.68,4.12,2.53c-0.02,1.78-0.04,3.55-0.06,5.33
	C116.35,250.23,115.39,253.45,114.43,256.67z"/>
<path class="st19" d="M114.43,256.67c0.96-3.22,1.92-6.44,2.88-9.65c0.96,6.21,1.92,12.42,2.88,18.62
	c-1.11-0.05-2.22-0.11-3.33-0.16C116.05,262.54,115.24,259.6,114.43,256.67z"/>
<path class="st19" d="M117.36,241.69c-1.37-0.84-2.75-1.68-4.12-2.53c-0.31-1.29-0.63-2.58-0.94-3.87c1.02,0.02,2.04,0.03,3.06,0.05
	C116.03,237.46,116.7,239.57,117.36,241.69z"/>
<path class="st26" d="M95.38,255.48c0.39-2.13,0.77-4.26,1.16-6.39"/>
<path class="st26" d="M95.89,260.46"/>
<path class="st19" d="M399.19,315c0.04,0.57,0.07,1.14,0.11,1.72C399.26,316.15,399.23,315.57,399.19,315z"/>
<path class="st8" d="M403.74,224.9c0.19,2.71,0.37,5.43,0.55,8.14C404.11,230.33,403.93,227.61,403.74,224.9z"/>
<path class="st15" d="M116.66,208.24c-1.45-8-5.72-25.55-6.6-31.59c-0.05-0.35,0.22-0.64,0.57-0.65c0.74-0.02,1.5-0.11,2.23-0.12
	c0.3,0,0.54,0.23,0.57,0.53c0.56,6.15,4.66,22.48,5.13,28.36c0.01,0.15-0.05,0.29-0.14,0.41c-0.3,0.41-0.46,1.76-0.62,3.03
	C117.71,208.86,116.78,208.88,116.66,208.24z"/>
<path class="st19" d="M79.19,135.89c-1.08-0.02-3.45,2.38-4.52,2.35c0.7-3.57,1.47-5.6,2.35-7.25c1.09-4.65,1.97-7.6,2.24-9.23
	c-0.07-0.37,3.65,1.81,3.88,2.45c-0.4,1.62-1.56,3.03-2.34,5.61C79.74,132.95,80.11,132.51,79.19,135.89z"/>
<path class="st6" d="M262.9,284.77"/>
<path class="st6" d="M262.61,313.32c-3.88,2.21-3.14-41.94-5.83-40.41c0-6.35,0-12.7,0-19.05c6.62-0.82,5.05,4.52,6.57,9.87"/>
<path class="st19" d="M433.89,321.43c-1.12,0.07-3.03-1.28-4.16-1.21c-1.8-6.33,1.65-8.35-0.15-14.68c1.18,0.44,1.02,1.03,2.21,1.47
	C433.53,312.82,432.16,315.61,433.89,321.43z"/>
</svg>
