<?xml version="1.0" encoding="utf-8"?>
<!-- Generator: Adobe Illustrator 28.0.0, SVG Export Plug-In . SVG Version: 6.00 Build 0)  -->
<svg version="1.1" id="Lag_1" xmlns="http://www.w3.org/2000/svg" xmlns:xlink="http://www.w3.org/1999/xlink" x="0px" y="0px"
	 viewBox="0 0 871.74 227.98" style="enable-background:new 0 0 871.74 227.98;" xml:space="preserve">
<style type="text/css">
	.st0{fill:#FFFFFF;}
</style>
<g>
	<g>
		<path class="st0" d="M866.66,0.24c4.85-1.06,6.54,1.69,3.67,4.09c-12.1,7.27-24.53,14.09-36.11,22.14
			c-37.13,25.8-72.17,54.29-106.49,83.69c-6.88,5.9-13.41,12.35-20.91,17.32c-5.33,3.53-11.84,5.92-18.16,7.21
			c-14.81,3.02-29.8,5.22-45.04,3.77c-4.8-0.46-9.59-0.96-14.4-1.35c-1.72-0.14-3.46-0.02-5.27,0.52c8.87,4.83,17.74,9.21,28.3,8.1
			c1.86-0.2,3.85,0.86,5.79,1.33c-1.23,1.75-2.06,4.19-3.75,5.14c-13.15,7.44-26.43,14.66-39.78,21.75
			c-1.59,0.84-3.83,0.82-5.72,0.65c-5.27-0.46-10.5-1.54-15.77-1.8c-21.08-1.01-42.17-1.79-63.26-2.65
			c-1.66-0.07-3.36-0.26-4.99-0.05c-1.19,0.16-2.3,0.9-3.45,1.38c0.49,1.14,0.72,2.52,1.51,3.39c5.08,5.55,11.84,8.23,18.73,10.71
			c6.84,2.47,13.64,5.07,20.42,7.71c1.19,0.46,2.19,1.38,4.77,3.05c-3.23,1.04-5.15,1.98-7.16,2.25
			c-12.83,1.73-25.73,2.96-38.5,5.03c-15.71,2.54-31.33,5.61-46.95,8.69c-32.4,6.39-64.69,13.72-97.79,15.19
			c-16.74,0.75-33.69,0.71-50.33-1.06c-28.25-3.01-54.29-13.17-79.21-26.9c-21.96-12.1-41.89-26.41-59.02-46.18
			c0.12,1.87-0.11,2.89,0.27,3.54c8.19,13.82,16.47,27.64,28.54,38.51c4.08,3.67,9.16,6.24,13.86,9.2c1.37,0.86,3.22,1.05,4.44,2.05
			c1.72,1.41,3.05,3.28,4.55,4.96c-2.09,0.27-4.55,1.4-6.22,0.68c-10.09-4.37-20.31-8.59-29.91-13.92
			c-23.27-12.93-43.59-29.59-60.7-50.07c-1.09-1.3-2.63-2.22-3.96-3.32c-0.57,0.32-1.14,0.64-1.7,0.96c1.6,3.52,2.54,7.6,4.94,10.44
			c6.14,7.27,12.94,13.98,19.46,20.93c1.24,1.32,2.44,2.66,3.66,3.99c-0.26,0.39-0.51,0.77-0.77,1.16
			c-3.02-1.92-6.28-3.55-9.03-5.81c-11.08-9.13-21.93-18.51-27.96-32.07c-0.46-1.03-1.19-2.3-2.12-2.7
			c-2.16-0.92-4.52-1.37-6.79-2.01c-0.21,2.03-1.21,4.4-0.5,6.03c5.47,12.64,11.25,25.15,17,37.68c1.28,2.79,2.83,5.46,4.26,8.19
			c-0.84,0.63-0.63,0.47-1.47,1.09c-3.39-3.21-7.21-6.08-10.04-9.72c-5.93-7.62-12.46-15.02-14.84-24.75
			c-1.17-4.79-2.25-9.69-2.53-14.59c-0.26-4.53-1.94-6.73-6.34-8.05c-22.84-6.86-45.98-13.02-67.32-23.93
			c-8.61-4.4-16.41-10.42-24.51-15.81c-3.29-2.19-6.43-4.61-9.54-7.05c-3.58-2.8-3.4-5.62,0.89-6.71
			c8.15-2.06,16.48-3.39,24.73-5.03l-0.72,1.98c2.72,2.09,5.13,5.09,8.21,6.13c22.13,7.47,44.4,14.54,66.62,21.74
			c1.25,0.4,2.47,0.92,3.75,1.22c3.99,0.94,6.74,0.27,8.61-4.22c3.95-9.52,11.31-16.42,19.34-22.6c1.8-1.39,3.67-2.69,5.51-4.03
			c0.52,0.49,0.4,0.37,0.92,0.86c-2.43,3.83-4.93,7.62-7.28,11.5c-3.3,5.44-6.67,10.85-9.6,16.48c-0.72,1.39-0.48,4.75,0.39,5.21
			c2.49,1.33,4.5,0.56,6.31-2.48c5.18-8.71,10.31-17.63,16.78-25.35c7.43-8.86,16.29-16.52,24.53-24.7l1.32,1.09
			c-0.99,1.39-1.95,2.8-2.98,4.17c-10.2,13.56-20.44,27.09-30.56,40.7c-1.28,1.72-1.93,3.92-2.87,5.9l1.49,1.35
			c1.59-1.28,3.56-2.3,4.72-3.89c15.55-21.36,33.95-40,54.75-56.18c12.85-10,27.78-15.5,43.95-17.64
			c21.04-2.79,42.11-5.36,63.06-8.68c17.81-2.82,35.52-6.31,53.17-10.02c8.33-1.75,16.41-4.71,24.75-7.16
			c1.2,4.42-1.44,7.55-4.28,10.2c-8.95,8.35-18.36,16.22-27.12,24.75c-12.2,11.87-24.16,24-35.88,36.34
			c-7.97,8.38-15.35,17.32-22.99,26.01c-0.48,0.55-0.91,1.15-1.36,1.72c0.29,0.33,0.57,0.65,0.86,0.98
			c3.97-3.24,7.86-6.57,11.91-9.7c21.81-16.83,43.3-34.1,65.63-50.21c12.57-9.07,26.25-16.76,40.01-23.97
			c7.94-4.16,17-6.19,25.59-9.07c3.66-1.23,7.36-2.9,11.12-3.11c4.22-0.24,8.52,1,12.79,1.49c23.79,2.74,47.49,1.43,71.15-1.63
			c5.56-0.72,11.11-1.78,16.69-2.03c2.29-0.1,4.66,1.54,6.99,2.39c-0.95,2.17-1.36,4.93-2.95,6.43
			c-8.76,8.25-18.24,15.76-26.65,24.33c-17.67,18-34.85,36.48-52.15,54.83c-0.81,0.86-0.96,2.35-1.41,3.55
			c0.36,0.2,0.71,0.39,1.07,0.59c12.7-12.14,25.18-24.52,38.16-36.35c16.36-14.91,32.91-29.63,49.85-43.87
			c5.95-5,14.11-7.47,19.8-12.68c8.2-7.5,15.96-3.55,23.93-1.18c16.24,4.83,32.79,6.26,49.63,5.56c3.95-0.16,7.93,0.66,11.89,0.58
			c5.52-0.12,6.94,6.27,3.78,9.75c-2.54,2.8-4.95,5.71-7.34,8.63c-0.96,1.17-1.71,2.51-2.56,3.78l1.06,1.45
			c6.76-3.14,13.55-6.24,20.29-9.43c10.23-4.84,20.35-9.95,30.72-14.47c2.72-1.19,6.27-1.17,9.33-0.79
			c34.39,4.2,68.47,0.38,102.45-4.14c14.25-1.89,28.24-5.72,42.33-8.74 M645.67,90.09c0.47,0.82,0.5,0.87,0.97,1.69
			c1.98-0.24,4.02-0.29,5.94-0.79c10.08-2.62,20.21-5.09,30.14-8.17c5.28-1.64,10.69-3.75,15.15-6.9c4.5-3.18,7.59-8.27,11.82-11.92
			c14.23-12.26,28.71-24.23,43.02-36.4c1.12-0.95,1.67-2.56,2.49-3.87c-1.4-0.61-2.76-1.57-4.22-1.77
			c-9.38-1.27-18.77-2.63-28.2-3.41c-4.18-0.34-9.11-0.61-12.61,1.19c-20.39,10.46-40.45,21.56-60.66,32.35
			c-1.3,0.7-3.57,1.36-4.39,0.74c-0.99-0.75-1.28-2.92-1.2-4.45c0.08-1.58,0.69-3.27,1.52-4.64c2.28-3.77,4.91-7.33,7.18-11.1
			c1.83-3.05,3.34-6.3,4.99-9.45c-3.69-0.54-7.39-1.54-11.08-1.53c-17.81,0.04-34.98-2.71-51.13-10.56
			c-3.68-1.79-7.19-1.81-10.76,0.75c-7.88,5.67-16.45,10.5-23.8,16.78c-16.09,13.73-31.75,27.97-47.29,42.33
			c-16.44,15.18-32.57,30.71-48.74,46.17c-1.55,1.48-2.52,3.57-3.75,5.39c0.51,0.84,0.57,0.94,1.08,1.78
			c10.01-1.22,20-2.74,30.04-3.57c6.82-0.56,12.12-2.76,16.57-8.3c21.73-27.04,49.35-47.97,74.77-71.19c3-2.74,6.84-4.54,10.3-6.78
			l1.23,1.58c-26.98,25.29-53.15,51.36-78.53,79.62c2.44,0.67,3.7,1.42,4.84,1.26c11.84-1.6,23.67-3.33,35.49-5.07
			c4.35-0.64,7.42-3.13,9.88-6.72c3.26-4.76,6.67-9.42,10.22-13.97c11.74-15.06,27.41-25.78,42.01-37.68
			c0.52-0.42,1.62-0.13,3.76-0.24c-18.72,17.52-35.62,35.01-51.06,54.1c3.28,0.67,5.98,0.7,8.6,0.02
			c15.21-3.96,30.5-7.53,46.09-9.47c6.18-0.77,10.5-3.42,13.73-8.36c2.26-3.45,4.59-7.12,7.71-9.69
			c10.55-8.7,21.44-16.98,32.28-25.33c1.15-0.88,2.8-1.12,4.22-1.65c0.18,0.4,0.36,0.79,0.53,1.19
			C671.06,65.35,656.61,75.89,645.67,90.09z M781.18,56.22c-0.21-0.32-0.41-0.64-0.62-0.95c-0.6,0.11-1.25,0.1-1.79,0.34
			c-12.82,5.61-25.36,12-38.5,16.73c-26.34,9.47-52.88,18.42-79.55,26.93c-15.17,4.84-30.52,9.13-46,12.86
			c-27.35,6.59-54.81,12.78-82.38,18.4c-19.31,3.93-38.78,7.22-58.28,10.11c-19.88,2.94-39.9,5.02-59.84,7.57
			c-1.95,0.25-3.82,1.16-5.73,1.77c1.28,1.79,2.53,3.59,3.86,5.34c0.28,0.36,0.85,0.49,1.27,0.76
			c16.85,10.77,33.57,21.76,50.61,32.22c10.5,6.45,21.68,11.52,34.6,9.74c7.56-1.04,15.09-2.32,22.65-3.41
			c4.82-0.7,9.66-1.25,15.61-2.01c-1.58-1.92-2.27-2.95-3.14-3.79c-6.32-6.1-12.76-12.08-18.97-18.29
			c-1.14-1.14-2.25-3.38-1.86-4.64c0.34-1.08,2.85-2.06,4.41-2.07c7.79-0.03,15.6-0.05,23.35,0.52c17.59,1.28,35.15,3.06,52.74,4.31
			c7.01,0.5,14.21,2.07,20.93-1.98c7.2-4.34,14.58-8.37,21.82-12.65c1.3-0.77,2.28-2.1,3.4-3.17c-1.18-1.05-2.2-2.5-3.58-3.1
			c-6.38-2.74-12.98-4.98-19.26-7.94c-3.52-1.66-7.83-2.73-10.45-8.04c7.49-0.32,14.02-1.47,20.31-0.7
			c21.88,2.68,43.54,0.92,65.19-2.03c4.09-0.56,7.88-1.82,10.66-5.57c3.24-4.38,6.72-8.78,10.88-12.25
			c17.1-14.26,34.5-28.17,51.79-42.2C770.59,64.76,775.89,60.5,781.18,56.22z M363.5,23.08c-0.31-0.52-0.61-1.04-0.92-1.56
			c-1.42,0-2.89-0.24-4.25,0.04c-19.11,3.95-38.14,8.37-57.33,11.86c-21.38,3.88-42.88,7.18-64.4,10.23
			c-11.1,1.57-21.11,5.5-30.14,11.79c-14.83,10.34-28.21,22.4-40.14,36c-5.8,6.61-11.37,13.41-16.91,20.24
			c-2.1,2.6-2.64,5.44,3.92,5.44c17.62-0.02,35.2,2.19,51.95,7.66c5.65,1.84,8.53,0.69,11.11-3.25c3.21-4.89,6.6-9.8,10.61-14.03
			c27.25-28.71,59.08-51.7,92.35-72.82c0.71-0.45,1.86-0.21,3.37-0.33c-3.27,2.53-5.9,4.47-8.43,6.54
			c-16.5,13.53-33.01,27.05-49.46,40.63c-14.21,11.73-27.49,24.4-38.6,39.18c-1.13,1.5-1.59,3.51-2.69,6.03
			c13.49,0.84,25.75,1.51,38,2.42c4.4,0.33,7.18-1.48,9.4-5.07c4.03-6.48,7.89-13.12,12.5-19.18c19.36-25.5,41.12-48.75,65.79-69.23
			C354.12,31.63,358.76,27.29,363.5,23.08z M421.12,127.33c5.17-0.34,9.1-0.94,13-0.78c6.09,0.25,9.4-2.91,12.67-7.66
			c9.02-13.13,17.56-26.82,28.21-38.55c16.55-18.22,34.69-35,52.15-52.4c2.32-2.31,4.55-4.71,6.82-7.07
			c-1.97-1.1-3.24-1.15-4.5-1.09c-13.94,0.67-27.95,2.46-41.81,1.71c-13.32-0.71-24.56,2.65-35.7,9.46
			c-27.41,16.74-51.9,37.09-75.06,59.12c-11.6,11.04-22.78,22.52-34,33.94c-1.32,1.35-1.72,3.6-2.55,5.43c2,0.38,3.99,0.86,6.01,1.1
			c1.3,0.16,2.65-0.03,3.97-0.08c19.62-0.78,39.23-1.6,58.85-2.29c3.51-0.12,5.15-1.95,6.63-4.89c3.17-6.3,6.34-12.66,10.22-18.53
			c21.15-32,49.3-56.69,81.56-76.97c1.71-1.08,3.64-1.81,5.45-2.73c0.7,1.21,0.43,0.73,1.13,1.94c-1.5,0.98-3.11,1.83-4.47,2.98
			c-8.56,7.23-17.12,14.46-25.57,21.81c-23.16,20.14-43.59,42.69-59.98,68.74C423.05,122.25,422.46,124.28,421.12,127.33z
			 M642.53,100.81c-0.33-1.33-0.18-0.72-0.5-2.05c-4.4,0.95-8.78,2.02-13.21,2.83c-27.24,5.03-54.48,10.06-81.73,14.99
			c-11.91,2.15-23.84,4.29-35.81,6.05c-11.34,1.67-22.74,3.01-34.15,4.18c-19.52,1.99-39.03,4.26-58.61,5.45
			c-22.59,1.38-45.23,1.86-67.86,2.49c-25.29,0.71-50.58,1.52-75.88,1.62c-36.52,0.15-72.69-4.68-108.7-9.9
			c-23.41-3.39-46.56-8.91-69.57-14.5c-22.04-5.36-43.19-13.59-63.44-23.85c-6.33-3.2-12.3-4.91-18.76-0.88
			c-1.47,0.92-2.9,1.9-4.36,2.85c1.21,1.37,2.17,3.14,3.66,4.05c15.08,9.21,30.84,17.11,47.6,22.8
			c23.29,7.92,47.34,12.74,71.55,16.76c10.48,1.74,21.02,3.13,31.53,4.63c19.7,2.83,39.33,6.46,59.13,8.19
			c18.2,1.6,36.57,1.48,54.87,1.52c19.3,0.04,38.62-0.33,57.91-1.08c25.59-0.98,51.16-2.39,76.73-3.83
			c11.43-0.65,22.88-1.47,34.24-2.86c16.79-2.06,33.54-4.49,50.25-7.14c18.01-2.85,36.02-5.8,53.9-9.34
			c15.89-3.14,31.67-6.88,47.38-10.85C613.39,109.23,627.92,104.88,642.53,100.81z M380.09,216.95c0.13-0.55,0.27-1.11,0.4-1.66
			c-1.1-0.66-2.13-1.6-3.32-1.9c-1.92-0.49-4-0.35-5.92-0.84c-19.81-5.02-38.06-13.34-54.27-25.9
			c-10.94-8.48-22.54-16.18-29.77-28.69c-1.33-2.3-5.86-3.69-9-3.84c-21.12-0.99-42.25-1.51-63.38-2.25
			c-5.65-0.2-11.3-0.77-16.95-0.93c-1.65-0.05-3.33,0.75-4.99,1.16c0.79,1.68,1.44,3.45,2.43,5.01c0.6,0.93,1.76,1.49,2.63,2.26
			c16.48,14.82,35.72,25.29,55.3,35.49c19.29,10.05,40.09,16.98,61.63,20c11.62,1.62,23.39,2.52,35.12,2.92
			C360,218.12,370.05,217.27,380.09,216.95z M283,128.22c0.3,0.78,0.36,0.94,0.66,1.72c2.45,0.34,4.89,0.92,7.34,0.97
			c10.49,0.19,20.98,0.13,31.47,0.36c4.65,0.1,7.67-1.97,10.41-5.56c5.01-6.58,9.92-13.38,15.79-19.15
			c11.4-11.2,23.36-21.83,35.22-32.56c14.8-13.38,28.97-27.56,46.12-38.07c7.29-4.47,14.91-8.41,22.36-12.62
			c2.95-1.67,3.31-3.78-0.29-4.48c-3.75-0.74-7.92-1.16-11.56-0.28c-4.74,1.15-9.13,3.75-13.68,5.68
			c-18.67,7.91-35.07,19.52-51.27,31.47c-29.85,22.01-60.65,42.79-88.3,67.66C285.68,124.77,284.4,126.56,283,128.22z
			 M471.52,200.98c-2.16-1.37-3.58-2.37-5.08-3.22c-20.58-11.61-41.14-23.32-58.42-39.69c-5.85-5.54-11.24-8.87-20.09-7.71
			c-12.96,1.7-26.19,1.23-39.3,1.87c-2.62,0.13-5.19,1.13-7.78,1.73c-0.14,0.68-0.16,0.75-0.3,1.43c2.05,1.53,3.94,3.37,6.17,4.56
			c9.68,5.19,19.42,10.28,29.21,15.27c18.21,9.26,36.37,18.61,54.73,27.56c12.33,6.01,25.07,4.59,37.69,0.56
			C469.22,203.05,469.91,202.2,471.52,200.98z M424.29,210.66c0.15-0.73,0.16-0.76,0.31-1.49c-1.49-1.02-2.85-2.28-4.45-3.09
			c-14.68-7.54-29.44-14.95-44.1-22.54c-15.12-7.82-30.35-15.42-42.7-27.67c-2.25-2.23-6.61-3.16-10.03-3.24
			c-7.79-0.19-15.61,0.41-23.4,0.93c-2.75,0.18-5.45,1.06-9.41,1.88c2.13,2.81,3.4,5.33,5.39,6.96c6.27,5.14,12.86,9.9,19.24,14.91
			c16.36,12.83,34.23,22.51,54.71,27.08c8.39,1.87,16.61,4.54,24.99,6.44c5.13,1.17,10.43,2.15,15.66,2.14
			C415.11,212.97,419.7,211.49,424.29,210.66z M835.26,17.3c-1.4-0.12-2.81-0.43-4.19-0.33c-20.24,1.47-40.5,2.75-60.69,4.72
			c-4.11,0.4-8.64,2.67-11.83,5.4c-11.75,10.08-23.05,20.7-34.48,31.16c-4.94,4.52-9.79,9.13-14.84,13.85
			C716.93,76.95,781.06,49.17,835.26,17.3z M146.26,144.57c0.83,7.29,46.49,46.28,57.57,48.67c-1.57-2.68-2.36-4.67-3.69-6.18
			c-8.67-9.88-16.07-20.46-20.1-33.19c-0.66-2.07-2.9-4.78-4.79-5.13C165.7,146.98,156.02,145.9,146.26,144.57z"/>
	</g>
</g>
</svg>
