<?xml version="1.0" encoding="utf-8"?>
<!-- Generator: Adobe Illustrator 28.0.0, SVG Export Plug-In . SVG Version: 6.00 Build 0)  -->
<svg version="1.1" id="Layer_1" xmlns="http://www.w3.org/2000/svg" xmlns:xlink="http://www.w3.org/1999/xlink" x="0px" y="0px"
	 viewBox="0 0 500 500" style="enable-background:new 0 0 500 500;" xml:space="preserve">
<style type="text/css">
	.st0{fill:#8C593E;}
	.st1{fill:#CE9D5F;}
	.st2{fill:#B07E5E;}
	.st3{fill:#BB9278;}
	.st4{fill:#AD8671;}
	.st5{fill:#8F7F82;}
	.st6{fill:#AB734D;}
	.st7{fill:#C58E44;}
	.st8{fill:#B19080;}
	.st9{fill:#C4ADA1;}
	.st10{fill:#BB772B;}
	.st11{fill:#9E705D;}
	.st12{fill:#966244;}
	.st13{fill:#5A3B35;}
	.st14{fill:#896759;}
	.st15{fill:#9D7A69;}
	.st16{fill:#70432A;}
	.st17{fill:#9D6035;}
	.st18{fill:#917672;}
	.st19{fill:#B4988E;}
	.st20{fill:#874D2F;}
	.st21{fill:#773A1B;}
	.st22{fill:#6F5D61;}
	.st23{fill:#A9887A;}
	.st24{fill:#574556;}
	.st25{fill:#D3C0BA;}
	.st26{fill:#F7F3F1;}
	.st27{fill:#E9E0DB;}
</style>
<path class="st0" d="M329.28,121.19c-5.05,0.16-10.09,0.33-15.14,0.49c-2.13-0.13-4.26-0.26-6.39-0.38
	c-2.48-0.28-4.97-0.56-7.45-0.84c-0.08-0.39-0.09-0.79-0.05-1.19c0.02-3.34,0.04-6.68,0.06-10.03c0.8-3.92,1.91-7.81,2.24-11.76
	c0.12-1.39-1.67-2.94-2.59-4.41c-0.73,0.77-1.46,1.53-2.19,2.3c0,0-0.03,0.03-0.03,0.03c-0.41,0-0.82-0.01-1.23-0.03
	c-0.1-1.57-0.2-3.14-0.31-4.71c4.7-0.05,9.4-0.1,14.1-0.14c2.53,0.29,5.07,0.58,7.6,0.87c3.75,0.15,7.49,0.3,11.24,0.44
	c1.29,0.16,2.57,0.32,3.86,0.47c0.86,0.34,1.73,0.69,2.59,1.03c-0.01,0.71-0.02,1.43-0.04,2.14c-1.6,1.3-4.41,2.44-4.61,3.91
	C330.01,106.6,329.77,113.91,329.28,121.19z"/>
<path class="st1" d="M234.8,92.3c1.63,0.07,3.27,0.14,4.9,0.21c0.84,1.41,1.68,2.82,2.53,4.23c0.12,3.76,0.23,7.53,0.34,11.29
	c-0.06,0.38-0.02,0.76,0.11,1.12c-0.55,1.76-1.09,3.53-1.64,5.29c-2.88-0.21-5.76-0.43-8.64-0.64c-0.91-0.45-1.94-1.44-2.71-1.27
	c-7.85,1.7-15.66,3.59-23.48,5.42c-0.88-0.05-1.76-0.09-2.64-0.14c-0.91-6.98-1.83-13.96-2.74-20.95c-0.34-0.51-0.67-1.02-1.01-1.53
	c0.88-1.35,1.75-2.69,2.63-4.04c0.52-0.04,1.03-0.08,1.55-0.13c2.3,0.21,4.59,0.43,6.89,0.64c1.06,1.14,2.2,3.34,3.18,3.26
	c6.61-0.49,13.19-1.45,19.77-2.26C234.2,92.7,234.51,92.53,234.8,92.3z"/>
<path class="st2" d="M259.83,288.68c-0.01,2.51-0.03,5.02-0.04,7.53c-1.37,1.18-3.15,2.12-3.99,3.6c-1.07,1.89-1.37,4.22-2.01,6.35
	c-3.89,2.92-7.78,5.84-11.67,8.76c-0.22-1.37-0.72-2.76-0.61-4.09c0.65-7.63,2.19-15.26,2.03-22.86
	c-0.34-15.66-1.56-31.3-2.42-46.95c2.7-1.53,5.39-3.06,9.28-5.27c0.38,4.76,0.69,8.79,1.01,12.82c0.37,3.3,0.74,6.59,1.1,9.89
	c-0.53,8.55-1.07,17.09-1.6,25.64c0.69,0.06,1.39,0.11,2.08,0.17c0.69-1.46,1.37-2.93,2.06-4.39c1.23-0.44,2.47-0.89,3.7-1.33
	C259.11,281.92,259.47,285.3,259.83,288.68z"/>
<path class="st3" d="M261.26,145.61c0.13,7.08,0.26,14.15,0.39,21.23c0.32,2.11,0.64,4.23,0.95,6.34
	c-0.32,3.61-0.63,7.21-0.95,10.83c-0.87,3.74-1.65,7.49-2.62,11.19c-1.72,6.57-3.53,13.12-5.37,19.66c-0.81,2.86-1.78,5.68-2.26,7.2
	c-4.39-1.7-7.3-2.83-10.21-3.96c0.42-4.86,0.83-9.72,1.25-14.59c0.03-0.46,0.05-0.92,0.08-1.38c3.65,0.09,5.71-1.83,4.75-5.24
	c-0.45-1.58-3.05-2.56-4.67-3.81c-0.04-1.66-0.08-3.33-0.12-4.99c-0.04-4.72-0.1-9.45-0.12-14.17c-0.01-3.98,0.03-7.96,0.05-11.95
	c3.32,5.4,6.64,10.79,9.96,16.19c0.76-0.02,1.52-0.04,2.28-0.06c1.35-5.42,2.7-10.84,4.05-16.26c0.47-5.44,0.95-10.88,1.42-16.32
	C260.5,145.55,260.88,145.58,261.26,145.61z"/>
<path class="st4" d="M199.83,95.33c0.34,0.51,0.67,1.02,1.01,1.53c-5.51,5.26-1.06,12.22-2.97,18.15c-0.21,0.65,2.11,2.12,3.25,3.2
	c-0.92,0.58-1.84,1.15-2.76,1.73c-0.73,0.02-1.46,0.04-2.18,0.06c-0.98,0.01-1.97,0.02-2.95,0.03c-3.72,0.37-7.43,0.74-11.15,1.1
	c-0.32-0.84-0.64-1.68-0.96-2.51c-0.48,0.87-0.96,1.74-1.44,2.62c-4.62-0.15-9.24-0.3-13.86-0.45c0.44-0.94,0.88-1.89,1.33-2.83
	c1.6-1.28,4.47-2.48,4.57-3.87c0.42-5.88,0.02-11.82-0.09-18.7c0.81,0,3.08,0.33,5.17-0.11c1.46-0.31,2.7-1.67,4.04-2.57
	c1.27-0.4,2.53-0.79,3.8-1.19c2.1,0.09,4.2,0.18,6.3,0.27C193.9,92.97,196.87,94.15,199.83,95.33z"/>
<path class="st5" d="M97.88,376.78c-12.15-0.03-24.29-0.06-36.44-0.08c-0.84-0.09-1.67-0.17-2.51-0.26
	c-3.4-0.84-6.79-1.69-10.19-2.53c0.46-2.66-1.17-6.66,4.04-6.28c1.62-1.25,3.23-2.49,4.85-3.74c4.15-0.52,8.29-1.05,12.44-1.57
	c0.86,1.28,1.71,2.55,2.56,3.83c0.93-0.8,1.87-1.61,2.8-2.41c1.55-0.2,3.1-0.4,4.65-0.6c2.64-0.04,5.27-0.08,7.9-0.12
	c1.63-0.13,3.25-0.25,4.88-0.38c2.98,0.36,5.95,0.73,8.93,1.09c-1.9,5.77-0.24,10.93,4.3,13.35c-1.86,0.11-3.73,0.23-5.59,0.34
	C99.63,377.21,98.75,376.99,97.88,376.78z"/>
<path class="st1" d="M105.47,105.9c5.85-1.88,11.7-3.77,17.56-5.65c2.14-0.28,4.27-0.56,6.41-0.85c1.64-0.16,3.27-0.32,4.91-0.49
	c3.38-0.7,6.77-1.41,10.15-2.11c0.81-0.06,1.61-0.12,2.42-0.18c2.5-0.01,5-0.01,7.5-0.02c0.4-0.19,0.81-0.39,1.21-0.58
	c1.7-0.15,3.41-0.3,5.11-0.45c0.04,0.49,0.09,0.97,0.13,1.46c0.33,5.72,0.65,11.44,0.98,17.16c-2.51,2.11-5.01,4.22-7.52,6.34
	c-5.41-0.11-10.83-0.21-16.24-0.32c0.85-0.74,1.58-1.84,2.57-2.15c5.15-1.63,8.01-5.64,5.71-10.64c-0.88-1.91-5.79-2.12-8.94-2.76
	c-1.72-0.35-3.59,0.13-5.39,0.06c-2.5-0.09-5.08-0.83-7.47-0.4c-4.28,0.77-8.38,2.55-12.67,3.2
	C109.88,107.85,107.62,106.5,105.47,105.9z"/>
<path class="st6" d="M242.12,314.92c3.89-2.92,7.78-5.84,11.67-8.76c0,12.07,0,24.14,0,37.84c3.3-2.8,4.75-4.04,6.21-5.27
	c0.66,2.55,1.32,5.09,1.98,7.64c0.28,1.2,0.57,2.4,0.85,3.6c-1.37,0.81-2.75,1.62-4.12,2.43c-3.39,0.91-6.86,1.59-10.11,2.86
	c-1.1,0.43-1.63,2.35-2.42,3.59c-1.67,0.39-3.34,0.78-5.02,1.17c0.01-2.48,0.03-4.96,0.04-7.44c0.37-0.84,0.74-1.68,1.11-2.53
	c0.06-0.82,0.13-1.64,0.19-2.46c0.68-0.4,1.99-0.85,1.96-1.18c-0.7-7.58-1.55-15.14-2.37-22.7
	C242.11,320.77,242.12,317.85,242.12,314.92z"/>
<path class="st7" d="M105.47,105.9c2.15,0.6,4.41,1.95,6.42,1.64c4.29-0.65,8.39-2.43,12.67-3.2c2.39-0.43,4.97,0.31,7.47,0.4
	c1.8,0.06,3.67-0.41,5.39-0.06c3.15,0.64,8.06,0.86,8.94,2.76c2.3,4.99-0.56,9-5.71,10.64c-0.98,0.31-1.72,1.41-2.57,2.15
	c-0.76,0.17-1.52,0.34-2.29,0.51c-0.91-0.2-1.81-0.39-2.72-0.59c-6.77-2.42-13.17-5.92-20.93-4.81c-3.99,0.57-8.22-0.48-12.33-0.79
	c-0.95-0.07-1.9-0.13-2.85-0.2c-0.55-0.15-1.11-0.3-1.66-0.45c0.01-0.32,0-0.64-0.02-0.96c0.06-2.03,0.13-4.06,0.19-6.09
	c0.42-0.37,0.83-0.74,1.25-1.1c1.19,0.22,2.39,0.44,3.58,0.66c0.19,0.28,0.38,0.55,0.57,0.83c0.29-0.36,0.58-0.71,0.87-1.07
	C102.99,106.08,104.23,105.99,105.47,105.9z"/>
<path class="st2" d="M258.7,161.84c-1.35,5.42-2.7,10.84-4.05,16.26c-0.76,0.02-1.52,0.04-2.28,0.06
	c-3.32-5.4-6.64-10.79-9.96-16.19c0.43-3.4,0.86-6.8,1.28-10.19c8.96-1.76,5.68-9.66,7.54-14.97c0.01-3.27,0.32-6.57-0.03-9.8
	c-0.68-6.28,1.84-8.8,8.06-7.67c0.02,2.86,0.05,5.71,0.07,8.57c-0.21,5.51-0.42,11.01-0.62,16.52c-2.02,1.1-5.62,2-5.79,3.33
	c-0.67,5.3-0.28,10.74-0.28,16.58C255.38,163.2,257.04,162.52,258.7,161.84z"/>
<path class="st8" d="M242.52,347.59c-0.06,0.82-0.13,1.64-0.19,2.46c-0.38,0.4-0.77,0.79-1.15,1.19c-1.24,0.45-2.48,0.91-3.72,1.36
	c0.59-3.3,1.56-6.59,1.7-9.91c0.78-17.87,1.66-35.74,1.85-53.61c0.09-8.47-1.86-16.96-1.91-25.44c-0.13-20.17,0.31-40.35,0.52-60.53
	c0.94,0.14,1.89,0.27,2.83,0.41c-0.42,4.86-0.83,9.72-1.25,14.59c-0.02,1.29-0.05,2.58-0.07,3.87c0,6.35,0,12.7,0,19.05
	c0.86,15.65,2.08,31.29,2.42,46.95c0.16,7.6-1.38,15.23-2.03,22.86c-0.11,1.34,0.39,2.73,0.61,4.09c-0.01,2.92-0.01,5.85-0.01,8.78
	C242.25,331.66,242.39,339.62,242.52,347.59z"/>
<path class="st9" d="M59.03,207.05c0.12-1.2,0.23-2.41,0.34-3.61c0.3-0.88,0.6-1.76,0.89-2.64c0.41-1.63,0.82-3.26,1.23-4.88
	c0.3-0.45,0.6-0.9,0.91-1.35c2.17-7.88,4.13-15.82,6.55-23.62c3.64-11.75,7.53-23.43,11.48-35.08c0.55-1.62,2.05-2.92,3.11-4.36
	c0.59,1.32,1.18,2.63,1.78,3.95c-0.81,7.15-1.62,14.31-2.43,21.46c0.06,6.66,0.8,13.53-4.78,18.5c-0.64-0.15-1.28-0.3-1.91-0.45
	c1.4-5.75,2.79-11.51,4.19-17.26c-0.73-0.15-1.45-0.29-2.18-0.44c-2.64,8.24-5.28,16.47-7.92,24.71c-2.93,8.37-5.86,16.75-8.8,25.12
	C60.67,207.08,59.85,207.06,59.03,207.05z"/>
<path class="st10" d="M296.2,90.65c0.1,1.57,0.2,3.14,0.31,4.71c-0.27,2.13-0.53,4.26-0.8,6.4c-0.16,1.63-0.31,3.26-0.47,4.89
	c-0.23,0.89-0.46,1.78-0.69,2.66c-0.1,1.23-0.19,2.45-0.29,3.68c-0.41,0.8-0.81,1.6-1.22,2.4c0.32,0.88,0.63,1.77,0.95,2.65
	l-0.13,0.6c-0.42,0.19-0.84,0.37-1.25,0.56c-0.71-0.06-1.42-0.12-2.13-0.18c-1.38-0.06-2.75-0.11-4.13-0.17l-0.13,0.3l0.26,0.21
	c-1.23-0.27-2.45-0.53-3.68-0.8c-2.96-4.12-2.52-7.87,0.35-12.06c1.44-2.1,1.36-5.24,2.24-9.11c-3.28,1.06-5.23,1.68-7.3,2.35
	c-1.48-2.4-2.85-4.63-4.23-6.85c0.41-0.81,0.83-1.62,1.24-2.42c0,0-0.04-0.55-0.04-0.55c6.74-0.04,13.48-0.08,20.22-0.12
	C295.59,90.08,295.9,90.36,296.2,90.65z"/>
<path class="st11" d="M237.46,352.59c1.24-0.45,2.48-0.91,3.73-1.36c0.01,0.45,0.03,0.89,0.04,1.34c-0.01,2.48-0.03,4.96-0.04,7.44
	c-0.74,3.08-1.66,6.12-2.16,9.23c-0.34,2.14,0.58,4.66-0.22,6.52c-6.31,14.81-7.3,30.29-6.35,46.07c-0.85,4.93-1.7,9.85-2.55,14.78
	c-0.42,0.01-0.84,0.02-1.27,0.03c-0.42,0.83-0.85,1.67-1.27,2.5c0,0,0-0.01,0-0.01c-0.74,0.43-1.47,0.86-2.21,1.29
	c0.89-4.88,2.15-9.72,2.62-14.64c1.94-20.75,3.62-41.53,5.49-62.29c0.14-1.57,1-3.07,1.53-4.61
	C235.69,356.79,236.57,354.69,237.46,352.59L237.46,352.59z"/>
<path class="st0" d="M392.7,185.77c0.44-2.53,0.88-5.07,1.32-7.6c0.04-0.41,0.08-0.82,0.11-1.22c0.19-1.17,0.38-2.35,0.58-3.52
	c0.12-0.47,0.25-0.94,0.37-1.41c1.01-5.94,2.03-11.88,3.04-17.81c0.81,0.1,1.61,0.19,2.42,0.29c0.28,1.64,0.56,3.28,0.84,4.93
	c0.06,1.04,0.12,2.08,0.19,3.12c-0.07,0.46-0.14,0.92-0.21,1.39c-1.92,11.86-3.83,23.73-5.75,35.59c-0.25,1.41-0.49,2.82-0.74,4.23
	c-0.31,4.83-0.62,9.66-0.94,14.49c-0.72,2.1-1.44,4.2-2.16,6.3c-0.12,2.1-0.23,4.21-0.35,6.31c-1.04-1.11-2.22-2.12-3.09-3.35
	c-0.91-1.29-1.53-2.79-2.27-4.2c2.04-12.04,4.07-24.09,6.11-36.13C392.35,186.71,392.53,186.24,392.7,185.77z"/>
<path class="st12" d="M258.72,352.39c1.37-0.81,2.75-1.62,4.12-2.43c2.5,10.79,5.54,21.5,7.3,32.41c1.14,7.08,0.4,14.45,0.51,21.7
	c-0.97,0.67-1.93,1.33-2.9,2c1.08,0.55,2.15,1.11,3.23,1.66c0.66,4.64,1.32,9.27,1.99,13.91c-0.92-0.47-1.83-0.94-2.75-1.4
	c-0.16-2.73-0.32-5.47-0.48-8.2c-0.45,0.06-0.9,0.12-1.35,0.18c-0.63,1.75-1.26,3.49-1.88,5.24c-0.76-0.07-1.53-0.14-2.29-0.21
	c0-3.28-0.28-6.6,0.09-9.84c0.32-2.83,1.38-5.57,2.11-8.36c3.17-10.37,0.62-20.57-1.83-31.22c-0.42-0.04-1.83-0.19-3.23-0.34
	c-0.4-0.41-0.81-0.82-1.21-1.22C259.66,361.65,259.19,357.02,258.72,352.39z"/>
<path class="st13" d="M361.91,374.16c-0.59-0.32-1.18-0.64-1.76-0.97c0.66-1.36,1.32-2.72,1.98-4.07c4.62,0.29,8.33,5.97,13.62,2.3
	c18.12,0,36.24-0.09,54.35,0.11c2.01,0.02,4,1.65,6,2.53c-0.51,0.57-1.02,1.15-1.53,1.72c-23.76-0.23-47.52-0.46-71.27-0.69
	C362.84,374.78,362.37,374.47,361.91,374.16z"/>
<path class="st0" d="M225.16,440.42c0.74-0.43,1.47-0.86,2.21-1.29c0.41,2.89,0.81,5.77,1.4,9.9c4.74-4.19,7.95-7.04,11.16-9.88
	c0.12,3.14,1.04,6.52,0.18,9.37c-1.61,5.4-4.25,10.49-6.46,15.7c-2.42-1.18-4.77-3.16-7.27-3.36c-3.83-0.31-7.77,0.59-11.66,0.98
	c0.49-1.63,0.98-3.26,1.46-4.89C221.89,452.91,223.11,446.44,225.16,440.42z"/>
<path class="st12" d="M258.74,278.54c-1.23,0.44-2.47,0.89-3.7,1.33c-0.42-3.8-0.82-7.61-1.26-11.41c-0.39-3.34-0.84-6.67-1.27-10
	c-0.37-3.3-0.74-6.59-1.11-9.89c0.8-2.64,2.1-5.24,2.29-7.92c0.34-4.82,3.13-12.87,8.57-13.31c0.4,0.58-0.6,5.71-0.21,6.28
	c0.11,8.57,0.21,17.14,0.32,25.72c-0.85,3.05-1.69,6.1-2.54,9.15c-1.15,0.86-2.29,1.72-3.44,2.58c1.15,0.84,2.3,1.67,3.45,2.51
	c-0.01,1.62-0.02,3.25-0.03,4.87C259.45,278.37,259.09,278.4,258.74,278.54z"/>
<path class="st11" d="M214.73,461.85c3.89-0.39,7.82-1.29,11.66-0.98c2.5,0.2,4.85,2.18,7.27,3.36c2.79,0.43,5.69,0.54,8.32,1.42
	c1.61,0.54,2.8,2.3,4.18,3.5l0.02,0.04c-0.46,0.35-0.92,0.71-1.37,1.06c-0.78,0.08-1.56,0.17-2.34,0.25
	c-5.74-0.37-11.49-0.74-17.52-1.12c0,2.53,0,3.96,0,5.4c-5.49,0.38-10.99,0.76-16.48,1.15c4.71-3.02-0.32-6.14,0.1-9.2
	C210.62,465.1,212.67,463.47,214.73,461.85z"/>
<path class="st4" d="M252.81,32.59c1.67,3.81,3.98,7.49,4.86,11.48c1.18,5.32,1.25,10.88,1.8,16.33c-1.06-0.06-2.11-0.12-3.17-0.18
	c-2.49-1.68-4.98-3.36-7.47-5.04c-0.03-1.23-0.07-2.45-0.1-3.68c-0.8-1.29-1.59-2.58-2.39-3.87c-0.42-0.44-0.84-0.88-1.26-1.32
	c-0.57-1.13-1.14-2.26-1.71-3.39c-0.7,0.77-1.41,1.54-2.11,2.31c-0.02,0.83-0.04,1.66-0.06,2.49c0.02,1.27,0.04,2.53,0.06,3.8
	c-0.01,2.49-0.02,4.99-0.04,7.48c-0.02,0.83-0.04,1.66-0.06,2.49c-0.42,1.29-0.84,2.57-1.26,3.86c-0.33-0.07-0.67-0.13-1.01-0.18
	c-0.66-2.89-1.32-5.77-1.98-8.66c0.17-4.18,0.33-8.37,0.5-12.55c1.88-3.37,3.75-6.75,5.63-10.12c1.85,2.06,3.7,4.13,5.55,6.19
	c1.22-2.38,2.44-4.76,3.68-7.13C252.37,32.75,252.63,32.69,252.81,32.59z"/>
<path class="st14" d="M256.31,60.21c1.06,0.06,2.11,0.12,3.17,0.18c-0.25,6.64-0.49,13.29-0.74,19.93c-3.11-0.53-7.92-0.04-8.99-1.8
	c-2.87-4.73-4.14-10.43-6.04-15.75c-0.82-1.26-1.64-2.52-2.46-3.77c0.01-2.49,0.02-4.99,0.03-7.48c1.27-1.74,2.55-3.47,3.82-5.21
	c0.42,0.44,0.84,0.88,1.26,1.32c0.8,1.29,1.59,2.58,2.39,3.86c0.03,1.23,0.07,2.45,0.1,3.68c0.56,1.86,0.6,4.21,1.8,5.46
	C252.16,62.25,254.81,64.94,256.31,60.21z"/>
<path class="st15" d="M243.7,62.78c1.9,5.32,3.17,11.01,6.04,15.75c1.07,1.76,5.89,1.27,8.99,1.8c0.19,1.68,0.38,3.35,0.57,5.03
	c0.26,2.16,0.53,4.32,0.79,6.47c-0.03,0.36-0.05,0.72-0.05,1.07c-0.46,0-0.92,0-1.38,0.01c-4.08,0-8.21-0.35-12.22,0.17
	c-1.54,0.2-2.82,2.38-4.22,3.66c-0.84-1.41-1.68-2.82-2.52-4.23c0.03-0.33,0.02-0.66-0.04-0.99c0.45-0.8,0.9-1.6,1.35-2.4
	c0.12-0.81,0.24-1.63,0.36-2.44c0.18-0.86,0.36-1.72,0.54-2.59c-0.27-2.49-0.55-4.98-0.82-7.47c0.09-1.28,0.18-2.55,0.27-3.83
	c-0.35-1.71-0.7-3.41-1.06-5.12c-0.24,0.06-0.48,0.14-0.71,0.25c0.11-0.85,0.22-1.71,0.33-2.56c0.42-1.29,0.84-2.57,1.26-3.86
	C242.02,61.93,242.86,62.36,243.7,62.78z"/>
<path class="st7" d="M273.86,92.9c1.38,2.23,2.75,4.46,4.23,6.85c2.07-0.67,4.01-1.29,7.3-2.35c-0.88,3.87-0.8,7.01-2.24,9.11
	c-2.87,4.19-3.31,7.94-0.35,12.06c-1.25,0.12-2.49,0.24-3.74,0.36c-1.85-3.63-8.49-5.69-12.82-3.97c-1.15-0.27-2.3-0.53-3.45-0.8
	c-0.5-0.42-1-0.84-1.49-1.27c-0.51-1.25-1.01-2.51-1.52-3.76c0.05-0.38,0.1-0.76,0.14-1.14c4.63-2.37,9.26-4.75,12.95-6.64
	C273.27,97.86,273.57,95.38,273.86,92.9z"/>
<path class="st4" d="M259.26,119.33c-6.21-1.13-8.74,1.39-8.06,7.67c0.35,3.23,0.04,6.53,0.03,9.8c-2.42,0.33-4.85,0.65-7.64,1.03
	c-0.3-0.95-0.7-2.24-1.11-3.53c-0.29-2.04-0.57-4.08-0.86-6.12c0.07-4.28,0.14-8.56,0.21-12.84c1.49-1.17,2.97-2.34,4.46-3.5
	c3.33-0.04,6.66-0.08,9.99-0.12c0.83,0.41,1.66,0.83,2.5,1.24c0,0,0.06,0.15,0.06,0.15c0.42,0.81,0.85,1.62,1.27,2.43
	c0.11,0.85,0.21,1.69,0.32,2.54C260.04,118.49,259.65,118.91,259.26,119.33z"/>
<path class="st2" d="M241.12,221.97c0.03-1.29,0.05-2.58,0.07-3.87c2.91,1.13,5.82,2.26,10.21,3.96c0.48-1.52,1.46-4.34,2.26-7.2
	c1.84-6.54,3.64-13.09,5.37-19.66c0.97-3.7,1.75-7.46,2.62-11.19c0.26,6.41,0.52,12.82,0.77,19.23c-0.44,1.25-0.87,2.51-1.31,3.76
	c-3.6,4.09-3.24,9.33,0.89,12.72c0.14,2.87,0.29,5.73,0.43,8.6c-0.38,0.01-0.75,0.04-1.12,0.09c-1.76-1.2-3.53-2.4-5.12-3.49
	c-2.48,2.31-4.68,4.36-7.6,7.08C247.08,226.64,247.74,221.15,241.12,221.97z"/>
<path class="st16" d="M270.22,420.25c0.92,0.47,1.83,0.94,2.75,1.4c0.27,2.5,0.54,5,0.8,7.51c0.69,3.35,1.37,6.71,2.06,10.06
	c1.18,3.1,2.36,6.2,3.55,9.31c0.65,1.46,1.29,2.93,1.94,4.39c3.64,1.98,7.29,3.95,10.93,5.93c-1.42,0.86-2.84,1.71-4.26,2.56
	c1.17,0.99,2.2,2.24,3.53,2.91c1.98,1,4.17,1.6,6.27,2.37c-2.07,0.44-4.14,0.87-6.21,1.31c-2.9-0.03-5.8-0.07-8.7-0.1
	c-0.05-0.82-0.11-1.64-0.16-2.46c-0.21-1.42,0.09-3.32-0.72-4.19c-8.9-9.62-9.78-22.54-14.06-34.03
	C267.27,425.43,269.39,422.6,270.22,420.25z"/>
<path class="st17" d="M260,338.73c-1.46,1.24-2.91,2.47-6.21,5.27c0-13.7,0-25.77,0-37.84c0.63-2.14,0.94-4.46,2.01-6.35
	c0.84-1.48,2.63-2.42,3.99-3.6c0.24,0.37,0.48,0.74,0.72,1.1c-0.16,1.27-0.31,2.55-0.47,3.82c0.24,1.72,0.48,3.44,0.72,5.16
	c0.27,0.36,0.54,0.72,0.81,1.08c-0.13,0.85-0.26,1.69-0.4,2.54C260.78,319.52,260.39,329.12,260,338.73z"/>
<path class="st18" d="M48.74,373.91c3.4,0.84,6.79,1.69,10.19,2.53c-0.07,0.35-0.1,0.7-0.1,1.05c-10.97-0.53-21.96-0.91-32.91-1.72
	c-2.24-0.16-4.85-1.44-6.44-3.04c-4.66-4.72-4.02-7.09,2.03-9.98c1.15-0.04,2.3-0.08,3.45-0.12c7.39,0.35,14.79,0.69,22.18,1.04
	c0.57,0.07,1.14,0.15,1.71,0.22c-1.65,0.83-3.3,1.66-4.96,2.48c-6.53,0.81-13.49-1.75-19.98,3.07c2.93,2.09,5.99,3.81,9.25,4.31
	c3.85,0.6,7.87,0.15,11.81,0.15C46.23,373.92,47.48,373.91,48.74,373.91z"/>
<path class="st11" d="M386.06,223.3c0.74,1.41,1.36,2.91,2.27,4.2c0.87,1.23,2.05,2.24,3.09,3.35c-1.27,13.36-2.53,26.72-3.8,40.08
	c-0.64,1.32-1.28,2.64-1.92,3.95c-0.79-0.02-1.59-0.05-2.38-0.07c-0.35-0.27-0.53-0.62-0.55-1.05c0.39-0.12,0.76-0.3,1.1-0.53
	l-0.05-0.52c-0.1-1.8-0.2-3.59-0.3-5.39c0.35-0.41,0.7-0.81,1.05-1.22c0.26-4.86,4.71-10.52-2.71-13.88
	c0.25-1.6,0.51-3.19,0.76-4.79c0.03-2.17,0.06-4.35,0.09-6.52C383.84,235.04,384.95,229.17,386.06,223.3z"/>
<path class="st13" d="M297.78,466.7c-2.1-0.77-4.29-1.37-6.27-2.37c-1.33-0.67-2.36-1.92-3.53-2.91c1.42-0.85,2.84-1.71,4.26-2.56
	c1.03,0.2,2.05,0.4,3.08,0.59c0.38,0.05,0.76,0.1,1.14,0.15c0.94,0.16,1.88,0.32,2.81,0.47c0.43,0.09,0.87,0.18,1.3,0.28
	c5.54,3.43,11.13,6.78,16.48,10.47c0.35,0.24-0.88,4.36-1.8,4.54c-2.77,0.55-5.74,0.05-8.64-0.04c0.2-3.46-1.54-4.99-4.91-4.89
	C300.4,469.18,299.09,467.94,297.78,466.7z"/>
<path class="st5" d="M125.67,374.77c-6.27,0.64-12.54,1.29-18.8,1.93c0.05-3.91,0.1-7.82,0.15-11.73c1.14-0.44,2.29-0.88,3.43-1.31
	c2.31-0.13,4.63-0.25,6.94-0.38c3.35,0.93,6.69,1.86,10.04,2.78C131.71,369.95,126.68,371.95,125.67,374.77z"/>
<path class="st12" d="M224.95,474.78c0-1.43,0-2.86,0-5.4c6.03,0.39,11.77,0.75,17.52,1.12c1.32,1.28,2.53,3.47,3.99,3.65
	c3.59,0.45,7.3-0.02,10.97-0.13c0.92-0.36,1.87-0.65,2.75-1.1c5.02-2.56,11.26-1.54,13.67,2.28c-10.54,0.29-21.07,0.79-31.61,0.8
	C236.47,476.03,230.71,475.22,224.95,474.78z"/>
<path class="st17" d="M335.56,95.47c0.01-0.71,0.02-1.43,0.04-2.14c1.39-0.06,2.78-0.12,4.17-0.18c1.37,0.94,2.74,1.88,4.1,2.82
	c0,0-0.05-0.09-0.05-0.09c3.58,0.41,7.16,0.83,10.74,1.25c1.13-0.04,2.27-0.09,3.4-0.13c1.38,0.51,2.75,1.02,4.13,1.53
	c0.53-0.13,1.05-0.26,1.58-0.39c3.63,0.86,7.26,1.72,10.88,2.58c3.34,0.89,6.67,1.79,10.01,2.68c0.39,0.7,0.79,1.39,1.18,2.09
	c-3,0.33-6,0.66-9,0.99c-1.93-1.08-3.86-2.16-5.79-3.24c-2.87-0.26-5.88-0.04-8.58-0.86c-9.01-2.72-17.5-2.32-25.46,3.09
	C336.46,102.14,336.01,98.8,335.56,95.47z"/>
<path class="st14" d="M252.81,32.59c-0.18,0.1-0.45,0.16-0.53,0.32c-1.24,2.37-2.45,4.75-3.68,7.13c-1.85-2.06-3.7-4.13-5.55-6.19
	c-0.35-0.8-0.71-1.61-1.06-2.41c0.17-0.84,0.35-1.68,0.52-2.53c-0.01-0.84-0.02-1.67-0.03-2.51c0.08-1.24,0.15-2.48,0.23-3.71
	c1.13-1.95,2.27-3.9,3.6-6.2c1.45,0.33,3.21,0.73,4.96,1.13c0.35,0.86,0.7,1.72,1.05,2.58c0.23,0.86,0.46,1.72,0.7,2.58
	C252.95,26.05,252.88,29.32,252.81,32.59z"/>
<path class="st8" d="M160.87,97.05c-0.04-0.49-0.09-0.97-0.13-1.46c0.04-0.84,0.2,0.3,0.25-0.53c6.66-0.13,13.2-2.23,19.86-2.35
	c-1.34,0.89-2.58,2.26-4.04,2.56c-2.1,0.44-4.36,0.11-5.17,0.11c0.11,6.88,0.51,12.82,0.09,18.7c-0.1,1.39-2.97,2.58-4.57,3.87
	c-0.11-4.53-0.66-9.11-0.21-13.58C167.53,98.37,166.68,96.94,160.87,97.05z"/>
<path class="st15" d="M472.35,340.08c1.59,6.39,4.24,17.18,5.83,23.57c-1.4-0.38-2.92,0.38-4.32,0
	c-3.2-14.75-7.34-35.02-10.53-49.78c1.04-0.08,2.09-0.16,3.13-0.24c1.86,7.93,3.72,15.86,5.58,23.79
	C472.15,338.31,472.25,339.19,472.35,340.08z"/>
<path class="st18" d="M434.58,375.77c0.51-0.57,1.02-1.15,1.53-1.72c3.69-0.6,8.13-2.78,10.93-1.48c6.86,3.21,7.11,0.06,6.67-5.09
	c-0.45-1.12-0.91-2.24-1.36-3.37c2.56-0.04,5.13-0.07,7.69-0.11c-0.18,0.92-0.36,1.83-0.53,2.75c1.91,7.48,8.09,7.51,14.01,7.99
	c-5.31,0.57-10.62,1.52-15.94,1.61C449.91,376.49,442.24,376,434.58,375.77z"/>
<path class="st4" d="M85.32,135.45c-0.59-1.32-1.18-2.63-1.78-3.95c1.06-4.51,2.12-9.02,3.18-13.53c-0.36-0.88-0.72-1.76-1.08-2.64
	c-0.24-0.66-0.48-1.33-0.72-1.99c1.23-0.04,2.46-0.08,3.68-0.12c1.3,6.81,2.59,13.61,3.92,20.61c1.59-0.33,3.18-0.65,4.77-0.98
	c0.11,4.22,0.21,8.44,0.32,12.66c-0.22-0.01-0.44-0.03-0.66-0.04c-0.73-3.1-1.46-6.19-2.19-9.29c-0.36,0.07-0.73,0.13-1.09,0.2
	c0,2.22,0,4.43,0,6.64c-0.59,0-1.17,0-1.75,0c-0.21-1.86-0.41-3.72-0.79-7.13c-0.69,2.19-0.86,2.73-1.03,3.27
	c-1.07-0.03-2.14-0.05-3.2-0.08C86.38,137.88,85.85,136.66,85.32,135.45z"/>
<path class="st15" d="M442.18,216.52c1.35,4.26,3.08,10.07,4.22,14.38c2.53,9.59,4.86,19.22,7.27,28.84
	c-1.18-0.44-2.37-0.89-3.55-1.33c-2.88-10.37-5.75-20.74-8.63-31.12c-0.51-1.83-3.42-9.24-3.93-11.07"/>
<path class="st8" d="M243.7,151.78c-0.43,3.4-0.85,6.8-1.28,10.19c-0.02,3.98-0.07,7.97-0.05,11.95c0.01,4.72,0.08,9.45,0.12,14.17
	c-0.93,0.07-1.86,0.14-2.79,0.2c-0.2-14.64-2.43-29.36,1.84-43.81C242.25,146.92,242.97,149.35,243.7,151.78z"/>
<path class="st1" d="M273.86,92.9c-0.29,2.48-0.59,4.95-1.01,8.46c-3.69,1.89-8.32,4.26-12.95,6.64c-0.08-0.45-0.15-0.9-0.23-1.35
	c1.12-4.01,2.32-8,3.22-12.06c0.07-0.33-1.86-1.11-2.86-1.68c0.01-0.36,0.02-0.72,0.05-1.08c0.42-0.17,0.84-0.33,1.26-0.5
	c0.83-0.02,1.65-0.03,2.48-0.05c2.53-0.28,5.06-0.56,7.59-0.84c1.23,0.01,2.46,0.03,3.68,0.04
	C274.69,91.29,274.28,92.09,273.86,92.9z"/>
<path class="st16" d="M335.56,95.47c0.45,3.33,0.9,6.67,1.35,10c-0.02,1.26-0.04,2.52-0.05,3.78c-1.72,3.17-2.8,6.26,0.99,8.81
	l0.07,0.08c0.04,0.8,0.08,1.6,0.13,2.4c-0.19,0.26-0.25,0.54-0.17,0.85c-2.86-0.07-5.73-0.15-8.59-0.22
	c0.49-7.28,0.73-14.59,1.67-21.8C331.14,97.91,333.95,96.77,335.56,95.47z"/>
<path class="st8" d="M107.53,200.83c0.08,1.25,0.17,2.49,0.25,3.74c-1.63,0.84-3.26,1.67-4.9,2.51c-0.4-1.26-0.79-2.53-1.19-3.79
	c-0.55-7.93-2.95-32.02-3.5-39.95c1.06-1.31,0.87,1.26,1.93-0.06c1.27,7.87,5.63,28.02,6.9,35.88
	C107.2,199.72,107.36,200.27,107.53,200.83z"/>
<path class="st19" d="M124.47,291.07c2.07,10.01,4.14,20.03,6.21,30.04c-0.9,0.47-1.8,0.94-2.7,1.4
	c-2.34-9.32-4.72-18.63-6.94-27.98c-0.24-1.03,0.45-2.28,0.71-3.43C122.66,291.09,123.56,291.08,124.47,291.07z"/>
<path class="st20" d="M273.84,475.22c-2.41-3.81-8.65-4.84-13.67-2.28c-0.87,0.45-1.83,0.73-2.75,1.1
	c-0.37-1.99-0.74-3.98-1.11-5.97c1.68-0.02,3.35-0.04,5.03-0.06c3.84,0.36,7.68,0.99,11.52,0.99c3.34,0,6.67-0.7,10.01-1.09
	c2.9,0.03,5.8,0.07,8.7,0.1c-1.84,0.84-3.75,1.55-5.49,2.56c-1.62,0.94-3.06,2.21-4.58,3.33c-0.11,0.38-0.15,0.76-0.11,1.15
	C278.87,475.1,276.36,475.16,273.84,475.22z"/>
<path class="st9" d="M127.98,322.52c0.9-0.47,1.8-0.94,2.7-1.41c2.57,10.07,5.13,20.13,7.69,30.2c-0.09,2.14-0.17,4.27-0.26,6.41
	c-0.86,0.77-1.73,1.53-2.59,2.3C133.01,347.52,130.5,335.02,127.98,322.52z"/>
<path class="st19" d="M34.37,299.59c2.41-10.33,4.82-20.67,7.24-31c1.3-0.44,2.6-0.87,3.9-1.31c-1.14,5.61-2.08,11.28-3.47,16.83
	c-1.37,5.43-3.2,10.74-4.83,16.1C36.26,300.01,35.31,299.8,34.37,299.59z"/>
<path class="st18" d="M135.53,360.02c0.86-0.77,1.73-1.53,2.59-2.3c0.84-0.04,1.67-0.08,2.51-0.12c0,0,0,0.01,0,0.01
	c0.41,0.34,0.82,0.67,1.23,1.01c0.93,0.47,1.86,0.95,2.79,1.42c0.32,0.87,0.65,1.73,0.97,2.6c-0.99,5.42-2.54,10.42-8.86,11.88
	c0.24-11.45,0.24-11.45-7.51-11.99c0.02-0.79,0.04-1.58,0.06-2.38C131.39,360.1,133.46,360.06,135.53,360.02z"/>
<path class="st8" d="M427.28,168.19c1.88,4.35,3.98,8.61,5.58,13.06c1.23,3.41,1.83,7.04,2.71,10.57c-0.03,1.59,1.67,3.04,1.63,4.62
	c-1.27,0.15-4.28,0.44-5.55,0.59c-0.46-0.92-0.93-1.84-1.39-2.77c-1.21-4.11-2.42-8.23-3.63-12.34c0.75-1.44,2.15-2.91,2.11-4.33
	C428.64,174.45,427.81,171.32,427.28,168.19z"/>
<path class="st21" d="M400.55,105.02c2.12-0.35,4.23-0.71,6.35-1.06c2.68-0.01,5.36-0.02,8.04-0.04l-0.19,0.25
	c0,0,0.21-0.24,0.21-0.24c0.08,2.77,0.16,5.54,0.24,8.31c-0.44,0.35-0.87,0.71-1.31,1.06c-1.74-0.05-3.48-0.09-5.22-0.14
	c-1.78-0.05-3.56-0.1-5.34-0.15c-0.42-0.39-0.84-0.78-1.26-1.17c-0.89-1.34-1.79-2.68-2.68-4.02
	C399.77,106.9,400.16,105.96,400.55,105.02z"/>
<path class="st21" d="M281.5,473.89c1.52-1.12,2.96-2.39,4.58-3.33c1.74-1.01,3.65-1.72,5.49-2.56c2.07-0.44,4.14-0.87,6.21-1.31
	c1.31,1.24,2.62,2.48,3.93,3.72c-0.06,1.6-0.11,3.21-0.17,4.81c-3.73-0.08-7.46-0.17-11.19-0.25c-0.57-0.67-1.15-1.33-1.72-2
	c-0.76,0.69-1.51,1.37-2.27,2.06c-1.22,0.03-2.43,0.06-3.65,0.08C282.32,474.71,281.91,474.3,281.5,473.89z"/>
<path class="st1" d="M99.82,114.55c4.12,0.32,8.34,1.36,12.33,0.79c7.76-1.11,14.15,2.39,20.93,4.81c-0.05,0.52-0.1,1.03-0.14,1.55
	c-9.87-1.31-19.76-2.52-29.6-4.06C102.03,117.45,100.98,115.63,99.82,114.55z"/>
<path class="st19" d="M371.27,296.69c4.06,0.04,4.97-2.09,4.19,0.88c-2.33,8.94-12.26,52.22-14.62,61.15
	c-1.02-0.06-2.05-0.11-3.07-0.17C360.01,347.84,369.03,307.41,371.27,296.69z"/>
<path class="st3" d="M243.7,151.78c-0.72-2.43-1.44-4.86-2.17-7.29c-0.01-3.41-0.01-6.82-0.02-10.23c0.33,0.03,0.65,0.04,0.98,0.04
	c0.41,1.29,0.81,2.59,1.11,3.53c2.79-0.37,5.21-0.7,7.64-1.03C249.37,142.12,252.65,150.02,243.7,151.78z"/>
<path class="st22" d="M129.25,362.52c7.75,0.54,7.75,0.54,7.51,11.99c-3.7,0.09-7.4,0.17-11.09,0.26c1.01-2.82,6.04-4.82,1.76-8.7
	C128.04,364.89,128.65,363.7,129.25,362.52z"/>
<path class="st16" d="M194.7,475.63c-2.69,0.05-5.4,0.29-8.06,0.05c-1.21-0.11-2.32-1.18-3.48-1.82c0.66-1.16,1.07-2.61,2.02-3.43
	c1.7-1.47,3.73-2.56,5.62-3.8c2.1-0.77,4.19-1.53,6.29-2.3c-0.4,3.31-0.79,6.61-1.19,9.92C195.5,474.71,195.1,475.17,194.7,475.63z"
	/>
<path class="st11" d="M160.87,97.05c5.81-0.11,6.67,1.32,6.06,7.32c-0.45,4.48,0.1,9.05,0.21,13.58c-0.44,0.94-0.88,1.88-1.32,2.83
	c-0.88,0.01-1.77,0.01-2.65,0.01c-0.44-2.19-0.88-4.39-1.32-6.58C161.52,108.49,161.19,102.77,160.87,97.05z"/>
<path class="st23" d="M431.66,197.03c1.27-0.15,2.54-0.31,3.8-0.46c0.67-0.04,1.35-0.08,2.02-0.13c1.62,6.86,3.24,13.72,4.86,20.58
	c-1.58-0.16-3.15-0.32-4.73-0.48C435.62,210.05,433.64,203.54,431.66,197.03z"/>
<path class="st0" d="M97.31,132.85c-1.59,0.33-3.18,0.65-4.77,0.98c-1.33-7-2.63-13.8-3.92-20.61c2.22-0.09,4.45-0.18,6.67-0.27
	c0.02,0.32,0.03,0.64,0.02,0.96c0.07,2.28,0.15,4.55,0.22,6.82C96.12,124.78,96.72,128.81,97.31,132.85z"/>
<path class="st20" d="M403.33,113.03c1.78,0.05,3.56,0.1,5.33,0.14c0.43,3.81,0.87,7.63,1.18,10.34c-1.46,2.7-2.59,4.79-3.73,6.88
	c-1.64,0.05-3.28,0.11-4.92,0.16c-0.09-0.84-0.19-1.68-0.28-2.53c0.6-3.96,1.21-7.92,1.81-11.88
	C402.93,115.11,403.13,114.07,403.33,113.03z"/>
<path class="st15" d="M458.88,277.18c1.68,7.95,3.37,15.9,5.05,23.85c-0.96,0.47-1.92,0.93-2.89,1.4
	c-0.96-4.24-1.93-8.47-2.89-12.71c-0.21-0.43-0.43-0.87-0.64-1.3c-0.67-3.68-1.33-7.36-2-11.04
	C456.63,277.32,457.75,277.25,458.88,277.18z"/>
<path class="st23" d="M425.92,179.47c-1.5-5.59-2.99-11.19-4.49-16.78c-0.78-2.92-5.72-14.82-1.45-14.86
	c0.88,3.7,6.41,16.66,7.29,20.36c0.54,3.14,1.37,6.26,1.47,9.41c0.05,1.42-1.36,2.88-2.11,4.33
	C426.4,181.11,426.16,180.29,425.92,179.47z"/>
<path class="st18" d="M357.77,358.55c1.02,0.06,2.05,0.11,3.07,0.17c0.39,0.4,0.78,0.81,1.17,1.21c0.85,1.04,1.7,2.09,2.55,3.13
	c-0.82,2.02-1.63,4.03-2.45,6.05c-0.66,1.36-1.32,2.72-1.98,4.07c-2.47-2.25-4.94-4.5-7.4-6.74c-0.12-0.9-0.24-1.79-0.36-2.69
	c0.39-0.19,0.68-0.48,0.86-0.88c0.76-0.94,1.52-1.88,2.28-2.81C356.27,359.56,357.02,359.06,357.77,358.55z"/>
<path class="st24" d="M473.51,374.75c-5.92-0.49-12.1-0.51-14-8c5.03,0,10.06,0,15.62,0c-0.56,3.23-0.97,5.59-1.38,7.95
	C473.74,374.71,473.51,374.75,473.51,374.75z"/>
<path class="st2" d="M260,338.73c0.39-9.61,0.78-19.21,1.17-28.82c0.42,0.03,0.84,0.06,1.26,0.09c-0.15,12.12-0.3,24.24-0.45,36.37
	C261.32,343.82,260.66,341.28,260,338.73z"/>
<path class="st3" d="M206.22,117.94c7.82-1.83,15.63-3.72,23.48-5.42c0.77-0.17,1.8,0.82,2.71,1.27c-2.83,1.32-5.55,3.36-8.51,3.81
	c-5.88,0.88-11.89,0.89-17.85,1.26C206.11,118.56,206.16,118.25,206.22,117.94z"/>
<path class="st11" d="M417.88,136.77c-0.16,2.11-0.32,4.23-0.49,6.34c-0.9,1.27-1.8,2.55-2.71,3.82c-0.43,1.63-0.86,3.27-1.29,4.9
	c-1.77-2.41-3.54-4.83-5.31-7.24c-0.36-0.02-0.68-0.15-0.97-0.36c0.87-1.64,1.73-3.27,2.6-4.91c1.94-2.08,3.88-4.16,5.82-6.24
	C416.31,134.31,417.1,135.54,417.88,136.77z"/>
<path class="st15" d="M197.09,464.33c-2.1,0.77-4.19,1.53-6.29,2.3c4.05-2.16,7.94-4.74,12.19-6.36c4.21-1.61,8.78-2.25,13.2-3.31
	c-0.49,1.63-0.98,3.26-1.46,4.89c-2.06,1.63-4.11,3.25-6.16,4.88c-0.02-0.41-0.03-0.81-0.02-1.22c0.39-3.61-1.82-4.26-4.58-3.63
	C201.61,462.42,199.38,463.49,197.09,464.33z"/>
<path class="st21" d="M409.71,139.32c-0.87,1.64-1.73,3.27-2.6,4.91c-0.33,0.12-0.67,0.24-1,0.36c-1.81-0.5-3.63-1.01-5.44-1.51
	c0.18-4.17,0.35-8.34,0.53-12.52c1.64-0.05,3.28-0.11,4.91-0.16c0.35,0.45,0.71,0.9,1.06,1.34
	C408.02,134.27,408.86,136.79,409.71,139.32z"/>
<path class="st9" d="M25.41,344.06c1.62-7.2,3.23-14.41,4.85-21.61c0.86,0.93,1.73,1.85,2.59,2.78c-1.59,6.62-3.17,13.24-4.76,19.86
	C27.2,344.74,26.31,344.4,25.41,344.06z"/>
<path class="st13" d="M473.74,374.71c0.41-2.36,0.82-4.73,1.38-7.95c-5.56,0-10.59,0-15.62,0c0.17-0.91,0.35-1.83,0.53-2.74
	c2.47,0,4.95-0.01,7.42-0.01c0.86-0.02,1.73-0.04,2.59-0.06c0.83-0.2,1.65-0.41,2.48-0.61c1.58-0.12,3.16-0.25,4.74-0.37
	c0,0-0.06-0.09-0.05-0.09c0.96,0.63,1.92,1.27,2.87,1.9c0.7,0.58,1.39,1.17,2.09,1.75c-0.23,0.32-0.23,0.64,0.02,0.95
	c-0.27,0.54-0.53,1.08-0.8,1.61c-0.77,0.79-1.54,1.58-2.31,2.37C477.3,372.55,475.52,373.63,473.74,374.71z"/>
<path class="st12" d="M208.54,465.5c-0.01,0.41,0,0.81,0.02,1.22c-0.42,3.06,4.61,6.19-0.1,9.2c-1.21,0.07-2.41,0.13-3.62,0.2
	c-2.1-0.64-4.21-1.27-6.31-1.91C199.5,468.6,202.88,465.74,208.54,465.5z"/>
<path class="st6" d="M403.33,113.03c-0.2,1.04-0.4,2.08-0.6,3.12c-2.73,0.57-5.47,1.13-8.2,1.7c-3.32,0.26-6.65,0.52-9.97,0.78
	c-1.34,0.09-2.67,0.18-4,0.27c2.32-1.52,4.46-3.71,7-4.42c4.71-1.32,9.66-1.79,14.51-2.61
	C402.49,112.26,402.91,112.65,403.33,113.03z"/>
<path class="st14" d="M380.06,272.61c-1.31,4.64-2.63,9.28-3.94,13.93l-2.13-0.46c1.02-6.64,7.59-38.28,8.61-44.92
	c1.08-0.36-0.43,8.17,0,10.03c0.12,0.51,0.19,1.02,0.1,1.54c-0.57,3.37-2.07,12.72-2.07,12.92
	C380.44,267.98,380.25,270.26,380.06,272.61z"/>
<path class="st17" d="M95.29,112.95c-2.22,0.09-4.44,0.18-6.67,0.27c-1.23,0.04-2.46,0.08-3.69,0.12c-0.41-0.4-0.82-0.8-1.22-1.2
	c0.24-2.16,0.49-4.31,0.74-6.53c4.12,0.47,7.58,0.86,11.03,1.25C95.41,108.89,95.35,110.92,95.29,112.95z"/>
<path class="st19" d="M25.41,344.06c0.89,0.34,1.79,0.69,2.68,1.03c-1.05,5.85-2.09,11.7-3.14,17.55c-1.15,0.04-2.3,0.08-3.45,0.12
	C22.81,356.52,24.11,350.29,25.41,344.06z"/>
<path class="st8" d="M32.86,325.23c-0.86-0.93-1.73-1.85-2.59-2.78c1.37-7.62,2.74-15.24,4.11-22.85c0.94,0.21,1.89,0.41,2.83,0.62
	C35.75,308.55,34.3,316.89,32.86,325.23z"/>
<path class="st11" d="M407.18,131.74c-0.36-0.45-0.71-0.9-1.06-1.34c1.14-2.09,2.27-4.18,3.73-6.88c-0.31-2.71-0.75-6.52-1.18-10.34
	c1.74,0.05,3.48,0.09,5.22,0.14c-6.5,5.01-0.53,9.92,0.12,14.87C411.73,129.37,409.45,130.55,407.18,131.74z"/>
<path class="st9" d="M45.51,267.28c-1.3,0.44-2.61,0.87-3.91,1.31c1.48-5.54,2.96-11.08,4.44-16.61c1.03,0.08,2.05,0.16,3.07,0.24
	C47.91,257.24,46.71,262.26,45.51,267.28z"/>
<path class="st19" d="M458.88,277.18c-1.12,0.07-2.24,0.14-3.37,0.2c-1.8-6.33-3.59-12.65-5.39-18.98c1.18,0.44,2.37,0.89,3.55,1.33
	C455.4,265.56,457.14,271.37,458.88,277.18z"/>
<path class="st9" d="M115.32,256.04c0.43-2.86,0.86-5.73,1.29-8.59c1.4,7.52,2.8,15.04,4.2,22.56c-1.15-0.61-2.31-1.22-3.45-1.83
	C116.68,264.14,116,260.09,115.32,256.04z"/>
<path class="st23" d="M373.99,286.07c0.61,0.5,1.23,1,1.84,1.5c0.17,2.72,0.8,5.5,0.41,8.13c-0.49,3.29-1.8,6.46-3.3,11.5
	c-0.74-4.45-1.19-7.14-1.63-9.82C372.2,293.6,373.09,289.84,373.99,286.07z"/>
<path class="st9" d="M102.89,207.08c1.63-0.84,3.26-1.67,4.9-2.51c1.48,5.82,2.96,11.64,4.44,17.46c-1.43,0.02-2.86,0.04-4.29,0.07
	c0,0,0.03,0.03,0.03,0.03c-0.66-4.24-0.58-6.21-4.93-11.45C102.98,209.47,102.93,208.27,102.89,207.08z"/>
<path class="st19" d="M50.9,237.26c1.73-6.43,3.47-12.87,5.21-19.3c0.5,0.13,1.01,0.26,1.51,0.39c-1.64,6.46-3.29,12.92-4.93,19.38
	C52.09,237.57,51.49,237.42,50.9,237.26z"/>
<path class="st22" d="M107.02,364.97c-0.05,3.91-0.1,7.82-0.15,11.73c-0.19,0.28-0.45,0.4-0.78,0.37c-4.54-2.42-6.2-7.58-4.3-13.35
	c1.69-0.19,3.37-0.38,5.06-0.58C106.91,363.76,106.96,364.36,107.02,364.97z"/>
<path class="st4" d="M95.48,106.86c-3.46-0.39-6.91-0.78-11.03-1.25c-0.25,2.22-0.5,4.38-0.74,6.53c-0.79-2.21-1.58-4.42-2.37-6.62
	c2.29-0.6,4.6-1.75,6.87-1.67c2.86,0.11,5.68,1.22,8.51,1.91C96.31,106.12,95.89,106.49,95.48,106.86z"/>
<path class="st18" d="M251.28,17.62c-1.75-0.4-3.5-0.8-4.96-1.13c-1.34,2.3-2.47,4.25-3.6,6.2c0.75-3.85,1.5-7.7,2.26-11.54
	c1.26,0.11,2.51,0.22,3.77,0.33C249.59,13.52,250.44,15.57,251.28,17.62z"/>
<path class="st20" d="M407.18,131.74c2.27-1.18,4.55-2.37,6.82-3.55c0.51,1.63,1.02,3.26,1.52,4.9c-1.94,2.08-3.88,4.16-5.82,6.24
	C408.86,136.79,408.02,134.27,407.18,131.74z"/>
<path class="st19" d="M100.39,165.66c-0.82-0.76-2.3-1.47-2.37-2.3c-0.51-5.95-0.74-11.92-1.05-17.89c0.22,0.02,0.44,0.03,0.66,0.04
	C98.55,152.23,99.47,158.94,100.39,165.66z"/>
<path class="st23" d="M117.35,268.18c1.15,0.61,2.31,1.22,3.46,1.84c0.74,4.94,1.49,9.88,2.24,14.81c-1.18-0.02-2.36-0.03-3.54-0.05
	C118.79,279.25,118.07,273.71,117.35,268.18z"/>
<path class="st11" d="M239.69,188.3c0.93-0.07,1.86-0.13,2.79-0.2c0.04,1.66,0.08,3.33,0.12,4.99c-0.03,3.02-0.05,6.03-0.08,9.05
	c-0.03,0.46-0.05,0.92-0.08,1.38c-0.94-0.13-1.89-0.27-2.83-0.4C239.64,198.17,239.66,193.23,239.69,188.3z"/>
<path class="st4" d="M400.67,143.07c1.81,0.5,3.63,1.01,5.44,1.51c-0.59,1.46-1.18,2.92-1.77,4.38c-0.65,0.01-1.29,0.02-1.94,0.03
	c-0.62,1.84-1.24,3.67-1.86,5.51c-0.81-0.1-1.61-0.19-2.42-0.29C398.98,150.49,399.82,146.78,400.67,143.07z"/>
<path class="st6" d="M400.55,105.02c-0.39,0.94-0.78,1.88-1.16,2.82c-4.55-0.78-9.1-1.56-13.65-2.34c-0.39-0.7-0.79-1.39-1.18-2.09
	c2.47,0.33,4.95,0.66,7.42,0.99c1.71,0.19,3.42,0.37,5.13,0.56C398.26,104.98,399.4,105,400.55,105.02z"/>
<path class="st14" d="M461.04,302.43c0.96-0.47,1.92-0.93,2.89-1.4c0.85,4.2,1.69,8.4,2.54,12.6c-1.04,0.08-2.09,0.16-3.13,0.24
	C462.57,310.06,461.81,306.25,461.04,302.43z"/>
<path class="st3" d="M233.85,92.81c-6.59,0.81-13.16,1.78-19.77,2.26c-0.97,0.07-2.11-2.12-3.18-3.27c4.17-0.04,8.33-0.08,12.5-0.13
	c3.01-0.08,6.01-0.16,9.02-0.24c0.32,0.25,8.07,1.05,8.48,0.97C240.98,92.79,233.71,92.44,233.85,92.81z"/>
<path class="st8" d="M199.83,95.33c-2.96-1.18-5.93-2.36-8.89-3.55c-1.3,0.23-6.89,0.22-6.86-0.17c3.75-0.16,18.52-1.45,22.27-1.61
	c0.06,0.39-1.49,1.32-3.89,1.28C201.58,92.64,200.71,93.98,199.83,95.33z"/>
<path class="st25" d="M49.12,252.22c-1.02-0.08-2.05-0.16-3.07-0.24c0.92-3.72,1.85-7.44,2.78-11.16c0.93,0,1.86-0.01,2.79-0.01
	C50.78,244.61,49.95,248.42,49.12,252.22z"/>
<path class="st25" d="M57.61,218.35c-0.5-0.13-1-0.26-1.51-0.39c0.97-3.64,1.95-7.28,2.92-10.91c0.82,0.01,1.64,0.03,2.47,0.04
	C60.2,210.84,58.9,214.6,57.61,218.35z"/>
<path class="st3" d="M266.23,114.96c4.33-1.71,10.98,0.35,12.82,3.97c-2.97-0.33-5.94-0.67-8.9-1
	C268.84,116.94,267.53,115.95,266.23,114.96z"/>
<path class="st3" d="M258.71,144.42c0.21-5.51,0.42-11.01,0.62-16.52c0.39,5.03,0.79,10.06,1.18,15.09
	c-0.24,0.49-0.48,0.98-0.72,1.48C259.43,144.49,259.07,144.47,258.71,144.42z"/>
<path class="st3" d="M261.12,206.99c0.53,3.37,1.06,6.74,1.58,10.1c-0.23,0.87-0.46,1.74-0.69,2.61
	C257.88,216.32,257.51,211.09,261.12,206.99z"/>
<path class="st8" d="M223.4,91.68c-4.17,0.04-8.33,0.08-12.5,0.13c-2.3-0.21-4.59-0.43-6.88-0.64c0.71-0.58,1.41-1.17,2.12-1.76
	c0.76,0,1.52,0,2.28,0c0.88,0.2,1.76,0.39,2.64,0.59c4.13,0.21,20.35,0.67,22.79,1.55C234.01,93.05,227.7,92.16,223.4,91.68z"/>
<path class="st11" d="M198.53,474.21c2.1,0.64,4.21,1.27,6.31,1.91c-3.38-0.16-6.76-0.33-10.14-0.49c0.4-0.46,0.8-0.92,1.2-1.38
	C196.78,474.24,197.66,474.23,198.53,474.21z"/>
<path class="st4" d="M161.84,114.21c0.44,2.19,0.88,4.38,1.32,6.58c-2.95-0.08-5.89-0.16-8.84-0.24
	C156.83,118.44,159.34,116.32,161.84,114.21z"/>
<path class="st12" d="M275.83,439.22c-0.69-3.35-1.37-6.71-2.06-10.06C274.45,432.51,275.14,435.86,275.83,439.22z"/>
<path class="st26" d="M144.49,96.81c-3.38,0.7-6.77,1.41-10.15,2.11"/>
<path class="st16" d="M301.54,475.23c0.06-1.6,0.11-3.21,0.17-4.81c3.37-0.1,5.1,1.43,4.91,4.89
	C304.93,475.28,303.23,475.25,301.54,475.23z"/>
<path class="st11" d="M246.3,111.83c-1.49,1.17-2.97,2.34-4.46,3.5c-0.4-0.18-0.66-0.48-0.8-0.9c0.55-1.76,1.09-3.53,1.63-5.29
	c0,0,0.46,0.01,0.46,0.01l0.47-0.02C244.51,110.04,245.41,110.93,246.3,111.83z"/>
<path class="st11" d="M415.19,112.26c-0.08-2.77-0.16-5.54-0.24-8.31C419.42,106.59,418.17,109.4,415.19,112.26z"/>
<path class="st2" d="M259.84,268.48c0.27,0.45,0.55,0.89,0.82,1.34c-0.27,1.25-0.54,2.5-0.81,3.76c-1.15-0.84-2.3-1.67-3.45-2.51
	C257.55,270.21,258.69,269.35,259.84,268.48z"/>
<path class="st26" d="M271.42,90.44c-2.53,0.28-5.06,0.56-7.59,0.84C266.36,91,268.89,90.72,271.42,90.44z"/>
<path class="st11" d="M414.94,103.93c-2.68,0.01-5.36,0.02-8.04,0.04C409.57,103.95,412.26,103.94,414.94,103.93z"/>
<path class="st9" d="M206.22,117.94c-0.06,0.31-0.11,0.61-0.17,0.92c-2.56,0.36-5.13,0.72-7.69,1.08c0.92-0.58,1.84-1.15,2.76-1.73
	c0.82-0.14,1.64-0.27,2.46-0.41C204.46,117.85,205.34,117.9,206.22,117.94z"/>
<path class="st8" d="M242.49,134.3c-0.33,0-0.65-0.01-0.98-0.04c0.04-2.03,0.08-4.05,0.12-6.08
	C241.92,130.21,242.2,132.25,242.49,134.3z"/>
<path class="st27" d="M262.6,173.18c-0.32-2.11-0.64-4.23-0.95-6.34C261.97,168.95,262.29,171.06,262.6,173.18z"/>
<path class="st19" d="M382.72,240.91c-0.03,2.17-0.06,4.35-0.09,6.52C382.67,245.26,382.69,243.09,382.72,240.91z"/>
<path class="st8" d="M237.45,352.6c-0.88,2.09-1.77,4.19-2.65,6.28C235.69,356.79,236.57,354.69,237.45,352.6z"/>
<path class="st26" d="M129.43,99.41c-2.14,0.28-4.27,0.57-6.41,0.85"/>
<path class="st4" d="M95.53,120.74c-0.07-2.27-0.15-4.55-0.22-6.82c0.55,0.15,1.11,0.29,1.66,0.44
	C96.49,116.48,96.01,118.61,95.53,120.74z"/>
<path class="st26" d="M51.61,240.8c-0.93,0.01-1.86,0.01-2.79,0.01c0.69-1.19,1.39-2.38,2.08-3.56c0.59,0.16,1.19,0.32,1.78,0.47
	C52.33,238.75,51.97,239.78,51.61,240.8z"/>
<path class="st20" d="M270.98,407.74c-1.08-0.55-2.15-1.11-3.23-1.66c0.97-0.67,1.93-1.33,2.9-2
	C270.76,405.3,270.87,406.52,270.98,407.74z"/>
<path class="st2" d="M260.76,306.29c-0.24-1.72-0.48-3.44-0.72-5.16c0.38,0,0.76,0.02,1.14,0.07
	C261.04,302.9,260.9,304.6,260.76,306.29z"/>
<path class="st26" d="M397.12,104.96c-1.71-0.19-3.42-0.37-5.13-0.56C393.69,104.59,395.41,104.77,397.12,104.96z"/>
<path class="st4" d="M240.3,67.67c0.35,1.71,0.7,3.41,1.06,5.12c-0.39-0.03-0.77-0.06-1.15-0.11
	C240.24,71.01,240.27,69.34,240.3,67.67z"/>
<path class="st19" d="M119.51,284.78c1.18,0.02,2.36,0.03,3.54,0.05c0.39,0.85,0.78,1.69,1.17,2.54c-1.07,0.07-2.15,0.13-3.22,0.2
	C120.51,286.63,120.01,285.71,119.51,284.78z"/>
<path class="st9" d="M179.68,121.23c0.48-0.87,0.96-1.74,1.44-2.62c0.32,0.84,0.64,1.67,0.96,2.51
	C181.28,121.16,180.48,121.19,179.68,121.23z"/>
<path class="st3" d="M292.8,120.4c-0.06-0.4-0.13-0.8-0.19-1.19c0.42-0.19,0.83-0.37,1.25-0.56c2.14,0.2,4.27,0.4,6.4,0.61
	c-0.04,0.4-0.03,0.79,0.05,1.19C297.81,120.43,295.3,120.42,292.8,120.4z"/>
<path class="st23" d="M121,287.56c1.07-0.07,2.15-0.13,3.22-0.2c0.08,1.24,0.16,2.47,0.25,3.71c-0.91,0.01-1.81,0.02-2.72,0.03
	C121.5,289.92,121.25,288.74,121,287.56z"/>
<path class="st12" d="M286.37,475.04c0.76-0.69,1.51-1.37,2.27-2.06c0.57,0.67,1.15,1.33,1.72,2
	C289.03,475,287.7,475.02,286.37,475.04z"/>
<path class="st12" d="M281.31,452.91c-0.65-1.46-1.3-2.93-1.94-4.39C280.02,449.99,280.67,451.45,281.31,452.91z"/>
<path class="st26" d="M241,89.12c-0.45,0.8-0.9,1.6-1.35,2.4C240.11,90.72,240.55,89.92,241,89.12z"/>
<path class="st26" d="M211.05,90c-0.88-0.2-1.76-0.39-2.64-0.59C209.29,89.61,210.17,89.81,211.05,90z"/>
<path class="st26" d="M97.88,376.78c0.88,0.21,1.75,0.42,2.63,0.63C99.63,377.2,98.75,376.99,97.88,376.78z"/>
<path class="st27" d="M472.35,340.08c-0.1-0.89-0.2-1.77-0.3-2.66C472.15,338.31,472.25,339.19,472.35,340.08z"/>
<path class="st26" d="M241.91,84.09c-0.18,0.86-0.36,1.72-0.54,2.59C241.55,85.82,241.73,84.95,241.91,84.09z"/>
<path class="st27" d="M355.52,360.07c-0.76,0.94-1.52,1.87-2.28,2.81C354,361.94,354.76,361,355.52,360.07z"/>
<path class="st9" d="M193.22,120.02c0.98-0.01,1.97-0.02,2.95-0.03C195.19,120,194.21,120.01,193.22,120.02z"/>
<path class="st26" d="M85.65,115.33c0.36,0.88,0.72,1.76,1.08,2.64C86.37,117.09,86.01,116.21,85.65,115.33z"/>
<path class="st27" d="M352.38,363.76c0.12,0.9,0.24,1.79,0.36,2.69C352.62,365.55,352.5,364.66,352.38,363.76z"/>
<path class="st18" d="M242.52,28.91c-0.29-0.05-0.59-0.1-0.88-0.16c0.28-0.78,0.57-1.57,0.85-2.35
	C242.5,27.23,242.51,28.07,242.52,28.91z"/>
<path class="st4" d="M253.03,22.78c-0.23-0.86-0.46-1.72-0.7-2.58C252.56,21.06,252.79,21.92,253.03,22.78z"/>
<path class="st25" d="M60.26,200.8c-0.3,0.88-0.6,1.76-0.89,2.64C59.67,202.55,59.97,201.67,60.26,200.8z"/>
<path class="st9" d="M132.93,121.7c0.05-0.51,0.1-1.03,0.14-1.55c0.91,0.19,1.81,0.39,2.72,0.59
	C134.84,121.07,133.89,121.39,132.93,121.7z"/>
<path class="st1" d="M101.75,106.17c-0.29,0.36-0.58,0.71-0.87,1.07c-0.19-0.28-0.38-0.55-0.57-0.83
	C100.79,106.33,101.27,106.25,101.75,106.17z"/>
<path class="st27" d="M361.91,374.16c0.46,0.31,0.93,0.62,1.39,0.93C362.84,374.78,362.37,374.47,361.91,374.16z"/>
<path class="st26" d="M62.4,194.56c-0.3,0.45-0.6,0.9-0.91,1.35C61.8,195.46,62.1,195.01,62.4,194.56z"/>
<path class="st16" d="M296.47,459.59c-0.38-0.05-0.76-0.1-1.14-0.15C295.74,459.19,296.12,459.24,296.47,459.59z"/>
<path class="st16" d="M300.58,460.33c-0.43-0.09-0.87-0.18-1.3-0.28C299.72,460.15,300.15,460.24,300.58,460.33z"/>
<path class="st9" d="M107.53,200.83c-0.17-0.55-0.33-1.11-0.5-1.66C107.2,199.72,107.37,200.27,107.53,200.83z"/>
<path class="st12" d="M281.5,473.89c0.41,0.41,0.81,0.82,1.22,1.23c-0.44-0.03-0.89-0.05-1.33-0.08
	C281.35,474.65,281.39,474.27,281.5,473.89z"/>
<path class="st13" d="M300.26,119.26c-2.13-0.2-4.26-0.4-6.4-0.61c0,0,0.13-0.6,0.13-0.6c0.09-0.83,0.17-1.65,0.26-2.47
	c0-0.86,0.01-1.72,0.01-2.58c0.1-1.23,0.19-2.45,0.28-3.68c0.23-0.89,0.46-1.78,0.69-2.66c0.16-1.63,0.31-3.26,0.47-4.89
	c0.68-2.12,1.36-4.25,2.04-6.37c0,0,0.03-0.03,0.03-0.03c0.61,1.74,1.47,3.44,1.76,5.23c0.46,2.85,0.55,5.76,0.79,8.65
	C300.3,112.58,300.28,115.92,300.26,119.26z"/>
<path class="st16" d="M300.32,109.24c-0.24-2.89-0.33-5.8-0.79-8.65c-0.29-1.79-1.15-3.49-1.76-5.23c0.73-0.77,1.46-1.53,2.19-2.3
	c0.92,1.48,2.71,3.02,2.59,4.41C302.23,101.43,301.13,105.32,300.32,109.24z"/>
<path class="st16" d="M297.75,95.39c-0.68,2.12-1.36,4.25-2.04,6.37c0.27-2.13,0.54-4.26,0.8-6.4
	C296.92,95.38,297.33,95.39,297.75,95.39z"/>
<path class="st8" d="M385.45,292.17c-1.73,12.21-3.46,24.41-5.19,36.62c-0.77-0.11-1.53-0.22-2.29-0.33
	c1.62-12.14,3.24-24.29,4.85-36.43C383.7,292.08,384.57,292.12,385.45,292.17z"/>
<path class="st22" d="M362.12,369.12c0.82-2.02,1.63-4.03,2.45-6.05c0.43-0.07,0.8-0.23,1.14-0.51c2.07-0.01,4.13-0.02,6.2-0.03
	c1.7,0.48,3.41,0.96,5.11,1.44c-0.42,2.49-0.85,4.97-1.27,7.46C370.45,375.09,366.74,369.41,362.12,369.12z"/>
<path class="st0" d="M385.45,292.17c-0.88-0.05-1.75-0.1-2.63-0.14c0.17-5.74,0.34-11.48,0.51-17.22c0.79,0.02,1.59,0.05,2.38,0.07
	c0.32,0.38,0.64,0.76,0.95,1.14C386.26,281.4,385.85,286.79,385.45,292.17z"/>
<path class="st14" d="M377.97,328.46c0.76,0.11,1.53,0.22,2.29,0.33c-0.26,6.23-0.53,12.46-0.79,18.69
	c-0.87-0.79-2.5-1.59-2.48-2.36C377.13,339.57,377.6,334.02,377.97,328.46z"/>
<path class="st18" d="M377.01,363.96c-1.7-0.48-3.41-0.96-5.11-1.44c1.26-2.46,2.99-19.98,7.64-18.71
	c0.39,0.93-1.11,15.34-0.72,16.27c-0.15,0.8-0.29,1.59-0.44,2.39C377.93,362.97,377.47,363.46,377.01,363.96z"/>
<path class="st19" d="M365.7,362.56c-0.33,0.27-0.71,0.44-1.14,0.51c-0.85-1.04-1.7-2.09-2.55-3.13
	C363.24,360.81,364.47,361.68,365.7,362.56z"/>
<path class="st14" d="M246.3,111.83c-0.9-0.9-1.79-1.79-2.69-2.69c-0.35-0.37-0.69-0.74-1.04-1.11c-0.11-3.76-0.23-7.53-0.34-11.29
	c1.4-1.28,2.68-3.46,4.22-3.66c4.01-0.52,8.14-0.17,12.22-0.17c0.34,4.58,0.67,9.16,1.01,13.73c0.08,0.45,0.16,0.9,0.23,1.35
	c-0.05,0.38-0.09,0.76-0.14,1.14c-0.35,0-0.71,0.03-1.06,0.09c-0.81,0.83-1.61,1.66-2.42,2.49
	C252.96,111.75,249.63,111.79,246.3,111.83z"/>
<path class="st14" d="M203.58,117.8c-0.82,0.14-1.64,0.27-2.46,0.41c-1.14-1.09-3.46-2.55-3.25-3.2c1.9-5.93-2.54-12.9,2.97-18.15
	C201.75,103.84,202.66,110.82,203.58,117.8z"/>
<path class="st15" d="M242.57,108.03c0.35,0.37,0.7,0.74,1.04,1.11c0,0-0.47,0.02-0.47,0.02s-0.47-0.01-0.46-0.01
	C242.55,108.78,242.51,108.41,242.57,108.03z"/>
<path class="st6" d="M253.7,240.64c-0.19,2.68-1.49,5.28-2.29,7.92c-0.32-4.03-0.64-8.06-1.01-12.82c-3.88,2.21-6.58,3.74-9.28,5.27
	c0-6.35,0-12.7,0-19.05c6.62-0.82,5.96,4.67,7.48,10.03c2.92-2.72,5.12-4.77,7.6-7.08c1.6,1.09,3.36,2.29,5.12,3.49"/>
<path class="st6" d="M252.51,258.46c0.43,3.33,0.88,6.67,1.27,10c0.45,3.8,0.84,7.61,1.26,11.41c-0.69,1.46-1.37,2.93-2.06,4.39
	c-0.69-0.06-1.39-0.11-2.08-0.17C251.44,275.55,251.98,267.01,252.51,258.46z"/>
<path class="st6" d="M259.79,144.46c0.18,0.33,0.29,0.69,0.33,1.06c-0.47,5.44-0.95,10.88-1.42,16.32
	c-1.66,0.68-3.33,1.36-6.06,2.48c0-5.83-0.4-11.27,0.28-16.58c0.17-1.33,3.77-2.23,5.79-3.33
	C259.07,144.47,259.43,144.49,259.79,144.46z"/>
<path class="st2" d="M242.53,202.13c0.02-3.01,0.05-6.03,0.08-9.05c1.62,1.25,4.22,2.23,4.67,3.81
	C248.24,200.3,246.17,202.22,242.53,202.13z"/>
<path class="st18" d="M74.35,346.58c0.4,4.39,0.79,8.77,1.19,13.16c-0.03,1.33-0.07,2.66-0.1,3.99c-0.93,0.8-1.87,1.61-2.8,2.41
	c-0.85-1.28-1.71-2.55-2.56-3.83c0.68-5.27,1.35-10.53,2.03-15.8C72.85,346.54,73.6,346.56,74.35,346.58z"/>
<path class="st15" d="M52.46,355.08c-0.7,4.36-0.62,8.25,5.17,8.81c-1.62,1.25-3.23,2.49-4.85,3.74c-1.31-1.25-2.62-2.49-3.93-3.74
	c-0.57-0.07-1.14-0.15-1.71-0.22c0.53-2.88,1.06-5.77,1.59-8.65C49.97,355.04,51.21,355.06,52.46,355.08z"/>
<path class="st22" d="M48.85,363.89c1.31,1.25,2.62,2.49,3.93,3.74c-5.21-0.39-3.58,3.61-4.04,6.28c-1.26,0-2.51,0.01-3.76,0.01
	c-0.36-2.51-0.72-5.03-1.08-7.54C45.55,365.55,47.2,364.72,48.85,363.89z"/>
<path class="st19" d="M93.08,360.04c-0.07,0.86-0.14,1.73-0.21,2.59c-1.63,0.13-3.25,0.25-4.88,0.38c0.73-3.09,1.46-6.18,2.2-9.27
	c0.77,0.06,1.55,0.13,2.32,0.19C92.7,355.96,92.89,358,93.08,360.04z"/>
<path class="st19" d="M75.44,363.73c0.03-1.33,0.07-2.66,0.1-3.99c1.52,1.13,3.03,2.26,4.55,3.39
	C78.53,363.33,76.99,363.53,75.44,363.73z"/>
<path class="st8" d="M154.41,96.62c0.4-0.2,0.81-0.39,1.21-0.59C155.22,96.23,154.81,96.43,154.41,96.62z"/>
<path class="st17" d="M261.35,468.01c-1.68,0.02-3.35,0.04-5.03,0.06c-3.38,0.36-6.77,0.73-10.15,1.09
	c-1.38-1.21-2.57-2.96-4.18-3.5c-2.63-0.89-5.53-0.99-8.32-1.42c2.21-5.22,4.84-10.31,6.46-15.7c0.85-2.85-0.06-6.23-0.18-9.37
	c0-0.86,0-1.71,0-2.57c1.59-3.87,3.83-7.61,4.57-11.63c0.64-3.47-0.43-7.26-0.75-10.91c-0.85-2.51-1.71-5.01-2.56-7.52
	c0-0.83,0-1.66-0.01-2.49c0.63-4.21,1.68-8.41,1.81-12.63c0.32-10.94-0.16-21.93,3.21-32.56c0.79-1.24,1.31-3.16,2.42-3.59
	c3.25-1.27,6.72-1.95,10.11-2.86c0.47,4.63,0.94,9.25,1.41,13.88c-1.38,1.51-3.92,3-3.95,4.53c-0.21,11.24-9.19,20.52-6.41,32.62
	c1.69,7.35,1.53,8.34,8.92,6.29c0.46,13.8,0.81,27.47,1.49,41.13c0.12,2.4,1.58,4.74,2.43,7.11
	C262.19,461.3,261.77,464.66,261.35,468.01z"/>
<path class="st12" d="M246.2,358.84c-3.37,10.63-2.88,21.62-3.21,32.56c-0.13,4.22-1.18,8.42-1.81,12.63
	c-1.42-1.04-2.84-2.08-4.98-3.63c0,5.43,0.42,9.99-0.17,14.43c-0.32,2.45-2.34,4.68-3.59,7c-0.94-15.77,0.04-31.25,6.35-46.07
	c0.79-1.86-0.13-4.38,0.22-6.52c0.5-3.11,1.42-6.16,2.16-9.23C242.85,359.62,244.53,359.23,246.2,358.84z"/>
<path class="st2" d="M242.52,347.59c-0.14-7.96-0.27-15.93-0.41-23.89c0.82,7.57,1.66,15.13,2.36,22.7
	C244.51,346.73,243.2,347.19,242.52,347.59z"/>
<path class="st2" d="M241.22,352.57c-0.01-0.45-0.03-0.89-0.04-1.34c0.38-0.4,0.77-0.79,1.15-1.19
	C241.96,350.88,241.59,351.73,241.22,352.57z"/>
<path class="st16" d="M295.24,106.65c-0.23,0.89-0.46,1.77-0.69,2.66C294.78,108.43,295.01,107.54,295.24,106.65z"/>
<path class="st16" d="M294.26,113c0,0.86-0.01,1.72-0.01,2.58c-0.4-0.08-0.8-0.14-1.21-0.18C293.45,114.6,293.86,113.8,294.26,113z"
	/>
<path class="st0" d="M293.04,115.4c0.4,0.04,0.8,0.1,1.21,0.18c-0.08,0.83-0.17,1.65-0.26,2.48
	C293.67,117.17,293.36,116.28,293.04,115.4z"/>
<path class="st6" d="M232.45,421.83c1.25-2.33,3.27-4.55,3.59-7c0.59-4.43,0.17-9,0.17-14.43c2.13,1.56,3.55,2.59,4.98,3.63
	c0,0.83,0,1.66,0.01,2.49c0.85,2.51,1.71,5.01,2.56,7.52c0.31,3.65,1.39,7.44,0.75,10.91c-0.74,4.02-2.98,7.77-4.57,11.63
	c-2.92,1.64-5.85,3.29-9.4,5.29c-0.26-2.16-0.44-3.71-0.62-5.27C230.76,431.68,231.61,426.76,232.45,421.83z"/>
<path class="st12" d="M229.91,436.61c0.18,1.55,0.37,3.11,0.62,5.27c3.55-2,6.48-3.64,9.4-5.29c0,0.85,0,1.71,0,2.56
	c-3.21,2.84-6.42,5.69-11.16,9.88c-0.58-4.13-0.99-7.02-1.4-9.9c0,0,0,0.01,0,0.01c0.42-0.83,0.85-1.67,1.27-2.5
	C229.06,436.63,229.49,436.62,229.91,436.61z"/>
<path class="st0" d="M228.64,436.63c-0.42,0.83-0.85,1.67-1.27,2.5C227.79,438.3,228.22,437.47,228.64,436.63z"/>
<path class="st11" d="M393.94,218.24c-0.72,2.1-1.44,4.2-2.16,6.3C392.49,222.44,393.21,220.34,393.94,218.24z"/>
<path class="st11" d="M395.61,199.52c-0.25,1.41-0.5,2.82-0.74,4.23C395.12,202.34,395.37,200.93,395.61,199.52z"/>
<path class="st20" d="M262.61,457.95c-0.84-2.37-2.31-4.7-2.43-7.11c-0.67-13.66-1.02-27.33-1.49-41.13
	c-7.39,2.05-7.24,1.05-8.92-6.29c-2.78-12.1,6.2-21.38,6.41-32.62c0.03-1.53,2.57-3.02,3.95-4.53c0.4,0.41,0.81,0.81,1.21,1.22
	c-0.78,6.74-1.37,13.5-2.39,20.2c-0.86,5.69,1.77,10.03,7.45,11.36c-0.73,2.78-1.79,5.53-2.11,8.36c-0.37,3.24-0.09,6.56-0.09,9.84
	c0.76,0.07,1.53,0.14,2.29,0.21c0.63-1.75,1.26-3.49,1.88-5.24c0.45-0.06,0.9-0.12,1.35-0.18c0.16,2.73,0.32,5.47,0.48,8.2
	c-0.83,2.35-2.94,5.18-2.28,6.98c4.27,11.49,5.15,24.41,14.06,34.03c0.81,0.87,0.51,2.77,0.72,4.19c-3.55-0.9-7.2-1.5-10.61-2.77
	C268.81,461.46,265.77,459.56,262.61,457.95z"/>
<path class="st21" d="M266.41,399.06c-5.68-1.33-8.31-5.67-7.45-11.36c1.02-6.7,1.61-13.46,2.39-20.2c1.4,0.15,2.81,0.29,3.23,0.34
	C267.02,378.48,269.58,388.69,266.41,399.06z"/>
<path class="st24" d="M377.01,363.96c0.46-0.5,0.92-0.99,1.37-1.49c1.61,0.4,3.22,0.8,4.82,1.2c1.67,0.33,3.33,0.66,5,0.99
	c2.22-0.38,4.44-0.75,6.66-1.13c2.39-0.05,4.77-0.11,7.16-0.16c0.9-0.22,1.81-0.44,2.71-0.66c0,0,0.56,0.17,0.56,0.17l0.58-0.03
	c0.6,1.08,1.2,2.15,1.8,3.23c1.09-0.93,2.17-1.86,3.26-2.79c2.5-0.16,5.01-0.32,7.51-0.48c0.6,0.67,1.2,1.33,1.8,2
	c0.6-0.84,1.21-1.68,1.81-2.52c0.43-0.4,0.85-0.79,1.28-1.19c3.03,0.66,6.06,1.32,9.08,1.98c1.22,0.21,2.45,0.42,3.67,0.63
	c1.71,1.3,3.31,3.49,5.16,3.73c4.08,0.54,8.29,0.1,12.44,0.06c0.44,5.15,0.19,8.3-6.67,5.09c-2.8-1.31-7.24,0.88-10.93,1.48
	c-2-0.88-3.99-2.51-6-2.53c-18.12-0.2-36.24-0.11-54.35-0.11C376.17,368.93,376.59,366.44,377.01,363.96z"/>
<path class="st21" d="M246.16,469.16c3.38-0.36,6.77-0.73,10.15-1.09c0.37,1.99,0.74,3.98,1.11,5.97c-3.66,0.1-7.37,0.57-10.97,0.12
	c-1.46-0.18-2.67-2.38-3.99-3.65c0.78-0.08,1.56-0.17,2.34-0.25c0.46-0.35,0.92-0.71,1.37-1.06L246.16,469.16z"/>
<path class="st17" d="M246.18,469.2c-0.46,0.35-0.91,0.71-1.37,1.06C245.26,469.9,245.72,469.55,246.18,469.2z"/>
<path class="st11" d="M256.31,60.21c-1.5,4.72-4.14,2.03-5.67,0.43c-1.2-1.26-1.24-3.6-1.8-5.46
	C251.33,56.85,253.82,58.53,256.31,60.21z"/>
<path class="st11" d="M245.1,46.32c-1.27,1.74-2.55,3.47-3.82,5.21c-0.02-1.27-0.04-2.53-0.06-3.8c0.02-0.83,0.04-1.66,0.06-2.49
	c0.7-0.77,1.41-1.54,2.11-2.31C243.95,44.05,244.52,45.18,245.1,46.32z"/>
<path class="st11" d="M243.7,62.78c-0.84-0.43-1.68-0.85-2.52-1.28c0.02-0.83,0.04-1.66,0.06-2.49
	C242.06,60.27,242.88,61.52,243.7,62.78z"/>
<path class="st11" d="M248.74,51.5c-0.8-1.29-1.59-2.58-2.39-3.86C247.15,48.92,247.94,50.21,248.74,51.5z"/>
<path class="st15" d="M241.27,45.23c-0.02,0.83-0.04,1.66-0.06,2.49C241.23,46.89,241.25,46.06,241.27,45.23z"/>
<path class="st2" d="M259.68,106.64c-0.33-4.58-0.67-9.16-1.01-13.73c0.46,0,0.92,0,1.37-0.01c1,0.57,2.93,1.35,2.86,1.68
	C262,98.64,260.8,102.64,259.68,106.64z"/>
<path class="st2" d="M258.7,109.23c0.35-0.06,0.71-0.09,1.06-0.09c0.5,1.25,1.01,2.51,1.52,3.76c-0.81,0.07-1.63,0.14-2.44,0.21
	c0,0-0.06-0.15-0.06-0.15C258.76,111.71,258.73,110.47,258.7,109.23z"/>
<path class="st3" d="M258.84,113.1c0.81-0.07,1.63-0.14,2.44-0.21c0.5,0.42,1,0.85,1.49,1.27c-0.89,0.45-1.77,0.91-2.66,1.36
	C259.69,114.72,259.27,113.91,258.84,113.1z"/>
<path class="st11" d="M258.7,109.23c0.03,1.24,0.05,2.48,0.08,3.73c-0.83-0.41-1.66-0.83-2.5-1.24
	C257.09,110.89,257.9,110.06,258.7,109.23z"/>
<path class="st0" d="M262.61,457.95c3.15,1.6,6.2,3.5,9.49,4.73c3.41,1.27,7.06,1.87,10.61,2.77c0.05,0.82,0.11,1.64,0.16,2.45
	c-3.33,0.39-6.67,1.09-10.01,1.09c-3.84,0-7.68-0.63-11.52-0.99C261.77,464.66,262.19,461.3,262.61,457.95z"/>
<path class="st5" d="M43.9,366.38c0.36,2.51,0.72,5.03,1.08,7.54c-3.95,0-7.96,0.44-11.81-0.15c-3.26-0.51-6.33-2.22-9.25-4.31
	C30.41,364.63,37.37,367.19,43.9,366.38z"/>
<path class="st4" d="M386.66,276.02c-0.32-0.38-0.63-0.76-0.95-1.14c0.64-1.32,1.28-2.63,1.92-3.95
	C387.3,272.63,386.98,274.32,386.66,276.02z"/>
<path class="st0" d="M383.88,273.23c0,0-0.05-0.53-0.05-0.52C383.83,272.71,383.88,273.23,383.88,273.23z"/>
<path class="st19" d="M117.39,363.28c0.19-1.07,0.37-2.14,0.56-3.2c0.45-0.88,1.32-1.77,1.28-2.62c-0.45-9.44-1.05-18.88-1.61-28.32
	c0.77-0.15,1.54-0.3,2.31-0.46c0.64,2.45,1.63,4.87,1.86,7.36c0.57,6.26,0.94,12.55,1.09,18.84c0.11,4.5,2.44,5.76,6.44,5.26
	c-0.02,0.79-0.04,1.58-0.06,2.38c-0.61,1.18-1.21,2.37-1.82,3.55C124.08,365.14,120.73,364.21,117.39,363.28z"/>
<path class="st19" d="M106.85,363.15c1.2,0.17,2.4,0.34,3.6,0.51c-1.15,0.44-2.29,0.88-3.43,1.31
	C106.96,364.36,106.91,363.76,106.85,363.15z"/>
<path class="st10" d="M385.74,105.5c4.55,0.78,9.1,1.56,13.65,2.34c0.89,1.34,1.79,2.68,2.68,4.02c-4.85,0.82-9.8,1.29-14.51,2.61
	c-2.55,0.72-4.68,2.9-7,4.42c-0.69,0.13-1.38,0.25-2.07,0.38c-1.93-0.42-3.87-1.26-5.77-1.19c-5.29,0.2-10.57,0.78-15.85,1.21
	c0,0-0.05-0.05-0.05-0.05c-0.73-0.35-1.46-0.7-2.2-1.04c-5.57-0.02-11.13-0.03-16.7-0.05c0,0-0.07-0.08-0.07-0.08
	c-0.33-2.94-0.66-5.87-0.99-8.81c0.02-1.26,0.03-2.52,0.05-3.78c7.96-5.41,16.44-5.81,25.46-3.09c2.7,0.82,5.71,0.6,8.58,0.85
	c1.93,1.08,3.86,2.16,5.8,3.25C379.74,106.16,382.74,105.83,385.74,105.5z"/>
<path class="st6" d="M376.74,106.49c-1.93-1.08-3.87-2.17-5.8-3.25C372.88,104.32,374.81,105.4,376.74,106.49z"/>
<path class="st13" d="M450.5,363.37c0.61,0.25,1.23,0.5,1.84,0.75c0.45,1.12,0.91,2.25,1.36,3.37c-4.16,0.04-8.36,0.48-12.44-0.06
	c-1.85-0.24-3.45-2.43-5.16-3.73c1.69,0.08,3.37,0.17,5.06,0.25c1.18-0.11,2.36-0.23,3.54-0.34c0,0-0.04,0.02-0.04,0.02
	C446.6,363.54,448.55,363.45,450.5,363.37z"/>
<path class="st8" d="M91.91,156.89c0.01-4.62,0.02-9.24,0.03-13.87c0.58,0,1.16,0,1.75,0c0.56,4.44,1.28,8.87,1.64,13.33
	c0.31,3.94,0.21,7.91,0.29,11.86c-0.19,5.37-0.38,10.74-0.56,16.11c-1.01,0-2.02-0.01-3.04-0.01
	C91.98,175.18,91.95,166.03,91.91,156.89z"/>
<path class="st9" d="M90.12,139.17c0,3.34,0,6.69,0,10.03c-1.07,0-2.14-0.01-3.21-0.01c0-3.37,0-6.73,0-10.1
	C87.98,139.12,89.05,139.14,90.12,139.17z"/>
<path class="st9" d="M107.93,222.09c1.24,9.64,2.48,19.27,3.73,28.91c-5.38,1.7,0.5,5.25-1.24,7.55c-1.25-2.83-3.16-5.55-3.63-8.51
	c-1.16-7.27-1.78-14.63-2.36-21.98c-0.15-1.93-1.84-15.51-1.47-17.48c0.83-0.01,2.85-1.86,3.68-1.88L107.93,222.09z"/>
<path class="st8" d="M110.42,258.55c1.74-2.3-4.14-5.85,1.24-7.55c0.52,1.67,1.04,3.35,1.57,5.02c0.27,8.34,0.53,16.68,0.8,25.02
	c-1.02-0.02-2.04-0.03-3.06-0.05C110.78,273.52,110.6,266.03,110.42,258.55z"/>
<path class="st17" d="M337.92,118.15c5.57,0.02,11.13,0.03,16.69,0.04c0.73,0.35,1.47,0.7,2.2,1.05c0,0,0.05,0.05,0.05,0.05
	c-0.02,0.37-0.03,0.74-0.02,1.11c-6.27,0.05-12.53,0.1-18.8,0.15C338,119.75,337.96,118.95,337.92,118.15z"/>
<path class="st17" d="M336.85,109.26c0.33,2.94,0.66,5.87,0.99,8.81C334.06,115.52,335.13,112.42,336.85,109.26z"/>
<path class="st15" d="M423.79,179.49c1.26,5.32,2.51,10.65,3.77,15.97c0.16,1.49,0.32,2.97,0.49,4.46c0.11,1.5,0.23,2.99,0.34,4.49
	c-1.25-0.35-2.51-0.69-3.76-1.04c-1.68-7.13-7.49-13.35-4.75-21.46c-0.47-0.82-0.94-1.64-1.4-2.45c0,0,0,0,0,0
	c-0.36-1.25-0.72-2.5-1.07-3.75c-0.55-1.66-1.1-3.33-1.65-4.99c-0.23-5.01-0.45-10.03-0.68-15.04c1.04,0,2.08,0,3.12,0"/>
<path class="st23" d="M418.18,155.68c-1.04,0-2.08,0-3.12,0c-0.12-2.91-0.25-5.83-0.37-8.74c0.9-1.27,1.8-2.55,2.71-3.82
	C421.08,147.09,421.18,151.28,418.18,155.68z"/>
<path class="st6" d="M356.85,120.4c-0.01-0.37,0-0.74,0.02-1.11c5.28-0.43,10.56-1.01,15.85-1.21c1.9-0.07,3.84,0.77,5.77,1.19
	C371.27,119.65,364.06,120.02,356.85,120.4z"/>
<path class="st14" d="M198.53,474.21c-0.88,0.01-1.75,0.03-2.63,0.04c0.4-3.31,0.79-6.61,1.19-9.92c2.29-0.84,4.52-1.92,6.87-2.46
	c2.76-0.63,4.97,0.02,4.58,3.63C202.88,465.74,199.5,468.6,198.53,474.21z"/>
<path class="st8" d="M413.81,170.75c0.6,5.03,1.21,10.06,1.81,15.09c-1.57-0.03-3.13-0.07-4.7-0.1c-0.06-4.59-0.12-9.19-0.18-13.78
	c-0.89-9.13-1.77-18.25-2.66-27.38c1.77,2.41,3.54,4.83,5.31,7.24C413.53,158.14,413.67,164.45,413.81,170.75z"/>
<path class="st23" d="M406.78,359.78c-1.14-21.86-2.31-43.72-3.34-65.58c-0.09-1.94,0.81-3.92,1.25-5.88
	c0.61-0.35,1.21-0.7,1.82-1.05c1.06,24.28,2.12,48.56,3.18,72.84C408.72,360,407.75,359.89,406.78,359.78z"/>
<path class="st19" d="M402.3,240.49c-0.64-6.15-1.32-12.29-1.89-18.44c-0.07-0.78,0.42-1.62,0.65-2.43c1.45,0.36,2.9,0.73,4.34,1.09
	c0.36,15.07,0.72,30.13,1.09,45.2c-0.67-0.04-1.35-0.08-2.02-0.11c0.06-2.89,0.12-5.78,0.19-8.66c0-3.08,0.01-6.17,0.01-9.25
	C403.88,245.42,403.09,242.96,402.3,240.49z"/>
<path class="st19" d="M400.47,208.64c0.13-5.98,0.26-11.96,0.39-17.94c1.94,0.38,3.88,0.77,5.82,1.15c-0.33,7.58-0.67,15.16-1,22.74
	c-0.63-4.59-1.27-9.19-1.9-13.78c-0.69,0-1.38,0-2.07-0.01C401.29,203.42,400.88,206.03,400.47,208.64z"/>
<path class="st11" d="M406.67,191.85c-1.94-0.38-3.88-0.77-5.82-1.15c0.87-7.9,1.74-15.79,2.62-23.69c0.8-0.08,1.61-0.15,2.41-0.23
	c0.33,2.15,0.67,4.29,1,6.44C406.81,179.43,406.74,185.64,406.67,191.85z"/>
<path class="st11" d="M400.47,208.64c0.41-2.61,0.82-5.22,1.23-7.83c0.69,0,1.38,0,2.07,0.01c0.63,4.59,1.27,9.19,1.9,13.78
	c-0.09,2.04-0.18,4.08-0.26,6.12c-1.45-0.36-2.9-0.73-4.34-1.09c-0.04-0.45-0.09-0.9-0.13-1.35c-0.11-1.73-0.23-3.46-0.34-5.19
	C400.55,211.6,400.51,210.12,400.47,208.64z"/>
<path class="st0" d="M404.47,265.8c0.67,0.04,1.35,0.08,2.02,0.11c0.01,4.13,0.02,8.27,0.03,12.4c0.04,0.57,0.07,1.14,0.11,1.72
	c-0.04,2.41-0.08,4.83-0.13,7.24c-0.61,0.35-1.21,0.7-1.82,1.05C404.62,280.81,404.55,273.3,404.47,265.8z"/>
<path class="st14" d="M406.78,359.78c0.97,0.11,1.94,0.21,2.9,0.32c0.42,1.06,0.84,2.12,1.25,3.18c-1.09,0.93-2.17,1.86-3.26,2.79
	c-0.6-1.08-1.2-2.15-1.8-3.23c0.02-0.89,0.03-1.78,0.05-2.67C406.19,359.98,406.47,359.85,406.78,359.78z"/>
<path class="st23" d="M404.89,247.18c0,3.08-0.36,15.53-0.37,18.61c-0.77-3.08-1.44-22.81-2.21-25.9
	C403.08,239.9,404.12,247.18,404.89,247.18z"/>
<path class="st14" d="M402.03,363.37c-2.39,0.05-4.78,0.11-7.16,0.16C397.26,363.48,399.64,363.42,402.03,363.37z"/>
<path class="st23" d="M405.93,360.18c-0.02,0.89-0.03,1.78-0.05,2.67c0,0-0.58,0.03-0.58,0.03s-0.56-0.17-0.56-0.17
	C405.14,361.86,405.53,361.02,405.93,360.18z"/>
<path class="st19" d="M74.35,346.58c-0.75-0.02-1.5-0.04-2.25-0.06c-0.9-15.58-1.59-31.15,2.05-46.53c0.5-0.23,1.01-0.47,1.51-0.7
	c-0.48-0.26-0.96-0.52-1.44-0.78c0.31-10.42,0.61-20.83,0.92-31.25c0.77,0.07,1.54,0.13,2.31,0.2
	C76.41,293.83,75.38,320.2,74.35,346.58z"/>
<path class="st19" d="M52.65,326.38c-0.09-1.39,1.16-2.47,1.07-3.86c0.48-1.26,0.96-2.53,1.43-3.79c-0.47-1.66-0.94-3.31-1.4-4.97
	c1.51-13.7,2.99-27.41,4.53-41.11c0.62-5.54,1.36-11.06,2.04-16.59c0.87-0.46,1.74-0.92,2.61-1.38
	c-2.29,23.83-4.58,47.66-6.87,71.49C55.38,326.34,53.34,326.2,52.65,326.38z"/>
<path class="st9" d="M88.98,168.13c-2.1,21.14-4.18,42.28-6.36,63.42c-0.11,1.06-0.99,2.05-1.5,3.07c-1.06,0.43-2.13,0.86-3.2,1.3
	c2.61-22.62,5.21-45.23,7.82-67.85C86.82,168.09,87.9,168.11,88.98,168.13z"/>
<path class="st25" d="M62.93,254.67c-0.87,0.46-1.74,0.92-2.61,1.38c1.57-8.83,3.18-17.66,4.7-26.5c0.99-5.76,3.44-17.73,4.36-23.5
	c3.17-0.45,2.54,6.96,1.78,10.08c-0.91,3.72-1.55,7.52-2.2,11.3c-1.47,8.49-2.85,17-4.37,25.49
	C64.47,253.58,63.51,254.09,62.93,254.67z"/>
<path class="st9" d="M69.08,208.27c1.53-8.77,3.05-17.53,4.58-26.3c0.9-1.51,1.8-3.03,2.69-4.54c0.67,0.52,1.34,1.04,2.01,1.55
	c-1.95,8.51-3.79,17.05-5.96,25.5C72.03,205.94,70.23,207.02,69.08,208.27z"/>
<path class="st23" d="M48.73,355.02c0.88-7.51,1.76-15.01,2.64-22.52c0.95-0.43,1.9-0.86,2.85-1.28
	c-0.59,7.95-1.17,15.91-1.76,23.86C51.21,355.06,49.97,355.04,48.73,355.02z"/>
<path class="st25" d="M77.44,267.45c-0.77-0.07-1.54-0.13-2.31-0.2c0.81-5.43,1.61-10.87,2.42-16.3c0.87-0.03,1.74-0.05,2.61-0.08
	C79.26,256.4,78.35,261.93,77.44,267.45z"/>
<path class="st19" d="M88.98,168.13c-1.08-0.02-2.16-0.04-3.24-0.06c-0.11-3.74-0.23-7.48-0.35-11.22c0-1.85,1.39-8.1,1.39-9.95
	c0.53-0.06,4.26,1.68,3.26,1.77c2.05,1.63-1.5,7.17-0.73,9.53C89.2,161.5,89.09,164.81,88.98,168.13z"/>
<path class="st19" d="M80.16,250.87c-0.87,0.03-1.74,0.05-2.61,0.08c0.12-5.01,0.24-10.02,0.37-15.03c1.07-0.43,2.14-0.86,3.2-1.3
	C80.8,240.04,80.48,245.46,80.16,250.87z"/>
<path class="st9" d="M54.21,331.22c-0.95,0.43-1.9,0.86-2.85,1.28c0.89-1.94,0.37-4.3,1.25-6.23c0.68-0.17,2.77,0.07,3.46-0.11
	C55.45,327.85,54.83,329.53,54.21,331.22z"/>
<path class="st25" d="M74.21,298.5c0.48,0.26,0.96,0.52,1.44,0.78c-0.5,0.23-1.01,0.47-1.51,0.7C74.17,299.49,74.19,299,74.21,298.5
	z"/>
<path class="st9" d="M94.95,273.4c0.08,7.13,0.16,14.26,0.24,21.39c-0.39,2.13-0.77,4.26-1.16,6.39c-1.43-0.36-2.86-0.72-4.28-1.09
	c0.99-8.86,1.98-17.72,2.97-26.57C93.46,273.48,94.21,273.44,94.95,273.4z"/>
<path class="st9" d="M92.99,322.55c-0.16,10.46-0.32,20.92-0.48,31.38c-0.77-0.06-1.55-0.12-2.32-0.19
	c-0.06-4.81-0.1-9.61-0.19-14.42c-0.11-5.67-0.28-11.34-0.42-17.01C90.71,322.39,91.85,322.47,92.99,322.55z"/>
<path class="st8" d="M92.99,322.55c-1.14-0.08-2.28-0.16-3.42-0.24c0.06-7.41,0.12-14.81,0.18-22.22c1.43,0.36,2.86,0.72,4.29,1.09
	c0.17,1.66,0.34,3.32,0.51,4.98C94.02,311.63,93.51,317.09,92.99,322.55z"/>
<path class="st25" d="M95.51,212.06c-0.12,6.32-0.24,12.65-0.35,18.97c-0.83-0.04-1.66-0.09-2.49-0.13
	c0.07-6.28,0.14-12.57,0.21-18.85C93.76,212.06,94.64,212.06,95.51,212.06z"/>
<path class="st19" d="M92.67,230.91c0.83,0.04,1.66,0.09,2.49,0.13c-0.03,8.75-0.06,17.5-0.09,26.25c-0.79-0.02-1.57-0.05-2.36-0.07
	C92.7,248.44,92.69,239.67,92.67,230.91z"/>
<path class="st19" d="M95.51,212.06c-0.88,0-1.76,0-2.63-0.01c0.03-5.43,0.06-10.86,0.09-16.28c0.79-0.41,1.57-0.82,2.36-1.23
	c0.61,2.92,1.22,5.85,1.83,8.77C96.61,206.23,96.06,209.14,95.51,212.06z"/>
<path class="st8" d="M92.71,257.21c0.79,0.02,1.57,0.05,2.36,0.07c-0.04,5.37-0.08,10.75-0.12,16.12c-0.74,0.04-1.49,0.08-2.23,0.12
	C92.72,268.09,92.71,262.65,92.71,257.21z"/>
<path class="st9" d="M95.33,194.54c-0.79,0.41-1.57,0.82-2.36,1.23c-0.32-3.82-0.64-7.64-0.95-11.46c1.01,0,2.03,0.01,3.04,0.01
	C95.14,187.73,95.24,191.14,95.33,194.54z"/>
<path class="st12" d="M243.76,414.05c-0.85-2.51-1.71-5.01-2.56-7.52C242.05,409.03,242.9,411.54,243.76,414.05z"/>
<path class="st26" d="M53.75,313.75c0.47,1.66,0.94,3.31,1.4,4.97c-0.8,0.07-1.6,0.14-2.4,0.21
	C53.08,317.2,53.41,315.48,53.75,313.75z"/>
<path class="st9" d="M52.75,318.93c0.8-0.07,1.6-0.14,2.4-0.21c-0.48,1.26-1.55,4.92-2.03,6.19
	C52.8,323.71,53.07,320.12,52.75,318.93z"/>
<path class="st19" d="M403.38,167.42c0.61-2.77,1.16-24.04,1.77-26.82c0.48,0,1.18,3.53,1.66,3.53c0.26,5.74,0.43,22.11,0.69,27.85
	c-0.2,0.41-0.4,0.82-0.6,1.24"/>
<path class="st8" d="M423.34,361.09c0.13-6.61,0.25-13.21,0.38-19.82c1.05,0,2.1,0,3.15-0.01c0.09,4.32-0.45,8.79,0.49,12.92
	c0.72,3.18,3.31,5.94,5.07,8.88C429.4,362.41,426.37,361.75,423.34,361.09z"/>
<path class="st14" d="M418.45,362.8c1.21-0.17,2.41-0.35,3.62-0.52c-0.6,0.84-1.21,1.68-1.81,2.52
	C419.65,364.13,419.05,363.47,418.45,362.8z"/>
<path class="st15" d="M117.62,329.14c-0.7-5.99-1.4-11.97-2.1-17.96c1.11,0.05,2.22,0.11,3.33,0.16c0.36,5.78,0.72,11.56,1.08,17.34
	C119.15,328.84,118.39,328.99,117.62,329.14z"/>
<path class="st6" d="M356.81,119.24c-0.73-0.35-1.47-0.7-2.2-1.05C355.35,118.54,356.08,118.89,356.81,119.24z"/>
<path class="st15" d="M444.05,336.17c-0.93-3.38-2.33-6.72-2.72-10.16c-1.7-14.84-3.11-29.71-4.63-44.58
	c1.46,0.73,2.93,1.47,4.39,2.21c1.12,9.08,2.29,18.16,3.36,27.24c1,8.46,1.9,16.93,2.85,25.4
	C446.21,336.24,445.13,336.2,444.05,336.17z"/>
<path class="st23" d="M418.45,261.01c-0.37-2.8-0.78-5.59-1.09-8.4c-0.54-4.88-1.29-9.75-1.47-14.64
	c-0.24-6.47-0.02-12.95,0.01-19.43c0.61-1.93,1.22-3.87,1.83-5.8c0.53,6.02,1.06,12.03,1.59,18.05c0.35,1.21,0.71,2.41,1.07,3.62
	c-0.12,1.74-0.24,3.47-0.36,5.21c-0.11,6.48-0.22,12.96-0.34,19.45C419.28,259.72,418.86,260.36,418.45,261.01z"/>
<path class="st23" d="M426.87,341.26c-1.05,0-2.1,0-3.15,0.01c-0.76-8.01-1.52-16.02-2.28-24.03c1.01-1.17,2.02-2.34,3.03-3.51
	C425.27,322.91,426.07,332.09,426.87,341.26z"/>
<path class="st0" d="M424.47,313.74c-1.01,1.17-2.02,2.34-3.03,3.51c-0.12-11.21-0.24-22.43-0.35-33.64
	c0.86-0.46,1.73-0.91,2.59-1.37C423.94,292.74,424.2,303.24,424.47,313.74z"/>
<path class="st15" d="M423.68,282.24c-0.86,0.46-1.73,0.91-2.59,1.37c-0.88-7.53-1.76-15.06-2.64-22.59
	c0.41-0.65-0.07-2.66,0.35-3.31c0.83-0.15,0.79-23.61,1.62-23.76C420.91,241.82,423.18,274.36,423.68,282.24z"/>
<path class="st11" d="M411.08,188.21c-0.05-0.82-0.11-1.64-0.16-2.47c1.57,0.03,3.13,0.07,4.7,0.1c0.04,2.46,0.07,4.92,0.11,7.38
	c-0.11,1.26-0.23,2.52-0.34,3.79c-0.09,1.6-0.18,3.2-0.27,4.79c-1.22,0.02-2.44,0.03-3.67,0.05c0.06-1.83,0.13-3.67,0.19-5.51
	C411.45,193.64,411.27,190.93,411.08,188.21z"/>
<path class="st14" d="M435.65,240.9c0.23,4.07,0.46,8.14,0.69,12.21c-0.72,0.98-1.43,1.96-2.15,2.93
	c-0.75-6.26-1.5-12.52-2.25-18.78c0.96-0.05,1.93-0.09,2.89-0.14c0,0,0.1-0.04,0.1-0.04C435.17,238.36,435.41,239.63,435.65,240.9z"
	/>
<path class="st11" d="M430.12,210.55c0.44,1.21,1.54,8.54,1.98,9.75c0.07,0.49,0.14,0.99,0.21,1.48c0.21,3.05,0.43,6.1,0.64,9.15
	c-1.01-0.01-2.03-0.02-3.04-0.03c-0.64-4.08-3.13-13.77-3.77-17.85C427.07,212.38,429.2,211.21,430.12,210.55z"/>
<path class="st4" d="M434.19,256.05c0.72-0.98,1.43-1.96,2.15-2.93c1,6.12,1.99,12.24,2.99,18.36c-0.63,0.01-1.26,0.02-1.89,0.04
	C436.35,266.36,435.27,261.2,434.19,256.05z"/>
<path class="st11" d="M444.05,336.17c1.08,0.04,2.17,0.07,3.25,0.11c0.11,5.22,0.23,10.44,0.34,15.66
	c-0.75,1.06-1.49,2.12-2.24,3.18C444.95,348.79,444.5,342.48,444.05,336.17z"/>
<path class="st11" d="M417.73,212.74c-0.61,1.93-1.22,3.87-1.83,5.8c-1.25-2.99-2.51-5.97-3.76-8.96c1.15-1.63,2.3-3.26,3.44-4.89
	C416.29,207.38,417.01,210.06,417.73,212.74z"/>
<path class="st19" d="M424.63,203.37c1.25,0.35,2.51,0.69,3.76,1.04c0.57,2.18,1.14,4.37,1.7,6.55c-1.31,1.07-2.61,2.14-3.91,3.22
	C425.66,210.58,425.14,206.97,424.63,203.37z"/>
<path class="st11" d="M450.5,363.37c-1.95,0.08-3.9,0.17-5.85,0.25c0.59-1.6,1.18-3.21,1.77-4.81c0.91-0.91,1.83-1.82,2.74-2.72
	C449.61,358.52,450.05,360.94,450.5,363.37z"/>
<path class="st8" d="M415.58,204.7c-1.15,1.63-2.3,3.26-3.44,4.89c-0.23-2.57-0.46-5.15-0.69-7.72c1.22-0.02,2.45-0.03,3.67-0.05
	C415.27,202.77,415.42,203.73,415.58,204.7z"/>
<path class="st14" d="M429.91,230.9c1.01,0.01,2.03,0.02,3.04,0.03c0.21,1.24,0.42,2.48,0.63,3.71c-0.94,0.05-1.89,0.09-2.83,0.14
	C430.47,233.49,430.19,232.19,429.91,230.9z"/>
<path class="st15" d="M449.16,356.09c-0.91,0.91-1.83,1.82-2.74,2.72c-0.34-1.24-0.68-2.47-1.02-3.71c0.74-1.06,1.49-2.12,2.23-3.18
	C448.14,353.31,448.65,354.7,449.16,356.09z"/>
<path class="st11" d="M430.75,234.78c0.94-0.05,1.89-0.09,2.83-0.14c0.42,0.83,0.83,1.66,1.25,2.49c-0.96,0.05-1.93,0.09-2.89,0.14
	C431.54,236.44,431.15,235.61,430.75,234.78z"/>
<path class="st27" d="M420.38,234.41c-0.36-1.21-0.71-2.41-1.07-3.62C419.67,232,420.03,233.2,420.38,234.41z"/>
<path class="st23" d="M418.47,179.46c0.47,0.82,0.94,1.64,1.4,2.45C419.41,181.1,418.94,180.28,418.47,179.46z"/>
<path class="st8" d="M415.38,197.01c0.11-1.26,0.23-2.52,0.34-3.79C415.61,194.49,415.5,195.75,415.38,197.01z"/>
<path class="st4" d="M435.65,240.9c-0.24-1.27-0.47-2.54-0.71-3.81C435.17,238.36,435.41,239.63,435.65,240.9z"/>
<path class="st23" d="M417.39,175.7c0.36,1.25,0.72,2.5,1.07,3.75C418.11,178.21,417.75,176.95,417.39,175.7z"/>
<path class="st11" d="M444.69,363.61c-1.18,0.11-2.36,0.23-3.54,0.34C442.33,363.83,443.51,363.72,444.69,363.61z"/>
<path class="st26" d="M437.44,271.51c0.63-0.01,1.26-0.03,1.89-0.04C438.7,271.49,438.07,271.5,437.44,271.51z"/>
<path class="st8" d="M113.08,302.37c-0.4-5.83-0.79-11.67-1.19-17.5c1.37,0.84,2.75,1.68,4.12,2.53c-0.02,1.78-0.04,3.55-0.06,5.33
	C115,295.93,114.04,299.15,113.08,302.37z"/>
<path class="st19" d="M113.08,302.37c0.96-3.22,1.92-6.44,2.88-9.65c0.96,6.21,1.92,12.42,2.88,18.62
	c-1.11-0.05-2.22-0.11-3.33-0.16C114.7,308.25,113.89,305.31,113.08,302.37z"/>
<path class="st19" d="M116.02,287.39c-1.37-0.84-2.75-1.68-4.12-2.53c-0.31-1.29-0.63-2.58-0.94-3.87c1.02,0.02,2.04,0.03,3.06,0.05
	C114.69,283.16,115.35,285.27,116.02,287.39z"/>
<path class="st26" d="M94.03,301.18c0.39-2.13,0.77-4.26,1.16-6.39"/>
<path class="st26" d="M94.54,306.16"/>
<path class="st19" d="M406.53,278.31c0.04,0.57,0.07,1.14,0.11,1.72C406.6,279.46,406.56,278.89,406.53,278.31z"/>
<path class="st8" d="M411.08,188.21c0.19,2.71,0.37,5.43,0.55,8.14C411.45,193.64,411.27,190.93,411.08,188.21z"/>
<path class="st15" d="M115.32,253.94c-1.45-8-5.72-25.55-6.6-31.59c-0.05-0.35,0.22-0.64,0.57-0.65c0.74-0.02,1.5-0.11,2.23-0.12
	c0.3,0,0.54,0.23,0.57,0.53c0.56,6.15,4.66,22.48,5.13,28.36c0.01,0.15-0.05,0.29-0.14,0.41c-0.3,0.41-0.46,1.76-0.62,3.03
	C116.37,254.56,115.43,254.59,115.32,253.94z"/>
<path class="st19" d="M77.84,181.6c-1.08-0.02-3.45,2.38-4.52,2.35c0.7-3.57,1.47-5.6,2.35-7.25c1.09-4.65,1.97-7.6,2.24-9.23
	c-0.07-0.37,3.65,1.81,3.88,2.45c-0.4,1.62-1.56,3.03-2.34,5.61C78.39,178.65,78.76,178.21,77.84,181.6z"/>
<path class="st6" d="M262.9,284.77"/>
<path class="st6" d="M262.61,313.32c-3.88,2.21-3.14-41.94-5.83-40.41c0-6.35,0-12.7,0-19.05c6.62-0.82,5.05,4.52,6.57,9.87"/>
<path class="st19" d="M441.23,284.74c-1.12,0.07-3.03-1.28-4.16-1.21c-1.8-6.33,1.65-8.35-0.15-14.68c1.18,0.44,1.02,1.03,2.21,1.47
	C440.87,276.13,439.49,278.92,441.23,284.74z"/>
</svg>
