<?xml version="1.0" encoding="utf-8"?>
<!-- Generator: Adobe Illustrator 28.0.0, SVG Export Plug-In . SVG Version: 6.00 Build 0)  -->
<svg version="1.1" id="Layer_1" xmlns="http://www.w3.org/2000/svg" xmlns:xlink="http://www.w3.org/1999/xlink" x="0px" y="0px"
	 viewBox="0 0 65 65" style="enable-background:new 0 0 65 65;" xml:space="preserve">
<style type="text/css">
	.st0{fill:#FFFFFF;}
</style>
<path class="st0" d="M31.8,38.3c-9.1-0.1-18.2-0.4-27.3-0.6c-2.3,0-3.4-0.8-3.4-3.2c0-2.2,0.2-4.3,0.7-6.5c0.1-0.7,0.9-1.3,1.6-1.7
	c0.8-0.4,1.7,0.1,2.2,0.9c0.4,0.6,0.7,1.2,0.9,2c0.2,1,0.9,1.4,1.8,1.4c1.4-0.1,3-0.1,4.4-0.3c5.2-0.8,10.3-1.7,15.6-2.5
	c3.4-0.6,6.7-1.3,10.1-1.6c2.8-0.2,5.7,0,8.6,0.1c1.7,0.1,3,1,4.1,2.3c0.7,0.8,1.2,1,2.2,0.4c2.1-1.4,6.7-1,8.7,0.6
	c1.6,1.2,2.4,4.6,1.6,6.7C63,38,61.4,38.9,59,38.9C49.9,38.6,40.9,38.5,31.8,38.3L31.8,38.3z M47.2,27.9c-0.7-0.1-1.1-0.2-1.6-0.3
	C42.3,27,42.3,27,41,30.1c0,0.1,0,0.1,0,0.3c-0.8,2.2-1.7,4.3-2.5,6.7c1.7,0,3.1,0,4.6,0c0.2,0,0.6-0.2,0.7-0.4
	C44.9,33.7,46,30.9,47.2,27.9z M32.6,28.4c-3.6,0.4-5.9,3.1-9.1,4.8c3.3,1.2,5.6,4.1,9.1,3.7C32.6,34,32.6,31.3,32.6,28.4z M39,27.4
	c-1.7,0.2-3.1,0.4-4.6,0.6c-0.2,0-0.5,0.4-0.5,0.7c0,2.5,0,5.1,0,7.5c0,0.2,0.4,0.7,0.6,0.7c2,0.4,2.5,0.1,3.2-1.8
	c0.1-0.4,0.3-0.9,0.5-1.3C39.4,31.8,38.8,29.6,39,27.4z M45,37.1c1.6,0,3,0,4.5,0c0.4,0,0.9-0.3,1-0.6c1.5-3,1.3-5.9-2-7.9
	C47.4,31.3,46.2,34.1,45,37.1z M7.7,32.2c-0.1,1.4-0.1,2.7-0.2,4.3c1.8,0,3.5,0,5.1,0c0.2,0,0.7-0.4,0.7-0.6c0.1-1.4,0-2.7,0-4.1
	C11.4,31.9,9.6,32,7.7,32.2z M21.1,33.1c-2-0.9-3.5-2.6-5.9-1.9c-0.7,0.2-1,0.4-0.9,1.1c0,0.9,0,2,0,2.9c0,1.2,1,1.8,2,1.2
	C17.9,35.4,19.4,34.3,21.1,33.1z M6.8,37c0-1.4,0-2.7,0-4.1c0-0.1-0.1-0.4-0.3-0.5c-0.4-0.7-0.9-1.4-1.4-2.1
	c-0.4-0.6-0.7-1.2-1.2-2.1c-0.2,0.4-0.4,0.7-0.4,0.8c-0.1,2.2-0.4,4.5-0.4,6.7c0,0.4,0.8,1,1.4,1.2C5.1,37.2,5.8,37,6.8,37z
	 M56.7,29.7c0,1.4,0,2.7,0,4.1c1.9,0,3.6,0,5.4,0C61.7,30.7,59.8,29.4,56.7,29.7z M18.7,36.3c0,0.1,0,0.2,0.1,0.3c2.7,0,5.5,0,8.4,0
	c-1.6-0.9-3-1.7-4.4-2.5c-0.2-0.1-0.6,0-0.9,0.1C20.8,34.9,19.8,35.7,18.7,36.3z M62.1,35c-1.8,0-3.5,0-5.4,0
	c0.1,0.8,0.1,1.4,0.2,2.1C60.2,37.5,61.4,37,62.1,35z M55.3,33.9c0-1.4,0-2.7,0-4.2c-1,0.5-1.9,0.9-2.7,1.4c0.1,0.9,0.2,1.7,0.3,2.7
	C53.7,33.8,54.5,33.8,55.3,33.9z M26.3,29.8c0-0.1-0.1-0.1-0.1-0.2c-2.1,0.4-4.2,0.7-6.7,1.1c0.9,0.5,1.6,0.9,2.2,1.2
	c0.3,0.1,0.7,0.3,0.9,0.1C24,31.4,25.1,30.6,26.3,29.8z M55.4,35c-2.8-0.1-3,0-3.3,2c1.1,0.1,2.2,0.1,3.3,0.1
	C55.4,36.5,55.4,35.8,55.4,35z"/>
</svg>
