<?xml version="1.0" encoding="utf-8"?>
<!-- Generator: Adobe Illustrator 28.0.0, SVG Export Plug-In . SVG Version: 6.00 Build 0)  -->
<svg version="1.1" id="Layer_1" xmlns="http://www.w3.org/2000/svg" xmlns:xlink="http://www.w3.org/1999/xlink" x="0px" y="0px"
	 viewBox="0 0 100 77" style="enable-background:new 0 0 100 77;" xml:space="preserve">
<g>
	<path d="M18,38.7c-1.5,2.8-1.7,5.6-1.8,8.3c-0.3,7.2-0.4,14.4-0.6,21.6c0,0.2,0,0.4,0,0.7c-0.1,0.7-0.1,1.6-1.2,1.3
		c-0.4-0.1-0.9-0.9-0.9-1.4c-0.1-1.5,0.1-3.1,0.1-4.7c0.2-4.8,0.3-9.6,0.5-14.4c0.1-3.9,0.3-7.9,0.3-11.8c0.1-2.7,0-2.7-2.5-3.7
		c-0.4-0.1-0.7-0.2-1-0.4c-0.8,0.7-1.5,1.3-2.3,1.9c-0.2-0.1-0.4-0.3-0.5-0.4c0.1-0.6,0.1-1.2,0.4-1.7c4.7-9.8,14.6-14.7,25.3-12.8
		c5.8,1,10.9,3.5,16.2,5.7c7.2,3,14.5,5.2,22.3,5c5.1-0.1,10.3-0.2,15.4-0.3c0.4,0,0.8,0,1.2,0c1.2,0,2.1,0.5,2.1,1.8
		c0,1.3-0.8,1.8-2.1,1.8c-4.8-0.1-9.5-0.2-14.3-0.4c-4.3-0.2-8.6-0.4-12.9-0.8c-5.7-0.6-11-2.7-16.3-4.8c-1.8-0.7-3.6-1.4-5.5-2.2
		c0.7,4.6-0.6,8.2-4.8,10.3c-3.2,1.6-6.4,1.3-9.2-0.9c-3.6-2.8-4.2-6.6-2.6-11c-4.6,1.3-8.2,3.8-11.4,7.3c5.9,1.6,9.1,6.2,12.3,10.7
		c6.1,8.6,14.4,14,24.7,15.9c3.9,0.7,8,0.7,12,0.9c2.1,0.1,3,0.5,3,2c0,1.4-0.8,2-2.8,2.1c-11,0.2-21.1-2.5-30-9.2
		c-4.4-3.3-7.7-7.6-10.5-12.2C20,41.5,19,40.2,18,38.7z"/>
	<path d="M79,24.7c-6.7-0.5-12.2-0.5-17.4-1.6c-5-1-9.8-2.9-14.6-4.7c-5.1-1.9-10-4.7-15.5-5.1c-7.9-0.5-15,1.6-20.8,7.2
		C9.9,21.3,9,21.8,8.2,21c-0.7-0.8-0.3-1.6,0.4-2.5c5-6.1,11.8-8.5,19.3-9.1c7.5-0.6,14,2.4,20.4,5.5c8,3.9,16.2,6.5,25.2,6.2
		c5.1-0.2,10.2-0.2,15.3-0.3c1.8,0,2.6,0.6,2.6,2c0,1.4-0.7,2-2.5,2C85.2,24.7,81.5,24.7,79,24.7z"/>
</g>
</svg>
