<?xml version="1.0" encoding="utf-8"?>
<!-- Generator: Adobe Illustrator 28.0.0, SVG Export Plug-In . SVG Version: 6.00 Build 0)  -->
<svg version="1.1" id="Layer_1" xmlns="http://www.w3.org/2000/svg" xmlns:xlink="http://www.w3.org/1999/xlink" x="0px" y="0px"
	 viewBox="0 0 100 100" style="enable-background:new 0 0 100 100;" xml:space="preserve">
<path d="M46.63,42.1c-2.41,0.35-4.69,0.6-6.94,1.02c-4.87,0.91-9.72,1.9-14.57,2.87c-1.8,0.36-2.41-0.21-2.35-2.08
	c0.12-3.41,0.2-6.82,0.26-10.23c0.03-1.69,0.42-2,2.1-1.63c5.42,1.21,10.84,2.4,16.26,3.59c0.3,0.07,0.63,0.01,1.18,0.01
	c-1.22-1.47-2.39-2.76-3.42-4.15c-2.84-3.85-4.71-7.99-4.33-12.99c0.36-4.65,2.41-8.27,6.55-10.15c6.22-2.83,12.6-2.81,18.73,0.54
	c4.1,2.24,5.86,5.95,6.11,10.47c0.29,5.28-1.96,9.59-5.26,13.48c-0.81,0.96-1.7,1.86-2.91,3.17c2.84-0.4,5.26-0.63,7.63-1.09
	c3.51-0.68,6.98-1.54,10.47-2.3c1.73-0.38,2.17-0.01,2.19,1.8c0.03,3.41,0.05,6.83,0.08,10.24c0.01,1.94-0.34,2.12-2.26,1.73
	c-6.73-1.38-13.48-2.69-20.22-4.01c-0.53-0.1-1.09-0.07-1.92-0.11c0.11,1.02,0.18,1.91,0.3,2.8c1.4,10.52,2.81,21.05,4.22,31.57
	c0.61,4.58,1.2,9.16,1.85,13.73c0.21,1.46-0.28,2.28-1.77,2.28c-5.82-0.02-11.65-0.05-17.47-0.17c-1.44-0.03-1.68-1.15-1.49-2.41
	c1.35-8.74,2.7-17.49,4.02-26.24c1.01-6.69,1.97-13.39,2.94-20.08C46.68,43.35,46.63,42.91,46.63,42.1z M48.09,39.7
	c0,0.57,0.05,0.95-0.01,1.32c-0.53,3.52-1.15,7.03-1.59,10.56c-0.39,3.16-0.45,6.37-0.9,9.52c-1.31,9.2-2.75,18.37-4.1,27.56
	c-0.33,2.25,0.13,2.77,2.47,2.85c2.92,0.1,5.84,0.14,8.75,0.12c1.53-0.01,3.07-0.16,4.58-0.41c0.41-0.07,1.01-0.73,1.02-1.12
	c0-1.81-0.09-3.63-0.31-5.43c-0.65-5.17-1.38-10.33-2.07-15.49c-0.94-7.03-1.89-14.06-2.8-21.1c-0.34-2.6-0.56-5.22-0.83-7.86
	c0.35,0,0.51-0.03,0.66,0c7.12,1.39,14.24,2.73,21.34,4.22c1.63,0.34,2.21-0.29,2.3-1.64c0.15-2.25,0.11-4.51,0.25-6.76
	c0.09-1.48-0.43-1.77-1.84-1.48c-6.56,1.35-13.14,2.62-19.72,3.9c-0.45,0.09-0.94,0.01-1.73,0.01c1.78-1.93,3.33-3.48,4.72-5.16
	c1.64-1.98,3.37-3.95,4.67-6.16c1.49-2.55,1.84-5.41,1.6-8.44c-0.29-3.7-2.07-6.27-5.03-8.21c-4.01-2.63-8.5-2.82-13.04-2.31
	c-3.95,0.44-7.2,2.31-8.88,5.98c-1.75,3.83-2.03,7.94-0.01,11.78c1.26,2.4,2.97,4.59,4.64,6.75c1.47,1.91,3.15,3.66,4.73,5.49
	c-0.05,0.16-0.09,0.31-0.14,0.47c-7.42-1.08-14.71-2.93-22.04-4.17c0,3.26,0,6.45,0,9.78C32.69,42.72,40.32,41.22,48.09,39.7z"/>
<path d="M50.37,10.21c3.99,0.18,7.5,1.2,10.14,4.24c1.4,1.61,1.99,3.43,1.54,5.62c-0.99,4.86-3.65,8.8-6.75,12.48
	c-1.15,1.36-2.58,2.51-3.99,3.62c-0.37,0.29-1.32,0.32-1.69,0.05c-4.5-3.29-7.88-7.59-9.91-12.71c-1.61-4.05-0.58-8.37,3.84-11.25
	C45.8,10.81,48.04,10.45,50.37,10.21z M50.33,34.9c4.43-3.57,7.32-7.92,9.32-12.89c1.23-3.06,0.79-5.46-1.26-7.23
	c-4.3-3.68-11.91-3.42-15.84,0.63c-1.3,1.34-2.13,3.03-1.7,4.95C42.18,26.37,46.03,30.74,50.33,34.9z"/>
</svg>
