<?xml version="1.0" encoding="utf-8"?>
<!-- Generator: Adobe Illustrator 28.0.0, SVG Export Plug-In . SVG Version: 6.00 Build 0)  -->
<svg version="1.1" id="Layer_1" xmlns="http://www.w3.org/2000/svg" xmlns:xlink="http://www.w3.org/1999/xlink" x="0px" y="0px"
	 viewBox="0 0 63 92.4" style="enable-background:new 0 0 63 92.4;" xml:space="preserve">
<g>
	<path d="M22.9,32.2c-1.4-1.9-2.8-3.8-4.2-5.7c-3.2-4.4-3.7-9.4-2.5-14.5c0.9-3.8,3.6-6.3,7.1-7.5C29.7,2.3,36,2.3,42,6.1
		c3.3,2.1,4.8,5.3,5.2,9c0.6,5.6-1.3,10.4-5,14.5c-0.8,0.8-1.5,1.7-2,3c2.3-0.3,4.6-0.6,6.9-1.1c3.4-0.7,6.8-1.5,10.2-2.2
		c1.6-0.3,2.2,0.2,2.2,1.8c0.1,3.6,0,7.3,0,10.9c0,1.2-0.6,1.6-1.7,1.5c-0.7-0.1-1.3-0.3-1.9-0.4c-6.3-1.2-12.5-2.4-18.8-3.7
		c-1.4-0.3-1.9,0.2-1.7,1.5c0.5,3.7,1,7.3,1.4,11c1.2,9.3,2.4,18.6,3.6,27.8c0.3,2.5,0.7,4.9,1.1,7.3c0.3,1.8-0.1,2.5-1.8,2.6
		c-3.5,0.2-7,0.4-10.6,0.4c-2.2,0-4.4-0.3-6.6-0.6c-1.8-0.2-2.3-0.8-2-2.6c0.9-5.8,1.8-11.6,2.7-17.4c1.4-9.5,2.8-19,4.1-28.4
		c0.2-1.5-0.2-1.9-1.7-1.6C19,40.6,12.5,41.8,6,43c-1.8,0.3-2.6-0.3-2.5-2.2c0.1-3.3,0.2-6.7,0.3-10.1c0-2.1,0.6-2.4,2.7-1.9
		c5.4,1.2,10.7,2.4,16.1,3.6C22.7,32.4,22.8,32.3,22.9,32.2z M28.3,35.1c-0.1,0.2-0.1,0.3-0.2,0.5c-1.2-0.2-2.5-0.3-3.7-0.5
		c-5.6-1.1-11.2-2.2-16.9-3.4c-1.7-0.3-2-0.1-2,1.6c0,1.9,0.2,3.7,0.2,5.6c0,1.6,0.6,1.9,2.2,1.6c6.4-1.3,12.8-2.6,19.3-3.9
		c1.9-0.4,2-0.2,1.8,1.7c-0.7,6-1.3,11.9-2.1,17.8c-1.3,9.7-2.8,19.3-4.3,28.9c-0.3,2.2,0.2,2.9,2.5,2.9c2.2,0,4.4,0.1,6.6,0
		c1.8,0,3.5-0.2,5.3-0.2c1.6,0,2.2-0.8,2-2.3c-0.7-6.2-1.4-12.3-2.1-18.5c-1-8.2-2.1-16.5-3.2-24.7c-0.2-1.8-0.3-3.6-0.5-5.6
		c1.1,0.2,1.9,0.3,2.7,0.4c6.2,1.2,12.4,2.5,18.6,3.7c2.2,0.4,2.8,0,2.9-2.2c0.1-1.8,0.1-3.5,0.1-5.2c-0.1-2.3-0.1-2.3-2.4-1.8
		c-6.1,1.2-12.2,2.4-18.3,3.6c-0.7,0.1-1.4,0-2.3,0c2.4-2.9,4.4-5.6,6.7-8c3.2-3.3,4.4-7.1,4.2-11.6c-0.2-3.8-2-6.5-5.1-8.3
		c-4.5-2.7-9.4-2.9-14.4-1.8c-1.2,0.3-2.3,1-3.4,1.7c-1.1,0.7-2.3,1.4-3,2.5c-2.8,4.8-2.8,9.7,0.1,14.4c1.3,2.1,3.1,4,4.7,5.9
		C25.5,31.9,26.9,33.5,28.3,35.1z"/>
	<path d="M31.2,7c4.2-0.1,7.6,1.1,10.3,4c1.5,1.6,2.1,3.5,1.7,5.6c-0.7,3.6-1.9,7.1-4.5,9.9c-2,2.2-4,4.3-6,6.5
		C31.7,34,30.9,34,29.8,33c-3.7-3.2-6.7-7-8.9-11.4c-3.8-7.7,2.2-15,9.8-14.7C30.9,7,31.2,7,31.2,7z M31.6,8.6
		c0,0.1-0.1,0.3-0.2,0.4c-2.5,0.1-4.8,0.8-6.8,2.2c-2,1.4-3.5,4.4-2.5,7.2c1.7,4.9,4.8,8.8,8.4,12.3c0.3,0.3,1.3,0.2,1.6-0.1
		c4-3.5,6.7-7.8,8.5-12.8c1-2.9,0.3-5.3-2.3-6.8C36.3,10,33.9,9.4,31.6,8.6z"/>
</g>
</svg>
