<?xml version="1.0" encoding="utf-8"?>
<!-- Generator: Adobe Illustrator 28.0.0, SVG Export Plug-In . SVG Version: 6.00 Build 0)  -->
<svg version="1.1" id="Layer_1" xmlns="http://www.w3.org/2000/svg" xmlns:xlink="http://www.w3.org/1999/xlink" x="0px" y="0px"
	 viewBox="0 0 100 100" style="enable-background:new 0 0 100 100;" xml:space="preserve">
<g>
	<path d="M39.29,67.62c0-2.67-0.04-5.17,0.01-7.67c0.07-3.38,0.1-3.38-2.8-5.06c-2.27,1.77-1.86,4.08-1.22,6.39
		c0.21,0.75,0.7,1.42,0.94,2.17c0.13,0.39-0.01,0.87-0.03,1.31c-0.51-0.06-1.27,0.06-1.48-0.22c-0.53-0.71-0.9-1.58-1.16-2.44
		c-0.34-1.1-0.53-2.24-0.75-3.37c-0.28-1.42,1.43-5.05,2.75-5.68c0.37-0.18,0.96-0.17,1.35,0c0.86,0.37,1.66,0.88,2.56,1.39
		c-1.46-2.61-0.68-5.06,0.46-7.56c-0.87-0.52-1.75-1.04-2.63-1.57c-0.17-0.1-0.34-0.2-0.51-0.31c-2.34-1.47-3.69-3.42-3.26-6.35
		c0.35-2.38,0.78-4.72,2.24-6.7c0.92-1.25,2.17-2.06,3.76-1.88c0.47,0.06,1.14,0.65,1.24,1.1c0.08,0.39-0.45,1.26-0.83,1.34
		c-2.29,0.47-2.99,2.34-3.79,4.1c-0.31,0.68-0.36,1.47-0.62,2.17c-0.64,1.72,0,3.07,1.29,4.11c1.14,0.91,2.41,1.68,3.66,2.43
		c0.24,0.15,0.7,0,1.03-0.09c0.21-0.06,0.37-0.3,0.58-0.41c1.52-0.77,2.63-1.8,3.62-3.31c2.19-3.33,8.65-2.46,9.63,1.28
		c0.11,0.42,0.61,0.79,1.02,1.06c0.92,0.61,1.9,1.13,3.04,1.8c1.05-0.67,2.3-1.42,3.5-2.24c1.84-1.26,2.44-3.01,1.68-5.11
		c-0.47-1.3-0.95-2.64-1.71-3.78c-0.53-0.8-1.47-1.41-2.35-1.85c-0.69-0.35-1.2-0.66-1.09-1.46c0.12-0.85,0.72-1.21,1.54-1.16
		c1.69,0.12,2.91,1.03,3.76,2.42c1.48,2.42,1.87,5.16,1.93,7.91c0.04,1.97-1.29,3.28-2.82,4.32c-1.15,0.78-2.36,1.47-3.58,2.22
		c1.26,2.45,1.96,4.95,0.44,7.68c0.85-0.49,1.53-0.96,2.27-1.3c1.26-0.57,1.77-0.28,2.66,0.74c2.28,2.6,1.64,5.47,0.9,8.36
		c-0.16,0.65-0.48,1.26-0.75,1.87c-0.39,0.86-1.14,0.82-1.81,0.53c-0.12-0.05,0.07-0.95,0.19-1.44c0.45-1.76,1.21-3.5,1.28-5.27
		c0.05-1.06-0.95-2.17-1.45-3.19c-0.28,0.04-0.33,0.04-0.36,0.05c-2.17,0.91-3.17,2.3-2.8,4.86c0.32,2.18-0.04,4.45-0.09,6.68
		c-0.01,0.35,0,0.69,0,0.99c0.95,0.18,1.81,0.28,2.64,0.5c0.87,0.23,1.29,0.86,1.33,1.77c0.09,2.47,0.25,4.93,0.28,7.4
		c0.04,2.9-1.82,4.73-3.88,6.36c-0.31,0.24-1,0.01-1.51,0c0.16-0.47,0.18-1.1,0.51-1.38c2.15-1.93,3.63-4.07,3.13-7.18
		c-0.19-1.21-0.09-2.47-0.11-3.7c-0.01-0.95-0.25-1.7-1.35-1.95c-1.07-0.24-1.37,0.45-1.76,1.19c-0.99,1.87-2.81,2.73-4.65,3.28
		c-4.67,1.4-9.29,1.32-13.51-1.49c-0.81-0.53-1.45-1.44-1.92-2.31c-0.37-0.69-0.83-0.9-1.41-0.71c-0.49,0.16-1.24,0.57-1.28,0.94
		c-0.24,2.29-0.48,4.61-0.38,6.9c0.09,2.07,1.7,3.42,3.04,4.84c0.35,0.37,0.45,0.96,0.66,1.45c-0.57,0.03-1.32,0.3-1.66,0.04
		c-1.86-1.45-3.69-3.07-3.75-5.65c-0.06-2.58,0.15-5.17,0.28-7.76c0.08-1.62,0.87-2.35,2.49-2.4C38.44,67.6,38.91,67.62,39.29,67.62
		z M50.85,55.59c2.17-0.36,4.65-0.67,7.08-1.22c1.53-0.34,2.34-1.53,2.24-2.86c-0.23-2.89-1.63-4.99-4.31-6.23
		c-2.98-1.39-6.08-1.56-9.22-0.84c-2.56,0.59-4.85,1.75-5.88,4.38c-1.37,3.5-0.69,5.21,3.1,5.93
		C46.04,55.16,48.28,55.29,50.85,55.59z M59.46,55.67c-2.13,0.31-4.03,0.73-5.95,0.85c-2.61,0.15-2.62,0.06-2.64,2.66
		c-0.03,4.35-0.03,8.69-0.08,13.04c-0.01,0.89,0.23,1.31,1.18,1c1.43-0.46,2.91-0.78,4.27-1.39c1.33-0.6,2.66-1.37,2.82-3.11
		c0.14-1.45,0.35-2.91,0.38-4.36C59.5,61.42,59.46,58.48,59.46,55.67z M40.9,55.72c0,3.92-0.08,7.97,0.04,12.02
		c0.05,1.59,0.81,3.04,2.41,3.69c1.71,0.7,3.48,1.26,5.24,1.83c0.57,0.19,0.87-0.09,0.87-0.75c-0.05-4.26-0.07-8.52-0.1-12.78
		c-0.01-1.02,0-2.03,0-2.89C46.47,56.46,43.77,56.1,40.9,55.72z M53.69,42.88c-0.99-1.48-2.27-2.1-3.83-2.01
		c-1.49,0.09-2.73,0.71-3.4,2.01C48.82,42.88,51.17,42.88,53.69,42.88z"/>
	<path d="M49.99,16.39c3.31,0.15,6.12,1.2,8.14,3.8c3,3.84,1.9,9.33-2.35,11.77c-3.83,2.2-7.77,2.19-11.55-0.09
		c-2.98-1.8-4.25-4.6-3.75-8.04c0.47-3.24,2.48-5.37,5.48-6.51C47.24,16.84,48.64,16.69,49.99,16.39z"/>
</g>
</svg>
