<?xml version="1.0" encoding="utf-8"?>
<!-- Generator: Adobe Illustrator 28.0.0, SVG Export Plug-In . SVG Version: 6.00 Build 0)  -->
<svg version="1.1" id="Layer_1" xmlns="http://www.w3.org/2000/svg" xmlns:xlink="http://www.w3.org/1999/xlink" x="0px" y="0px"
	 viewBox="0 0 65 65" style="enable-background:new 0 0 65 65;" xml:space="preserve">
<style type="text/css">
	.st0{fill:#FFFFFF;}
</style>
<g>
	<path class="st0" d="M26.3,22.1c-1-1.4-2-2.7-3-4.1c-2.3-3.2-2.7-6.8-1.8-10.5C22.1,4.8,24,3,26.6,2.1c4.6-1.6,9.2-1.6,13.5,1.2
		c2.4,1.5,3.5,3.8,3.8,6.5c0.4,4.1-0.9,7.5-3.6,10.5c-0.6,0.6-1.1,1.2-1.4,2.2c1.7-0.2,3.3-0.4,5-0.8c2.5-0.5,4.9-1.1,7.4-1.6
		c1.2-0.2,1.6,0.1,1.6,1.3c0.1,2.6,0,5.3,0,7.9c0,0.9-0.4,1.2-1.2,1.1c-0.5-0.1-0.9-0.2-1.4-0.3c-4.6-0.9-9-1.7-13.6-2.7
		c-1-0.2-1.4,0.1-1.2,1.1c0.4,2.7,0.7,5.3,1,8c0.9,6.7,1.7,13.5,2.6,20.1c0.2,1.8,0.5,3.5,0.8,5.3c0.2,1.3-0.1,1.8-1.3,1.9
		c-2.5,0.1-5.1,0.3-7.7,0.3c-1.6,0-3.2-0.2-4.8-0.4c-1.3-0.1-1.7-0.6-1.4-1.9c0.7-4.2,1.3-8.4,2-12.6c1-6.9,2-13.7,3-20.6
		c0.1-1.1-0.1-1.4-1.2-1.2c-4.8,0.9-9.5,1.7-14.2,2.6c-1.3,0.2-1.9-0.2-1.8-1.6c0.1-2.4,0.1-4.8,0.2-7.3c0-1.5,0.4-1.7,2-1.4
		c3.9,0.9,7.7,1.7,11.7,2.6C26.1,22.3,26.2,22.2,26.3,22.1z M30.2,24.2c-0.1,0.1-0.1,0.2-0.1,0.4c-0.9-0.1-1.8-0.2-2.7-0.4
		c-4.1-0.8-8.1-1.6-12.2-2.5c-1.2-0.2-1.4-0.1-1.4,1.2c0,1.4,0.1,2.7,0.1,4.1c0,1.2,0.4,1.4,1.6,1.2c4.6-0.9,9.3-1.9,14-2.8
		c1.4-0.3,1.4-0.1,1.3,1.2c-0.5,4.3-0.9,8.6-1.5,12.9c-0.9,7-2,14-3.1,20.9C26,62,26.3,62.5,28,62.5c1.6,0,3.2,0.1,4.8,0
		c1.3,0,2.5-0.1,3.8-0.1c1.2,0,1.6-0.6,1.4-1.7c-0.5-4.5-1-8.9-1.5-13.4c-0.7-5.9-1.5-11.9-2.3-17.9c-0.1-1.3-0.2-2.6-0.4-4.1
		c0.8,0.1,1.4,0.2,2,0.3c4.5,0.9,9,1.8,13.5,2.7c1.6,0.3,2,0,2.1-1.6c0.1-1.3,0.1-2.5,0.1-3.8c-0.1-1.7-0.1-1.7-1.7-1.3
		c-4.4,0.9-8.8,1.7-13.2,2.6c-0.5,0.1-1,0-1.7,0c1.7-2.1,3.2-4.1,4.8-5.8c2.3-2.4,3.2-5.1,3-8.4c-0.1-2.7-1.4-4.7-3.7-6
		c-3.3-2-6.8-2.1-10.4-1.3C27.6,3,26.8,3.5,26,4s-1.7,1-2.2,1.8c-2,3.5-2,7,0.1,10.4c0.9,1.5,2.2,2.9,3.4,4.3
		C28.1,21.9,29.2,23.1,30.2,24.2z"/>
	<path class="st0" d="M32.3,3.9c3-0.1,5.5,0.8,7.5,2.9c1.1,1.2,1.5,2.5,1.2,4.1c-0.5,2.6-1.4,5.1-3.3,7.2c-1.4,1.6-2.9,3.1-4.3,4.7
		c-0.7,0.7-1.3,0.7-2.1,0c-2.7-2.3-4.8-5.1-6.4-8.2C22.2,9,26.5,3.7,32,4C32.1,3.9,32.3,3.9,32.3,3.9z M32.6,5.1
		c0,0.1-0.1,0.2-0.1,0.3C30.7,5.5,29,6,27.6,7s-2.5,3.2-1.8,5.2c1.2,3.5,3.5,6.4,6.1,8.9c0.2,0.2,0.9,0.1,1.2-0.1
		c2.9-2.5,4.8-5.6,6.2-9.3c0.7-2.1,0.2-3.8-1.7-4.9C36,6.1,34.2,5.6,32.6,5.1z"/>
</g>
</svg>
