<?xml version="1.0" encoding="utf-8"?>
<!-- Generator: Adobe Illustrator 28.0.0, SVG Export Plug-In . SVG Version: 6.00 Build 0)  -->
<svg version="1.1" id="Layer_1" xmlns="http://www.w3.org/2000/svg" xmlns:xlink="http://www.w3.org/1999/xlink" x="0px" y="0px"
	 viewBox="0 0 65 65" style="enable-background:new 0 0 65 65;" xml:space="preserve">
<style type="text/css">
	.st0{fill:#010101;}
</style>
<path class="st0" d="M31.8,38.4c-9.1-0.1-18.2-0.4-27.3-0.6c-2.3,0-3.4-0.8-3.4-3.2c0-2.2,0.2-4.3,0.7-6.5c0.1-0.7,0.9-1.3,1.6-1.7
	c0.8-0.4,1.7,0.1,2.2,0.9c0.4,0.6,0.7,1.2,0.9,2c0.2,1,0.9,1.4,1.8,1.4c1.4-0.1,3-0.1,4.4-0.3c5.2-0.8,10.3-1.7,15.6-2.5
	c3.4-0.6,6.7-1.3,10.1-1.6c2.8-0.2,5.7,0,8.6,0.1c1.7,0.1,3,1,4.1,2.3c0.7,0.8,1.2,1,2.2,0.4c2.1-1.4,6.7-1,8.7,0.6
	c1.6,1.2,2.4,4.6,1.6,6.7c-0.6,1.7-2.2,2.6-4.6,2.6C49.9,38.7,40.9,38.6,31.8,38.4L31.8,38.4z M47.2,28c-0.7-0.1-1.1-0.2-1.6-0.3
	c-3.3-0.6-3.3-0.6-4.6,2.5C41,30.3,41,30.3,41,30.5c-0.8,2.2-1.7,4.3-2.5,6.7c1.7,0,3.1,0,4.6,0c0.2,0,0.6-0.2,0.7-0.4
	C44.9,33.8,46,31,47.2,28z M32.6,28.5c-3.6,0.4-5.9,3.1-9.1,4.8c3.3,1.2,5.6,4.1,9.1,3.7C32.6,34.1,32.6,31.4,32.6,28.5z M39,27.5
	c-1.7,0.2-3.1,0.4-4.6,0.6c-0.2,0-0.5,0.4-0.5,0.7c0,2.5,0,5.1,0,7.5c0,0.2,0.4,0.7,0.6,0.7c2,0.4,2.5,0.1,3.2-1.8
	c0.1-0.4,0.3-0.9,0.5-1.3C39.4,31.9,38.8,29.7,39,27.5z M45,37.2c1.6,0,3,0,4.5,0c0.4,0,0.9-0.3,1-0.6c1.5-3,1.3-5.9-2-7.9
	C47.4,31.4,46.2,34.2,45,37.2z M7.7,32.3c-0.1,1.4-0.1,2.7-0.2,4.3c1.8,0,3.5,0,5.1,0c0.2,0,0.7-0.4,0.7-0.6c0.1-1.4,0-2.7,0-4.1
	C11.4,32,9.6,32.1,7.7,32.3z M21.1,33.2c-2-0.9-3.5-2.6-5.9-1.9c-0.7,0.2-1,0.4-0.9,1.1c0,0.9,0,2,0,2.9c0,1.2,1,1.8,2,1.2
	C17.9,35.5,19.4,34.4,21.1,33.2z M6.6,36.4c0-1.4,0-2.7,0-4.1c0-0.1-0.1-0.4-0.3-0.5c-0.4-0.7-0.9-1.4-1.4-2.1
	c-0.4-0.6-0.7-1.2-1.2-2.1c-0.2,0.4-0.4,0.7-0.4,0.8c-0.1,2.2-0.4,4.5-0.4,6.7c0,0.4,0.8,1,1.4,1.2C4.9,36.6,5.6,36.4,6.6,36.4z
	 M56.7,29.8c0,1.4,0,2.7,0,4.1c1.9,0,3.6,0,5.4,0C61.7,30.8,59.8,29.5,56.7,29.8z M18.7,36.4c0,0.1,0,0.2,0.1,0.3c2.7,0,5.5,0,8.4,0
	c-1.6-0.9-3-1.7-4.4-2.5c-0.2-0.1-0.6,0-0.9,0.1C20.8,35,19.8,35.8,18.7,36.4z M62.1,35.1c-1.8,0-3.5,0-5.4,0
	c0.1,0.8,0.1,1.4,0.2,2.1C60.2,37.6,61.4,37.1,62.1,35.1z M55.3,34c0-1.4,0-2.7,0-4.2c-1,0.5-1.9,0.9-2.7,1.4
	c0.1,0.9,0.2,1.7,0.3,2.7C53.7,33.9,54.5,33.9,55.3,34z M26.3,29.9c0-0.1-0.1-0.1-0.1-0.2c-2.1,0.4-4.2,0.7-6.7,1.1
	c0.9,0.5,1.6,0.9,2.2,1.2c0.3,0.1,0.7,0.3,0.9,0.1C24,31.5,25.1,30.7,26.3,29.9z M55.4,35.1c-2.8-0.1-3,0-3.3,2
	c1.1,0.1,2.2,0.1,3.3,0.1C55.4,36.6,55.4,35.9,55.4,35.1z"/>
</svg>
