<?xml version="1.0" encoding="utf-8"?>
<!-- Generator: Adobe Illustrator 28.0.0, SVG Export Plug-In . SVG Version: 6.00 Build 0)  -->
<svg version="1.1" id="Layer_1" xmlns="http://www.w3.org/2000/svg" xmlns:xlink="http://www.w3.org/1999/xlink" x="0px" y="0px"
	 viewBox="0 0 65 65" style="enable-background:new 0 0 65 65;" xml:space="preserve">
<style type="text/css">
	.st0{fill:#FFFFFF;}
</style>
<g>
	<path class="st0" d="M22.3,49.2c0-2.6,0-4.9,0-7.3c0.1-3.2,0.1-3.2-2.7-4.8c-2.2,1.7-1.8,3.9-1.1,6.1c0.2,0.8,0.7,1.3,0.9,2.1
		c0.1,0.4,0,0.9,0,1.2c-0.5-0.1-1.2,0.1-1.4-0.2c-0.5-0.7-0.9-1.5-1.1-2.3c-0.3-1-0.5-2.1-0.7-3.2c-0.3-1.3,1.3-4.7,2.7-5.4
		c0.4-0.2,0.9-0.2,1.2,0c0.9,0.4,1.6,0.9,2.5,1.3c-1.4-2.5-0.7-4.8,0.5-7.2c-0.9-0.5-1.7-0.9-2.5-1.5c-0.2-0.1-0.3-0.2-0.5-0.3
		c-2.2-1.4-3.5-3.2-3.1-6c0.3-2.3,0.8-4.5,2.1-6.4c0.9-1.1,2.1-2,3.6-1.8c0.5,0.1,1,0.6,1.1,1s-0.5,1.2-0.8,1.2
		c-2.2,0.5-2.8,2.2-3.6,3.9c-0.3,0.7-0.4,1.4-0.6,2.1c-0.6,1.6,0,2.9,1.2,3.9c1,0.9,2.3,1.6,3.5,2.3c0.2,0.2,0.7,0,0.9-0.1
		c0.2-0.1,0.4-0.3,0.6-0.4c1.4-0.8,2.5-1.7,3.4-3.1c2.1-3.1,8.2-2.4,9.1,1.2c0.1,0.4,0.6,0.8,0.9,1c0.9,0.6,1.8,1,2.8,1.7
		c0.9-0.7,2.2-1.3,3.3-2.1c1.7-1.2,2.3-2.8,1.6-4.8c-0.5-1.2-0.9-2.5-1.6-3.6c-0.5-0.8-1.4-1.3-2.2-1.7c-0.7-0.3-1.1-0.7-1-1.4
		c0.1-0.9,0.7-1.1,1.4-1.1c1.6,0.1,2.8,0.9,3.6,2.3c1.4,2.3,1.8,4.9,1.8,7.5c0,1.9-1.2,3.1-2.7,4.1c-1.1,0.8-2.3,1.4-3.4,2.1
		c1.2,2.4,1.9,4.7,0.4,7.3c0.8-0.5,1.4-0.9,2.2-1.2c1.2-0.6,1.7-0.3,2.6,0.7c2.2,2.5,1.5,5.2,0.9,8c-0.2,0.7-0.5,1.2-0.8,1.8
		c-0.4,0.9-1,0.8-1.7,0.5c-0.1-0.1,0.1-0.9,0.2-1.3c0.4-1.7,1.1-3.3,1.2-5c0.1-1-0.9-2.1-1.4-3c-0.3,0-0.3,0-0.4,0
		c-2.1,0.9-3,2.2-2.7,4.7c0.3,2.1,0,4.2-0.1,6.4c0,0.3,0,0.7,0,0.9c0.9,0.2,1.7,0.3,2.5,0.5c0.9,0.2,1.2,0.9,1.2,1.7
		c0.1,2.4,0.2,4.7,0.3,7c0,2.8-1.7,4.5-3.7,6.1c-0.3,0.2-0.9,0-1.4,0c0.2-0.5,0.2-1,0.5-1.3c2.1-1.8,3.4-3.9,2.9-6.8
		c-0.2-1.1-0.1-2.4-0.1-3.5c0-0.9-0.2-1.6-1.2-1.8s-1.3,0.4-1.7,1.1c-0.9,1.8-2.7,2.6-4.5,3.1c-4.5,1.3-8.8,1.2-12.8-1.4
		c-0.8-0.5-1.3-1.3-1.8-2.2c-0.4-0.7-0.8-0.9-1.3-0.7s-1.1,0.6-1.2,0.9c-0.2,2.2-0.5,4.4-0.4,6.6c0.1,2,1.6,3.2,2.8,4.6
		c0.3,0.4,0.5,0.9,0.7,1.3c-0.6,0-1.2,0.3-1.6,0c-1.8-1.3-3.5-2.9-3.6-5.4s0.2-4.9,0.3-7.4c0.1-1.5,0.9-2.2,2.4-2.3
		C21.6,49.2,21.9,49.2,22.3,49.2z M33.3,37.8c2.1-0.4,4.5-0.7,6.7-1.1c1.4-0.3,2.2-1.4,2.1-2.8c-0.2-2.8-1.5-4.7-4.1-5.9
		c-2.8-1.3-5.8-1.5-8.7-0.8c-2.5,0.6-4.6,1.7-5.6,4.2c-1.3,3.3-0.7,4.9,2.9,5.6C28.8,37.4,30.9,37.5,33.3,37.8z M41.5,37.9
		c-2,0.3-3.8,0.7-5.7,0.8c-2.5,0.2-2.5,0.1-2.5,2.6c0,4.1,0,8.3-0.1,12.3c0,0.9,0.2,1.2,1.1,0.9c1.3-0.5,2.8-0.8,4.1-1.3
		c1.2-0.6,2.6-1.3,2.7-2.9c0.1-1.3,0.3-2.8,0.4-4.2C41.5,43.3,41.5,40.6,41.5,37.9z M23.8,37.9c0,3.7-0.1,7.6,0,11.4
		c0,1.5,0.8,2.8,2.3,3.5c1.6,0.7,3.3,1.2,4.9,1.7c0.6,0.2,0.9-0.1,0.9-0.8c0-4.1-0.1-8.1-0.1-12.2c0-0.9,0-1.9,0-2.8
		C29.2,38.7,26.6,38.3,23.8,37.9z M36,25.8c-0.9-1.4-2.2-2-3.6-1.9s-2.6,0.7-3.2,1.9C31.3,25.8,33.6,25.8,36,25.8z"/>
	<path class="st0" d="M32.5,0.6c3.1,0.1,5.8,1.1,7.7,3.6C43,7.8,42,13,38,15.4c-3.6,2.1-7.4,2.1-10.9-0.1c-2.8-1.7-4-4.4-3.5-7.6
		c0.4-3.1,2.3-5.1,5.1-6.3C29.9,1,31.2,0.9,32.5,0.6z"/>
</g>
</svg>
