<?xml version="1.0" encoding="utf-8"?>
<!-- Generator: Adobe Illustrator 28.0.0, SVG Export Plug-In . SVG Version: 6.00 Build 0)  -->
<svg version="1.1" id="Layer_1" xmlns="http://www.w3.org/2000/svg" xmlns:xlink="http://www.w3.org/1999/xlink" x="0px" y="0px"
	 viewBox="0 0 65 65" style="enable-background:new 0 0 65 65;" xml:space="preserve">
<style type="text/css">
	.st0{fill:#FFFFFF;}
</style>
<g>
	<path class="st0" d="M10,31.6c-1.1,2-1.2,4-1.3,5.9c-0.2,5.1-0.3,10.2-0.4,15.3c0,0.1,0,0.3,0,0.5c-0.1,0.5-0.1,1.1-0.9,0.9
		c-0.3-0.1-0.6-0.6-0.6-1c-0.1-1.1,0.1-2.2,0.1-3.3c0.1-3.4,0.2-6.8,0.4-10.2c0.1-2.8,0.2-5.6,0.2-8.4c0.1-1.9,0-1.9-1.8-2.6
		c-0.3-0.1-0.5-0.1-0.7-0.3c-0.6,0.5-1.1,0.9-1.6,1.3c-0.1-0.1-0.3-0.2-0.4-0.3c0.1-0.4,0.1-0.9,0.3-1.2c3.3-7,10.4-10.4,18-9.1
		c4.1,0.7,7.7,2.5,11.5,4c5.1,2.1,10.3,3.7,15.8,3.6c3.6-0.1,7.3-0.1,10.9-0.2c0.3,0,0.6,0,0.9,0c0.9,0,1.5,0.4,1.5,1.3
		s-0.6,1.3-1.5,1.3C57,29,53.7,29,50.2,28.8c-3.1-0.1-6.1-0.3-9.2-0.6c-4-0.4-7.8-1.9-11.6-3.4c-1.3-0.5-2.6-1-3.9-1.6
		c0.5,3.3-0.4,5.8-3.4,7.3c-2.3,1.1-4.5,0.9-6.5-0.6c-2.6-2-3-4.7-1.8-7.8C10.5,23,8,24.8,5.7,27.3c4.2,1.1,6.5,4.4,8.7,7.6
		c4.4,6.1,10.3,10,17.6,11.3c2.8,0.5,5.7,0.5,8.5,0.6c1.5,0.1,2.1,0.4,2.1,1.4s-0.6,1.4-2,1.5c-7.8,0.1-15-1.8-21.3-6.5
		c-3.1-2.3-5.5-5.4-7.5-8.7C11.5,33.6,10.8,32.6,10,31.6z"/>
	<path class="st0" d="M53.4,21.6c-4.8-0.4-8.7-0.4-12.4-1.1c-3.6-0.7-7-2.1-10.4-3.3c-3.6-1.3-7.1-3.3-11-3.6
		C14,13.2,9,14.7,4.9,18.7c-0.6,0.6-1.2,0.9-1.8,0.4c-0.5-0.6-0.2-1.1,0.3-1.8c3.6-4.3,8.4-6,13.7-6.5s9.9,1.7,14.5,3.9
		c5.7,2.8,11.5,4.6,17.9,4.4c3.6-0.1,7.2-0.1,10.9-0.2c1.3,0,1.8,0.4,1.8,1.4s-0.5,1.4-1.8,1.4C57.8,21.6,55.1,21.6,53.4,21.6z"/>
</g>
</svg>
