<?xml version="1.0" encoding="utf-8"?>
<!-- Generator: Adobe Illustrator 28.0.0, SVG Export Plug-In . SVG Version: 6.00 Build 0)  -->
<svg version="1.1" id="Layer_1" xmlns="http://www.w3.org/2000/svg" xmlns:xlink="http://www.w3.org/1999/xlink" x="0px" y="0px"
	 viewBox="0 0 100 100" style="enable-background:new 0 0 100 100;" xml:space="preserve">
<path d="M49.08,58.23c-12.57-0.25-25.13-0.51-37.7-0.75c-3.22-0.06-4.67-1.21-4.67-4.42c0-3.01,0.35-6.05,0.87-9.01
	c0.16-0.88,1.31-1.85,2.24-2.27c1.12-0.51,2.3,0.09,2.96,1.19c0.51,0.84,1.02,1.73,1.24,2.67c0.33,1.4,1.19,1.97,2.47,1.93
	c2.03-0.07,4.08-0.13,6.08-0.44c7.18-1.12,14.35-2.33,21.52-3.51c4.66-0.77,9.3-1.82,13.99-2.25c3.92-0.35,7.91-0.04,11.86,0.12
	c2.39,0.1,4.26,1.42,5.75,3.22c0.91,1.09,1.62,1.36,2.98,0.48c2.93-1.9,9.22-1.37,11.98,0.76c2.2,1.69,3.3,6.27,2.24,9.3
	c-0.84,2.39-3.01,3.62-6.44,3.57c-12.46-0.17-24.92-0.35-37.37-0.53C49.07,58.26,49.08,58.24,49.08,58.23z M70.39,43.83
	c-0.9-0.18-1.53-0.32-2.16-0.43c-4.61-0.82-4.61-0.81-6.31,3.39c-0.06,0.15-0.12,0.31-0.18,0.46c-1.14,3.02-2.28,6.03-3.5,9.23
	c2.26,0,4.29,0.03,6.32-0.03c0.34-0.01,0.84-0.31,0.97-0.61C67.14,51.95,68.71,48.03,70.39,43.83z M50.15,44.56
	c-5.05,0.54-8.21,4.25-12.62,6.57c4.54,1.66,7.65,5.59,12.62,5.12C50.15,52.29,50.15,48.5,50.15,44.56z M58.93,43.2
	c-2.25,0.27-4.27,0.47-6.26,0.79c-0.3,0.05-0.74,0.64-0.74,0.98c-0.04,3.47-0.02,6.95,0.05,10.42c0.01,0.33,0.46,0.88,0.79,0.95
	c2.79,0.58,3.4,0.21,4.44-2.46c0.24-0.62,0.38-1.29,0.71-1.84C59.59,49.26,58.66,46.26,58.93,43.2z M67.28,56.57
	c2.2,0,4.18,0.05,6.16-0.04c0.5-0.02,1.21-0.39,1.42-0.8c2.12-4.13,1.77-8.13-2.76-10.92C70.53,48.62,68.98,52.42,67.28,56.57z
	 M15.7,49.77c-0.08,1.87-0.17,3.8-0.27,5.97c2.54,0,4.79,0.03,7.03-0.03c0.33-0.01,0.91-0.47,0.92-0.75
	c0.08-1.89,0.04-3.79,0.04-5.7C20.73,49.43,18.34,49.59,15.7,49.77z M34.19,51.15c-2.75-1.3-4.84-3.6-8.08-2.56
	c-0.87,0.28-1.35,0.51-1.32,1.49c0.04,1.32-0.03,2.65-0.03,3.97c0,1.63,1.41,2.49,2.82,1.6C29.75,54.27,31.84,52.76,34.19,51.15z
	 M14.13,55.51c0-1.9,0.01-3.81-0.02-5.72c0-0.23-0.23-0.45-0.37-0.67c-0.63-0.97-1.29-1.93-1.9-2.92c-0.47-0.77-0.87-1.59-1.6-2.93
	c-0.31,0.67-0.51,0.91-0.53,1.17c-0.25,3.09-0.58,6.19-0.62,9.29c-0.01,0.59,1.11,1.45,1.87,1.71
	C11.84,55.74,12.89,55.51,14.13,55.51z M83.39,46.33c0,1.97,0,3.81,0,5.6c2.62,0,5.03,0,7.44,0C90.33,47.74,87.8,45.88,83.39,46.33z
	 M30.97,55.55c0.02,0.13,0.05,0.26,0.07,0.39c3.78,0,7.57,0,11.59,0c-2.15-1.23-4.12-2.39-6.13-3.47c-0.28-0.15-0.84,0.01-1.15,0.2
	C33.87,53.59,32.42,54.58,30.97,55.55z M90.83,53.72c-2.51,0-4.94,0-7.46,0c0.12,1.12,0.21,2.04,0.3,2.92
	C88.27,57.12,89.85,56.47,90.83,53.72z M81.45,52.1c0-1.99,0-3.76,0-5.8c-1.42,0.73-2.56,1.32-3.73,1.92
	c0.15,1.24,0.29,2.43,0.45,3.72C79.28,52,80.36,52.05,81.45,52.1z M41.37,46.53c-0.04-0.09-0.08-0.18-0.12-0.27
	c-2.91,0.49-5.83,0.98-9.21,1.55c1.32,0.74,2.19,1.28,3.1,1.72c0.39,0.19,1.02,0.36,1.32,0.18C38.14,48.71,39.74,47.6,41.37,46.53z
	 M81.67,53.75c-3.9-0.15-4.22,0.05-4.58,2.8c1.51,0.08,3.01,0.16,4.58,0.25C81.67,55.7,81.67,54.78,81.67,53.75z"/>
</svg>
