<?xml version="1.0" encoding="utf-8"?>
<!-- Generator: Adobe Illustrator 28.0.0, SVG Export Plug-In . SVG Version: 6.00 Build 0)  -->
<svg version="1.1" id="Layer_1" xmlns="http://www.w3.org/2000/svg" xmlns:xlink="http://www.w3.org/1999/xlink" x="0px" y="0px"
	 viewBox="0 0 92.2 24.4" style="enable-background:new 0 0 92.2 24.4;" xml:space="preserve">
<path d="M45.4,20.3c-12.6-0.2-25.1-0.5-37.7-0.8C4.5,19.5,3,18.4,3,15.1c0-3,0.3-6,0.9-9c0.2-0.9,1.3-1.8,2.2-2.3
	c1.1-0.5,2.3,0.1,3,1.2c0.5,0.8,1,1.7,1.2,2.7c0.3,1.4,1.2,2,2.5,1.9c2-0.1,4.1-0.1,6.1-0.4c7.2-1.1,14.3-2.3,21.5-3.5
	c4.7-0.8,9.3-1.8,14-2.2c3.9-0.3,7.9,0,11.9,0.1C68.7,3.7,70.5,5,72,6.8c0.9,1.1,1.6,1.4,3,0.5c2.9-1.9,9.2-1.4,12,0.8
	c2.2,1.7,3.3,6.3,2.2,9.3c-0.8,2.4-3,3.6-6.4,3.6C70.3,20.7,57.9,20.6,45.4,20.3C45.4,20.3,45.4,20.3,45.4,20.3z M66.7,5.9
	c-0.9-0.2-1.5-0.3-2.2-0.4c-4.6-0.8-4.6-0.8-6.3,3.4c-0.1,0.2-0.1,0.3-0.2,0.5c-1.1,3-2.3,6-3.5,9.2c2.3,0,4.3,0,6.3,0
	c0.3,0,0.8-0.3,1-0.6C63.5,14,65,10.1,66.7,5.9z M46.5,6.6c-5,0.5-8.2,4.3-12.6,6.6c4.5,1.7,7.7,5.6,12.6,5.1
	C46.5,14.4,46.5,10.6,46.5,6.6z M55.3,5.3C53,5.6,51,5.8,49,6.1c-0.3,0-0.7,0.6-0.7,1c0,3.5,0,7,0,10.4c0,0.3,0.5,0.9,0.8,1
	c2.8,0.6,3.4,0.2,4.4-2.5c0.2-0.6,0.4-1.3,0.7-1.8C55.9,11.3,55,8.3,55.3,5.3z M63.6,18.7c2.2,0,4.2,0,6.2,0c0.5,0,1.2-0.4,1.4-0.8
	c2.1-4.1,1.8-8.1-2.8-10.9C66.9,10.7,65.3,14.5,63.6,18.7z M12,11.9c-0.1,1.9-0.2,3.8-0.3,6c2.5,0,4.8,0,7,0c0.3,0,0.9-0.5,0.9-0.8
	c0.1-1.9,0-3.8,0-5.7C17.1,11.5,14.7,11.7,12,11.9z M30.5,13.2c-2.8-1.3-4.8-3.6-8.1-2.6c-0.9,0.3-1.4,0.5-1.3,1.5c0,1.3,0,2.7,0,4
	c0,1.6,1.4,2.5,2.8,1.6C26.1,16.4,28.2,14.8,30.5,13.2z M10.5,17.6c0-1.9,0-3.8,0-5.7c0-0.2-0.2-0.5-0.4-0.7c-0.6-1-1.3-1.9-1.9-2.9
	C7.7,7.5,7.3,6.7,6.6,5.4C6.3,6,6.1,6.3,6,6.5c-0.2,3.1-0.6,6.2-0.6,9.3c0,0.6,1.1,1.4,1.9,1.7C8.2,17.8,9.2,17.6,10.5,17.6z
	 M79.7,8.4c0,2,0,3.8,0,5.6c2.6,0,5,0,7.4,0C86.7,9.8,84.1,8,79.7,8.4z M27.3,17.6c0,0.1,0,0.3,0.1,0.4c3.8,0,7.6,0,11.6,0
	c-2.2-1.2-4.1-2.4-6.1-3.5c-0.3-0.2-0.8,0-1.2,0.2C30.2,15.7,28.7,16.7,27.3,17.6z M87.2,15.8c-2.5,0-4.9,0-7.5,0
	c0.1,1.1,0.2,2,0.3,2.9C84.6,19.2,86.2,18.6,87.2,15.8z M77.8,14.2c0-2,0-3.8,0-5.8c-1.4,0.7-2.6,1.3-3.7,1.9
	c0.2,1.2,0.3,2.4,0.4,3.7C75.6,14.1,76.7,14.1,77.8,14.2z M37.7,8.6c0-0.1-0.1-0.2-0.1-0.3c-2.9,0.5-5.8,1-9.2,1.5
	c1.3,0.7,2.2,1.3,3.1,1.7c0.4,0.2,1,0.4,1.3,0.2C34.5,10.8,36.1,9.7,37.7,8.6z M78,15.8c-3.9-0.2-4.2,0-4.6,2.8
	c1.5,0.1,3,0.2,4.6,0.2C78,17.8,78,16.9,78,15.8z"/>
</svg>
