<?xml version="1.0" encoding="utf-8"?>
<!-- Generator: Adobe Illustrator 28.0.0, SVG Export Plug-In . SVG Version: 6.00 Build 0)  -->
<svg version="1.1" id="Layer_1" xmlns="http://www.w3.org/2000/svg" xmlns:xlink="http://www.w3.org/1999/xlink" x="0px" y="0px"
	 viewBox="0 0 100 100" style="enable-background:new 0 0 100 100;" xml:space="preserve">
<style type="text/css">
	.st0{fill:#FFFFFF;}
</style>
<g>
	<g>
		<path class="st0" d="M0.2,0.2c33.16,0,66.32,0,99.52,0c0,33.14,0,66.3,0,99.52c-33.15,0-66.33,0-99.52,0
			C0.2,66.57,0.2,33.39,0.2,0.2z M41.41,35.3c-0.11,0.04-0.22,0.13-0.3,0.12C35.74,34.24,30.36,33.1,25,31.86
			c-2.11-0.49-2.62-0.19-2.68,1.93c-0.09,3.36-0.19,6.71-0.31,10.07c-0.07,1.87,0.7,2.54,2.5,2.2c6.49-1.22,12.98-2.44,19.48-3.63
			c1.58-0.29,1.96,0.07,1.74,1.6c-1.35,9.48-2.71,18.96-4.1,28.44c-0.86,5.82-1.79,11.63-2.68,17.45c-0.27,1.79,0.24,2.45,2.01,2.62
			c2.19,0.21,4.38,0.55,6.57,0.55c3.52,0.01,7.04-0.13,10.55-0.38c1.75-0.12,2.08-0.8,1.82-2.6c-0.37-2.45-0.77-4.9-1.09-7.35
			c-1.2-9.28-2.38-18.55-3.57-27.83c-0.47-3.66-0.98-7.31-1.44-10.97c-0.17-1.31,0.35-1.78,1.73-1.5c6.26,1.26,12.53,2.45,18.8,3.67
			c0.65,0.13,1.29,0.3,1.94,0.38c1.07,0.14,1.68-0.3,1.67-1.46c-0.02-3.64,0.02-7.28-0.03-10.91c-0.02-1.6-0.66-2.11-2.22-1.79
			c-3.4,0.7-6.77,1.52-10.17,2.2c-2.28,0.45-4.6,0.72-6.91,1.07c0.55-1.27,1.23-2.17,2-3c3.78-4.11,5.66-8.91,5.05-14.5
			c-0.4-3.7-1.89-6.88-5.19-8.97c-5.97-3.78-12.32-3.81-18.72-1.56c-3.51,1.23-6.18,3.76-7.07,7.54c-1.2,5.14-0.66,10.09,2.52,14.51
			C38.59,31.53,40.01,33.4,41.41,35.3z"/>
		<path d="M41.41,35.3c-1.4-1.89-2.82-3.76-4.19-5.67c-3.19-4.42-3.72-9.37-2.52-14.51c0.88-3.78,3.56-6.31,7.07-7.54
			c6.39-2.24,12.75-2.21,18.72,1.56c3.3,2.09,4.79,5.27,5.19,8.97c0.61,5.6-1.27,10.39-5.05,14.5c-0.76,0.83-1.45,1.73-2,3
			c2.3-0.35,4.62-0.62,6.91-1.07c3.4-0.67,6.77-1.5,10.17-2.2c1.56-0.32,2.2,0.19,2.22,1.79c0.05,3.64,0.01,7.28,0.03,10.91
			c0.01,1.16-0.6,1.6-1.67,1.46c-0.65-0.08-1.29-0.26-1.94-0.38c-6.27-1.22-12.54-2.41-18.8-3.67c-1.38-0.28-1.9,0.19-1.73,1.5
			c0.46,3.66,0.97,7.31,1.44,10.97c1.19,9.28,2.36,18.56,3.57,27.83c0.32,2.46,0.72,4.9,1.09,7.35c0.27,1.8-0.07,2.47-1.82,2.6
			c-3.51,0.25-7.03,0.39-10.55,0.38c-2.19,0-4.38-0.35-6.57-0.55c-1.77-0.17-2.29-0.83-2.01-2.62c0.89-5.82,1.83-11.62,2.68-17.45
			c1.39-9.48,2.75-18.96,4.1-28.44c0.22-1.53-0.16-1.89-1.74-1.6c-6.5,1.19-12.99,2.4-19.48,3.63c-1.8,0.34-2.57-0.33-2.5-2.2
			c0.12-3.35,0.22-6.71,0.31-10.07c0.05-2.12,0.57-2.41,2.68-1.93c5.36,1.24,10.74,2.38,16.11,3.55
			C41.2,35.43,41.3,35.34,41.41,35.3z M46.78,38.17c-0.06,0.16-0.11,0.32-0.17,0.48c-1.23-0.16-2.47-0.26-3.69-0.5
			c-5.62-1.1-11.24-2.25-16.86-3.36c-1.72-0.34-2.02-0.12-2.01,1.57c0.02,1.87,0.17,3.74,0.2,5.61c0.02,1.56,0.65,1.94,2.19,1.62
			c6.42-1.35,12.85-2.6,19.29-3.86c1.87-0.37,2.03-0.24,1.81,1.68c-0.67,5.96-1.3,11.92-2.13,17.85
			c-1.35,9.66-2.85,19.29-4.29,28.93c-0.33,2.22,0.23,2.92,2.47,2.94c2.19,0.02,4.38,0.05,6.57,0.01c1.76-0.03,3.51-0.19,5.27-0.21
			c1.58-0.01,2.16-0.76,1.98-2.28c-0.72-6.17-1.38-12.35-2.14-18.52c-1.02-8.25-2.12-16.49-3.15-24.73
			c-0.22-1.77-0.32-3.56-0.49-5.57c1.11,0.17,1.92,0.26,2.71,0.42c6.21,1.24,12.42,2.49,18.64,3.72c2.15,0.42,2.77,0,2.9-2.15
			c0.11-1.75,0.09-3.5,0.05-5.25c-0.06-2.27-0.09-2.26-2.37-1.81c-6.11,1.2-12.21,2.41-18.33,3.59c-0.68,0.13-1.4,0.02-2.35,0.02
			c2.38-2.88,4.37-5.59,6.66-7.99c3.15-3.29,4.4-7.08,4.16-11.57c-0.19-3.77-1.98-6.46-5.09-8.33c-4.5-2.7-9.38-2.93-14.36-1.77
			c-1.2,0.28-2.33,1.04-3.39,1.74c-1.07,0.71-2.35,1.41-2.96,2.45c-2.8,4.77-2.76,9.7,0.1,14.41c1.3,2.14,3.09,3.97,4.67,5.93
			C44.03,34.91,45.41,36.53,46.78,38.17z"/>
		<path class="st0" d="M46.78,38.17c-1.36-1.64-2.74-3.27-4.09-4.92c-1.59-1.95-3.38-3.79-4.67-5.93c-2.86-4.71-2.89-9.64-0.1-14.41
			c0.61-1.04,1.89-1.75,2.96-2.45c1.06-0.7,2.19-1.46,3.39-1.74c4.97-1.16,9.86-0.93,14.36,1.77c3.11,1.86,4.89,4.56,5.09,8.33
			c0.23,4.49-1.02,8.28-4.16,11.57c-2.3,2.4-4.28,5.11-6.66,7.99c0.95,0,1.68,0.11,2.35-0.02c6.11-1.17,12.22-2.38,18.33-3.59
			c2.28-0.45,2.31-0.46,2.37,1.81c0.04,1.75,0.06,3.51-0.05,5.25c-0.14,2.15-0.75,2.58-2.9,2.15c-6.21-1.23-12.42-2.49-18.64-3.72
			c-0.79-0.16-1.6-0.25-2.71-0.42c0.17,2,0.27,3.79,0.49,5.57c1.04,8.25,2.14,16.48,3.15,24.73c0.76,6.17,1.42,12.34,2.14,18.52
			c0.18,1.52-0.4,2.26-1.98,2.28c-1.76,0.02-3.51,0.18-5.27,0.21c-2.19,0.03-4.38,0.01-6.57-0.01c-2.25-0.02-2.81-0.72-2.47-2.94
			c1.45-9.64,2.94-19.28,4.29-28.93c0.83-5.93,1.45-11.9,2.13-17.85c0.22-1.92,0.06-2.04-1.81-1.68C39.3,41,32.86,42.25,26.45,43.6
			c-1.54,0.32-2.16-0.06-2.19-1.62c-0.03-1.87-0.18-3.74-0.2-5.61c-0.02-1.69,0.29-1.91,2.01-1.57c5.62,1.11,11.23,2.26,16.86,3.36
			c1.22,0.24,2.46,0.34,3.69,0.5C46.66,38.5,46.72,38.33,46.78,38.17z M49.65,10.06c-0.01,0-0.23,0.01-0.45,0
			C41.66,9.74,35.57,17,39.41,24.72c2.17,4.37,5.18,8.13,8.88,11.35c1.09,0.95,1.94,0.96,2.82,0.06c2.06-2.11,4.05-4.28,6.05-6.45
			c2.6-2.81,3.75-6.31,4.49-9.94c0.43-2.11-0.24-4.03-1.71-5.64C57.23,11.13,53.8,9.97,49.65,10.06z"/>
		<path d="M49.65,10.06c4.15-0.09,7.58,1.07,10.29,4.04c1.47,1.61,2.13,3.52,1.71,5.64c-0.74,3.64-1.89,7.13-4.49,9.94
			c-2,2.17-3.99,4.34-6.05,6.45c-0.88,0.9-1.73,0.89-2.82-0.06c-3.7-3.23-6.71-6.99-8.88-11.35C35.57,17,41.66,9.74,49.2,10.06
			C49.42,10.07,49.64,10.06,49.65,10.06z M50.13,11.7c-0.05,0.15-0.1,0.29-0.15,0.44c-2.49,0.06-4.77,0.75-6.79,2.22
			c-1.96,1.42-3.48,4.37-2.47,7.25c1.7,4.89,4.76,8.75,8.35,12.28c0.26,0.26,1.27,0.18,1.6-0.11c4-3.47,6.71-7.84,8.49-12.78
			c1.05-2.91,0.35-5.32-2.33-6.82C54.78,13.02,52.38,12.5,50.13,11.7z"/>
		<path class="st0" d="M50.13,11.7c2.24,0.8,4.64,1.32,6.69,2.47c2.68,1.51,3.38,3.92,2.33,6.82c-1.78,4.94-4.49,9.31-8.49,12.78
			c-0.34,0.29-1.34,0.37-1.6,0.11c-3.6-3.53-6.65-7.39-8.35-12.28c-1-2.88,0.51-5.83,2.47-7.25c2.02-1.46,4.3-2.16,6.79-2.22
			C50.03,12,50.08,11.85,50.13,11.7z"/>
	</g>
</g>
</svg>
