<?xml version="1.0" encoding="utf-8"?>
<!-- Generator: Adobe Illustrator 28.0.0, SVG Export Plug-In . SVG Version: 6.00 Build 0)  -->
<svg version="1.1" id="Layer_1" xmlns="http://www.w3.org/2000/svg" xmlns:xlink="http://www.w3.org/1999/xlink" x="0px" y="0px"
	 viewBox="0 0 100 100" style="enable-background:new 0 0 100 100;" xml:space="preserve">
<g>
	<path d="M18.03,48.7c-1.51,2.8-1.7,5.59-1.81,8.32c-0.29,7.19-0.41,14.38-0.6,21.58c-0.01,0.22,0.01,0.44-0.01,0.66
		c-0.07,0.74-0.14,1.63-1.16,1.34c-0.41-0.11-0.87-0.88-0.89-1.37c-0.07-1.54,0.06-3.1,0.11-4.65c0.16-4.81,0.34-9.63,0.49-14.44
		c0.13-3.93,0.26-7.86,0.34-11.79c0.06-2.69,0.02-2.69-2.52-3.65c-0.36-0.14-0.72-0.25-1.03-0.36c-0.79,0.66-1.53,1.29-2.28,1.92
		c-0.17-0.14-0.35-0.28-0.52-0.42c0.13-0.56,0.15-1.16,0.39-1.66c4.73-9.75,14.59-14.67,25.26-12.83c5.75,0.99,10.94,3.47,16.21,5.7
		c7.16,3.02,14.47,5.17,22.33,4.99c5.14-0.11,10.29-0.22,15.43-0.33c0.39-0.01,0.78-0.01,1.16-0.01c1.21,0.01,2.08,0.49,2.1,1.81
		c0.02,1.34-0.83,1.83-2.06,1.8c-4.76-0.14-9.52-0.23-14.27-0.44c-4.3-0.19-8.61-0.37-12.89-0.83c-5.71-0.61-11.03-2.73-16.34-4.8
		c-1.79-0.7-3.57-1.41-5.52-2.18c0.66,4.6-0.62,8.22-4.78,10.31c-3.2,1.61-6.41,1.27-9.22-0.94c-3.58-2.83-4.21-6.56-2.62-11.03
		c-4.64,1.35-8.24,3.79-11.35,7.32c5.89,1.61,9.08,6.15,12.32,10.74c6.06,8.62,14.35,14.04,24.71,15.94
		c3.94,0.72,8.02,0.7,12.04,0.87c2.11,0.09,2.95,0.48,2.97,1.96c0.02,1.42-0.75,2.01-2.76,2.05c-11,0.22-21.1-2.48-29.97-9.22
		c-4.39-3.33-7.71-7.56-10.52-12.25C19.97,51.47,19.03,50.2,18.03,48.7z"/>
	<path d="M79.03,34.72c-6.67-0.55-12.15-0.54-17.43-1.58c-4.99-0.98-9.83-2.9-14.63-4.69c-5.12-1.9-9.96-4.74-15.52-5.08
		c-7.87-0.49-14.99,1.58-20.81,7.19C9.88,31.31,9,31.82,8.21,31.02c-0.73-0.75-0.34-1.63,0.35-2.48c5.01-6.13,11.76-8.49,19.35-9.11
		c7.45-0.61,13.96,2.35,20.4,5.46c7.96,3.85,16.16,6.54,25.16,6.2c5.09-0.19,10.18-0.21,15.27-0.32c1.79-0.04,2.63,0.58,2.63,2
		c0,1.36-0.73,1.95-2.48,1.95C85.2,34.73,81.49,34.72,79.03,34.72z"/>
</g>
</svg>
