<?xml version="1.0" encoding="utf-8"?>
<!-- Generator: Adobe Illustrator 28.0.0, SVG Export Plug-In . SVG Version: 6.00 Build 0)  -->
<svg version="1.1" id="Layer_1" xmlns="http://www.w3.org/2000/svg" xmlns:xlink="http://www.w3.org/1999/xlink" x="0px" y="0px"
	 viewBox="0 0 100 100" style="enable-background:new 0 0 100 100;" xml:space="preserve">
<path d="M13.4,47.7c2.7-6.3,5.4-12.6,8.1-18.9c2-4.6,3.9-9.1,5.9-13.7c0.2-0.5,0.4-0.9-0.2-1.2c-2.7-1.6-2.5-6.2,1.3-7.2
	c0.5,0,1,0,1.5,0c2.1,0.8,3,1.9,2.9,4.2c-0.1,1.2,0.3,2.3,0.9,3.3c3.1,5.6,6.1,11.3,9.2,16.9c0.6,1.1,0.6,2.1-0.1,3.1
	c-0.6,0.8-1.1,1.7-1.8,2.8c-3.4-6.5-6.7-12.7-10-19c-0.1,0-0.1,0-0.2,0.1c0.2,1.5,0.3,2.9,0.5,4.4c0.7,5.3,1.4,10.6,2,16
	c0.3,2.1,0.5,4.2,0.8,6.3c0.2,1.2-0.1,1.7-1.1,2.4c-0.5,0.3-1,0.6-1.5,0.9c-0.6,0.3-1,0.2-1.2-0.6c0-0.2-0.1-0.4-0.1-0.7
	c-0.1-4.3-0.3-8.7-0.4-13c-0.2-4.2-0.3-8.4-0.6-12.6c-0.5,3-1,5.9-1.5,8.9c-1,6.2-2.1,12.4-3.2,18.6c-0.5,3.1-1.1,6.2-1.6,9.4
	c-0.2,1.4-0.6,1.7-2.1,1.7c-2.6-0.1-2.6-0.1-2-2.7c2.7-11.5,5.4-23,8.1-34.5c0-0.2,0.1-0.3,0-0.5c-1.1,3-2.3,6-3.4,9
	c-2.1,5.6-4.2,11.2-6.3,16.9c-0.6,1.7-0.9,1.8-2.5,0.9c-0.5-0.3-0.8-0.7-1.2-1C13.4,47.9,13.4,47.8,13.4,47.7z M26.5,12L26.5,12
	c0.5,0.4,0.9,1,1.4,1.3c0.5,0.3,0.7,0.6,0.4,1.1c-0.1,0.2-0.2,0.5-0.3,0.7c-4.5,10.6-9,21.2-13.5,31.8c-0.1,0.2-0.2,0.5-0.3,0.9
	c0.6,0.2,1.2,0.4,1.8,0.7c4.3-11.3,8.5-22.5,12.7-33.7c0.1,0.4,0.1,0.8,0,1.2c-3,13.7-6.1,27.4-9.1,41.1c-0.4,1.7-0.4,1.7,1.3,1.9
	c0.6,0.1,0.8-0.1,0.9-0.7c0.3-1.9,0.7-3.9,1-5.8c1.7-9.7,3.4-19.4,5.1-29.1c0.4-2.3,0.8-4.5,1.2-6.8c0.1,0,0.2,0,0.3,0
	c0.6,9.9,1.2,19.8,1.8,29.8c1.4-0.2,1.8-0.7,1.6-1.8c-0.5-5-1-10-1.5-15.1c-0.5-4.5-1-9.1-1.4-13.6c0-0.4,0-0.8-0.1-1.3
	c0.1,0,0.2,0,0.2-0.1c3.6,6.7,7.1,13.4,10.7,20.2c1.4-1.4,1.6-1.8,0.9-3.1c-3-5.7-6-11.4-9-17.1c-0.6-1.1-1.3-2.1-0.7-3.5
	c0.4-1.1-0.5-2.6-1.6-3.1c-1.2-0.6-2.7-0.3-3.6,0.8C25.9,9.6,25.8,10.8,26.5,12z"/>
<path d="M64.9,18.9c-0.4,1.9-1.1,3.7-2.2,5.3c-1.2,1.8-2.8,3-4.9,3.6c-4.8,1.5-4.8,1.5-7.4,5.8C43.3,45.3,36.2,56.9,29,68.5
	c-0.4,0.7-1.1,1.1-1.7,1.7c-0.4,0-0.8,0-1.1,0c-2-1.2-2.2-1.9-0.9-3.9C33,53.2,40.9,40.1,48.7,27c0.8-1.4,2-2,3.6-2.3
	c1.7-0.3,3.5-0.6,5-1.4c4.2-2.2,4.3-8.6,0.3-11c-2.8-1.6-6.8-0.1-7.3,2.9c-0.1,0.7,0.1,1.6,0.3,2.3c0.2,0.9,0,1.4-0.9,1.6
	c0,0-0.1,0-0.1,0c-2.2,0.7-2.6,0.4-2.9-1.8c-0.2-1.8-0.5-3.6,0.3-5.3c1.4-3.2,4.1-4.5,7.3-4.7c1.7-0.1,3.5,0,5.1,0.5
	c2.8,0.8,4.2,3.2,5.1,5.9c0.1,0.5,0.3,1,0.4,1.5C64.9,16.4,64.9,17.6,64.9,18.9z M63.9,17.3c-0.2-1-0.3-2.5-0.6-3.8
	c-0.8-3.2-2.7-4.9-6-5.1c-1.2-0.1-2.4-0.1-3.6,0c-2.7,0.2-4.5,1.7-5.8,4c-0.9,1.6-0.5,3.4-0.4,5.1c0,0.7,0.4,1.2,1.2,1.1
	c0.7-0.1,0.9-0.7,0.8-1.4c-0.8-4.6,3.7-7.4,7.6-6.1c2.4,0.8,3.8,2.7,4.3,5.2c0.6,2.7-0.1,5.2-2.3,7.1c-1.6,1.4-3.4,2.1-5.5,2.3
	c-1.9,0.2-3.2,1.1-4.2,2.8c-2.2,4-4.7,7.8-7.1,11.8C37,49,31.6,58,26.2,66.9c-0.4,0.7-0.7,1.4,0.1,2c0.6,0.5,1.3,0.1,1.8-0.8
	c1-1.6,1.9-3.2,2.9-4.8C37.8,52,44.7,40.7,51.5,29.4c0.5-0.8,1.1-1.3,2.1-1.5c1.6-0.4,3.1-0.8,4.6-1.4C62,24.8,63.7,21.7,63.9,17.3z
	"/>
<path d="M47.6,40.4c0.8,1.4,1.4,2.6,2,3.7c3.7,7,7.3,14,10.9,21c0.3,0.5,0.5,1.1,0.6,1.7c0.2,1.2-0.5,2.3-1.6,2.7
	c-0.9,0.3-1.6-0.1-2.2-1.3c-3.9-7.5-7.8-14.9-11.7-22.3c-0.5-1-0.5-1.8,0.1-2.6C46.4,42.5,46.9,41.6,47.6,40.4z M47.5,42.5
	c-0.3,0.6-0.5,1.1-0.8,1.5c-0.4,0.5-0.3,0.9-0.1,1.5c3.9,7.3,7.7,14.6,11.6,21.9c0.5,0.9,1.1,1.2,1.8,0.8c0.8-0.5,0.6-1.2,0.3-1.8
	c-4-7.6-8-15.1-12-22.7C48,43.2,47.8,42.9,47.5,42.5z"/>
<path d="M26.5,12c-0.1-0.3-0.1-0.6-0.2-0.8C26.1,10,26.8,8.5,28,8c1.4-0.6,2.9,0.1,3.6,1.5c0.6,1.2,0.2,2.6-0.9,3.4
	c-1.3,0.9-2.4,0.8-3.6-0.3C26.9,12.4,26.7,12.2,26.5,12C26.5,12,26.5,12,26.5,12z M31.1,10.6c0-1.2-0.7-1.9-1.8-2
	c-1.1,0-2.1,0.8-2.1,1.9c0,1.1,0.9,2.1,2.1,2.1C30.3,12.6,31.1,11.7,31.1,10.6z"/>
</svg>
