<?xml version="1.0" encoding="utf-8"?>
<!-- Generator: Adobe Illustrator 28.0.0, SVG Export Plug-In . SVG Version: 6.00 Build 0)  -->
<svg version="1.1" id="Layer_1" xmlns="http://www.w3.org/2000/svg" xmlns:xlink="http://www.w3.org/1999/xlink" x="0px" y="0px"
	 viewBox="0 0 100 100" style="enable-background:new 0 0 100 100;" xml:space="preserve">
<path d="M29.23,94.43c-2.37-1.03-3.06-1.87-2.68-3.53c0.14-0.63,0.49-1.24,0.83-1.81c10.69-17.88,21.4-35.76,32.1-53.64
	c0.32-0.54,0.67-1.06,0.94-1.62c1.11-2.32,3.07-3.1,5.5-3.44c2.18-0.3,4.43-0.8,6.41-1.71c3.37-1.55,4.77-4.65,4.91-8.2
	c0.14-3.26-1.24-5.91-4.06-7.68c-3.74-2.33-9.59-0.34-10.43,3.63c-0.25,1.16,0,2.48,0.22,3.68c0.3,1.64,0.25,1.86-1.3,2.32
	c-3.24,0.96-3.71,0.73-3.94-2.61c-0.15-2.2-0.32-4.53,0.22-6.62c0.78-3.09,3.03-5.24,6.05-6.38c3.34-1.25,6.83-1.47,10.3-0.76
	c4.47,0.92,7.8,5.08,8.67,10.36c0.94,5.65-0.74,10.52-4.26,14.84c-1.36,1.68-3.26,2.6-5.29,3.26c-1.95,0.64-3.91,1.26-5.8,2.06
	c-0.8,0.34-1.62,0.98-2.07,1.71C54.6,56.12,43.71,73.99,32.75,91.81c-0.64,1.04-1.79,1.75-2.71,2.62
	C29.77,94.43,29.5,94.43,29.23,94.43z M68.72,6.78c-4.01-0.24-7.76,1.94-9.73,6.45c-0.79,1.82-0.42,4.19-0.44,6.31
	c-0.01,1.44,0.8,2.2,1.89,2.07c1.05-0.13,1.24-0.89,1.27-2.38c0.04-1.65,0.05-3.55,0.83-4.9c1.86-3.22,6.06-4.54,9.62-3.35
	c3.64,1.22,5.52,4.04,6.14,7.64c0.61,3.55-0.29,6.82-3.07,9.26c-2.07,1.81-4.5,3.02-7.31,3.3c-2.96,0.29-4.98,1.52-6.64,4.31
	c-10.71,18.08-21.67,36.01-32.54,54c-0.23,0.38-0.63,0.8-0.6,1.17c0.04,0.68,0.15,1.62,0.6,1.94c0.45,0.32,1.39,0.14,2.02-0.08
	c0.38-0.13,0.61-0.73,0.86-1.15c5.03-8.3,10.04-16.6,15.06-24.91c5.92-9.8,11.82-19.61,17.8-29.37c0.51-0.84,1.42-1.64,2.33-1.99
	c2.27-0.87,4.7-1.34,6.97-2.21c3.83-1.46,6.27-4.31,7.55-8.18c1.23-3.7,0.63-7.37-0.32-10.96c-0.55-2.06-1.53-3.95-3.55-5.18
	C75.04,7.09,72.42,6.89,68.72,6.78z"/>
<path d="M30.13,24.91c-1.63,4.38-3.17,8.52-4.71,12.65c-3.18,8.53-6.37,17.06-9.56,25.6c-0.84,2.24-1.07,2.43-2.29,1.96
	c-2.77-1.08-3.1-1.68-2.13-3.96c4.26-9.93,8.53-19.86,12.8-29.79c2.26-5.25,4.5-10.5,6.8-15.85c-1.6-0.95-2.89-2.12-3.3-4.03
	c-0.59-2.79,1.16-5.68,3.88-6.3c3.17-0.72,5.62,0.86,6.24,4.03c0.09,0.44,0.29,0.92,0.19,1.32c-0.57,2.38,0.69,4.21,1.73,6.12
	C44.01,24.44,48.2,32.23,52.44,40c0.63,1.16,0.61,2.16-0.13,3.24c-0.91,1.31-1.73,2.67-2.72,4.21c-4.88-9.26-9.66-18.33-14.44-27.4
	c-0.08,0.02-0.15,0.03-0.23,0.05c0.19,1.76,0.37,3.53,0.59,5.29c0.95,7.58,1.92,15.17,2.89,22.75c0.4,3.1,0.78,6.21,1.24,9.31
	c0.46,3.03-1.01,5.26-4.03,5.83c-0.29,0.06-0.92-0.35-0.99-0.64c-0.2-0.86-0.23-1.77-0.26-2.66c-0.21-6.31-0.41-12.61-0.62-18.92
	c-0.17-5.1-0.35-10.2-0.54-15.29c-0.01-0.35-0.11-0.69-0.39-1.05c-0.56,3.25-1.12,6.5-1.67,9.75c-1.66,9.82-3.3,19.65-4.96,29.47
	c-0.75,4.45-1.55,8.89-2.3,13.34c-0.4,2.41-0.71,2.69-3.12,2.47c-0.09-0.01-0.18-0.01-0.27-0.02c-2.99-0.16-2.98-0.16-2.31-3.01
	c4.02-17.12,8.04-34.25,12.06-51.38C30.25,25.29,30.22,25.24,30.13,24.91z M32.21,17.25c0.07,0.04,0.14,0.08,0.21,0.12
	c-4.5,20.33-8.99,40.65-13.51,61.09c1.43,0.14,2.59,0.26,3.77,0.38c3.47-19.95,6.91-39.71,10.35-59.46
	c0.09,0.01,0.17,0.01,0.26,0.02c0.86,13.89,1.72,27.79,2.59,41.74c2.67-0.83,2.85-1.12,2.57-3.44c-0.25-2.04-0.43-4.09-0.64-6.14
	c-0.68-6.49-1.36-12.99-2.03-19.48c-0.55-5.36-1.1-10.72-1.68-16.46c5.25,9.93,10.31,19.51,15.5,29.34
	c0.69-1.03,1.29-1.76,1.67-2.59c0.2-0.44,0.21-1.16-0.01-1.59c-4.55-8.75-9.13-17.48-13.77-26.19c-0.52-0.97-0.77-1.7-0.37-2.83
	c0.79-2.23-0.61-4.75-2.82-5.51c-2.24-0.77-4.64,0.29-5.55,2.47c-0.91,2.17,0.1,4.66,2.32,5.74c0.3,0.15,0.61,0.3,0.98,0.48
	c-6.79,16.05-13.53,32-20.31,48.06c0.98,0.39,1.86,0.74,2.81,1.12C20.47,48.39,26.34,32.82,32.21,17.25z"/>
<path d="M58.95,52.64c1.62,3.09,3.08,5.85,4.53,8.61c4.48,8.6,8.95,17.19,13.41,25.8c0.69,1.33,1.57,2.63,1.02,4.29
	c-0.43,1.28-1.32,2.06-2.6,2.22c-1.17,0.14-1.84-0.68-2.35-1.66c-5.6-10.73-11.21-21.45-16.83-32.18c-0.5-0.96-0.49-1.83,0.14-2.76
	C57.15,55.67,57.92,54.32,58.95,52.64z M58.71,54.88c-0.49,0.93-0.74,1.69-1.21,2.25c-0.78,0.92-0.59,1.66-0.07,2.64
	c5.36,10.06,10.67,20.14,16,30.22c0.21,0.39,0.35,0.97,0.68,1.13c0.66,0.31,1.49,0.65,2.13,0.5c0.87-0.21,1.08-1.11,0.82-1.99
	c-0.12-0.38-0.32-0.73-0.51-1.09C70.88,77.81,65.22,67.1,59.56,56.4C59.34,55.97,59.09,55.56,58.71,54.88z"/>
<path d="M36.55,10.66c-0.06,1.77-1.94,3.7-3.6,3.67c-2.01-0.04-4.01-2.06-3.97-3.99c0.04-1.78,2.06-3.84,3.69-3.76
	C35.23,6.71,36.6,8.8,36.55,10.66z M35.88,10.43c0.04-1.52-1.27-2.93-2.83-3.02c-1.55-0.09-3.05,1.31-3.1,2.89
	c-0.05,1.58,1.47,3.15,3.03,3.14C34.4,13.43,35.84,11.93,35.88,10.43z"/>
</svg>
