<?xml version="1.0" encoding="utf-8"?>
<!-- Generator: Adobe Illustrator 28.0.0, SVG Export Plug-In . SVG Version: 6.00 Build 0)  -->
<svg version="1.1" id="Layer_1" xmlns="http://www.w3.org/2000/svg" xmlns:xlink="http://www.w3.org/1999/xlink" x="0px" y="0px"
	 viewBox="0 0 71.6 86.9" style="enable-background:new 0 0 71.6 86.9;" xml:space="preserve">
<path d="M2.1,56.4c3.6-8.3,7.1-16.7,10.7-25c2.6-6.1,5.2-12.1,7.8-18.2c0.3-0.6,0.5-1.2-0.3-1.6C16.7,9.6,17,3.5,22,2.1
	c0.7,0,1.3,0,2,0c2.8,1.1,4,2.6,3.8,5.6c-0.1,1.6,0.3,3,1.1,4.4c4.1,7.4,8.1,14.9,12.2,22.4c0.8,1.5,0.8,2.7-0.2,4.1
	c-0.8,1.1-1.5,2.2-2.4,3.7c-4.5-8.6-8.9-16.9-13.3-25.1c-0.1,0-0.2,0-0.3,0.1c0.2,1.9,0.4,3.9,0.7,5.8c0.9,7.1,1.8,14.1,2.7,21.1
	c0.4,2.8,0.7,5.6,1.1,8.4c0.2,1.6-0.1,2.3-1.5,3.1c-0.7,0.4-1.3,0.9-2,1.2c-0.8,0.5-1.4,0.2-1.6-0.7c-0.1-0.3-0.1-0.6-0.1-0.9
	c-0.2-5.8-0.3-11.5-0.6-17.3c-0.2-5.5-0.5-11.1-0.9-16.6c-0.7,3.9-1.3,7.9-2,11.8c-1.4,8.2-2.8,16.5-4.2,24.7
	c-0.7,4.1-1.5,8.3-2.2,12.4c-0.3,1.9-0.8,2.3-2.8,2.2c-3.5-0.1-3.5-0.1-2.7-3.5c3.6-15.2,7.2-30.5,10.7-45.7c0-0.2,0.1-0.4,0-0.6
	c-1.5,4-3,7.9-4.5,11.9C12.5,42.1,9.8,49.6,7,57.1c-0.8,2.2-1.2,2.4-3.3,1.2c-0.6-0.3-1.1-0.9-1.6-1.3C2.1,56.8,2.1,56.6,2.1,56.4z
	 M19.5,9.2L19.5,9.2c0.6,0.6,1.1,1.3,1.9,1.7c0.7,0.4,0.9,0.7,0.5,1.4c-0.2,0.3-0.3,0.6-0.4,0.9C15.6,27.4,9.6,41.5,3.7,55.5
	c-0.1,0.3-0.2,0.7-0.4,1.2c0.8,0.3,1.5,0.6,2.4,0.9c5.7-15,11.3-29.9,16.9-44.7c0.2,0.6,0.1,1,0,1.5c-4,18.1-8,36.3-12.1,54.5
	c-0.5,2.3-0.5,2.2,1.8,2.5c0.9,0.1,1.1-0.2,1.2-0.9c0.4-2.6,0.9-5.1,1.3-7.7C17,49.9,19.2,37,21.5,24.2c0.5-3,1.1-6,1.6-9
	c0.1,0,0.2,0,0.4,0c0.8,13.1,1.6,26.3,2.5,39.4c1.8-0.3,2.3-0.9,2.2-2.4c-0.7-6.7-1.4-13.3-2-20c-0.6-6-1.3-12-1.9-18.1
	c-0.1-0.6-0.1-1.1-0.1-1.7c0.1,0,0.2,0,0.3-0.1c4.7,8.9,9.4,17.8,14.2,26.8c1.9-1.9,2.1-2.4,1.2-4.1c-4-7.6-7.9-15.1-11.9-22.7
	c-0.8-1.5-1.7-2.8-1-4.6c0.5-1.5-0.7-3.4-2.2-4.2c-1.7-0.8-3.5-0.4-4.8,1C18.7,6,18.6,7.6,19.5,9.2z"/>
<path d="M70.3,18.3c-0.6,2.5-1.5,4.9-2.9,7.1c-1.6,2.4-3.7,3.9-6.4,4.8c-6.4,2-6.4,2-9.9,7.7C41.7,53.3,32.3,68.7,22.8,84
	c-0.5,0.9-1.5,1.5-2.3,2.2c-0.5,0-1,0-1.5,0c-2.6-1.6-2.9-2.5-1.2-5.2c10.4-17.3,20.7-34.7,31.1-52c1.1-1.9,2.7-2.7,4.8-3
	c2.2-0.4,4.6-0.8,6.6-1.8c5.6-2.9,5.7-11.4,0.4-14.6c-3.7-2.2-9-0.1-9.6,3.9c-0.2,1,0.1,2.1,0.3,3.1c0.3,1.2,0,1.9-1.2,2.1
	c0,0-0.1,0-0.1,0c-3,0.9-3.5,0.6-3.9-2.5c-0.3-2.4-0.6-4.8,0.4-7.1c1.9-4.2,5.4-6,9.7-6.3c2.2-0.1,4.6,0,6.7,0.6
	c3.8,1.1,5.6,4.2,6.7,7.8c0.2,0.6,0.3,1.3,0.5,1.9C70.3,14.9,70.3,16.6,70.3,18.3z M69.1,16.1c-0.2-1.4-0.4-3.3-0.8-5.1
	c-1-4.2-3.6-6.4-8-6.8c-1.6-0.1-3.2-0.1-4.8,0c-3.6,0.2-6,2.3-7.7,5.2c-1.2,2.1-0.7,4.5-0.5,6.8c0.1,0.9,0.6,1.6,1.5,1.4
	s1.2-0.9,1-1.8C48.9,9.7,54.8,6,60,7.7c3.2,1.1,5.1,3.6,5.7,6.9c0.7,3.6-0.2,6.9-3,9.4c-2.1,1.8-4.5,2.8-7.3,3.1
	c-2.5,0.2-4.2,1.4-5.5,3.8c-3,5.3-6.2,10.4-9.4,15.6C33.3,58.2,26.2,70.1,19,81.9c-0.5,0.9-0.9,1.8,0.1,2.6c0.8,0.6,1.7,0.2,2.5-1
	c1.3-2.1,2.6-4.2,3.9-6.4c9.1-15,18.1-30,27.2-44.9c0.7-1.1,1.5-1.7,2.7-2c2.1-0.5,4.2-1.1,6.1-1.9C66.5,26.1,68.8,22,69.1,16.1z"/>
<path d="M47.4,46.8c1,1.9,1.9,3.4,2.7,4.9C55,61,59.8,70.3,64.6,79.6c0.4,0.7,0.7,1.4,0.9,2.2c0.3,1.5-0.6,3.1-2.1,3.6
	c-1.2,0.4-2.2-0.2-3-1.7c-5.2-9.9-10.3-19.8-15.5-29.6c-0.7-1.3-0.7-2.3,0.2-3.5C45.8,49.5,46.5,48.3,47.4,46.8z M47.3,49.5
	c-0.5,0.9-0.7,1.5-1.1,2c-0.5,0.7-0.5,1.2-0.1,1.9c5.1,9.7,10.2,19.3,15.3,29c0.6,1.2,1.5,1.6,2.3,1c1-0.7,0.8-1.5,0.3-2.4
	C58.7,71,53.4,61,48.1,50.9C47.9,50.5,47.7,50.2,47.3,49.5z"/>
<path d="M19.5,9.2c-0.1-0.4-0.1-0.7-0.2-1.1c-0.4-1.6,0.6-3.6,2.2-4.2c1.8-0.7,3.8,0.1,4.8,1.9c0.8,1.6,0.3,3.4-1.2,4.4
	c-1.7,1.2-3.2,1-4.8-0.4C20,9.6,19.8,9.4,19.5,9.2C19.5,9.2,19.5,9.2,19.5,9.2z M25.5,7.3c0-1.6-0.9-2.6-2.5-2.6
	c-1.5,0-2.7,1.1-2.8,2.5c0,1.5,1.2,2.7,2.7,2.7C24.5,9.9,25.5,8.8,25.5,7.3z"/>
</svg>
