<?xml version="1.0" encoding="utf-8"?>
<!-- Generator: Adobe Illustrator 28.0.0, SVG Export Plug-In . SVG Version: 6.00 Build 0)  -->
<svg version="1.1" id="Layer_1" xmlns="http://www.w3.org/2000/svg" xmlns:xlink="http://www.w3.org/1999/xlink" x="0px" y="0px"
	 viewBox="0 0 53.4 65" style="enable-background:new 0 0 53.4 65;" xml:space="preserve">
<path d="M1,42c2.7-6.3,5.4-12.6,8.1-18.9c2-4.6,3.9-9.1,5.9-13.7c0.2-0.5,0.4-0.9-0.2-1.2C12.1,6.6,12.3,2,16.1,1c0.5,0,1,0,1.5,0
	c2.1,0.8,3,1.9,2.9,4.2c-0.1,1.2,0.3,2.3,0.9,3.3c3.1,5.6,6.1,11.3,9.2,16.9c0.6,1.1,0.6,2.1-0.1,3.1c-0.6,0.8-1.1,1.7-1.8,2.8
	c-3.4-6.5-6.7-12.7-10-19c-0.1,0-0.1,0-0.2,0.1c0.2,1.5,0.3,2.9,0.5,4.4c0.7,5.3,1.4,10.6,2,16c0.3,2.1,0.5,4.2,0.8,6.3
	c0.2,1.2-0.1,1.7-1.1,2.4c-0.5,0.3-1,0.6-1.5,0.9c-0.6,0.3-1,0.2-1.2-0.6c0-0.2-0.1-0.4-0.1-0.7c-0.1-4.3-0.3-8.7-0.4-13
	c-0.2-4.2-0.3-8.4-0.6-12.6c-0.5,3-1,5.9-1.5,8.9c-1,6.2-2.1,12.4-3.2,18.6c-0.5,3.1-1.1,6.2-1.6,9.4c-0.2,1.4-0.6,1.7-2.1,1.7
	c-2.6-0.1-2.6-0.1-2-2.7c2.7-11.5,5.4-23,8.1-34.5c0-0.2,0.1-0.3,0-0.5c-1.1,3-2.3,6-3.4,9C9.1,31,7,36.6,4.9,42.3
	C4.3,44,4,44.1,2.4,43.2c-0.5-0.3-0.8-0.7-1.2-1C1,42.2,1,42.1,1,42z M14.1,6.3L14.1,6.3c0.5,0.4,0.9,1,1.4,1.3s0.7,0.6,0.4,1.1
	c-0.1,0.2-0.2,0.5-0.3,0.7C11.1,20,6.6,30.6,2.1,41.2c-0.1,0.2-0.2,0.5-0.3,0.9c0.6,0.2,1.2,0.4,1.8,0.7
	c4.3-11.3,8.5-22.5,12.7-33.7c0.1,0.4,0.1,0.8,0,1.2c-3,13.7-6.1,27.4-9.1,41.1c-0.4,1.7-0.4,1.7,1.3,1.9c0.6,0.1,0.8-0.1,0.9-0.7
	c0.3-1.9,0.7-3.9,1-5.8c1.7-9.7,3.4-19.4,5.1-29.1c0.4-2.3,0.8-4.5,1.2-6.8c0.1,0,0.2,0,0.3,0c0.6,9.9,1.2,19.8,1.8,29.8
	c1.4-0.2,1.8-0.7,1.6-1.8c-0.5-5-1-10-1.5-15.1c-0.5-4.5-1-9.1-1.4-13.6c0-0.4,0-0.8-0.1-1.3c0.1,0,0.2,0,0.2-0.1
	c3.6,6.7,7.1,13.4,10.7,20.2c1.4-1.4,1.6-1.8,0.9-3.1c-3-5.7-6-11.4-9-17.1c-0.6-1.1-1.3-2.1-0.7-3.5c0.4-1.1-0.5-2.6-1.6-3.1
	c-1.2-0.6-2.7-0.3-3.6,0.8C13.5,3.9,13.4,5.1,14.1,6.3z"/>
<path d="M52.5,13.2c-0.4,1.9-1.1,3.7-2.2,5.3c-1.2,1.8-2.8,3-4.9,3.6c-4.8,1.5-4.8,1.5-7.4,5.8c-7.1,11.7-14.2,23.3-21.4,34.9
	c-0.4,0.7-1.1,1.1-1.7,1.7c-0.4,0-0.8,0-1.1,0c-2-1.2-2.2-1.9-0.9-3.9c7.7-13.1,15.6-26.2,23.4-39.3c0.8-1.4,2-2,3.6-2.3
	c1.7-0.3,3.5-0.6,5-1.4c4.2-2.2,4.3-8.6,0.3-11c-2.8-1.6-6.8-0.1-7.3,2.9c-0.1,0.7,0.1,1.6,0.3,2.3c0.2,0.9,0,1.4-0.9,1.6h-0.1
	c-2.2,0.7-2.6,0.4-2.9-1.8c-0.2-1.8-0.5-3.6,0.3-5.3c1.4-3.2,4.1-4.5,7.3-4.7c1.7-0.1,3.5,0,5.1,0.5c2.8,0.8,4.2,3.2,5.1,5.9
	c0.1,0.5,0.3,1,0.4,1.5C52.5,10.7,52.5,11.9,52.5,13.2z M51.5,11.6c-0.2-1-0.3-2.5-0.6-3.8c-0.8-3.2-2.7-4.9-6-5.1
	c-1.2-0.1-2.4-0.1-3.6,0c-2.7,0.2-4.5,1.7-5.8,4c-0.9,1.6-0.5,3.4-0.4,5.1c0,0.7,0.4,1.2,1.2,1.1c0.7-0.1,0.9-0.7,0.8-1.4
	c-0.8-4.6,3.7-7.4,7.6-6.1c2.4,0.8,3.8,2.7,4.3,5.2c0.6,2.7-0.1,5.2-2.3,7.1c-1.6,1.4-3.4,2.1-5.5,2.3c-1.9,0.2-3.2,1.1-4.2,2.8
	c-2.2,4-4.7,7.8-7.1,11.8c-5.3,8.7-10.7,17.7-16.1,26.6c-0.4,0.7-0.7,1.4,0.1,2c0.6,0.5,1.3,0.1,1.8-0.8c1-1.6,1.9-3.2,2.9-4.8
	C25.4,46.3,32.3,35,39.1,23.7c0.5-0.8,1.1-1.3,2.1-1.5c1.6-0.4,3.1-0.8,4.6-1.4C49.6,19.1,51.3,16,51.5,11.6z"/>
<path d="M35.2,34.7c0.8,1.4,1.4,2.6,2,3.7c3.7,7,7.3,14,10.9,21c0.3,0.5,0.5,1.1,0.6,1.7c0.2,1.2-0.5,2.3-1.6,2.7
	c-0.9,0.3-1.6-0.1-2.2-1.3C41,55,37.1,47.6,33.2,40.2c-0.5-1-0.5-1.8,0.1-2.6C34,36.8,34.5,35.9,35.2,34.7z M35.1,36.8
	c-0.3,0.6-0.5,1.1-0.8,1.5c-0.4,0.5-0.3,0.9-0.1,1.5c3.9,7.3,7.7,14.6,11.6,21.9c0.5,0.9,1.1,1.2,1.8,0.8c0.8-0.5,0.6-1.2,0.3-1.8
	c-4-7.6-8-15.1-12-22.7C35.6,37.5,35.4,37.2,35.1,36.8z"/>
<path d="M14.1,6.3C14,6,14,5.7,13.9,5.5c-0.2-1.2,0.5-2.7,1.7-3.2c1.4-0.6,2.9,0.1,3.6,1.5c0.6,1.2,0.2,2.6-0.9,3.4
	C17,8.1,15.9,8,14.7,6.9C14.5,6.7,14.3,6.5,14.1,6.3L14.1,6.3z M18.7,4.9c0-1.2-0.7-1.9-1.8-2c-1.1,0-2.1,0.8-2.1,1.9
	c0,1.1,0.9,2.1,2.1,2.1C17.9,6.9,18.7,6,18.7,4.9z"/>
</svg>
