<?xml version="1.0" encoding="utf-8"?>
<!-- Generator: Adobe Illustrator 28.0.0, SVG Export Plug-In . SVG Version: 6.00 Build 0)  -->
<svg version="1.1" id="Layer_1" xmlns="http://www.w3.org/2000/svg" xmlns:xlink="http://www.w3.org/1999/xlink" x="0px" y="0px"
	 viewBox="0 0 65 65" style="enable-background:new 0 0 65 65;" xml:space="preserve">
<style type="text/css">
	.st0{fill:#010101;}
</style>
<g>
	<path class="st0" d="M6.8,41.9c2.7-6.3,5.4-12.6,8.1-18.9c2-4.6,3.9-9.1,5.9-13.7c0.2-0.5,0.4-0.9-0.2-1.2
		c-2.7-1.6-2.5-6.2,1.3-7.2c0.5,0,1,0,1.5,0c2.1,0.8,3,1.9,2.9,4.2c-0.1,1.2,0.3,2.3,0.9,3.3c3.1,5.6,6.1,11.3,9.2,16.9
		c0.6,1.1,0.6,2.1-0.1,3.1c-0.6,0.8-1.1,1.7-1.8,2.8c-3.4-6.5-6.7-12.7-10-19c-0.1,0-0.1,0-0.2,0.1c0.2,1.5,0.3,2.9,0.5,4.4
		c0.7,5.3,1.4,10.6,2,16c0.3,2.1,0.5,4.2,0.8,6.3c0.2,1.2-0.1,1.7-1.1,2.4c-0.5,0.3-1,0.6-1.5,0.9c-0.6,0.3-1,0.2-1.2-0.6
		c0-0.2-0.1-0.4-0.1-0.7c-0.1-4.3-0.3-8.7-0.4-13c-0.2-4.2-0.3-8.4-0.6-12.6c-0.5,3-1,5.9-1.5,8.9c-1,6.2-2.1,12.4-3.2,18.6
		c-0.5,3.1-1.1,6.2-1.6,9.4c-0.2,1.4-0.6,1.7-2.1,1.7c-2.6-0.1-2.6-0.1-2-2.7c2.7-11.5,5.4-23,8.1-34.5c0-0.2,0.1-0.3,0-0.5
		c-1.1,3-2.3,6-3.4,9c-2.1,5.6-4.2,11.2-6.3,16.9c-0.6,1.7-0.9,1.8-2.5,0.9c-0.5-0.3-0.8-0.7-1.2-1C6.8,42.1,6.8,42,6.8,41.9z
		 M19.9,6.2L19.9,6.2c0.5,0.4,0.9,1,1.4,1.3s0.7,0.6,0.4,1.1c-0.1,0.2-0.2,0.5-0.3,0.7c-4.5,10.6-9,21.2-13.5,31.8
		c-0.1,0.2-0.2,0.5-0.3,0.9c0.6,0.2,1.2,0.4,1.8,0.7C13.6,31.4,17.9,20.2,22,9c0.1,0.4,0.1,0.8,0,1.2c-3,13.7-6.1,27.4-9.1,41.1
		c-0.4,1.7-0.4,1.7,1.3,1.9c0.6,0.1,0.8-0.1,0.9-0.7c0.3-1.9,0.7-3.9,1-5.8c1.7-9.7,3.4-19.4,5.1-29.1c0.4-2.3,0.8-4.5,1.2-6.8
		c0.1,0,0.2,0,0.3,0c0.6,9.9,1.2,19.8,1.8,29.8c1.4-0.2,1.8-0.7,1.6-1.8c-0.5-5-1-10-1.5-15.1c-0.5-4.5-1-9.1-1.4-13.6
		c0-0.4,0-0.8-0.1-1.3c0.1,0,0.2,0,0.2-0.1c3.6,6.7,7.1,13.4,10.7,20.2c1.4-1.4,1.6-1.8,0.9-3.1c-3-5.7-6-11.4-9-17.1
		c-0.6-1.1-1.3-2.1-0.7-3.5c0.4-1.1-0.5-2.6-1.6-3.1c-1.2-0.6-2.7-0.3-3.6,0.8C19.2,3.8,19.1,5,19.9,6.2z"/>
	<path class="st0" d="M58.2,13.1c-0.4,1.9-1.1,3.7-2.2,5.3c-1.2,1.8-2.8,3-4.9,3.6c-4.8,1.5-4.8,1.5-7.4,5.8
		c-7.1,11.7-14.2,23.3-21.4,34.9c-0.4,0.7-1.1,1.1-1.7,1.7c-0.4,0-0.8,0-1.1,0c-2-1.2-2.2-1.9-0.9-3.9C26.3,47.4,34.2,34.3,42,21.2
		c0.8-1.4,2-2,3.6-2.3c1.7-0.3,3.5-0.6,5-1.4c4.2-2.2,4.3-8.6,0.3-11c-2.8-1.6-6.8-0.1-7.3,2.9c-0.1,0.7,0.1,1.6,0.3,2.3
		c0.2,0.9,0,1.4-0.9,1.6h-0.1c-2.2,0.7-2.6,0.4-2.9-1.8c-0.2-1.8-0.5-3.6,0.3-5.3c1.4-3.2,4.1-4.5,7.3-4.7c1.7-0.1,3.5,0,5.1,0.5
		c2.8,0.8,4.2,3.2,5.1,5.9c0.1,0.5,0.3,1,0.4,1.5C58.2,10.6,58.2,11.8,58.2,13.1z M57.2,11.5C57,10.5,57,9,56.7,7.7
		c-0.8-3.2-2.7-4.9-6-5.1c-1.2-0.1-2.4-0.1-3.6,0c-2.7,0.2-4.5,1.7-5.8,4c-0.9,1.6-0.5,3.4-0.4,5.1c0,0.7,0.4,1.2,1.2,1.1
		c0.7-0.1,0.9-0.7,0.8-1.4c-0.8-4.6,3.7-7.4,7.6-6.1c2.4,0.8,3.8,2.7,4.3,5.2c0.6,2.7-0.1,5.2-2.3,7.1C50.9,19,49,19.7,47,19.9
		c-1.9,0.2-3.2,1.1-4.2,2.8c-2.2,4-4.7,7.8-7.1,11.8C30.3,43.2,25,52.2,19.5,61.1c-0.4,0.7-0.7,1.4,0.1,2c0.6,0.5,1.3,0.1,1.8-0.8
		c1-1.6,1.9-3.2,2.9-4.8C31.1,46.2,38,34.9,44.8,23.6c0.5-0.8,1.1-1.3,2.1-1.5c1.6-0.4,3.1-0.8,4.6-1.4C55.3,19,57,15.9,57.2,11.5z"
		/>
	<path class="st0" d="M41,34.6c0.8,1.4,1.4,2.6,2,3.7c3.7,7,7.3,14,10.9,21c0.3,0.5,0.5,1.1,0.6,1.7c0.2,1.2-0.5,2.3-1.6,2.7
		c-0.9,0.3-1.6-0.1-2.2-1.3c-3.9-7.5-7.8-14.9-11.7-22.3c-0.5-1-0.5-1.8,0.1-2.6C39.8,36.7,40.2,35.8,41,34.6z M40.8,36.7
		c-0.3,0.6-0.5,1.1-0.8,1.5c-0.4,0.5-0.3,0.9-0.1,1.5c3.9,7.3,7.7,14.6,11.6,21.9c0.5,0.9,1.1,1.2,1.8,0.8c0.8-0.5,0.6-1.2,0.3-1.8
		c-4-7.6-8-15.1-12-22.7C41.3,37.4,41.2,37.1,40.8,36.7z"/>
	<path class="st0" d="M19.9,6.2c-0.1-0.3-0.1-0.6-0.2-0.8c-0.2-1.2,0.5-2.7,1.7-3.2c1.4-0.6,2.9,0.1,3.6,1.5
		c0.6,1.2,0.2,2.6-0.9,3.4c-1.3,0.9-2.4,0.8-3.6-0.3C20.2,6.6,20,6.4,19.9,6.2L19.9,6.2z M24.5,4.8c0-1.2-0.7-1.9-1.8-2
		c-1.1,0-2.1,0.8-2.1,1.9s0.9,2.1,2.1,2.1C23.6,6.8,24.5,5.9,24.5,4.8z"/>
</g>
</svg>
