<?xml version="1.0" encoding="utf-8"?>
<!-- Generator: Adobe Illustrator 28.0.0, SVG Export Plug-In . SVG Version: 6.00 Build 0)  -->
<svg version="1.1" id="Layer_1" xmlns="http://www.w3.org/2000/svg" xmlns:xlink="http://www.w3.org/1999/xlink" x="0px" y="0px"
	 viewBox="0 0 100 100" style="enable-background:new 0 0 100 100;" xml:space="preserve">
<path d="M13.39,61.02C16.96,52.68,20.52,44.34,24.1,36c2.6-6.06,5.2-12.12,7.82-18.17c0.27-0.62,0.5-1.17-0.27-1.61
	c-3.61-2.08-3.37-8.16,1.7-9.51c0.67,0,1.35,0,2.02,0c2.83,1.06,3.95,2.58,3.83,5.63c-0.07,1.64,0.35,3.02,1.13,4.43
	c4.1,7.45,8.1,14.94,12.21,22.39c0.82,1.48,0.84,2.72-0.18,4.07c-0.8,1.06-1.46,2.23-2.4,3.68c-4.52-8.56-8.89-16.85-13.26-25.13
	c-0.1,0.03-0.19,0.05-0.29,0.08c0.22,1.94,0.41,3.87,0.65,5.81c0.89,7.05,1.79,14.09,2.69,21.14c0.36,2.79,0.72,5.59,1.08,8.38
	c0.21,1.62-0.13,2.3-1.52,3.12c-0.69,0.4-1.35,0.86-2.05,1.25c-0.82,0.45-1.37,0.21-1.57-0.73c-0.06-0.29-0.1-0.58-0.11-0.87
	c-0.19-5.76-0.35-11.52-0.56-17.28c-0.2-5.54-0.45-11.09-0.86-16.65c-0.66,3.94-1.3,7.87-1.97,11.81C30.8,46.05,29.41,54.3,28,62.55
	c-0.71,4.14-1.45,8.28-2.16,12.43c-0.33,1.92-0.8,2.31-2.78,2.25c-3.48-0.11-3.47-0.1-2.66-3.52c3.59-15.23,7.16-30.46,10.74-45.69
	c0.05-0.2,0.07-0.4-0.04-0.64c-1.49,3.97-2.99,7.93-4.47,11.9c-2.78,7.45-5.55,14.9-8.32,22.36c-0.82,2.21-1.23,2.39-3.29,1.22
	c-0.6-0.34-1.1-0.88-1.64-1.34C13.39,61.36,13.39,61.19,13.39,61.02z M30.82,13.78l-0.01-0.01c0.61,0.6,1.14,1.34,1.87,1.75
	c0.72,0.4,0.94,0.73,0.55,1.45c-0.16,0.3-0.26,0.62-0.39,0.93C26.9,31.97,20.94,46.04,15,60.11c-0.14,0.33-0.24,0.69-0.4,1.15
	c0.82,0.31,1.54,0.58,2.35,0.88c5.66-15.01,11.27-29.86,16.87-44.71c0.19,0.57,0.13,1.05,0.02,1.53
	c-4.02,18.15-8.04,36.31-12.07,54.46c-0.51,2.29-0.51,2.24,1.77,2.54c0.86,0.11,1.09-0.17,1.21-0.95c0.41-2.58,0.89-5.14,1.33-7.71
	c2.24-12.84,4.47-25.69,6.71-38.53c0.52-3,1.06-6.01,1.59-9.01c0.12,0,0.25,0,0.37,0.01c0.82,13.14,1.63,26.27,2.45,39.43
	c1.82-0.3,2.33-0.88,2.18-2.39c-0.68-6.65-1.36-13.3-2.05-19.96c-0.63-6.02-1.27-12.04-1.89-18.07c-0.06-0.56-0.06-1.12-0.09-1.68
	c0.11-0.03,0.21-0.05,0.32-0.08c4.71,8.91,9.42,17.82,14.17,26.79c1.91-1.86,2.11-2.44,1.25-4.08c-3.96-7.57-7.93-15.14-11.93-22.68
	c-0.78-1.47-1.66-2.75-0.97-4.65c0.55-1.49-0.71-3.45-2.18-4.17c-1.65-0.8-3.52-0.41-4.82,1.01C30,10.55,29.88,12.14,30.82,13.78z"
	/>
<path d="M81.61,22.87c-0.58,2.52-1.49,4.87-2.93,7.06c-1.59,2.41-3.73,3.93-6.43,4.79c-6.42,2.03-6.4,2.05-9.86,7.73
	c-9.4,15.4-18.81,30.79-28.26,46.15c-0.54,0.88-1.52,1.5-2.29,2.24c-0.51,0-1.01,0-1.52,0c-2.63-1.64-2.85-2.54-1.25-5.22
	c10.37-17.33,20.75-34.66,31.1-52.01c1.12-1.87,2.69-2.68,4.79-3.03c2.25-0.38,4.63-0.79,6.62-1.82c5.55-2.87,5.72-11.45,0.44-14.59
	c-3.66-2.18-9-0.1-9.64,3.85c-0.16,0.99,0.11,2.08,0.34,3.09c0.27,1.17-0.01,1.89-1.23,2.15c-0.04,0.01-0.08,0.02-0.12,0.04
	c-2.96,0.91-3.45,0.59-3.86-2.45c-0.32-2.39-0.6-4.78,0.41-7.08c1.86-4.22,5.4-6.03,9.74-6.28c2.23-0.13,4.6-0.02,6.72,0.61
	c3.76,1.11,5.63,4.19,6.71,7.79c0.19,0.64,0.34,1.3,0.51,1.95C81.61,19.5,81.61,21.19,81.61,22.87z M80.38,20.71
	c-0.21-1.38-0.38-3.27-0.82-5.1c-1.01-4.23-3.64-6.44-7.99-6.8c-1.58-0.13-3.19-0.13-4.78-0.04c-3.58,0.21-5.97,2.31-7.66,5.25
	c-1.23,2.13-0.65,4.5-0.49,6.78c0.06,0.93,0.59,1.58,1.55,1.41c0.96-0.17,1.17-0.91,1.02-1.84c-1.03-6.08,4.9-9.77,10.1-8.07
	c3.24,1.06,5.05,3.61,5.7,6.86c0.73,3.62-0.15,6.87-3.01,9.38c-2.08,1.82-4.53,2.81-7.31,3.06c-2.51,0.22-4.22,1.43-5.52,3.76
	c-2.95,5.29-6.22,10.4-9.35,15.59c-7.17,11.85-14.34,23.7-21.5,35.54c-0.53,0.88-0.9,1.81,0.09,2.59c0.76,0.6,1.73,0.17,2.45-1
	c1.3-2.12,2.58-4.24,3.86-6.37c9.06-14.98,18.13-29.96,27.17-44.95c0.65-1.08,1.48-1.68,2.74-1.98c2.07-0.5,4.15-1.09,6.11-1.92
	C77.83,30.7,80.12,26.62,80.38,20.71z"/>
<path d="M58.76,51.4c1.03,1.87,1.9,3.39,2.7,4.94c4.84,9.29,9.66,18.58,14.48,27.88c0.36,0.7,0.7,1.45,0.86,2.22
	c0.33,1.54-0.64,3.1-2.12,3.57c-1.18,0.38-2.15-0.17-2.96-1.72c-5.16-9.88-10.3-19.76-15.49-29.62c-0.67-1.27-0.7-2.32,0.15-3.49
	C57.16,54.1,57.81,52.92,58.76,51.4z M58.58,54.1c-0.46,0.86-0.7,1.5-1.11,2c-0.55,0.67-0.46,1.23-0.09,1.94
	c5.12,9.66,10.21,19.33,15.32,28.99c0.62,1.17,1.51,1.56,2.32,1.02c1-0.66,0.81-1.54,0.34-2.44c-5.3-10.03-10.61-20.07-15.92-30.1
	C59.24,55.11,58.98,54.74,58.58,54.1z"/>
<path d="M30.82,13.78c-0.07-0.36-0.13-0.73-0.22-1.09c-0.41-1.64,0.6-3.62,2.18-4.25c1.82-0.73,3.83,0.09,4.76,1.93
	c0.79,1.57,0.3,3.42-1.19,4.44c-1.7,1.17-3.24,1.04-4.77-0.39c-0.24-0.23-0.51-0.44-0.76-0.66C30.82,13.77,30.82,13.78,30.82,13.78z
	 M36.86,11.88c0.02-1.56-0.94-2.58-2.45-2.62c-1.5-0.03-2.73,1.08-2.77,2.51c-0.04,1.47,1.22,2.73,2.72,2.72
	C35.77,14.48,36.84,13.35,36.86,11.88z"/>
</svg>
