<?xml version="1.0" encoding="utf-8"?>
<!-- Generator: Adobe Illustrator 28.0.0, SVG Export Plug-In . SVG Version: 6.00 Build 0)  -->
<svg version="1.1" id="Layer_1" xmlns="http://www.w3.org/2000/svg" xmlns:xlink="http://www.w3.org/1999/xlink" x="0px" y="0px"
	 viewBox="0 0 65 65" style="enable-background:new 0 0 65 65;" xml:space="preserve">
<style type="text/css">
	.st0{fill:#FFFFFF;stroke:#FFFFFF;stroke-width:0.5;stroke-miterlimit:10;}
</style>
<g>
	<path class="st0" d="M10.6,40.4c2.3-5.3,4.6-10.7,6.9-16c1.7-3.9,3.3-7.8,5-11.7c0.2-0.4,0.3-0.8-0.2-1c-2.3-1.3-2.1-5.2,1.1-6.1
		c0.4,0,0.8,0,1.3,0c1.8,0.7,2.6,1.7,2.4,3.6c-0.1,1,0.2,1.9,0.7,2.8c2.6,4.7,5.2,9.6,7.8,14.4c0.5,1,0.5,1.7-0.1,2.6
		c-0.5,0.7-1,1.4-1.5,2.4c-2.9-5.5-5.7-10.8-8.5-16.1c-0.1,0-0.1,0-0.2,0.1c0.1,1.2,0.3,2.5,0.4,3.7c0.6,4.6,1.2,9,1.7,13.5
		c0.3,1.8,0.4,3.6,0.7,5.4c0.1,1-0.1,1.5-1,2c-0.4,0.3-0.8,0.6-1.3,0.8c-0.5,0.3-0.9,0.1-1-0.4c-0.1-0.2-0.1-0.4-0.1-0.6
		c-0.1-3.7-0.2-7.4-0.4-11.1c-0.1-3.5-0.3-7.1-0.6-10.6c-0.4,2.5-0.8,5.1-1.3,7.6c-0.9,5.3-1.8,10.6-2.7,15.8
		c-0.4,2.6-1,5.3-1.4,7.9c-0.2,1.2-0.5,1.5-1.8,1.4c-2.2-0.1-2.2-0.1-1.7-2.2c2.3-9.7,4.6-19.5,6.9-29.3c0-0.1,0.1-0.3,0-0.4
		c-1,2.6-1.9,5.1-2.9,7.6c-1.6,4.8-3.3,9.6-5.1,14.4c-0.5,1.4-0.8,1.5-2.1,0.8c-0.4-0.2-0.7-0.6-1-0.8
		C10.6,40.6,10.6,40.5,10.6,40.4z M21.8,10.1L21.8,10.1c0.4,0.4,0.7,0.8,1.2,1.1c0.4,0.3,0.6,0.4,0.3,0.9c-0.1,0.2-0.2,0.4-0.3,0.6
		c-3.8,9.1-7.6,18.1-11.4,27.1c-0.1,0.2-0.1,0.4-0.3,0.8c0.5,0.2,1,0.4,1.5,0.6C16.5,31.6,20,22,23.6,12.5c0.1,0.4,0.1,0.6,0,1
		C21.2,25,18.7,36.7,16,48.4c-0.3,1.5-0.3,1.4,1.2,1.6c0.6,0.1,0.7-0.1,0.8-0.6c0.3-1.7,0.6-3.3,0.8-4.9c1.4-8.3,2.8-16.5,4.3-24.7
		c0.3-1.9,0.7-3.8,1-5.8c0.1,0,0.1,0,0.3,0c0.5,8.4,1,16.9,1.6,25.3c1.2-0.2,1.5-0.6,1.4-1.5c-0.4-4.3-0.9-8.5-1.3-12.8
		c-0.4-3.8-0.8-7.7-1.2-11.6c-0.1-0.4-0.1-0.7-0.1-1.1c0.1,0,0.1,0,0.2-0.1c3,5.7,6,11.4,9.1,17.2c1.2-1.2,1.3-1.5,0.8-2.6
		c-2.6-4.9-5.1-9.7-7.6-14.5c-0.5-1-1.1-1.8-0.6-2.9c0.3-1-0.4-2.2-1.4-2.7c-1.1-0.5-2.2-0.3-3.1,0.6C21.3,8,21.2,9.1,21.8,10.1z"/>
	<path class="st0" d="M54.4,15.9c-0.4,1.6-1,3.1-1.9,4.6c-1,1.5-2.4,2.5-4.1,3.1c-4.1,1.3-4.1,1.3-6.3,4.9C36,38.4,30,48.2,23.9,58
		c-0.3,0.6-1,1-1.5,1.4c-0.3,0-0.6,0-1,0c-1.7-1-1.9-1.6-0.8-3.3C27.4,45,34,33.9,40.6,22.8c0.7-1.2,1.7-1.7,3.1-1.9
		c1.4-0.3,2.9-0.5,4.2-1.2c3.6-1.9,3.7-7.3,0.3-9.4c-2.4-1.4-5.8-0.1-6.2,2.5c-0.1,0.6,0.1,1.3,0.2,2c0.2,0.8,0,1.2-0.8,1.3h-0.1
		c-1.9,0.6-2.2,0.4-2.5-1.6c-0.2-1.5-0.4-3.1,0.3-4.6c1.2-2.7,3.5-3.8,6.2-4c1.4-0.1,2.9,0,4.3,0.4c2.4,0.7,3.6,2.7,4.3,5
		c0.1,0.4,0.2,0.8,0.3,1.2C54.4,13.8,54.4,14.8,54.4,15.9z M53.6,14.5c-0.1-0.9-0.3-2.1-0.5-3.3c-0.6-2.7-2.3-4.1-5.1-4.4
		c-1-0.1-2.1-0.1-3.1,0c-2.3,0.2-3.9,1.6-5,3.4c-0.8,1.3-0.4,2.9-0.3,4.4c0.1,0.6,0.4,1,1,0.9s0.8-0.6,0.6-1.2
		c-0.6-3.9,3.2-6.3,6.5-5.2c2.1,0.7,3.3,2.3,3.7,4.4c0.4,2.3-0.1,4.4-1.9,6c-1.3,1.2-2.9,1.8-4.7,2c-1.6,0.1-2.7,0.9-3.5,2.4
		c-1.9,3.4-4,6.7-6,10c-4.6,7.5-9.2,15.1-13.8,22.7c-0.3,0.6-0.6,1.2,0.1,1.7c0.5,0.4,1.1,0.1,1.6-0.6c0.8-1.3,1.7-2.7,2.5-4.1
		c5.8-9.6,11.6-19.2,17.4-28.8c0.4-0.7,1-1.1,1.7-1.3c1.3-0.3,2.7-0.7,3.9-1.2C51.9,20.9,53.4,18.3,53.6,14.5z"/>
	<path class="st0" d="M39.7,34.2c0.6,1.2,1.2,2.2,1.7,3.1c3.1,6,6.2,11.9,9.3,17.9c0.3,0.4,0.4,0.9,0.6,1.4c0.2,1-0.4,2-1.3,2.3
		c-0.8,0.3-1.4-0.1-1.9-1.1c-3.3-6.3-6.6-12.7-9.9-19c-0.4-0.8-0.4-1.5,0.1-2.2C38.7,35.9,39.1,35.2,39.7,34.2z M39.6,35.9
		c-0.3,0.6-0.4,1-0.7,1.3c-0.3,0.4-0.3,0.8-0.1,1.2c3.3,6.2,6.5,12.4,9.8,18.6c0.4,0.8,1,1,1.5,0.6c0.6-0.4,0.5-1,0.2-1.5
		c-3.4-6.4-6.8-12.8-10.2-19.3C40,36.6,39.9,36.4,39.6,35.9z"/>
	<path class="st0" d="M21.8,10.1c-0.1-0.3-0.1-0.4-0.1-0.7c-0.3-1,0.4-2.3,1.4-2.7c1.2-0.4,2.4,0.1,3.1,1.2c0.5,1,0.2,2.2-0.8,2.8
		c-1.1,0.8-2.1,0.6-3.1-0.3C22.1,10.4,22,10.2,21.8,10.1L21.8,10.1z M25.6,8.9c0-1-0.6-1.7-1.6-1.7s-1.7,0.7-1.8,1.6
		c0,1,0.8,1.7,1.7,1.7C25,10.5,25.6,9.8,25.6,8.9z"/>
</g>
</svg>
