<?xml version="1.0" encoding="utf-8"?>
<!-- Generator: Adobe Illustrator 28.0.0, SVG Export Plug-In . SVG Version: 6.00 Build 0)  -->
<svg version="1.1" id="Layer_1" xmlns="http://www.w3.org/2000/svg" xmlns:xlink="http://www.w3.org/1999/xlink" x="0px" y="0px"
	 viewBox="0 0 65 65" style="enable-background:new 0 0 65 65;" xml:space="preserve">
<style type="text/css">
	.st0{fill:#010101;}
</style>
<g>
	<path class="st0" d="M7,41.7c2.7-6.2,5.3-12.5,8-18.7c1.9-4.6,3.9-9.1,5.8-13.6c0.2-0.4,0.4-0.9-0.2-1.2c-2.7-1.5-2.5-6.1,1.3-7.1
		c0.5,0,1,0,1.5,0c2.1,0.8,3,1.9,2.8,4.2c-0.1,1.2,0.2,2.2,0.8,3.3c3.1,5.5,6.1,11.2,9.1,16.8c0.6,1.1,0.6,2-0.1,3.1
		c-0.6,0.8-1.1,1.6-1.8,2.8c-3.4-6.4-6.7-12.7-10-18.8c-0.1,0-0.1,0-0.2,0.1c0.1,1.4,0.3,2.9,0.5,4.3c0.7,5.3,1.3,10.6,2,15.8
		c0.3,2.1,0.5,4.2,0.8,6.3c0.1,1.2-0.1,1.7-1.1,2.3c-0.5,0.3-1,0.7-1.5,0.9c-0.6,0.4-1,0.1-1.2-0.5c-0.1-0.2-0.1-0.4-0.1-0.7
		c-0.1-4.3-0.2-8.6-0.4-13c-0.1-4.1-0.4-8.3-0.7-12.4c-0.5,2.9-1,5.9-1.5,8.8c-1,6.1-2.1,12.4-3.1,18.5c-0.5,3.1-1.1,6.2-1.6,9.3
		c-0.2,1.4-0.6,1.7-2.1,1.6c-2.6-0.1-2.6-0.1-2-2.6c2.7-11.4,5.4-22.8,8-34.2c0-0.1,0.1-0.3,0-0.4c-1.1,3-2.2,5.9-3.4,8.9
		c-1.9,5.6-3.9,11.2-6,16.8C10,43.8,9.7,44,8.2,43.1c-0.4-0.2-0.8-0.7-1.2-1C7,42,7,41.8,7,41.7z M20,6.3L20,6.3
		c0.4,0.4,0.8,1,1.4,1.3c0.5,0.3,0.7,0.5,0.4,1c-0.1,0.2-0.2,0.4-0.3,0.7C17.1,20,12.6,30.5,8.2,41c-0.1,0.2-0.1,0.5-0.3,0.9
		c0.6,0.2,1.1,0.4,1.8,0.7c4.3-11.2,8.5-22.4,12.7-33.5c0.1,0.4,0.1,0.7,0,1.1c-3,13.5-6,27.2-9.1,40.8c-0.4,1.7-0.4,1.6,1.3,1.9
		c0.7,0.1,0.8-0.1,0.9-0.7c0.3-1.9,0.7-3.8,1-5.8c1.6-9.7,3.3-19.3,5-28.9c0.4-2.2,0.8-4.5,1.2-6.7c0.1,0,0.1,0,0.3,0
		c0.6,9.8,1.2,19.7,1.9,29.5c1.3-0.2,1.7-0.7,1.6-1.8c-0.5-5-1-10-1.5-15c-0.4-4.5-1-9-1.4-13.5c-0.1-0.4-0.1-0.8-0.1-1.3
		c0.1,0,0.1,0,0.2-0.1c3.5,6.7,7,13.3,10.6,20.1c1.4-1.4,1.6-1.8,0.9-3.1c-3-5.7-5.9-11.3-8.9-17c-0.6-1.1-1.3-2.1-0.7-3.4
		C26,4.1,25.1,2.7,24,2.1c-1.3-0.6-2.6-0.3-3.6,0.7C19.4,3.9,19.3,5.1,20,6.3z"/>
	<path class="st0" d="M58,13.1c-0.4,1.9-1.1,3.7-2.2,5.3c-1.2,1.8-2.8,2.9-4.8,3.6c-4.8,1.5-4.8,1.5-7.4,5.8
		c-7,11.5-14.1,23.1-21.2,34.5c-0.4,0.7-1.1,1.1-1.7,1.6c-0.4,0-0.7,0-1.1,0c-1.9-1.2-2.2-1.9-0.9-3.9c7.8-13,15.5-26,23.3-38.9
		c0.8-1.4,2-2,3.6-2.2c1.6-0.3,3.4-0.6,4.9-1.3c4.2-2.2,4.3-8.5,0.3-10.9c-2.8-1.6-6.7-0.1-7.2,2.9c-0.1,0.7,0.1,1.6,0.2,2.3
		c0.2,0.9,0,1.4-0.9,1.6h-0.1c-2.2,0.7-2.6,0.4-2.9-1.9c-0.2-1.8-0.4-3.6,0.3-5.3c1.4-3.1,4-4.5,7.3-4.7c1.6-0.1,3.4,0,5,0.4
		c2.8,0.8,4.2,3.1,5,5.8c0.1,0.4,0.2,1,0.4,1.4C58,10.6,58,11.9,58,13.1z M57.1,11.5c-0.1-1-0.3-2.5-0.6-3.8c-0.7-3.1-2.7-4.8-6-5.1
		c-1.2-0.1-2.4-0.1-3.6,0c-2.7,0.1-4.5,1.7-5.8,3.9c-0.9,1.6-0.5,3.4-0.4,5.1c0.1,0.7,0.4,1.2,1.1,1c0.7-0.1,0.9-0.7,0.7-1.3
		c-0.7-4.6,3.7-7.3,7.6-6.1c2.4,0.8,3.8,2.7,4.3,5.2c0.5,2.7-0.1,5.2-2.2,7c-1.6,1.3-3.4,2.1-5.5,2.3c-1.9,0.1-3.1,1-4.1,2.8
		c-2.2,4-4.6,7.8-7,11.7C30.3,43,25,51.9,19.6,60.8c-0.4,0.7-0.7,1.3,0.1,1.9c0.6,0.4,1.3,0.1,1.9-0.7c1-1.6,1.9-3.1,2.9-4.8
		C31.3,45.9,38,34.7,44.9,23.6c0.5-0.8,1.1-1.3,2-1.5c1.6-0.4,3.1-0.8,4.6-1.4C55.2,19,56.9,15.9,57.1,11.5z"/>
	<path class="st0" d="M40.9,34.5c0.7,1.4,1.4,2.5,2,3.7c3.7,7,7.3,13.9,10.9,20.9c0.3,0.5,0.5,1,0.7,1.6c0.2,1.1-0.4,2.3-1.6,2.7
		c-0.9,0.3-1.6-0.1-2.2-1.3c-3.9-7.4-7.7-14.8-11.6-22.2c-0.5-1-0.5-1.7,0.1-2.6C39.7,36.5,40.2,35.6,40.9,34.5z M40.8,36.5
		c-0.4,0.7-0.5,1.1-0.8,1.5c-0.4,0.5-0.4,0.9-0.1,1.4c3.8,7.3,7.6,14.4,11.5,21.7c0.4,0.9,1.1,1.2,1.7,0.7c0.7-0.5,0.6-1.1,0.2-1.8
		c-4-7.5-7.9-15-11.9-22.5C41.3,37.3,41.1,37,40.8,36.5z"/>
	<path class="st0" d="M20,6.3c-0.1-0.3-0.1-0.5-0.1-0.8c-0.3-1.2,0.4-2.7,1.6-3.1c1.3-0.5,2.8,0.1,3.6,1.4c0.6,1.2,0.2,2.5-0.9,3.3
		c-1.3,0.9-2.4,0.7-3.6-0.3C20.4,6.6,20.2,6.5,20,6.3L20,6.3z M24.5,4.9c0-1.2-0.7-1.9-1.9-1.9c-1.1,0-2,0.8-2.1,1.9
		c0,1.1,0.9,2,2,2C23.7,6.9,24.5,6,24.5,4.9z"/>
</g>
</svg>
