<?xml version="1.0" encoding="utf-8"?>
<!-- Generator: Adobe Illustrator 28.0.0, SVG Export Plug-In . SVG Version: 6.00 Build 0)  -->
<svg version="1.1" id="Lag_1" xmlns="http://www.w3.org/2000/svg" xmlns:xlink="http://www.w3.org/1999/xlink" x="0px" y="0px"
	 viewBox="0 0 1834.38 475.33" style="enable-background:new 0 0 1834.38 475.33;" xml:space="preserve">
<path d="M981.3,475.25c-64.51-17.15-128.49-34.17-192.48-51.18c-31.48-8.37-62.99-16.61-94.42-25.12
	c-12.97-3.51-25.76-7.67-38.67-11.41c-3.66-1.06-7.43-1.73-11.17-2.5c-2.39-0.49-4.9-0.58-7.21-1.29
	c-42.94-13.27-87.01-22.26-130.28-34.33c-43.45-12.12-87.17-23.27-130.76-34.88c-43.44-11.57-86.91-23.02-130.29-34.82
	c-72.87-19.83-145.67-39.88-218.49-59.89c-9.1-2.5-18.13-5.29-27.19-7.95c-0.08-0.44-0.17-0.88-0.25-1.31
	c1.25-0.73,2.41-1.82,3.76-2.15c40.71-9.85,81.3-20.24,122.19-29.25c53.6-11.81,107.44-22.52,161.17-33.68
	c84.88-17.64,169.76-35.23,254.63-52.9c115.41-24.03,230.81-48.12,346.22-72.15c32.02-6.67,64.06-13.24,96.1-19.85
	c5.6-1.15,6.32-0.5,7.02,5.05c3.88,30.72,7.11,61.54,11.94,92.11c5.74,36.29,25.88,62.16,60.64,75.27
	c14.03,5.29,29.04,5.58,43.9,3.15c24.63-4.03,47.23-12.57,65.27-30.57c9.41-9.39,18.43-19.18,27.73-28.69
	c3.41-3.49,6.94-6.9,10.74-9.95c5.2-4.17,9.09-4.03,13.79,0.64c8.01,7.96,15.65,16.29,23.64,24.28
	c11.99,11.99,23.7,24.34,36.39,35.55c9.71,8.58,22.13,12.55,34.46,16.57c29.29,9.55,59.54,13.69,89.93,17.17
	c9.1,1.04,18.34,0.81,27.5,1.35c16.31,0.97,32.6,2.26,48.91,3.08c16,0.8,32.03,1.09,48.04,1.79c8.56,0.37,17.09,1.59,25.65,1.64
	c39.76,0.23,79.52,0.07,119.28,0.29c12.53,0.07,25.06,1.2,37.59,1.27c10.82,0.06,21.65-0.51,32.46-1.15
	c16.12-0.95,32.15-0.24,47.86,3.41c15.23,3.55,25.71,13.91,31.53,27.64c6.74,15.9,8.8,32.9,0.35,49.07
	c-3.18,6.07-8.16,11.43-13.12,16.3c-11.7,11.47-26.08,16.53-42.47,16.1c-54.15-1.41-108.3-2.86-162.45-4.12
	c-61.97-1.44-123.93-3.28-185.9-3.74c-23.16-0.17-46.33,3.43-69.53,4.65c-16.26,0.86-32.26,2.98-48.03,6.86
	c-8.92,2.2-17.41,4.92-25.72,9.71c-20.95,12.09-32.14,31.63-43.52,51.41c-5.25,9.12-10.86,18.04-16.47,26.95
	c-2.88,4.57-5.98,4.93-9.59,1.02c-5.18-5.61-9.83-11.71-15.08-17.25c-12.6-13.31-25.54-26.28-38.08-39.64
	c-7.5-8.88-17-14.37-29.62-20.52c-11.25-6.29-23.76-6.32-36.05-7.14c-12.83-0.85-25.02,2.44-37.39,5.63
	c-14.78,3.81-26.44,11.61-35.96,23.01c-3.3,3.96-5.94,8.5-8.64,12.92c-2.15,3.51-3.68,7.42-5.96,10.84
	c-8.56,12.84-11.41,27.47-13.97,42.28c-1.66,9.61-4.11,19.08-5.99,28.66c-1.23,6.27-2.05,12.63-3.09,18.94
	C982.03,473.3,981.66,474.12,981.3,475.25z M97.63,212.17c2.33,0.81,3.17,1.17,4.05,1.4c67.79,17.49,135.5,35.27,203.38,52.38
	c69.37,17.49,138.95,34.15,208.34,51.53c26.4,6.61,52.52,14.29,78.81,21.35c116.05,31.17,232.11,62.3,348.18,93.4
	c2.74,0.74,5.56,1.22,8.39,1.38c7.21,0.39,9.27-1.62,11.34-8.05c5.47-16.95,7.29-34.93,15.3-51.19
	c6.93-14.07,11.74-29.26,23.01-40.86c3.83-3.94,7.51-8.06,11.62-11.69c13.08-11.51,26.96-21.55,45.12-23.4
	c7.42-0.76,14.79-2.19,22.22-2.73c8.49-0.61,17.31-2.04,25.5-0.52c20.85,3.88,41.93,7.74,60.16,19.79c4.3,2.84,8.97,5.41,12.5,9.04
	c9.89,10.19,19.29,20.86,28.86,31.36c3.95,4.34,6.25,11.65,10.58,7.64c1.23-1.14,9.03-10.1,10.17-11.33
	c8.99-9.77,14.07-19.26,23.55-28.53c6.62-6.47,13.91-12.57,21.78-17.4c17.13-10.51,36.88-12.7,56.28-14.78
	c18.54-1.99,37.25-2.29,55.89-3.33c23.52-1.32,47.05-3.82,70.56-3.7c50.66,0.26,101.3,1.9,151.96,2.91
	c55.09,1.1,110.18,2.16,165.27,3.11c5.33,0.09,10.71-0.43,16-1.1c7.75-0.98,15.06-3.71,18.15-11.38c1.77-4.41,1.79-9.78,1.58-14.68
	c-0.52-12.13-10.09-22.09-22.21-22.82c-8.39-0.51-16.84,0.17-25.27,0.08c-17.26-0.2-34.53-0.59-51.79-0.82
	c-5.5-0.07-11.02,0.4-16.51,0.12c-14.5-0.73-28.98-2.11-43.48-2.53c-23.24-0.67-46.51-0.91-69.76-1.07
	c-20.04-0.14-40.07,0.24-60.11,0.09c-16.67-0.13-33.35-0.44-50.01-1.15c-20.9-0.89-41.9,1.22-62.73-2.56
	c-9.6-1.74-19.49-1.79-29.12-3.41c-10.22-1.72-20.29-4.35-30.42-6.64c-22.13-5-43.5-11.7-63.26-23.47
	c-19.15-11.4-34.48-26.6-48.65-43.39c-3.49-4.14-7.92-7.54-12.18-10.95c-2.39-1.91-4.88-1.49-7.33,0.84
	c-8.97,8.54-17.88,17.17-27.3,25.19c-7.41,6.31-14.95,12.9-23.48,17.39c-19.93,10.5-41.45,16.49-63.99,18.19
	c-0.19,0.01-0.39,0.03-0.58,0.04c-18.98,1.41-37.79-2.82-54.93-11.09c-4.62-2.23-6.02-3.02-6.54-3.29
	c-18.03-9.52-24.03-14.02-35.69-28.71c-5.46-8.16-10.83-16.41-15.71-24.92c-8.15-14.21-12.74-30.18-13.78-46.53
	c-1.02-16.04-2.43-32.06-4.02-48.06c-0.56-5.65-3.1-7.6-8.83-7.98c-2.72-0.18-5.54-0.19-8.19,0.34
	c-17.55,3.48-35.06,7.12-52.58,10.72c-65.92,13.56-131.84,27.07-197.75,40.69c-95.35,19.69-190.69,39.41-286.01,59.2
	c-88.75,18.43-177.48,36.98-266.22,55.47C131.44,205.14,115.14,208.53,97.63,212.17z M1098.58,205.86"/>
</svg>
