<?xml version="1.0" encoding="utf-8"?>
<!-- Generator: Adobe Illustrator 28.0.0, SVG Export Plug-In . SVG Version: 6.00 Build 0)  -->
<svg version="1.1" id="Lag_1" xmlns="http://www.w3.org/2000/svg" xmlns:xlink="http://www.w3.org/1999/xlink" x="0px" y="0px"
	 viewBox="0 0 1834.38 475.33" style="enable-background:new 0 0 1834.38 475.33;" xml:space="preserve">
<path d="M852.28,472.44c-1.04-6.31-1.86-12.66-3.09-18.94c-1.88-9.58-4.33-19.05-5.99-28.66c-2.56-14.82-5.41-29.44-13.97-42.28
	c-2.28-3.42-3.8-7.33-5.96-10.84c-2.71-4.42-5.34-8.96-8.64-12.92c-9.52-11.41-21.18-19.2-35.96-23.01
	c-12.36-3.19-24.56-6.48-37.39-5.63c-12.29,0.82-24.8,0.85-36.05,7.14c-12.62,6.15-22.12,11.64-29.62,20.52
	c-12.54,13.36-25.49,26.33-38.08,39.64c-5.25,5.54-9.9,11.64-15.08,17.25c-3.61,3.91-6.71,3.54-9.59-1.02
	c-5.61-8.91-11.23-17.83-16.47-26.95c-11.37-19.78-22.56-39.32-43.52-51.41c-8.31-4.79-16.79-7.52-25.72-9.71
	c-15.77-3.88-31.77-6-48.03-6.86c-23.2-1.22-46.37-4.82-69.53-4.65c-61.97,0.46-123.94,2.3-185.9,3.74
	c-54.15,1.26-108.3,2.71-162.45,4.12c-16.39,0.43-30.78-4.64-42.47-16.1c-4.96-4.87-9.95-10.23-13.12-16.3
	C-2.8,273.4-0.74,256.39,6,240.49c5.82-13.73,16.3-24.1,31.53-27.64c15.71-3.66,31.74-4.36,47.86-3.41
	c10.81,0.64,21.64,1.21,32.46,1.15c12.53-0.07,25.06-1.2,37.59-1.27c39.76-0.22,79.52-0.07,119.28-0.29
	c8.55-0.05,17.09-1.27,25.65-1.64c16.01-0.7,32.04-0.99,48.04-1.79c16.32-0.82,32.61-2.11,48.91-3.08c9.16-0.54,18.4-0.31,27.5-1.35
	c30.39-3.48,60.64-7.61,89.93-17.17c12.33-4.02,24.74-7.99,34.46-16.57c12.7-11.21,24.4-23.56,36.39-35.55
	c7.99-7.99,15.62-16.32,23.64-24.28c4.71-4.68,8.6-4.81,13.79-0.64c3.8,3.05,7.33,6.46,10.74,9.95c9.3,9.51,18.32,19.29,27.73,28.69
	c18.04,18,40.64,26.54,65.27,30.57c14.86,2.43,29.87,2.14,43.9-3.15c34.76-13.11,54.91-38.98,60.64-75.27
	c4.83-30.57,8.06-61.39,11.94-92.11c0.7-5.55,1.42-6.21,7.02-5.05c32.03,6.6,64.07,13.18,96.1,19.85
	c115.41,24.04,230.81,48.13,346.22,72.15c84.87,17.67,169.76,35.26,254.63,52.9c53.74,11.17,107.58,21.88,161.17,33.68
	c40.89,9.01,81.48,19.4,122.19,29.25c1.35,0.33,2.51,1.41,3.76,2.15c-0.08,0.44-0.17,0.88-0.25,1.31
	c-9.06,2.66-18.08,5.45-27.19,7.95c-72.82,20.01-145.62,40.06-218.49,59.89c-43.38,11.8-86.85,23.25-130.29,34.82
	c-43.59,11.61-87.31,22.76-130.76,34.88c-43.26,12.07-87.34,21.06-130.28,34.33c-2.32,0.72-4.82,0.8-7.21,1.29
	c-3.74,0.77-7.51,1.44-11.17,2.5c-12.91,3.74-25.7,7.89-38.67,11.41c-31.43,8.52-62.95,16.76-94.42,25.12
	c-63.98,17.01-127.96,34.02-192.48,51.18C852.8,474.12,852.43,473.3,852.28,472.44z M1686.71,201.74
	c-88.74-18.49-177.47-37.04-266.22-55.47c-95.33-19.79-190.67-39.51-286.01-59.2c-65.91-13.61-131.83-27.13-197.75-40.69
	c-17.52-3.6-35.04-7.24-52.58-10.72c-2.65-0.53-5.47-0.52-8.19-0.34c-5.73,0.38-8.26,2.33-8.83,7.98c-1.6,16-3,32.02-4.02,48.06
	c-1.04,16.35-5.63,32.31-13.78,46.53c-4.88,8.51-10.26,16.76-15.71,24.92c-11.65,14.69-17.65,19.19-35.69,28.71
	c-0.51,0.27-1.91,1.06-6.54,3.29c-17.14,8.27-35.95,12.5-54.93,11.09c-0.19-0.01-0.39-0.03-0.58-0.04
	c-22.54-1.7-44.06-7.69-63.99-18.19c-8.53-4.49-16.07-11.08-23.48-17.39c-9.42-8.02-18.33-16.66-27.3-25.19
	c-2.45-2.33-4.94-2.75-7.33-0.84c-4.26,3.41-8.69,6.82-12.18,10.95c-14.17,16.79-29.5,31.99-48.65,43.39
	c-19.76,11.77-41.13,18.47-63.26,23.47c-10.13,2.29-20.2,4.92-30.42,6.64c-9.63,1.62-19.53,1.66-29.12,3.41
	c-20.83,3.79-41.82,1.68-62.73,2.56c-16.66,0.71-33.34,1.02-50.01,1.15c-20.04,0.16-40.07-0.23-60.11-0.09
	c-23.26,0.16-46.52,0.4-69.76,1.07c-14.51,0.42-28.98,1.8-43.48,2.53c-5.49,0.28-11.01-0.19-16.51-0.12
	c-17.26,0.23-34.53,0.63-51.79,0.82c-8.42,0.1-16.88-0.59-25.27-0.08c-12.12,0.74-21.69,10.69-22.21,22.82
	c-0.21,4.9-0.19,10.27,1.58,14.68c3.08,7.67,10.39,10.41,18.14,11.38c5.3,0.67,10.68,1.19,16,1.1
	c55.09-0.95,110.18-2.01,165.27-3.11c50.65-1.01,101.3-2.65,151.96-2.91c23.51-0.12,47.04,2.38,70.56,3.7
	c18.64,1.04,37.35,1.34,55.89,3.33c19.4,2.08,39.15,4.28,56.28,14.78c7.87,4.83,15.16,10.93,21.78,17.4
	c9.48,9.27,14.56,18.76,23.55,28.53c1.14,1.24,8.94,10.2,10.17,11.33c4.33,4.01,6.63-3.3,10.58-7.64
	c9.57-10.5,18.97-21.17,28.86-31.36c3.53-3.63,8.2-6.2,12.5-9.04c18.23-12.05,39.31-15.91,60.16-19.79
	c8.19-1.52,17.01-0.09,25.5,0.52c7.43,0.54,14.8,1.97,22.22,2.73c18.16,1.85,32.04,11.89,45.12,23.4
	c4.11,3.62,7.79,7.74,11.62,11.69c11.27,11.6,16.08,26.8,23.01,40.86c8.02,16.27,9.83,34.25,15.3,51.19
	c2.08,6.43,4.13,8.44,11.34,8.05c2.84-0.15,5.65-0.64,8.39-1.38c116.07-31.09,232.13-62.22,348.18-93.4
	c26.29-7.06,52.41-14.74,78.81-21.35c69.4-17.38,138.97-34.04,208.34-51.53c67.88-17.11,135.6-34.89,203.38-52.38
	c0.88-0.23,1.72-0.59,4.05-1.4C1719.32,208.53,1703.01,205.14,1686.71,201.74z M735.87,205.86"/>
</svg>
