<?xml version="1.0" encoding="utf-8"?>
<!-- Generator: Adobe Illustrator 28.0.0, SVG Export Plug-In . SVG Version: 6.00 Build 0)  -->
<svg version="1.1" id="Lag_1" xmlns="http://www.w3.org/2000/svg" xmlns:xlink="http://www.w3.org/1999/xlink" x="0px" y="0px"
	 viewBox="0 0 1834.4 475.3" style="enable-background:new 0 0 1834.4 475.3;" xml:space="preserve">
<style type="text/css">
	.st0{fill:#FFFFFF;}
</style>
<path class="st0" d="M852.3,472.4c-1-6.3-1.9-12.7-3.1-18.9c-1.9-9.6-4.3-19-6-28.7c-2.6-14.8-5.4-29.4-14-42.3
	c-2.3-3.4-3.8-7.3-6-10.8c-2.7-4.4-5.3-9-8.6-12.9c-9.5-11.4-21.2-19.2-36-23c-12.4-3.2-24.6-6.5-37.4-5.6
	c-12.3,0.8-24.8,0.9-36,7.1c-12.6,6.1-22.1,11.6-29.6,20.5c-12.5,13.4-25.5,26.3-38.1,39.6c-5.2,5.5-9.9,11.6-15.1,17.2
	c-3.6,3.9-6.7,3.5-9.6-1c-5.6-8.9-11.2-17.8-16.5-27c-11.4-19.8-22.6-39.3-43.5-51.4c-8.3-4.8-16.8-7.5-25.7-9.7
	c-15.8-3.9-31.8-6-48-6.9c-23.2-1.2-46.4-4.8-69.5-4.6c-62,0.5-123.9,2.3-185.9,3.7c-54.1,1.3-108.3,2.7-162.4,4.1
	c-16.4,0.4-30.8-4.6-42.5-16.1c-5-4.9-9.9-10.2-13.1-16.3c-8.4-16.2-6.4-33.2,0.4-49.1c5.8-13.7,16.3-24.1,31.5-27.6
	c15.7-3.7,31.7-4.4,47.9-3.4c10.8,0.6,21.6,1.2,32.5,1.1c12.5-0.1,25.1-1.2,37.6-1.3c39.8-0.2,79.5-0.1,119.3-0.3
	c8.5-0.1,17.1-1.3,25.6-1.6c16-0.7,32-1,48-1.8c16.3-0.8,32.6-2.1,48.9-3.1c9.2-0.5,18.4-0.3,27.5-1.4c30.4-3.5,60.6-7.6,89.9-17.2
	c12.3-4,24.7-8,34.5-16.6c12.7-11.2,24.4-23.6,36.4-35.6c8-8,15.6-16.3,23.6-24.3c4.7-4.7,8.6-4.8,13.8-0.6
	c3.8,3.1,7.3,6.5,10.7,9.9c9.3,9.5,18.3,19.3,27.7,28.7c18,18,40.6,26.5,65.3,30.6c14.9,2.4,29.9,2.1,43.9-3.1
	c34.8-13.1,54.9-39,60.6-75.3c4.8-30.6,8.1-61.4,11.9-92.1c0.7-5.6,1.4-6.2,7-5.1c32,6.6,64.1,13.2,96.1,19.8
	c115.4,24,230.8,48.1,346.2,72.2c84.9,17.7,169.8,35.3,254.6,52.9c53.7,11.2,107.6,21.9,161.2,33.7c40.9,9,81.5,19.4,122.2,29.2
	c1.3,0.3,2.5,1.4,3.8,2.1c-0.1,0.4-0.2,0.9-0.2,1.3c-9.1,2.7-18.1,5.4-27.2,7.9c-72.8,20-145.6,40.1-218.5,59.9
	c-43.4,11.8-86.8,23.2-130.3,34.8c-43.6,11.6-87.3,22.8-130.8,34.9c-43.3,12.1-87.3,21.1-130.3,34.3c-2.3,0.7-4.8,0.8-7.2,1.3
	c-3.7,0.8-7.5,1.4-11.2,2.5c-12.9,3.7-25.7,7.9-38.7,11.4c-31.4,8.5-62.9,16.8-94.4,25.1c-64,17-128,34-192.5,51.2
	C852.8,474.1,852.4,473.3,852.3,472.4z M1686.7,201.7c-88.7-18.5-177.5-37-266.2-55.5c-95.3-19.8-190.7-39.5-286-59.2
	c-65.9-13.6-131.8-27.1-197.8-40.7c-17.5-3.6-35-7.2-52.6-10.7c-2.7-0.5-5.5-0.5-8.2-0.3c-5.7,0.4-8.3,2.3-8.8,8
	c-1.6,16-3,32-4,48.1c-1,16.3-5.6,32.3-13.8,46.5c-4.9,8.5-10.3,16.8-15.7,24.9C822,177.5,816,182,797.9,191.5
	c-0.5,0.3-1.9,1.1-6.5,3.3c-17.1,8.3-36,12.5-54.9,11.1c-0.2,0-0.4,0-0.6,0c-22.5-1.7-44.1-7.7-64-18.2
	c-8.5-4.5-16.1-11.1-23.5-17.4c-9.4-8-18.3-16.7-27.3-25.2c-2.5-2.3-4.9-2.8-7.3-0.8c-4.3,3.4-8.7,6.8-12.2,10.9
	c-14.2,16.8-29.5,32-48.7,43.4c-19.8,11.8-41.1,18.5-63.3,23.5c-10.1,2.3-20.2,4.9-30.4,6.6c-9.6,1.6-19.5,1.7-29.1,3.4
	c-20.8,3.8-41.8,1.7-62.7,2.6c-16.7,0.7-33.3,1-50,1.1c-20,0.2-40.1-0.2-60.1-0.1c-23.3,0.2-46.5,0.4-69.8,1.1
	c-14.5,0.4-29,1.8-43.5,2.5c-5.5,0.3-11-0.2-16.5-0.1c-17.3,0.2-34.5,0.6-51.8,0.8c-8.4,0.1-16.9-0.6-25.3-0.1
	c-12.1,0.7-21.7,10.7-22.2,22.8c-0.2,4.9-0.2,10.3,1.6,14.7c3.1,7.7,10.4,10.4,18.1,11.4c5.3,0.7,10.7,1.2,16,1.1
	c55.1-1,110.2-2,165.3-3.1c50.6-1,101.3-2.6,152-2.9c23.5-0.1,47,2.4,70.6,3.7c18.6,1,37.4,1.3,55.9,3.3
	c19.4,2.1,39.2,4.3,56.3,14.8c7.9,4.8,15.2,10.9,21.8,17.4c9.5,9.3,14.6,18.8,23.5,28.5c1.1,1.2,8.9,10.2,10.2,11.3
	c4.3,4,6.6-3.3,10.6-7.6c9.6-10.5,19-21.2,28.9-31.4c3.5-3.6,8.2-6.2,12.5-9c18.2-12,39.3-15.9,60.2-19.8c8.2-1.5,17-0.1,25.5,0.5
	c7.4,0.5,14.8,2,22.2,2.7c18.2,1.9,32,11.9,45.1,23.4c4.1,3.6,7.8,7.7,11.6,11.7c11.3,11.6,16.1,26.8,23,40.9
	c8,16.3,9.8,34.2,15.3,51.2c2.1,6.4,4.1,8.4,11.3,8c2.8-0.1,5.7-0.6,8.4-1.4c116.1-31.1,232.1-62.2,348.2-93.4
	c26.3-7.1,52.4-14.7,78.8-21.4c69.4-17.4,139-34,208.3-51.5c67.9-17.1,135.6-34.9,203.4-52.4c0.9-0.2,1.7-0.6,4.1-1.4
	C1719.3,208.5,1703,205.1,1686.7,201.7z"/>
</svg>
