<?xml version="1.0" encoding="utf-8"?>
<!-- Generator: Adobe Illustrator 28.0.0, SVG Export Plug-In . SVG Version: 6.00 Build 0)  -->
<svg version="1.1" id="Lag_1" xmlns="http://www.w3.org/2000/svg" xmlns:xlink="http://www.w3.org/1999/xlink" x="0px" y="0px"
	 viewBox="0 0 1834.4 475.3" style="enable-background:new 0 0 1834.4 475.3;" xml:space="preserve">
<style type="text/css">
	.st0{fill:#FFFFFF;}
</style>
<path class="st0" d="M981.3,475.2c-64.5-17.1-128.5-34.2-192.5-51.2c-31.5-8.4-63-16.6-94.4-25.1c-13-3.5-25.8-7.7-38.7-11.4
	c-3.7-1.1-7.4-1.7-11.2-2.5c-2.4-0.5-4.9-0.6-7.2-1.3c-42.9-13.3-87-22.3-130.3-34.3c-43.5-12.1-87.2-23.3-130.8-34.9
	c-43.4-11.6-86.9-23-130.3-34.8c-72.9-19.8-145.7-39.9-218.5-59.9c-9.1-2.5-18.1-5.3-27.2-7.9c-0.1-0.4-0.2-0.9-0.2-1.3
	c1.2-0.7,2.4-1.8,3.8-2.1c40.7-9.9,81.3-20.2,122.2-29.2c53.6-11.8,107.4-22.5,161.2-33.7c84.9-17.6,169.8-35.2,254.6-52.9
	c115.4-24,230.8-48.1,346.2-72.2c32-6.7,64.1-13.2,96.1-19.9c5.6-1.1,6.3-0.5,7,5.1c3.9,30.7,7.1,61.5,11.9,92.1
	c5.7,36.3,25.9,62.2,60.6,75.3c14,5.3,29,5.6,43.9,3.1c24.6-4,47.2-12.6,65.3-30.6c9.4-9.4,18.4-19.2,27.7-28.7
	c3.4-3.5,6.9-6.9,10.7-9.9c5.2-4.2,9.1-4,13.8,0.6c8,8,15.7,16.3,23.6,24.3c12,12,23.7,24.3,36.4,35.6c9.7,8.6,22.1,12.6,34.5,16.6
	c29.3,9.6,59.5,13.7,89.9,17.2c9.1,1,18.3,0.8,27.5,1.4c16.3,1,32.6,2.3,48.9,3.1c16,0.8,32,1.1,48,1.8c8.6,0.4,17.1,1.6,25.7,1.6
	c39.8,0.2,79.5,0.1,119.3,0.3c12.5,0.1,25.1,1.2,37.6,1.3c10.8,0.1,21.7-0.5,32.5-1.1c16.1-0.9,32.2-0.2,47.9,3.4
	c15.2,3.6,25.7,13.9,31.5,27.6c6.7,15.9,8.8,32.9,0.3,49.1c-3.2,6.1-8.2,11.4-13.1,16.3c-11.7,11.5-26.1,16.5-42.5,16.1
	c-54.2-1.4-108.3-2.9-162.4-4.1c-62-1.4-123.9-3.3-185.9-3.7c-23.2-0.2-46.3,3.4-69.5,4.6c-16.3,0.9-32.3,3-48,6.9
	c-8.9,2.2-17.4,4.9-25.7,9.7c-20.9,12.1-32.1,31.6-43.5,51.4c-5.2,9.1-10.9,18-16.5,27c-2.9,4.6-6,4.9-9.6,1
	c-5.2-5.6-9.8-11.7-15.1-17.2c-12.6-13.3-25.5-26.3-38.1-39.6c-7.5-8.9-17-14.4-29.6-20.5c-11.2-6.3-23.8-6.3-36.1-7.1
	c-12.8-0.9-25,2.4-37.4,5.6c-14.8,3.8-26.4,11.6-36,23c-3.3,4-5.9,8.5-8.6,12.9c-2.2,3.5-3.7,7.4-6,10.8
	c-8.6,12.8-11.4,27.5-14,42.3c-1.7,9.6-4.1,19.1-6,28.7c-1.2,6.3-2,12.6-3.1,18.9C982,473.3,981.7,474.1,981.3,475.2z M97.6,212.2
	c2.3,0.8,3.2,1.2,4.1,1.4c67.8,17.5,135.5,35.3,203.4,52.4c69.4,17.5,139,34.1,208.3,51.5c26.4,6.6,52.5,14.3,78.8,21.4
	c116,31.2,232.1,62.3,348.2,93.4c2.7,0.7,5.6,1.2,8.4,1.4c7.2,0.4,9.3-1.6,11.3-8c5.5-17,7.3-34.9,15.3-51.2
	c6.9-14.1,11.7-29.3,23-40.9c3.8-3.9,7.5-8.1,11.6-11.7c13.1-11.5,27-21.5,45.1-23.4c7.4-0.8,14.8-2.2,22.2-2.7
	c8.5-0.6,17.3-2,25.5-0.5c20.8,3.9,41.9,7.7,60.2,19.8c4.3,2.8,9,5.4,12.5,9c9.9,10.2,19.3,20.9,28.9,31.4
	c3.9,4.3,6.2,11.6,10.6,7.6c1.2-1.1,9-10.1,10.2-11.3c9-9.8,14.1-19.3,23.6-28.5c6.6-6.5,13.9-12.6,21.8-17.4
	c17.1-10.5,36.9-12.7,56.3-14.8c18.5-2,37.2-2.3,55.9-3.3c23.5-1.3,47.1-3.8,70.6-3.7c50.7,0.3,101.3,1.9,152,2.9
	c55.1,1.1,110.2,2.2,165.3,3.1c5.3,0.1,10.7-0.4,16-1.1c7.8-1,15.1-3.7,18.2-11.4c1.8-4.4,1.8-9.8,1.6-14.7
	c-0.5-12.1-10.1-22.1-22.2-22.8c-8.4-0.5-16.8,0.2-25.3,0.1c-17.3-0.2-34.5-0.6-51.8-0.8c-5.5-0.1-11,0.4-16.5,0.1
	c-14.5-0.7-29-2.1-43.5-2.5c-23.2-0.7-46.5-0.9-69.8-1.1c-20-0.1-40.1,0.2-60.1,0.1c-16.7-0.1-33.3-0.4-50-1.1
	c-20.9-0.9-41.9,1.2-62.7-2.6c-9.6-1.7-19.5-1.8-29.1-3.4c-10.2-1.7-20.3-4.4-30.4-6.6c-22.1-5-43.5-11.7-63.3-23.5
	c-19.2-11.4-34.5-26.6-48.7-43.4c-3.5-4.1-7.9-7.5-12.2-10.9c-2.4-1.9-4.9-1.5-7.3,0.8c-9,8.5-17.9,17.2-27.3,25.2
	c-7.4,6.3-14.9,12.9-23.5,17.4c-19.9,10.5-41.4,16.5-64,18.2c-0.2,0-0.4,0-0.6,0c-19,1.4-37.8-2.8-54.9-11.1c-4.6-2.2-6-3-6.5-3.3
	c-18-9.5-24-14-35.7-28.7c-5.5-8.2-10.8-16.4-15.7-24.9c-8.2-14.2-12.7-30.2-13.8-46.5c-1-16-2.4-32.1-4-48.1
	c-0.6-5.7-3.1-7.6-8.8-8c-2.7-0.2-5.5-0.2-8.2,0.3c-17.5,3.5-35.1,7.1-52.6,10.7C831.8,60,765.9,73.5,700,87.1
	c-95.3,19.7-190.7,39.4-286,59.2c-88.8,18.4-177.5,37-266.2,55.5C131.4,205.1,115.1,208.5,97.6,212.2z"/>
</svg>
