<?xml version="1.0" encoding="utf-8"?>
<!-- Generator: Adobe Illustrator 28.0.0, SVG Export Plug-In . SVG Version: 6.00 Build 0)  -->
<svg version="1.1" id="Layer_1" xmlns="http://www.w3.org/2000/svg" xmlns:xlink="http://www.w3.org/1999/xlink" x="0px" y="0px"
	 viewBox="0 0 100 100" style="enable-background:new 0 0 100 100;" xml:space="preserve">
<style type="text/css">
	.st0{fill:#5B4655;}
	.st1{fill:#AD7D5E;}
	.st2{fill:#CE9F67;}
	.st3{fill:#B08B77;}
	.st4{fill:#8C563A;}
	.st5{fill:#BB751E;}
	.st6{fill:#874C2C;}
	.st7{fill:#C4AFA6;}
	.st8{fill:#C88E46;}
	.st9{fill:#A88475;}
	.st10{fill:#BD967D;}
	.st11{fill:#A57C65;}
	.st12{fill:#94654B;}
	.st13{fill:#8A7B82;}
	.st14{fill:#A07561;}
	.st15{fill:#836255;}
	.st16{fill:#A77149;}
	.st17{fill:#79411E;}
	.st18{fill:#60341F;}
	.st19{fill:#B49B90;}
	.st20{fill:#B29285;}
	.st21{fill:#9E5F33;}
	.st22{fill:#975727;}
	.st23{fill:#F9F7F6;}
	.st24{fill:#F5F0EE;}
	.st25{fill:#EAE3DF;}
	.st26{fill:#CFBCB4;}
	.st27{fill:#FAF9F8;}
</style>
<path class="st0" d="M88.02,66.46c1.41-0.11,2.81-0.23,4.22-0.34c0.17,0.09,0.34,0.18,0.5,0.27c0.29,0.14,0.58,0.27,1.21,0.57
	c-0.76,0.6-1.33,1.06-1.91,1.52c-0.17,0.02-0.34,0.04-0.51,0.06c-0.29,0.03-0.58,0.06-0.88,0.09c-0.61-0.5-1.23-1-2.05-1.68
	c0.1,1.75-1.07,1.24-1.96,1.32c-0.5,0.05-0.99,0.24-1.49,0.37c-4.33-0.05-8.65-0.1-12.98-0.15c-0.16,0-0.32,0-0.49-0.01
	c-0.15-0.04-0.3-0.07-0.45-0.11c0.04-0.42,0.08-0.83,0.13-1.25c1.1,0.95,1.58,0.9,2.06-0.15c0.13-0.28,0.28-0.54,0.42-0.81
	c0.1-0.03,0.19-0.07,0.29-0.1c0.36,0.06,0.73,0.13,1.09,0.19c0.04,0.07,0.1,0.1,0.19,0.1c1.28-0.15,2.56-0.3,3.84-0.46
	c0.11,0.21,0.21,0.43,0.32,0.64c0.14-0.15,0.27-0.29,0.41-0.44c0.67-0.04,1.33-0.08,2-0.12c0.59,0.05,1.19,0.1,1.78,0.15
	c0.55,0.06,1.11,0.13,1.66,0.19c-0.09,0.12-0.18,0.25-0.27,0.37c0.62,0.12,1.24,0.32,1.86,0.32C87.35,67.04,87.68,66.67,88.02,66.46
	z"/>
<path class="st1" d="M48.17,61.46c0.02-0.38,0.04-0.77,0.06-1.15c0.04-0.48,0.09-0.96,0.13-1.44c-0.01-0.16-0.03-0.32-0.04-0.48
	c0.04,0.03,0.08,0.04,0.12,0.05c0.45-0.15,0.91-0.3,1.36-0.45c-0.04-0.09-0.08-0.19-0.12-0.28c-0.42-0.17-0.84-0.34-1.26-0.51
	c-0.03-0.23-0.06-0.46-0.09-0.7c-0.03-0.17-0.07-0.33-0.1-0.5c-0.06-0.07-0.11-0.14-0.17-0.21c0.02-0.63,0.04-1.27,0.06-1.9
	c0.07-0.15,0.14-0.3,0.2-0.45c0.09-1.27,0.17-2.54,0.26-3.81c0.39,0.02,0.86,0.43,1.06-0.34c0.05-0.19,0.55-0.26,0.85-0.39
	c0.16,0.16,0.31,0.33,0.47,0.49c-0.08,0.24-0.15,0.48-0.23,0.72c-0.07,0.7-0.15,1.4-0.2,2.1c-0.01,0.21,0.02,0.52,0.16,0.62
	c0.14,0.1,0.44,0.02,0.65-0.04c0.21-0.07,0.41-0.21,0.61-0.32c0.08,0.19,0.16,0.39,0.24,0.58c-0.06,0.29-0.11,0.57-0.17,0.86
	c-0.41,0.13-1.05,0.16-1.18,0.43c-0.18,0.39-0.03,0.96,0.07,1.44c0.01,0.06,0.59,0,0.9-0.01c0.23,2.33,0.56,4.65,0.65,6.98
	c0.08,1.94-0.11,3.9-0.18,5.85c-0.28,0-0.56-0.01-0.85-0.01c-0.01-0.24-0.01-0.48-0.02-0.73c0.04-0.15,0.09-0.3,0.1-0.46
	c0.14-2.29,0.83-4.57,0.14-6.87l0.01-0.01c0-0.08,0-0.17,0-0.25c-0.97-0.91-0.79,1.04-1.31,0.74c-0.56-0.44-0.91-0.71-1.27-0.99
	c-0.13,0.09-0.25,0.18-0.38,0.27c0.24,0.57,0.48,1.13,0.76,1.78c-0.29,0.04-0.58,0.08-0.87,0.13c0,0-0.01-0.01-0.01-0.01
	C48.44,61.94,48.3,61.7,48.17,61.46z"/>
<path class="st2" d="M44.98,27.99c-0.53,0.14-1.07,0.28-1.6,0.42c-0.16,0.06-0.31,0.12-0.47,0.18c-0.15,0.04-0.3,0.07-0.45,0.11
	c-0.25-0.01-0.49-0.01-0.74-0.02c-0.11-0.83-0.23-1.67-0.34-2.5c-0.1-0.14-0.19-0.28-0.29-0.42c-0.17-0.45-0.34-0.9-0.5-1.35
	c0.61-0.18,1.22-0.36,1.83-0.53c1.46-0.54,2.94-0.89,4.5-0.45c0.48,0.55,0.95,1.1,1.44,1.64c0.04,0.05,0.15,0.03,0.22,0.05
	c0,0.47,0,0.95,0,1.42c-0.08,0.12-0.16,0.24-0.24,0.35c-0.09,0.01-0.18,0.01-0.28,0.02c-0.19,0.07-0.39,0.15-0.58,0.22
	c0.02,0.04,0.03,0.07,0.05,0.11c-0.62,0.15-1.24,0.31-1.86,0.46C45.44,27.8,45.21,27.89,44.98,27.99z"/>
<path class="st3" d="M42.42,23.88c-0.61,0.18-1.22,0.36-1.83,0.53c-0.29,0.13-0.58,0.26-0.87,0.38c-0.19,0.08-0.38,0.17-0.58,0.25
	c0.14,0.07,0.28,0.14,0.42,0.21c0.33,0.77,0.67,1.53,0.99,2.3c0.18,0.43,0.32,0.87,0.48,1.3c0.01,0.08,0.02,0.16,0.04,0.25
	c-1.39,0.29-2.78,0.58-4.16,0.87c-0.39,0.06-0.79,0.12-1.18,0.18c-1.07,0.15-2.14,0.31-3.21,0.46c-0.03-0.05-0.07-0.1-0.1-0.15
	c0.51-0.25,1.02-0.51,1.53-0.76c0.65,0.36,0.73,0.01,0.69-0.54c-0.06-0.78-0.1-1.56-0.14-2.34c-0.04-0.7-0.36-1.02-1.07-0.85
	c0.05-0.14,0.09-0.27,0.14-0.41c2.65-0.65,5.3-1.32,7.95-1.93C41.79,23.58,42.12,23.79,42.42,23.88z M37.9,25.1
	c-0.72,0.11-1.44,0.22-2.16,0.33c0.99-0.01,2.02-0.13,1.69,1.44c-0.02,0.11,0.35,0.31,0.53,0.47c0.12-0.22,0.35-0.45,0.33-0.65
	C38.22,26.17,38.04,25.67,37.9,25.1z"/>
<path class="st4" d="M64.7,20.68c0.15-0.02,0.31-0.05,0.46-0.07c0.01,0.08,0.03,0.17,0.04,0.25c0.07,1,0.18,2,0.2,3
	c0.01,0.36-0.18,0.73-0.28,1.1c-0.46,0.07-0.96,0.06-1.38,0.23c-0.41,0.16-0.74,0.5-1.1,0.76c-0.95,0.1-1.89,0.19-2.84,0.29
	c-0.09-0.07-0.19-0.14-0.28-0.21c-0.08-1.56-0.17-3.12-0.25-4.68c1.1-0.15,2.19-0.3,3.29-0.45c0.4-0.04,0.79-0.09,1.19-0.13
	C64.06,20.75,64.38,20.71,64.7,20.68z"/>
<path class="st2" d="M33.95,29.71c-0.51,0.25-1.02,0.51-1.53,0.76c-0.22,0.09-0.45,0.19-0.67,0.28c-0.54,0.08-1.08,0.17-1.62,0.25
	c-0.32,0.05-0.64,0.1-0.95,0.15c-0.94,0.07-1.89,0.14-2.83,0.21c-0.17-0.02-0.35-0.05-0.52-0.07c-0.01-0.06-0.01-0.11,0.01-0.17
	c0.34-0.17,0.67-0.46,1.02-0.49c0.62-0.05,1.26,0.14,1.88,0.08c0.32-0.03,0.76-0.36,0.84-0.65c0.07-0.24-0.25-0.66-0.5-0.89
	c-0.27-0.25-0.86-0.32-0.94-0.59c-0.42-1.33-1-0.72-1.63-0.23c-1.05,0.84-2.25,1.12-3.57,0.96c2.5-0.96,4.98-1.94,7.5-2.86
	c1.02-0.37,2.08-0.6,3.13-0.89c-0.05,0.14-0.09,0.27-0.14,0.41c0,0.07,0.01,0.14,0.01,0.21c-0.04,0.25-0.08,0.5-0.12,0.75
	C33.52,27.87,33.74,28.79,33.95,29.71z M31.41,28.23c-0.09-0.17-0.18-0.34-0.27-0.51c-0.44,0.19-0.88,0.39-1.32,0.58
	c0.15,0.18,0.37,0.53,0.45,0.5C30.67,28.66,31.04,28.43,31.41,28.23z"/>
<path class="st5" d="M71.72,24.45c-0.15,0.02-0.29,0.03-0.44,0.05c-1.07,0.01-2.14,0.06-3.21,0c-0.57-0.04-1.12-0.29-1.68-0.44
	c-0.03-0.33-0.06-0.65-0.09-0.98c0.57-1.38,1.77-1.59,3.05-1.65c0.23-0.01,0.47-0.07,0.7-0.11c0.81,0.05,1.62,0.09,2.43,0.14
	c0.15,0.04,0.31,0.09,0.46,0.13c0.65-0.02,1.29-0.03,1.94-0.05c0.86,0,1.72,0.01,2.58,0.01c0.05,0.1,0.1,0.2,0.15,0.3
	c-0.29,0.21-0.56,0.44-0.86,0.61c-0.6,0.34-1.22,0.66-1.83,0.98c-0.15,0.03-0.3,0.07-0.46,0.1C73.38,23.29,72.45,23.58,71.72,24.45z
	"/>
<path class="st6" d="M58.06,91.26c-0.71-0.01-1.42-0.01-2.13-0.02c0.33-1.83,0.05-2.11-1.77-1.82c-0.04,0.01-0.08,0-0.12,0
	c0-0.52,0-1.04,0-1.55c-0.15-0.08-0.29-0.15-0.44-0.23c-0.09,0.2-0.18,0.41-0.27,0.61c-0.16,0-0.32,0-0.48,0
	c-0.16,0-0.31-0.01-0.47-0.01c-0.42-0.94-1.03-1.89,0-2.83c1.03-0.73,1.03-1.81,0-2.36c-0.16,0-0.31,0-0.47,0
	c0-0.16-0.01-0.31-0.01-0.47c0.08-0.34,0.33-0.82,0.19-1c-0.67-0.88-0.28-1.87-0.42-2.8c0.24,0,0.47,0,0.71,0
	c0.32,0.63,0.63,1.27,0.95,1.9c-0.25,1.2,0.2,2.32,0.33,3.47c0.15,1.32,0.64,2.36,1.33,3.4c0.5,0.76,1.09,1.34,2.09,1.19
	c0.09,0.15,0.18,0.31,0.28,0.46c0.02,0.74,0.32,0.93,0.94,0.47c0.06,0.25,0.19,0.51,0.15,0.74C58.38,90.7,58.19,90.97,58.06,91.26z"
	/>
<path class="st1" d="M51.82,32.37c0.01,0.11,0.03,0.21,0.04,0.32c-0.62-0.1-1.24-0.19-1.86-0.29c-0.52-0.21-1.03-0.42-1.55-0.63
	c0-1.48-0.01-2.95-0.01-4.43c0.6-0.47,0.25-0.7-0.15-0.9c-0.06-0.05-0.07-0.11-0.03-0.18c0.76-0.15,1.53-0.45,2.29-0.41
	c1.36,0.07,0.43-1.88,1.3-2.16c0.02,0.5,0.04,1.01,0.06,1.51c0,0.21-0.01,0.42-0.01,0.63c-0.02,0.38-0.04,0.77-0.06,1.15
	c-0.02,0.9-0.04,1.81-0.06,2.71C51.06,30.61,51.42,31.49,51.82,32.37z"/>
<path class="st3" d="M50,31.87c0.62,0.08,1.24,0.15,1.86,0.23c0.14,0.36,0.39,0.72,0.4,1.09c0.1,3.15,0.16,6.29,0.2,9.44
	c0,0.29-0.18,0.58-0.28,0.87c-0.17-0.01-0.35-0.01-0.52-0.02c0.08-0.56,0.15-1.13,0.23-1.69c0-0.06,0-0.12,0-0.18
	c0.1-0.98,0.2-1.96,0.3-2.94c-0.14-0.01-0.27-0.02-0.41-0.03c-0.04,0.27-0.08,0.54-0.12,0.82c-0.31-0.05-0.62-0.09-1.07-0.16
	c0.34-0.57,0.57-0.95,0.78-1.3c-0.41-0.82-1.98,0.09-1.85-1.36c0.32-0.23,0.64-0.47,0.97-0.7c0.34-0.4,0.81-0.75,0.99-1.22
	c0.21-0.54,0.27-1.2,0.18-1.77c-0.04-0.24-0.64-0.39-0.98-0.58c-0.15,0.43-0.3,0.85-0.44,1.29c-0.03,0.11-0.01,0.23-0.01,0.35
	c-0.41,0.08-0.83,0.14-1.23,0.26c-0.22,0.07-0.41,0.24-0.62,0.37c0.14,0.2,0.3,0.38,0.41,0.59c0.18,0.38,0.33,0.77,0.49,1.16
	c-0.38-0.16-0.76-0.32-1.14-0.48c-0.07-0.16-0.14-0.33-0.21-0.49c0.14-0.71,0.27-1.41,0.41-2.12C48.88,32.81,49.44,32.34,50,31.87z"
	/>
<path class="st7" d="M12.25,55.52c0.52-1.95,1.01-3.91,1.58-5.85c0.64-2.19,1.31-4.37,2.04-6.52c0.73-2.12,1.55-4.21,2.34-6.32
	c0.38,0,0.76-0.01,1.14-0.01c-0.02,0.17-0.03,0.34-0.05,0.52c-0.22,0.31-0.43,0.62-0.65,0.93c-0.08,0.15-0.15,0.31-0.23,0.46
	c-0.12,0.24-0.23,0.48-0.35,0.72c-0.1,0.19-0.21,0.38-0.31,0.58c-0.08,0.3-0.14,0.61-0.24,0.91c-0.74,2.18-1.51,4.35-2.22,6.54
	c-0.57,1.77-1.07,3.56-1.61,5.34c-0.3,0.99-0.64,1.98-0.96,2.96C12.57,55.69,12.41,55.61,12.25,55.52z"/>
<path class="st8" d="M22.94,29.32c1.32,0.17,2.52-0.12,3.57-0.96c0.62-0.5,1.21-1.11,1.63,0.23c0.08,0.26,0.68,0.33,0.94,0.59
	c0.25,0.24,0.56,0.66,0.5,0.89c-0.08,0.28-0.52,0.61-0.84,0.65c-0.62,0.07-1.26-0.13-1.88-0.08c-0.35,0.03-0.68,0.32-1.02,0.49
	c-1.19,0.05-2.39,0.1-3.58,0.14c-0.21-0.02-0.47-0.04-0.68-0.05c-0.06-0.18-0.07-0.35-0.12-0.53c0.01-0.38,0.03-0.76,0.04-1.14
	C21.97,29.47,22.46,29.4,22.94,29.32z"/>
<path class="st9" d="M74.94,50.53c-0.16,0.1-0.44,0.17-0.47,0.29c-0.41,1.66-0.75,3.33-1.19,4.98c-0.21,0.78-2.02,8.83-2.32,9.59
	c-0.08-0.47,1.14-8.28,1.23-8.73c0.45-2.28,0.94-4.55,1.5-6.81c0.31-1.23,0.78-2.43,1.17-3.64c0.21,0.23,0.4,0.47,0.62,0.69
	c0.18,0.18,0.39,0.34,0.58,0.51c-0.16,1.24-0.33,2.48-0.49,3.72C75.37,50.94,75.15,50.73,74.94,50.53z"/>
<path class="st10" d="M51.88,41.6c0,0.06,0,0.12,0,0.18c-0.24,0.01-0.48,0.03-0.72,0.04c-0.79-0.5-1.58-0.99-2.56-0.96
	c-0.19-0.31-0.38-0.62-0.56-0.93c-0.05-0.16-0.09-0.31-0.14-0.47c0.07-1.19,0.15-2.38,0.22-3.57c0.38,0.16,0.76,0.32,1.14,0.48
	c0.08,0.08,0.17,0.16,0.25,0.25c-0.13,1.45,1.44,0.54,1.85,1.36c-0.21,0.35-0.44,0.74-0.78,1.3c0.45,0.07,0.76,0.11,1.07,0.16
	C51.73,40.16,51.81,40.88,51.88,41.6z"/>
<path class="st11" d="M51.65,20.96c0.01,0.32,0.01,0.63,0.02,0.95c-0.08,0.33-0.16,0.66-0.25,0.98c-0.87,0.94-1.87,0.29-2.82,0.22
	c-0.1-0.01-0.21-0.02-0.31-0.03c-0.08-1.62-0.17-3.25-0.25-4.87c0.04-0.11,0.07-0.22,0.11-0.32c0.22,0,0.45,0,0.67,0.01c0,0,0,0,0,0
	c0.15,0.24,0.31,0.47,0.46,0.71c0.15,0.23,0.26,0.5,0.46,0.68C50.35,19.86,51.01,20.4,51.65,20.96z"/>
<path class="st3" d="M48.61,40.85c0.98-0.03,1.77,0.46,2.56,0.96c-0.18,0.91-0.36,1.82-0.53,2.73c-0.06,0.33-0.09,0.66-0.11,1
	c-0.03,0.5-0.04,0.99-0.05,1.49c-0.32,0.16-0.63,0.31-0.95,0.47c0-0.4,0-0.79,0.01-1.19c-0.16-0.24-0.32-0.48-0.48-0.72
	c-0.21-0.73,0.75-1.59-0.47-2.5c0,1.01,0,1.75,0,2.49c-0.18,0.01-0.36,0.02-0.54,0.03c-0.01-0.88-0.02-1.76-0.03-2.64
	C49.22,42.56,48.49,41.59,48.61,40.85z"/>
<path class="st12" d="M76.07,47.42c-0.19-0.17-0.4-0.33-0.58-0.51c-0.22-0.22-0.42-0.46-0.62-0.69c0.01-0.14,0.03-0.28,0.04-0.43
	c0.32-0.23,0.63-0.46,1.24-0.89c-0.26-0.42-0.59-0.97-0.91-1.51c0.42-2.05,0.83-4.09,1.25-6.14c0.17,0.5,0.47,0.48,0.83,0.21
	c-0.16,1.34-0.32,2.68-0.49,4.02c-0.07,0.24-0.15,0.48-0.22,0.71c-0.1,1.26-0.2,2.52-0.3,3.78c-0.06,0.16-0.11,0.32-0.17,0.49
	C76.11,46.78,76.09,47.1,76.07,47.42z"/>
<path class="st4" d="M54.03,89.42c0.04,0,0.08,0.01,0.12,0c1.83-0.29,2.1-0.01,1.77,1.82c-2.45,0.08-4.89,0.17-7.34,0.25
	c-0.08-0.14-0.15-0.28-0.23-0.42c0.69,0,1.39,0.07,2.06-0.02c0.28-0.04,0.51-0.44,0.77-0.67c0-0.24,0.01-0.49,0.01-0.73
	c1.01,0.08,1.58-0.37,1.64-1.4c0.16,0,0.32,0,0.48,0c-0.03,0.6-0.07,1.21-0.11,1.88c0.22-0.04,0.42-0.02,0.5-0.11
	C53.86,89.85,53.93,89.62,54.03,89.42z"/>
<path class="st13" d="M7.46,77.4c-0.16-0.62-1.29-0.85-0.71-1.77c0.92,0,1.84,0,2.76,0c0.91-0.07,1.82-0.15,2.73-0.22
	c-0.06,0.6-0.13,1.2-0.19,1.8c0.12,0.02,0.23,0.05,0.35,0.07c0.2-0.34,0.39-0.68,0.59-1.02c0.08,0.02,0.16,0.04,0.24,0.05
	c0,0.49,0,0.98,0,1.47c-0.03,0.07-0.06,0.13-0.07,0.21c-0.17-0.02-0.34-0.03-0.51-0.05C10.92,77.76,9.19,77.58,7.46,77.4z"/>
<path class="st14" d="M46.69,91.36c-1.5,0.03-3.01,0.06-4.51,0.09c0.08-0.59,0.16-1.19,0.25-1.78c0.47-0.39,0.95-0.78,1.42-1.18
	c0.47-0.08,0.95-0.16,1.42-0.25c0.47,0.24,0.95,0.47,1.42,0.71c0,0.15,0.01,0.31,0.01,0.46C46.7,90.06,46.7,90.71,46.69,91.36z
	 M45.96,90.22c0.11-0.19,0.22-0.37,0.33-0.56c-0.41-0.21-0.82-0.44-1.25-0.61c-0.07-0.02-0.26,0.29-0.39,0.44
	C45.08,89.74,45.52,89.98,45.96,90.22z"/>
<path class="st12" d="M53.32,80.67c-0.32-0.63-0.63-1.27-0.95-1.9c0.08-0.08,0.16-0.16,0.23-0.24c0.96-0.11,0.66-0.86,0.71-1.42
	c-0.06-1.04-0.13-2.09-0.19-3.13c-0.01-0.13-0.02-0.26-0.03-0.4c0-0.09,0-0.19,0-0.28c-0.05-0.66,0.28-1.56-0.96-1.42
	c-0.24-0.87-0.48-1.74-0.72-2.6c0-0.23,0-0.46,0.01-0.69c0.28,0,0.56,0.01,0.85,0.01c1.3,2.12,1.41,4.53,1.61,6.91
	c0.09,1.09,0.02,2.19,0.03,3.29C52.73,79.11,53.56,80.05,53.32,80.67z"/>
<path class="st15" d="M51.65,20.96c-0.64-0.56-1.3-1.11-1.92-1.69c-0.19-0.18-0.31-0.45-0.46-0.68c-0.15-0.24-0.31-0.47-0.46-0.71
	c0,0,0,0,0,0c-0.16-0.48-0.32-0.96-0.48-1.44c0-0.07-0.01-0.14-0.02-0.2c0.12-0.46,0.25-0.92,0.4-1.49
	c1.03,1.03,1.23,2.68,2.93,2.67c0.07,0.07,0.14,0.15,0.21,0.22C51.78,18.75,51.72,19.86,51.65,20.96z"/>
<path class="st14" d="M92.74,66.39c-0.17-0.09-0.34-0.18-0.5-0.27c-0.66-2.46-1.34-4.93-1.99-7.4c-0.28-1.06-0.4-2.17-0.74-3.21
	c-0.22-0.69-0.05-1.1,0.51-1.17C90.9,58.27,91.87,62.47,92.74,66.39z"/>
<path class="st16" d="M48.59,62.19c0.29-0.04,0.58-0.08,0.87-0.13c-0.28-0.65-0.52-1.21-0.76-1.78c0.13-0.09,0.25-0.18,0.38-0.27
	c0.36,0.28,0.71,0.56,1.27,0.99c0.53,0.29,0.34-1.65,1.31-0.74c0,0.08,0,0.17,0,0.25c0,0-0.01,0.01-0.01,0.01
	c-1.06,0.71-1.35,1.74-0.95,3.32c-0.24,0.29-0.62,0.55-0.68,0.88c-0.2,1.09-0.69,1.69-1.87,1.48c-0.06-0.47-0.11-0.95-0.17-1.42
	c0.03-0.24,0.06-0.47,0.09-0.71C49.64,63.82,48.61,62.87,48.59,62.19z"/>
<path class="st17" d="M53.32,80.67c0.24-0.61-0.59-1.56,0.59-1.88c0.03,0.31,0.05,0.62,0.08,0.94c0.12,0.72,0.25,1.43,0.37,2.15
	c0.1,0.79,0.21,1.57,0.31,2.36c0.04,0.16,0.09,0.32,0.13,0.49c0.49,1.43,0.95,2.87,2.56,3.47c-0.1,0.18-0.19,0.36-0.29,0.54
	c-1.01,0.14-1.59-0.43-2.09-1.19c-0.68-1.04-1.18-2.08-1.33-3.4C53.52,82.98,53.06,81.87,53.32,80.67z"/>
<path class="st18" d="M57.06,88.73c0.1-0.18,0.19-0.36,0.29-0.54c1.64,0.32,3.37,0.41,4.49,1.94c0.29,0.24,0.58,0.48,0.87,0.72
	c-0.23,0.17-0.46,0.47-0.69,0.47c-1.32,0.02-2.64-0.03-3.97-0.06c0.13-0.29,0.32-0.56,0.38-0.86c0.04-0.23-0.1-0.49-0.15-0.74
	c-0.31-0.16-0.63-0.31-0.94-0.47C57.25,89.04,57.16,88.88,57.06,88.73z"/>
<path class="st11" d="M45.52,84.22c0.08-0.79,0.17-1.57,0.25-2.36c0.07,0,0.13-0.01,0.2-0.02c0.13,0.26,0.26,0.52,0.42,0.85
	c0.73-0.36,1.45-0.72,2.18-1.08c0.09,0.31,0.18,0.62,0.26,0.93c-0.07,0.41-0.15,0.82-0.24,1.32c0.34,0.04,0.63,0.08,0.92,0.12
	c0.07,0.15,0.14,0.31,0.21,0.46c0,0.23,0,0.47,0,0.7c-0.76,0-1.52,0-2.28,0c-0.25,0-0.51,0-0.76,0
	C46.29,84.84,45.91,84.53,45.52,84.22z"/>
<path class="st9" d="M51.64,17.43c-1.69,0.01-1.9-1.64-2.93-2.67c-0.15,0.57-0.28,1.03-0.4,1.49c-0.24-0.01-0.48-0.02-0.72-0.02
	c0-0.23,0-0.46,0-0.7c0.25-0.56,0.5-1.12,0.75-1.67c0.04-0.07,0.08-0.14,0.11-0.21c0.14-0.1,0.28-0.2,0.42-0.3
	c0.46,0.41,0.95,0.64,1.54,0.24c0.14,0.1,0.28,0.2,0.42,0.3c0.06,0.05,0.11,0.11,0.13,0.19c0.24,0.4,0.47,0.81,0.71,1.21
	c0.02,0.35,0.04,0.71,0.06,1.06C51.7,16.71,51.67,17.07,51.64,17.43z"/>
<path class="st17" d="M78.4,24.46c0.05-0.56,0.11-1.11,0.16-1.67c0.08-0.16,0.11-0.32,0.19-0.48c-0.24-0.55-0.48-0.9-0.63-1.52
	c0.52,0.05,1.26-0.25,1.77-0.18c0.33,0.04,0.66,0.14,0.99,0.21c-0.22,0.35-0.36,0.8-0.62,1.09c-0.54,0.61-0.57,0.93,0.15,1.39
	c0.07,0.06-0.06,0.13-0.09,0.21c-0.17,0.6-1.65,0.55-0.82,1.65c-0.16,0.73-0.33,1.47-0.49,2.2c-0.26-0.18-0.51-0.37-0.77-0.55
	c0.01-0.55,0.02-1.1,0.03-1.65C78.31,24.93,78.36,24.69,78.4,24.46z"/>
<path class="st13" d="M27.34,77.44c-1.22,0.18-2.44,0.36-3.66,0.54c-0.01-0.13-0.03-0.26-0.04-0.38c0-0.77,0-1.55,0-2.32
	c0.56,0.05,1.11,0.11,1.67,0.16c0.84,0.46,1.63,0.32,2.38-0.22C27.54,75.95,28.15,76.81,27.34,77.44z"/>
<path class="st16" d="M78.15,20.83c0.24,0.59,0.49,1.18,0.73,1.77c-0.23,0.04-0.47,0.08-0.7,0.12c-0.96,0.26-1.92,0.52-2.88,0.78
	c-0.12-0.02-0.25-0.04-0.37-0.06c0.61-0.32,1.23-0.64,1.83-0.98c0.3-0.17,0.57-0.41,0.86-0.61c-0.05-0.1-0.1-0.2-0.15-0.3
	c-0.86,0-1.72-0.01-2.58-0.01c-0.66-0.54-1.31-0.81-1.94,0.05c-0.15-0.04-0.31-0.09-0.46-0.13c-0.05-0.27-0.1-0.54-0.15-0.81
	c1.27,0.07,2.54,0.17,3.81,0.18c0.65,0.01,1.3-0.14,1.95-0.22C78.12,20.68,78.13,20.76,78.15,20.83z"/>
<path class="st19" d="M9.51,75.63c-0.92,0-1.84,0-2.76,0c1.15-0.7,0.84-2.04,1.32-3.04c0.16-0.34,0.21-0.73,0.32-1.09
	c0.09-0.3,0.19-0.59,0.28-0.89c0.2-1.37,0.38-2.73,0.62-4.09c0.04-0.21,0.31-0.38,0.48-0.58c0.21-0.07,0.41-0.14,0.62-0.21
	c-0.67,2.75-1.34,5.51-2.01,8.26c-0.16,0.65-0.31,1.28,0.71,1.31C9.23,75.3,9.37,75.51,9.51,75.63z"/>
<path class="st3" d="M52.18,53.05c-0.08-0.19-0.16-0.39-0.24-0.58c-0.02-0.63-0.04-1.26-0.06-1.89c-0.08-0.32-0.17-0.64-0.25-0.96
	c-0.07-0.87-0.14-1.73-0.22-2.6c0.08-0.95,0.16-1.9,0.24-2.85c0.18-0.01,0.36-0.02,0.54-0.03c0.09,0.32,0.27,0.63,0.27,0.95
	c0.04,2.25,0.07,4.51,0.05,6.77C52.52,52.26,52.3,52.66,52.18,53.05z"/>
<path class="st15" d="M71.24,66.01c0.63-0.03,1.25-0.07,1.88-0.1c0.24,0.09,0.49,0.18,0.73,0.28c-0.14,0.27-0.3,0.53-0.42,0.81
	c-0.48,1.04-0.97,1.1-2.06,0.15c-0.04,0.42-0.08,0.83-0.13,1.25c-0.63-0.46-1.31-0.87-1.83-1.44c-0.1-0.11,0.45-0.82,0.69-1.25
	c0.22,0.07,0.43,0.14,0.65,0.21c0.07,0.12,0.13,0.24,0.2,0.37C71.04,66.19,71.14,66.1,71.24,66.01z"/>
<path class="st2" d="M51.9,25.58c-0.08-0.39-0.02-0.86-0.1-1.25c-0.05-0.46-0.11-0.93-0.16-1.39c0.21-0.19,0.42-0.38,0.63-0.56
	c0.28-0.05,0.57-0.11,0.85-0.16c0.1-0.05,0.19-0.1,0.29-0.15c0.23-0.07,0.47-0.14,0.7-0.2c0.01,0.07,0.02,0.15,0.03,0.22
	c-0.05,0.58-0.26,1.25,0.66,1.35c0.14,0.45,0.28,0.89,0.42,1.34c-0.19,0-0.45,0.09-0.57-0.01c-0.9-0.69-1.57-0.51-2.12,0.45
	C52.45,25.36,52.07,25.49,51.9,25.58z"/>
<path class="st20" d="M22.38,38.02c0.12,0.94,0.24,1.89,0.36,2.83c0.13,0.56,0.26,1.12,0.39,1.68c0.04,0.54,0.09,1.09,0.13,1.63
	c0.14,0.63,0.27,1.25,0.41,1.88c0.05,0.25,0.11,0.5,0.16,0.75c0.01,0.15,0.02,0.3,0.04,0.45c-0.33,0.1-0.66,0.19-1,0.29
	c-0.06-0.02-0.11-0.04-0.17-0.05c-0.17-1.5-0.34-2.99-0.5-4.49c-0.09-1.66-0.18-3.32-0.27-4.97C22.08,38.02,22.23,38.02,22.38,38.02
	z"/>
<path class="st1" d="M48.15,66.2c1.18,0.21,1.67-0.4,1.87-1.48c0.06-0.32,0.44-0.59,0.68-0.88c0.07,0.47,0.14,0.93,0.21,1.4
	c-0.15,0.32-0.29,0.64-0.44,0.97c-0.01,0.39-0.02,0.78-0.03,1.17c-0.74,0.07-1.36,0.23-1.45,1.18c-0.02,0.2-0.54,0.36-0.84,0.54
	l-0.07-0.07c-0.03-0.39-0.07-0.78-0.1-1.17c0.01-0.24,0.01-0.48,0.02-0.73c0-0.15,0-0.31,0-0.46C48.06,66.53,48.11,66.37,48.15,66.2
	z"/>
<path class="st20" d="M25.75,64.62c0.07,0.53,0.13,1.07,0.2,1.6c-0.27,0-0.54,0-0.81,0c-0.15-0.8-0.35-1.6-0.44-2.4
	c-0.19-1.73-0.33-3.46-0.5-5.2c0.22,0,0.43,0,0.65,0c0.17,1.27,0.33,2.53,0.5,3.8c0,0.16,0,0.31-0.01,0.47
	C25.48,63.46,25.62,64.04,25.75,64.62z"/>
<path class="st20" d="M27.69,75.21c-0.75,0.54-1.54,0.68-2.39,0.22c0-0.07,0-0.15,0-0.22c0.75-0.14,0.77-0.64,0.64-1.25
	c-0.4-1.86,0.18-3.87-0.84-5.63c0.35,0.32,0.7,0.63,1.05,0.95c0.13,0.74,0.28,1.47,0.38,2.22c0.11,0.89,0.09,1.8,0.28,2.67
	c0.07,0.34,0.58,0.58,0.89,0.87C27.71,75.09,27.7,75.15,27.69,75.21z"/>
<path class="st9" d="M83.61,34.88c-0.16-0.48-0.32-0.97-0.48-1.45c0.22-0.08,0.44-0.17,0.66-0.25c0.63,1.88,1.27,3.77,1.9,5.65
	c-0.16,0.1-0.33,0.2-0.49,0.3c-0.54-1.34-1.08-2.68-1.61-4.03c0.03-0.02,0.07-0.04,0.07-0.06C83.65,34.99,83.62,34.93,83.61,34.88z"
	/>
<path class="st7" d="M22.87,47.54c0.33-0.1,0.66-0.19,1-0.29c0.29,1.02,0.57,2.25,0.85,3.27c-0.04,0.09,0,0.41-0.05,0.5
	c-0.21-0.05-0.49-0.53-0.69-0.58c0.03,0.2,0.06,0.41,0.09,0.61c0.02,0.39,0.03,0.78,0.05,1.18c-0.15,0.31-0.31,0.62-0.46,0.93
	C23.4,51.28,23.14,49.41,22.87,47.54z"/>
<path class="st19" d="M29.12,74.75c-0.49-2.22-0.97-4.43-1.46-6.65c0.16-0.08,0.33-0.16,0.49-0.25c0.38,1.1,0.8,2.18,1.12,3.29
	c0.34,1.16,0.58,2.35,0.86,3.52C29.79,74.7,29.46,74.72,29.12,74.75z"/>
<path class="st19" d="M23.64,77.59c0.01,0.13,0.03,0.26,0.04,0.38c-0.55,0-1.1,0-1.64,0.01c-2.74,0.06-5.49,0.12-8.23,0.16
	c-0.21,0-0.43-0.11-0.64-0.16c0.01-0.07,0.04-0.14,0.07-0.2c0.15,0.01,0.3,0.01,0.45,0.01c2.92-0.15,5.84-0.29,8.76-0.44
	C22.84,77.44,23.24,77.51,23.64,77.59z"/>
<path class="st12" d="M48.57,81.61c-0.72,0.36-1.45,0.72-2.18,1.08c-0.16-0.32-0.29-0.59-0.42-0.85c-0.01-0.48-0.01-0.95-0.02-1.43
	c0.04,0.02,0.09,0.04,0.14,0.05c0.05-0.17,0.09-0.34,0.14-0.5c0.02-0.31,0.03-0.61,0.05-0.92c0.06,0,0.12-0.01,0.17-0.04
	c0.3,0.15,0.59,0.31,0.79,0.41c0.06,0.57,0.12,1.08,0.18,1.58c0.39-0.18,0.77-0.37,1.16-0.54c0.07-0.03,0.15-0.01,0.23-0.01
	C48.72,80.82,48.65,81.22,48.57,81.61z"/>
<path class="st3" d="M78.24,26.81c0.26,0.18,0.51,0.37,0.77,0.55c0.24,0.05,0.48,0.1,0.72,0.16c0.31,0.32,0.63,0.63,0.94,0.95
	c-0.17,0.66-0.29,2.35-0.46,3.01c-0.3-0.18-0.64-1.39-0.94-1.57c0.11-0.35,0.21-0.7,0.34-1.11c-0.22-0.04-0.44-0.08-0.66-0.12
	c-0.14-0.21-0.28-0.41-0.5-0.74c-0.11,0.5-0.18,0.79-0.24,1.08c-0.16,0.06-0.32,0.11-0.48,0.17C77.9,28.4,78.07,27.61,78.24,26.81z"
	/>
<path class="st19" d="M90.12,54.71c-0.39-0.47-0.56,0.95-0.72,0.42c-0.5-1.64-1.41-5.8-1.81-7.48c0.22,0.08,0.45,0.17,0.67,0.25
	c0.51,1.34,1.16,2.63,1.22,4.13C89.51,52.71,89.95,54.03,90.12,54.71z"/>
<path class="st19" d="M12.25,55.52c0.16,0.09,0.32,0.17,0.48,0.26c-0.22,0.77-0.45,1.53-0.65,2.3c-0.35,1.36-0.68,2.73-1.02,4.1
	c-0.22,0-0.43,0-0.65,0C11.02,59.96,11.63,57.74,12.25,55.52z"/>
<path class="st14" d="M48.04,45.62c0.18-0.01,0.36-0.03,0.54-0.04l0,0.02c0,0.18,0,0.36,0,0.54c0,1.33,0,2.66,0,3.99
	c-0.09,1.43-0.17,2.85-0.26,4.28c-0.09-0.01-0.19-0.01-0.28-0.02c-0.07-2.04-0.15-4.07-0.22-6.11c0-0.45,0-0.89,0-1.34
	C47.89,46.49,47.97,46.06,48.04,45.62z"/>
<path class="st0" d="M49.9,8.96c0.11,0.21,0.22,0.42,0.34,0.63c0.07,0.19,0.14,0.38,0.21,0.57c0.07,0.28,0.14,0.55,0.2,0.83
	c-0.07,0.08-0.15,0.17-0.22,0.25c-0.41-0.03-0.82-0.06-1.11-0.08c-0.28,0.31-0.52,0.56-0.75,0.81c0.09-1.01,0.18-2.03,0.28-3.04
	C49.2,8.93,49.55,8.94,49.9,8.96z"/>
<path class="st4" d="M45.52,84.22c0.39,0.31,0.77,0.62,1.16,0.93c0.02,0.51,0.07,1.02,0.07,1.53c0,0.76-0.04,1.51-0.06,2.27
	c-0.47-0.24-0.95-0.47-1.42-0.71c0.23-0.14,0.68-0.32,0.66-0.43c-0.14-0.91-0.37-1.82-0.57-2.72C45.41,84.8,45.47,84.51,45.52,84.22
	z"/>
<path class="st8" d="M51.9,25.58c0.17-0.09,0.55-0.22,0.64-0.37c0.55-0.96,1.22-1.14,2.12-0.45c0.12,0.09,0.38,0.01,0.57,0.01
	c-0.17,0.44-0.35,0.88-0.52,1.31c-0.12,0.14-0.25,0.27-0.37,0.41c-0.32-0.01-0.63-0.03-0.95-0.04c-0.43-0.15-1.07-0.39-1.49-0.54
	C51.87,25.75,51.92,25.74,51.9,25.58z"/>
<path class="st9" d="M54.14,22.08c-0.01-0.07-0.02-0.15-0.03-0.22c0.62-0.18,1.24-0.45,1.87-0.53c1.93-0.25,3.87-0.43,5.81-0.61
	c0.25-0.02,0.51,0.12,0.76,0.18c-1.1,0.15-2.19,0.3-3.29,0.45c-0.22,0.03-0.43,0.06-0.65,0.1c-0.16,0.09-0.32,0.17-0.48,0.26
	c-1.18,0.11-2.37,0.21-3.55,0.32C54.44,22.05,54.29,22.06,54.14,22.08z"/>
<path class="st7" d="M25.76,55.43c0.2,1.17,0.39,2.33,0.59,3.5c0.05,0.16,0.1,0.32,0.15,0.48c-0.02,0.14-0.03,0.28-0.05,0.42
	c-0.06,0.18-0.11,0.35-0.17,0.53c-0.24-0.19-0.65-0.35-0.69-0.57c-0.23-1.47-0.37-2.95-0.54-4.42c0.09-0.47-0.63-5.29-0.55-5.76
	c0.02,0.3,0.57,2.81,0.59,3.12C25.23,52.92,25.63,55.25,25.76,55.43z"/>
<path class="st12" d="M78.15,20.83c-0.02-0.08-0.03-0.15-0.05-0.23c0.8-0.24,1.61-0.66,2.41-0.66c0.89,0,1.07,1.15,0.46,2.03
	c-0.27,0.39-0.33,0.92-0.48,1.38c-0.78-0.35-0.86-0.78-0.27-1.44c0.26-0.29,0.35-0.73,0.51-1.11c-0.34-0.02-0.67-0.06-1.01-0.06
	C79.19,20.76,78.67,20.8,78.15,20.83z"/>
<path class="st14" d="M81.89,27.04c0.06,0.47,1.12,3.7,1.18,4.17c-0.21-0.14-1.43-3.05-1.65-3.17c-0.17-0.09-0.35-0.17-0.52-0.25
	c-0.07,0.23-0.14,0.45-0.22,0.68c-0.31-0.32-0.63-0.63-0.94-0.95c0.45-0.72,0.9-1.43,1.34-2.15C81.35,25.93,81.62,26.49,81.89,27.04
	z"/>
<path class="st4" d="M21.52,30.68c0.03,0.19,0.06,0.37,0.08,0.56c0.11,0.76,0.21,1.53,0.32,2.29c0.01,0.08,0.02,0.16,0.02,0.23
	c-0.02,0.23-0.04,0.46-0.06,0.69c-0.33,0.04-0.65,0.09-0.88,0.12c-0.23-0.96-0.44-1.84-0.64-2.71c-0.04-0.3-0.15-0.45-0.19-0.75
	C20.6,31.01,21.09,30.77,21.52,30.68z"/>
<path class="st18" d="M66.31,23.07c0.03,0.33,0.06,0.65,0.09,0.98c0.06,0.31,0.11,0.63,0.17,0.94c0.04,0.09,0.07,0.19,0.11,0.28
	c-0.42,0.07-0.83,0.14-1.25,0.21c-0.1-0.18-0.2-0.35-0.3-0.53c0.1-0.37,0.29-0.73,0.28-1.1c-0.02-1-0.13-2-0.2-3
	c0.23-0.01,0.45-0.02,0.68-0.03c0.07,0.14,0.13,0.28,0.2,0.42C66.15,21.86,66.23,22.47,66.31,23.07z"/>
<path class="st11" d="M85.2,39.13c0.16-0.1,0.33-0.2,0.49-0.3c0.38,1.48,0.77,2.96,1.15,4.45c0.08,0.29,0.15,0.59,0.23,0.88
	c-0.01,0.09-0.03,0.19-0.04,0.28c-0.25-0.43-0.57-0.84-0.73-1.31c-0.37-1.09-0.67-2.2-0.99-3.31c0.01-0.02,0.05-0.05,0.04-0.07
	c-0.01-0.05-0.04-0.09-0.06-0.14C85.25,39.46,85.22,39.3,85.2,39.13z"/>
<path class="st15" d="M43.85,88.49c-0.47,0.39-0.95,0.78-1.42,1.18c-0.4,0.16-0.79,0.32-1.19,0.48c-0.39,0.16-0.78,0.31-1.17,0.47
	c-0.25-0.36-0.49-0.72-0.74-1.08c0.51-0.22,1.02-0.44,1.53-0.66c0.2-0.04,0.41-0.09,0.61-0.13c0.3-0.02,0.59-0.03,0.89-0.05
	c0.5-0.15,1-0.29,1.5-0.44C43.85,88.32,43.85,88.4,43.85,88.49z"/>
<path class="st13" d="M29.12,74.75c0.34-0.03,0.67-0.05,1.01-0.08c0.28,0.34,0.87,0.8,0.79,1.01c-0.28,0.77-0.48,1.75-1.61,1.8
	c-0.08-0.87-0.15-1.73-0.23-2.6C29.05,74.82,29.06,74.78,29.12,74.75z"/>
<path class="st15" d="M48.57,11.96c0.23-0.25,0.46-0.5,0.75-0.81c0.29,0.02,0.7,0.05,1.11,0.08c0.08,0.09,0.17,0.18,0.25,0.27
	c0.01,0.08,0.01,0.16-0.01,0.23c-0.04,0.26-0.09,0.52-0.13,0.77c-0.01,0.2-0.02,0.4-0.03,0.6c-0.03,0.16-0.07,0.32-0.1,0.48
	c-0.59,0.4-1.08,0.18-1.54-0.24c-0.11-0.38-0.22-0.77-0.33-1.15C48.55,12.12,48.56,12.04,48.57,11.96z"/>
<path class="st21" d="M21.45,30.69c-0.41,0.16-0.82,0.32-1.23,0.48c-0.27,0.02-0.54,0.04-0.82,0.06c-0.23-0.4-0.47-0.81-0.7-1.21
	c0.43-0.13,0.85-0.31,1.29-0.38c0.49-0.08,1-0.06,1.5-0.09C21.48,29.93,21.46,30.31,21.45,30.69z"/>
<path class="st13" d="M85.16,68.66c0.5-0.13,0.99-0.33,1.49-0.37c0.89-0.08,2.06,0.43,1.96-1.32c0.82,0.67,1.44,1.17,2.05,1.68
	C88.83,68.64,86.99,68.65,85.16,68.66z"/>
<path class="st6" d="M43.85,88.49c0-0.08,0-0.16,0-0.25c0.01-0.12,0.02-0.24,0.03-0.35c0.49-0.93,0.98-1.86,1.47-2.8
	c0.2,0.91,0.43,1.81,0.57,2.72c0.02,0.1-0.43,0.28-0.66,0.43C44.79,88.32,44.32,88.4,43.85,88.49z"/>
<path class="st15" d="M29.08,74.88c0.08,0.87,0.15,1.73,0.23,2.6c-0.66-0.01-1.31-0.02-1.97-0.04c0.81-0.63,0.2-1.49,0.35-2.23
	c0.02-0.06,0.02-0.12,0-0.18C28.15,74.98,28.62,74.93,29.08,74.88z"/>
<path class="st11" d="M20.36,31.85c0.21,0.88,0.42,1.75,0.64,2.71c0.22-0.03,0.55-0.07,0.88-0.12c0.04,0.24,0.08,0.48,0.12,0.72
	c-0.02,0.16-0.04,0.31-0.06,0.47c-0.09,0.03-0.19,0.05-0.28,0.08c-0.12-0.26-0.25-0.51-0.37-0.77c-0.17,0.08-0.35,0.16-0.52,0.24
	c-0.07-0.02-0.13-0.02-0.2,0c-0.34-0.59-0.69-1.19-1.03-1.78c0.05-0.11,0.1-0.23,0.15-0.34c0.06-0.16,0.13-0.32,0.19-0.48
	c0.05-0.23,0.09-0.46,0.14-0.69C20.14,31.87,20.25,31.86,20.36,31.85z"/>
<path class="st6" d="M77.31,37.47c-0.36,0.27-0.66,0.29-0.83-0.21c0.05-0.56,0.11-1.11,0.16-1.67c0.07-0.27,0.14-0.55,0.21-0.82
	c0.12-0.67,0.24-1.34,0.35-2.02c1.02,0.09,0.24,0.96,0.57,1.34c-0.08,0.72-0.16,1.44-0.24,2.16C77.46,36.66,77.38,37.07,77.31,37.47
	z"/>
<path class="st19" d="M70.74,65.91c-0.22-0.07-0.43-0.14-0.65-0.21c0.3-1.31,0.57-2.62,0.91-3.92c0.08-0.31,0.44-0.54,0.67-0.81
	c-0.09,0.79-0.17,1.58-0.28,2.37c-0.11,0.84-0.24,1.68-0.37,2.52C70.94,65.88,70.84,65.89,70.74,65.91z"/>
<path class="st12" d="M77.78,34.1c-0.34-0.39,0.44-1.25-0.57-1.34c0.05-0.23,0.09-0.46,0.14-0.69c0.06-0.2,0.13-0.4,0.19-0.6
	c0.07-0.75,0.13-1.51,0.2-2.26c0.16-0.06,0.32-0.11,0.48-0.17C78.42,30.75,78.58,32.47,77.78,34.1z"/>
<path class="st3" d="M54.33,26.49c0.12-0.14,0.25-0.27,0.37-0.41c1.19-0.09,2.39-0.19,3.58-0.28c0.06,0,0.12,0,0.19,0
	c0.35,0.08,0.7,0.15,1.04,0.23c0.09,0.07,0.19,0.14,0.28,0.21C57.98,26.33,56.15,26.41,54.33,26.49z"/>
<path class="st20" d="M28.15,67.86c-0.16,0.08-0.33,0.16-0.49,0.25c-0.29-1.26-1.35-6.72-1.64-7.98c0.14-0.26,0.28-0.26,0.42-0.52
	C26.76,61.05,27.83,66.42,28.15,67.86z"/>
<path class="st9" d="M65.88,20.84c-0.23,0.01-0.45,0.02-0.68,0.02c-0.01-0.08-0.03-0.17-0.04-0.25c1.84,0.04,3.69,0.08,5.53,0.12
	c-0.22,0.1-0.45,0.19-0.67,0.29c-0.44-0.04-0.87-0.09-1.31-0.13c-0.6,0.04-1.2,0.08-1.81,0.12c-0.17-0.03-0.34-0.06-0.51-0.09
	C66.23,20.89,66.05,20.86,65.88,20.84z"/>
<path class="st20" d="M10.41,62.18c0.22,0,0.43,0,0.65,0c-0.23,1.18-0.45,2.37-0.68,3.55c-0.21,0.07-0.41,0.14-0.62,0.21
	C9.98,64.69,10.2,63.43,10.41,62.18z"/>
<path class="st14" d="M87.02,44.44c0.01-0.09,0.03-0.19,0.04-0.28c0.4,1.25,0.8,2.49,1.2,3.74c-0.22-0.08-0.45-0.17-0.67-0.25
	c-0.2-0.7-0.44-1.4-0.59-2.11C86.92,45.19,87.01,44.81,87.02,44.44z"/>
<path class="st16" d="M66.57,24.99c-0.06-0.31-0.11-0.63-0.17-0.94c0.56,0.15,1.11,0.41,1.68,0.44c1.06,0.07,2.14,0.01,3.21,0
	c-0.78,0.17-1.56,0.33-2.34,0.5c-0.58,0.07-1.17,0.13-1.75,0.19c-0.14,0.04-0.28,0.07-0.42,0.11C66.71,25.2,66.64,25.1,66.57,24.99z
	"/>
<path class="st6" d="M81.08,25.37c-0.45,0.72-0.9,1.43-1.34,2.15c-0.24-0.05-0.48-0.11-0.72-0.16c0.16-0.73,0.33-1.47,0.49-2.2
	c0.36-0.34,0.72-0.69,1.07-1.03C80.74,24.55,80.91,24.96,81.08,25.37z"/>
<path class="st18" d="M39.33,89.52c0.25,0.36,0.49,0.72,0.74,1.08c-0.16,0.23-0.32,0.47-0.48,0.7c-0.7,0-1.41,0-2.11,0
	c-0.01-0.11-0.03-0.22-0.04-0.32C38.06,90.5,38.7,90.01,39.33,89.52z"/>
<path class="st19" d="M7.46,77.4c1.73,0.18,3.46,0.36,5.19,0.55C10.87,78.28,9.12,78.3,7.46,77.4z"/>
<path class="st11" d="M26.15,69.27c-0.35-0.32-0.7-0.63-1.05-0.95c0.01-0.7,0.02-1.41,0.03-2.11c0.27,0,0.54,0,0.81,0
	C26.01,67.24,26.08,68.26,26.15,69.27z"/>
<path class="st6" d="M51.8,55.76c-0.31,0.01-0.89,0.07-0.9,0.01c-0.1-0.48-0.25-1.05-0.07-1.44c0.13-0.27,0.77-0.29,1.18-0.43
	C51.94,54.52,51.87,55.14,51.8,55.76z"/>
<path class="st14" d="M48.61,40.85c-0.12,0.73,0.61,1.7-0.6,2.13c0.01-1.02,0.02-2.04,0.03-3.05
	C48.23,40.24,48.42,40.55,48.61,40.85z"/>
<path class="st9" d="M75.23,43.4c0.33,0.54,0.66,1.08,0.91,1.51c-0.6,0.44-0.92,0.66-1.24,0.89C75.01,45,75.12,44.2,75.23,43.4z"/>
<path class="st10" d="M48.22,32.34c0.08-0.33,0.15-0.65,0.23-0.98c0.52,0.17,1.03,0.33,1.55,0.5c-0.56,0.47-1.12,0.94-1.68,1.42
	C48.29,32.97,48.25,32.65,48.22,32.34z"/>
<path class="st14" d="M39.59,91.31c0.16-0.23,0.32-0.47,0.48-0.7c0.39-0.16,0.78-0.31,1.17-0.47c0.08,0.45,0.17,0.9,0.25,1.34
	C40.85,91.42,40.22,91.37,39.59,91.31z"/>
<path class="st16" d="M71.72,24.45c0.73-0.87,1.65-1.16,2.75-0.91c-0.22,0.22-0.43,0.44-0.65,0.66
	C73.13,24.28,72.43,24.37,71.72,24.45z"/>
<path class="st12" d="M41.48,91.48c-0.08-0.45-0.17-0.9-0.25-1.34c0.4-0.16,0.79-0.32,1.19-0.48c-0.08,0.59-0.16,1.19-0.25,1.78
	C41.95,91.46,41.72,91.47,41.48,91.48z"/>
<path class="st6" d="M65.12,24.96c0.1,0.18,0.2,0.35,0.3,0.53c-0.93,0.15-1.86,0.31-2.79,0.46c0.37-0.26,0.7-0.6,1.1-0.76
	C64.17,25.02,64.66,25.03,65.12,24.96z"/>
<path class="st22" d="M70.03,21.02c0.22-0.1,0.45-0.19,0.67-0.29c0.55-0.03,1.09-0.07,1.64-0.1c0.05,0.27,0.1,0.54,0.15,0.81
	c-0.81-0.05-1.62-0.09-2.43-0.14C70.05,21.22,70.04,21.12,70.03,21.02z"/>
<path class="st7" d="M18.27,36.38c0.21-0.56,0.42-1.12,0.63-1.68c0.22,0.15,0.45,0.3,0.67,0.46c-0.05,0.24-0.1,0.49-0.16,0.73
	C19.14,36.29,18.87,36.71,18.27,36.38z"/>
<path class="st20" d="M19.57,35.15c-0.22-0.15-0.45-0.3-0.67-0.46c0.22-0.43,0.43-0.86,0.65-1.3c0.34,0.59,0.69,1.19,1.03,1.78
	C20.21,36.33,19.91,35.02,19.57,35.15z"/>
<path class="st4" d="M46.69,91.36c0-0.65,0-1.29,0.01-1.94c0.31,0,0.62,0,0.93,0c-0.15,0.48-0.3,0.96-0.45,1.44
	c-0.01,0.17-0.01,0.34-0.02,0.51C47,91.37,46.85,91.36,46.69,91.36z"/>
<path class="st1" d="M47.99,23.01C48.1,23,48.2,23,48.31,22.99c0.09,0.71,0.18,1.42,0.28,2.12c-0.08-0.01-0.18,0-0.22-0.05
	c-0.49-0.54-0.96-1.09-1.44-1.64C47.28,23.29,47.63,23.15,47.99,23.01z"/>
<path class="st15" d="M82.59,32.5c0.03-0.24,0.06-0.49,0.08-0.73c0.13-0.17,0.27-0.34,0.41-0.51c0.24,0.64,0.47,1.28,0.71,1.92
	c-0.22,0.08-0.44,0.17-0.66,0.25c-0.03-0.15-0.05-0.3-0.08-0.45c-0.11-0.16-0.22-0.32-0.33-0.48C82.68,32.5,82.63,32.5,82.59,32.5z"
	/>
<path class="st10" d="M48.43,57.2c0.42,0.17,0.84,0.34,1.26,0.51c0.04,0.09,0.08,0.19,0.12,0.28c-0.45,0.15-0.91,0.3-1.36,0.45
	c-0.05-0.33-0.1-0.66-0.15-0.99C48.34,57.37,48.39,57.28,48.43,57.2z"/>
<path class="st1" d="M48.59,62.19c0.03,0.68,1.05,1.63-0.51,1.89c0-0.55,0-1.11,0.01-1.66c0.16-0.08,0.33-0.16,0.49-0.24
	L48.59,62.19z"/>
<path class="st19" d="M47.59,16.23c0.24,0.01,0.48,0.02,0.72,0.02c0.01,0.07,0.02,0.13,0.02,0.2c-0.06,0.48-0.12,0.95-0.19,1.43
	c-0.04,0.11-0.07,0.22-0.11,0.32C47.89,17.55,47.74,16.89,47.59,16.23z"/>
<path class="st12" d="M80.57,24.14c-0.36,0.34-0.72,0.69-1.07,1.03c-0.82-1.1,0.65-1.05,0.82-1.65
	C80.41,23.72,80.49,23.93,80.57,24.14z"/>
<path class="st12" d="M54.35,81.87c-0.12-0.72-0.25-1.43-0.37-2.15C54.11,80.44,54.23,81.15,54.35,81.87z"/>
<path class="st3" d="M51.82,32.35c-0.51-0.87-0.97-1.74-0.05-2.63C51.79,30.6,51.8,31.47,51.82,32.35z"/>
<path class="st11" d="M46.96,70.4c0.38-0.45,0.75-0.9,1.13-1.36c0,0,0.08,0.09,0.08,0.09c-0.03,0.3-0.05,0.61-0.08,0.91
	c-0.41,0.56-0.82,1.12-1.23,1.68c-0.07,0.03-0.15,0.05-0.23,0.06c0.05-0.23,0.09-0.46,0.14-0.68C46.83,70.87,46.89,70.63,46.96,70.4
	z"/>
<path class="st3" d="M51.86,25.89c0.43,0.15,1.1,0.41,1.53,0.56c-0.4,0.15-1.18-0.04-1.58,0.11C51.78,26.26,51.88,26.2,51.86,25.89z
	"/>
<path class="st19" d="M48.34,13.86c-0.25,0.56-0.5,1.12-0.75,1.67C47.17,14.67,47.76,14.27,48.34,13.86z"/>
<path class="st19" d="M21.67,35.72c0.09-0.03,0.19-0.05,0.28-0.08c0.03,0.24,0.06,0.48,0.08,0.72c0.07,0.24,0.13,0.48,0.2,0.72
	c0,0.08,0.01,0.16,0.01,0.24c0.06,0.16,0.13,0.33,0.19,0.49c-0.02,0.08-0.03,0.16-0.05,0.23c-0.15,0-0.3,0-0.45,0
	C21.84,37.26,21.76,36.49,21.67,35.72z"/>
<path class="st14" d="M47.15,91.37c0.01-0.17,0.01-0.34,0.02-0.51c0.32-0.01,0.63-0.02,0.95-0.03c0.08,0.08,0.16,0.17,0.23,0.25
	c0.08,0.14,0.15,0.28,0.23,0.42C48.11,91.45,47.63,91.41,47.15,91.37z"/>
<path class="st23" d="M25.35,62.89c0.13,0.58,0.27,1.15,0.4,1.73"/>
<path class="st20" d="M20.49,32.03c-0.11,0.03-0.21,0.05-0.32,0.08c-0.25-0.29-0.51-0.59-0.76-0.88c0.27-0.02,0.54-0.04,0.82-0.06
	C20.31,31.46,20.4,31.74,20.49,32.03z"/>
<path class="st24" d="M23.13,42.53c-0.13-0.56-0.26-1.12-0.39-1.68C22.87,41.41,23,41.97,23.13,42.53z"/>
<path class="st3" d="M73.83,24.2c0.22-0.22,0.43-0.44,0.65-0.66c0.15-0.03,0.31-0.07,0.46-0.1c0.12,0.02,0.25,0.04,0.37,0.06
	C74.81,23.73,74.32,23.97,73.83,24.2z"/>
<path class="st14" d="M43.88,87.89c-0.01,0.12-0.02,0.24-0.03,0.35c-0.5,0.15-1,0.29-1.5,0.44C42.86,88.41,43.37,88.15,43.88,87.89z
	"/>
<path class="st19" d="M48.54,12.2c0.11,0.38,0.22,0.77,0.33,1.15c-0.14,0.1-0.28,0.2-0.42,0.3C48.48,13.16,48.51,12.68,48.54,12.2z"
	/>
<path class="st19" d="M51.67,15.28c-0.24-0.4-0.47-0.81-0.71-1.21C51.19,14.48,51.43,14.88,51.67,15.28z"/>
<path class="st19" d="M51.64,17.43c0.03-0.36,0.06-0.72,0.09-1.08c0.04,0.43,0.08,0.87,0.12,1.3C51.78,17.58,51.71,17.5,51.64,17.43
	z"/>
<path class="st24" d="M35.73,30.16c0.39-0.06,0.79-0.12,1.18-0.18C36.52,30.04,36.12,30.1,35.73,30.16z"/>
<path class="st19" d="M18.27,36.38c0.6,0.33,0.87-0.09,1.15-0.49c-0.02,0.31-0.05,0.62-0.07,0.93c-0.38,0-0.76,0.01-1.14,0.01
	C18.23,36.68,18.25,36.53,18.27,36.38z"/>
<path class="st19" d="M49.9,8.96c-0.35-0.01-0.7-0.03-1.05-0.04c0.21-0.15,0.4-0.37,0.63-0.41C49.59,8.48,49.76,8.8,49.9,8.96z"/>
<path class="st19" d="M52.27,22.38c-0.21,0.19-0.42,0.38-0.63,0.56c0,0-0.02,0.01-0.02,0.01c-0.03-0.08-0.05-0.17-0.08-0.25
	c-0.05-0.09-0.1-0.19-0.15-0.28c0.03-0.04,0.05-0.07,0.08-0.11C51.74,22.33,52.01,22.35,52.27,22.38z"/>
<path class="st3" d="M78.18,22.72c0.23-0.04,0.47-0.08,0.7-0.12c-0.05,0.17-0.1,0.34-0.15,0.51C78.55,22.98,78.36,22.85,78.18,22.72
	z"/>
<path class="st17" d="M62.72,90.85c-0.29-0.24-0.58-0.48-0.87-0.72C62.14,90.37,62.43,90.61,62.72,90.85z"/>
<path class="st19" d="M51.07,22.35c0.03-0.34,0.06-0.67,0.09-1.01c0.11,0.32,0.21,0.65,0.32,0.97c-0.03,0.04-0.05,0.07-0.08,0.11
	C51.29,22.4,51.18,22.37,51.07,22.35z"/>
<path class="st9" d="M64.7,20.68c-0.32,0.03-0.64,0.07-0.96,0.1C64.06,20.75,64.38,20.71,64.7,20.68z"/>
<path class="st11" d="M46.59,72.63c0.04-0.32,0.08-0.64,0.13-0.95c0.06,0,0.12-0.01,0.19-0.02c-0.04,0.31-0.07,0.62-0.11,0.93
	C46.73,72.61,46.66,72.62,46.59,72.63z"/>
<path class="st24" d="M29.17,31.16c0.32-0.05,0.64-0.1,0.95-0.15C29.81,31.06,29.49,31.11,29.17,31.16z"/>
<path class="st4" d="M83.08,31.26c-0.14,0.17-0.27,0.34-0.41,0.51c-0.01-0.3-0.77-2.77-0.78-3.07c0.12-0.01,1,2.16,1.12,2.15
	C83.03,30.99,83.06,31.13,83.08,31.26z"/>
<path class="st10" d="M48.57,62.18c-0.16,0.08-0.33,0.16-0.49,0.24c0.03-0.32,0.06-0.64,0.09-0.96
	C48.3,61.7,48.44,61.94,48.57,62.18z"/>
<path class="st3" d="M67.2,25.2c0.58-0.06,1.17-0.13,1.75-0.19C68.36,25.07,67.78,25.13,67.2,25.2z"/>
<path class="st11" d="M46.55,73.84c-0.03-0.17-0.07-0.33-0.1-0.5c0.05-0.29,0.1-0.58,0.16-0.86c0,0,0.12,0,0.12,0
	s0.12,0.01,0.12,0.01C46.75,72.95,46.65,73.4,46.55,73.84z"/>
<path class="st12" d="M76.85,34.77c-0.07,0.27-0.14,0.55-0.21,0.82C76.71,35.32,76.78,35.04,76.85,34.77z"/>
<path class="st10" d="M52.19,44.15c-0.18,0.01-0.36,0.02-0.54,0.03c0-0.24,0-0.47,0-0.71c0.17,0.01,0.35,0.01,0.52,0.02
	C52.18,43.71,52.19,43.93,52.19,44.15z"/>
<path class="st3" d="M78.4,24.46c-0.05,0.24-0.09,0.47-0.14,0.71C78.31,24.93,78.36,24.69,78.4,24.46z"/>
<path class="st24" d="M48.02,67.15C48.01,67.39,48,67.64,48,67.88C48,67.64,48.01,67.39,48.02,67.15z"/>
<path class="st19" d="M50.41,13.59c0.03-0.16,0.07-0.32,0.1-0.48c0.11,0.26,0.21,0.52,0.31,0.78
	C50.69,13.78,50.55,13.68,50.41,13.59z"/>
<path class="st19" d="M50.54,12.51c0.04-0.26,0.09-0.52,0.13-0.77C50.63,11.99,50.59,12.25,50.54,12.51z"/>
<path class="st24" d="M22.23,37.07c-0.07-0.24-0.13-0.48-0.2-0.72C22.1,36.59,22.17,36.83,22.23,37.07z"/>
<path class="st7" d="M8.67,70.61c-0.09,0.3-0.19,0.59-0.28,0.89C8.48,71.2,8.57,70.9,8.67,70.61z"/>
<path class="st24" d="M31.75,30.76c0.22-0.09,0.45-0.19,0.67-0.28c0.04,0.05,0.07,0.1,0.1,0.15C32.26,30.67,32,30.71,31.75,30.76z"
	/>
<path class="st7" d="M23.67,46.05c0.06,0.02,0.13,0.04,0.19,0.06c-0.01,0.23-0.02,0.46-0.03,0.69
	C23.78,46.55,23.73,46.3,23.67,46.05z"/>
<path class="st10" d="M45.67,27.7c0.01,0.07,0.01,0.15,0.02,0.22c-0.24,0.02-0.47,0.04-0.71,0.07C45.21,27.89,45.44,27.8,45.67,27.7
	z"/>
<path class="st20" d="M19.89,32.58c-0.06,0.16-0.13,0.32-0.19,0.48C19.76,32.9,19.83,32.74,19.89,32.58z"/>
<path class="st19" d="M50.45,10.15c-0.07-0.19-0.14-0.38-0.21-0.57C50.31,9.77,50.38,9.96,50.45,10.15z"/>
<path class="st15" d="M71.69,68.5c0.16,0,0.32,0,0.49,0.01C72.01,68.5,71.85,68.5,71.69,68.5z"/>
<path class="st13" d="M91.54,68.54c0.17-0.02,0.34-0.04,0.51-0.06C91.88,68.5,91.71,68.52,91.54,68.54z"/>
<path class="st11" d="M46.22,79.95c-0.05,0.17-0.09,0.34-0.14,0.5C46.13,80.29,46.18,80.12,46.22,79.95z"/>
<path class="st12" d="M54.79,84.72c-0.04-0.16-0.09-0.32-0.13-0.49C54.71,84.39,54.75,84.55,54.79,84.72z"/>
<path class="st3" d="M77.53,31.46c-0.06,0.2-0.13,0.4-0.19,0.6C77.4,31.86,77.47,31.66,77.53,31.46z"/>
<path class="st24" d="M42.92,28.59c0.16-0.06,0.31-0.12,0.47-0.18C43.23,28.47,43.07,28.53,42.92,28.59z"/>
<path class="st14" d="M41.47,88.73c-0.2,0.04-0.41,0.09-0.61,0.13C41.06,88.82,41.26,88.77,41.47,88.73z"/>
<path class="st24" d="M22.43,37.79c-0.06-0.16-0.13-0.32-0.19-0.49C22.3,37.47,22.37,37.63,22.43,37.79z"/>
<path class="st24" d="M25.83,31.3c0.17,0.02,0.35,0.05,0.52,0.07C26.17,31.35,26,31.32,25.83,31.3z"/>
<path class="st10" d="M48.06,26.91c-0.03,0.09-0.06,0.18-0.09,0.27c-0.17-0.02-0.33-0.03-0.5-0.05
	C47.67,27.06,47.87,26.98,48.06,26.91z"/>
<path class="st19" d="M50.69,11.5c-0.08-0.09-0.17-0.18-0.25-0.27c0.07-0.08,0.15-0.17,0.22-0.25
	C50.67,11.15,50.68,11.33,50.69,11.5z"/>
<path class="st14" d="M83.01,30.86c-0.12,0.01-0.25,0.01-0.37,0.02c0.11-0.09,0.22-0.17,0.33-0.26C82.99,30.7,83,30.78,83.01,30.86z
	"/>
<path class="st19" d="M53.4,22.07c-0.09,0.05-0.19,0.1-0.29,0.15C53.21,22.16,53.31,22.12,53.4,22.07z"/>
<path class="st3" d="M66.57,24.99c0.07,0.1,0.14,0.21,0.21,0.31c0,0-0.1-0.03-0.1-0.03C66.64,25.18,66.6,25.09,66.57,24.99z"/>
<path class="st9" d="M86.55,66.3c-0.14-1.65-0.25-3.3-0.43-4.95c-0.2-1.91-0.48-3.8-0.7-5.71c-0.14-1.16-0.45-3.23-0.57-4.39
	c0.08-0.17,0.34-0.74,0.54-1.17c0.27,0.61,0.59,2.32,0.64,2.74c0.23,1.87,0.39,3.75,0.59,5.62c0.08,0.7,0.24,1.39,0.29,2.09
	c0.04,0.6-0.06,1.21-0.02,1.81c0.05,0.62,0.17,1.25,0.31,1.86c0.17,0.72,0.4,1.43,0.6,2.14C87.39,66.33,86.97,66.32,86.55,66.3z"/>
<path class="st14" d="M84.84,51.25c-0.21-2.13-0.35-4.27-0.64-6.39c-0.24-1.76-0.67-3.5-1.01-5.25c-0.04-0.22,0-0.46,0-0.7
	c0.18,0,0.35-0.01,0.53-0.01c0.55,3.29,1.12,6.57,1.64,9.86c0.11,0.73,0.06,1.48,0.03,2.23C85.39,51.09,85.03,51.17,84.84,51.25z"/>
<path class="st12" d="M82.79,37.26c-0.09-0.15-0.17-0.29-0.26-0.44c-0.02-0.23-0.02-0.46-0.07-0.69c-0.35-1.61-0.7-3.21-1.06-4.82
	c0.08,0,0.16-0.01,0.23-0.02c0.06,0.01,0.13,0.03,0.19,0.05c0.25,0.38-0.01,0.36,0.24,0.75c0.04,0,0.06,0.47,0.11,0.47
	c0.04,0.17,0.2,0.43,0.24,0.6c0.04,0.79,0.49,1.41,0.54,2.2c0.02,0.38,0.08,0.75,0.12,1.13C82.98,36.75,82.88,37.01,82.79,37.26z"/>
<path class="st18" d="M86.55,66.3c0.42,0.01,0.84,0.03,1.27,0.04c0.07,0.04,0.14,0.08,0.2,0.11c-0.33,0.21-0.66,0.58-1,0.58
	c-0.62,0.01-1.24-0.2-1.86-0.32c0.09-0.12,0.18-0.25,0.27-0.37C85.8,66.34,86.17,66.32,86.55,66.3z"/>
<path class="st9" d="M82.79,37.26c0.09-0.25,0.19-0.51,0.28-0.76c0.22,0.8,0.43,1.6,0.65,2.4c-0.18,0-0.35,0.01-0.53,0.01
	C83.06,38.36,82.92,37.81,82.79,37.26z"/>
<path class="st20" d="M82.83,32.99c-0.04-0.17-0.07-0.33-0.11-0.5c0.11,0.16,0.22,0.32,0.33,0.48c0,0-0.11,0-0.11,0L82.83,32.99z"/>
<path class="st9" d="M85.28,39.62c0.02,0.05,0.05,0.09,0.06,0.14c0,0.02-0.03,0.04-0.04,0.07C85.25,39.76,85.24,39.69,85.28,39.62z"
	/>
<path class="st20" d="M83.61,34.88c0.02,0.05,0.04,0.11,0.05,0.17c0,0.02-0.05,0.04-0.07,0.06C83.56,35.03,83.57,34.95,83.61,34.88z
	"/>
<path class="st9" d="M81.98,66.01c0.21-0.51,0.6-1.03,0.58-1.54c-0.07-1.83-0.29-3.65-0.42-5.48c-0.05-0.7,0-1.41,0-2.11
	c0.18-0.01,0.35-0.02,0.53-0.02c0.2,2.4,0.38,4.81,0.62,7.21c0.07,0.71,0.31,1.39,0.48,2.09C83.17,66.11,82.58,66.06,81.98,66.01z"
	/>
<path class="st6" d="M79.86,62.41c0.04,1.24,0.09,2.48,0.13,3.72c-0.14,0.15-0.27,0.29-0.41,0.44c-0.11-0.21-0.21-0.43-0.32-0.64
	c0.02-1.19,0.03-2.38,0.05-3.57C79.5,62.37,79.68,62.39,79.86,62.41z"/>
<path class="st9" d="M73.87,64.95c0.09,0.38,0.18,0.76,0.26,1.14c-0.1,0.03-0.19,0.07-0.29,0.1c-0.24-0.09-0.49-0.18-0.73-0.28
	C73.37,65.59,73.62,65.27,73.87,64.95z"/>
<path class="st9" d="M75.23,66.28c0.06,0.03,0.13,0.07,0.19,0.1C75.33,66.39,75.27,66.35,75.23,66.28z"/>
<path class="st16" d="M48.1,69.75c0.02-0.21,0.04-0.43,0.07-0.64c0.29-0.18,0.82-0.34,0.84-0.54c0.09-0.95,0.71-1.11,1.45-1.18
	c0.32,0.16,0.64,0.32,0.96,0.47c0,0.24,0.01,0.48,0.02,0.73c0,0.23,0,0.46-0.01,0.69c-0.26,0.35-0.51,0.7-0.85,1.17
	c-0.37-0.62-0.57-0.96-0.77-1.29c-0.22,0.61-0.3,1.2-0.14,1.71c0.26,0.85-0.05,1.09-0.83,1.02c-0.08-0.45-0.12-0.92-0.25-1.36
	C48.48,70.25,48.26,70.01,48.1,69.75z"/>
<path class="st21" d="M51.41,67.86c-0.32-0.16-0.64-0.32-0.96-0.47c0.01-0.39,0.02-0.78,0.03-1.17c0.15-0.32,0.29-0.64,0.44-0.97
	c-0.07-0.47-0.14-0.93-0.21-1.4c-0.4-1.58-0.11-2.61,0.95-3.32c0.69,2.31,0,4.59-0.14,6.87C51.5,67.56,51.44,67.71,51.41,67.86z"/>
<path class="st16" d="M48.58,49.63c0-1.18,0-2.37,0-3.55c0.32,0.08,0.64,0.16,0.95,0.24c0,0.4,0,0.79-0.01,1.19
	c0.02,0.34,0.03,0.67,0.04,0.85c0.38,0.23,0.65,0.39,0.92,0.55c-0.29,0.13-0.8,0.2-0.85,0.39C49.44,50.06,48.97,49.64,48.58,49.63z"
	/>
<path class="st21" d="M50.49,48.9c-0.27-0.16-0.54-0.32-0.92-0.55c-0.01-0.18-0.02-0.52-0.04-0.85c0.32-0.16,0.63-0.31,0.95-0.47
	c0.31,0,0.62,0,0.94,0c0.07,0.87,0.14,1.73,0.22,2.6c-0.23-0.08-0.45-0.16-0.68-0.23C50.8,49.23,50.64,49.06,50.49,48.9z"/>
<path class="st21" d="M51.88,50.58c0.02,0.63,0.04,1.26,0.06,1.89c-0.2,0.11-0.39,0.25-0.61,0.32c-0.21,0.06-0.5,0.14-0.65,0.04
	c-0.13-0.09-0.17-0.41-0.16-0.62c0.04-0.7,0.13-1.4,0.2-2.1C51.11,50.27,51.49,50.42,51.88,50.58z"/>
<path class="st16" d="M51.88,50.58c-0.39-0.16-0.77-0.32-1.16-0.47c0.08-0.24,0.15-0.48,0.23-0.72c0.23,0.08,0.45,0.16,0.68,0.23
	C51.71,49.94,51.8,50.26,51.88,50.58z"/>
<path class="st21" d="M51.66,60.52c0-0.08,0-0.17,0-0.25C51.66,60.35,51.66,60.43,51.66,60.52z"/>
<path class="st15" d="M51.07,22.35c0.11,0.02,0.22,0.05,0.33,0.07c0.05,0.09,0.1,0.19,0.15,0.28c-0.02,0.03-0.06,0.08-0.05,0.1
	c0.03,0.06,0.09,0.1,0.13,0.15c0,0,0.01-0.01,0.01-0.01c0.06,0.46,0.11,0.93,0.16,1.39c-0.82,0.35,0.33,1.74-1.03,1.89
	c-0.75,0.08-1.48,0.43-2.22,0.66c0,0-0.01-0.01-0.01-0.02c0.01-0.11,0.03-0.22,0.04-0.34c0-0.47,0-0.95,0-1.42
	c-0.09-0.71-0.18-1.42-0.28-2.12C49.26,22.92,50.34,23.41,51.07,22.35z"/>
<path class="st15" d="M41.72,28.68c-0.23,0.06-0.46,0.12-0.69,0.18c-0.16-0.43-0.3-0.88-0.48-1.3c-0.32-0.77-0.66-1.53-0.99-2.3
	c0.05-0.15,0.1-0.31,0.15-0.46c0.29-0.13,0.58-0.26,0.87-0.38c0.17,0.45,0.34,0.9,0.5,1.35c0.1,0.14,0.19,0.28,0.29,0.42
	C41.49,27.01,41.61,27.85,41.72,28.68z"/>
<path class="st3" d="M41.38,26.18c-0.1-0.14-0.19-0.28-0.29-0.42C41.19,25.9,41.28,26.04,41.38,26.18z"/>
<path class="st1" d="M48.59,26.53c-0.01,0.11-0.03,0.22-0.04,0.34c0,0-0.1,0.04-0.1,0.04s-0.1-0.02-0.11-0.02
	C48.42,26.77,48.5,26.65,48.59,26.53z"/>
<path class="st14" d="M33.43,26.2c0-0.07-0.01-0.14-0.01-0.21c0.72-0.17,1.04,0.15,1.07,0.85c0.04,0.78,0.08,1.56,0.14,2.34
	c0.04,0.55-0.03,0.9-0.69,0.54c-0.21-0.92-0.43-1.85-0.64-2.77C33.35,26.7,33.39,26.45,33.43,26.2z"/>
<path class="st11" d="M37.9,25.1c0.15,0.56,0.33,1.07,0.39,1.59c0.02,0.2-0.21,0.43-0.33,0.65c-0.19-0.16-0.56-0.36-0.53-0.47
	c0.34-1.57-0.69-1.46-1.69-1.44C36.46,25.32,37.18,25.21,37.9,25.1z"/>
<path class="st11" d="M39.72,24.79c-0.05,0.15-0.1,0.31-0.15,0.46c-0.14-0.07-0.28-0.14-0.42-0.21
	C39.34,24.96,39.53,24.88,39.72,24.79z"/>
<path class="st18" d="M59.52,26.03c-0.35-0.08-0.7-0.15-1.04-0.23c0-0.1,0-0.21,0-0.31c-0.06-1.02-0.13-2.05-0.19-3.07
	c0.11-0.33,0.22-0.65,0.33-0.98c0.22-0.03,0.43-0.06,0.65-0.1C59.35,22.91,59.43,24.47,59.52,26.03z"/>
<path class="st11" d="M75.58,51.14c-0.44,4.19-1.09,10.57-1.53,14.76c-0.16-0.13-0.43-0.32-0.42-0.44c0.08-1.24,0.38-4.61,0.5-5.85
	c0.03-0.31,0.13-0.61,0.16-0.92c0.22-2.72,0.44-5.45,0.66-8.17C75.15,50.73,75.37,50.94,75.58,51.14z"/>
<path class="st9" d="M70.74,65.91c0.1-0.01,0.2-0.03,0.3-0.04c0.07,0.05,0.13,0.1,0.2,0.15c-0.1,0.09-0.2,0.17-0.3,0.26
	C70.87,66.15,70.81,66.03,70.74,65.91z"/>
<path class="st8" d="M31.41,28.23c-0.37,0.2-0.74,0.43-1.13,0.56c-0.09,0.03-0.3-0.32-0.45-0.5c0.44-0.19,0.88-0.39,1.32-0.58
	C31.23,27.89,31.32,28.06,31.41,28.23z"/>
<path class="st3" d="M33.43,26.2c-0.04,0.25-0.08,0.5-0.12,0.75C33.35,26.7,33.39,26.45,33.43,26.2z"/>
<path class="st16" d="M70.03,21.02c0.01,0.1,0.02,0.19,0.03,0.29c-0.23,0.04-0.46,0.1-0.7,0.11c-1.29,0.06-2.48,0.27-3.05,1.65
	c-0.08-0.61-0.15-1.21-0.23-1.82c0.11-0.11,0.22-0.22,0.33-0.33c0.17,0.03,0.34,0.06,0.51,0.09c0.6-0.04,1.2-0.08,1.81-0.12
	C69.16,20.94,69.59,20.98,70.03,21.02z"/>
<path class="st22" d="M72.95,21.58c0.63-0.86,1.28-0.58,1.94-0.05C74.25,21.55,73.6,21.56,72.95,21.58z"/>
<path class="st17" d="M52.6,78.53c-0.08,0.08-0.16,0.16-0.23,0.24c-0.24,0-0.47,0-0.71,0c-0.63,0.16-1.27,0.31-1.9,0.47
	c-0.14-0.01-0.29-0.03-0.43-0.04c0-0.07-0.01-0.13-0.03-0.2c-0.16-0.15-0.33-0.31-0.49-0.46c0-0.24,0-0.47,0-0.71
	c1.26-0.44,1.42-1.48,1.42-2.6c0.62-0.09,1.66,0.81,1.66-0.72c0.41-0.18,0.81-0.35,1.22-0.53c0.06,1.04,0.13,2.09,0.19,3.13
	c-0.28-0.04-0.56-0.09-0.89-0.14C52.49,77.56,52.55,78.04,52.6,78.53z"/>
<path class="st22" d="M49.72,85.15c0-0.23,0-0.47,0-0.7c0.09-0.16,0.18-0.31,0.27-0.47c0.56,0.25,1.11,0.5,1.91,0.86
	c0-0.58,0-1.2,0-1.81c0.16,0,0.31,0,0.47,0c0,0.79,0,1.57,0,2.36c-1.03,0.94-0.41,1.89,0,2.83c-0.36-0.03-0.72-0.07-1.18-0.11
	c0,0.56,0,1.04,0,1.53c0,0.24-0.01,0.49-0.01,0.73c-0.79-0.16-1.57-0.31-2.36-0.47c0-0.31,0-0.62,0-0.93
	c0.86-0.14,1.07-0.63,0.84-1.44c-0.07-0.25-0.01-0.67,0.16-0.82C50.54,86.11,50.18,85.64,49.72,85.15z"/>
<path class="st22" d="M49.76,79.23c0.63-0.16,1.27-0.31,1.9-0.47c0.14,0.93-0.25,1.92,0.42,2.8c0.14,0.18-0.12,0.66-0.19,1
	c-1.02,0-2.04-0.01-3.06-0.01c-0.09-0.31-0.18-0.62-0.26-0.93c0.08-0.4,0.16-0.8,0.23-1.19c0.16-0.24,0.33-0.47,0.49-0.71
	C49.45,79.56,49.61,79.4,49.76,79.23z"/>
<path class="st21" d="M48.83,82.55c1.02,0,2.04,0.01,3.06,0.01c0,0.16,0,0.31,0.01,0.47c0,0.62,0,1.23,0,1.81
	c-0.79-0.36-1.35-0.61-1.9-0.86c-0.16,0-0.32,0.01-0.48,0.01c-0.29-0.04-0.58-0.08-0.92-0.12C48.68,83.37,48.76,82.96,48.83,82.55z"
	/>
<path class="st16" d="M51.19,89.65c0-0.48,0-0.97,0-1.53c0.46,0.04,0.82,0.08,1.18,0.11c0.16,0,0.31,0.01,0.47,0.01
	C52.77,89.28,52.21,89.72,51.19,89.65z"/>
<path class="st12" d="M54.03,89.42c-0.1,0.2-0.17,0.43-0.32,0.59c-0.08,0.09-0.28,0.07-0.5,0.11c0.04-0.67,0.07-1.28,0.11-1.88
	c0.09-0.2,0.18-0.41,0.27-0.61c0.15,0.08,0.29,0.15,0.44,0.23C54.03,88.38,54.03,88.9,54.03,89.42z"/>
<path class="st21" d="M52.37,85.4c0-0.79,0-1.57,0-2.36C53.39,83.58,53.39,84.66,52.37,85.4z"/>
<path class="st17" d="M57.34,89.19c0.31,0.16,0.63,0.31,0.94,0.47C57.66,90.12,57.36,89.93,57.34,89.19z"/>
<path class="st10" d="M48.47,27.45c-0.09-0.23,0.03-0.57-0.06-0.8C48.83,26.75,49,26.98,48.47,27.45z"/>
<path class="st1" d="M51.41,47.03c-0.31,0-0.63,0-0.94,0c0.02-0.5,0.02-0.99,0.05-1.49c0.02-0.33,0.05-0.67,0.11-1
	c0.17-0.91,0.35-1.82,0.53-2.73c0.24-0.01,0.48-0.02,0.72-0.04c-0.08,0.56-0.15,1.13-0.23,1.69c0,0.24,0,0.47,0,0.71
	C51.58,45.13,51.5,46.08,51.41,47.03z"/>
<path class="st16" d="M50.22,33.98c0-0.12-0.02-0.24,0.01-0.35c0.14-0.43,0.29-0.86,0.44-1.29c0.34,0.19,0.94,0.34,0.98,0.58
	c0.09,0.57,0.03,1.23-0.18,1.77c-0.18,0.46-0.65,0.82-0.99,1.22c-0.12-0.18-0.32-0.36-0.33-0.55C50.13,34.9,50.19,34.44,50.22,33.98
	z"/>
<path class="st1" d="M50.22,33.98c-0.03,0.46-0.09,0.92-0.06,1.38c0.01,0.19,0.21,0.37,0.33,0.55c-0.32,0.23-0.64,0.47-0.97,0.7
	c-0.08-0.08-0.17-0.16-0.25-0.25c-0.16-0.39-0.31-0.78-0.49-1.16c-0.1-0.21-0.27-0.39-0.41-0.59c0.2-0.13,0.39-0.3,0.62-0.37
	C49.39,34.12,49.81,34.07,50.22,33.98z"/>
<path class="st11" d="M51.88,41.6c-0.08-0.72-0.15-1.44-0.23-2.16c0.04-0.27,0.08-0.54,0.12-0.82c0.14,0.01,0.27,0.02,0.41,0.03
	C52.08,39.64,51.98,40.62,51.88,41.6z"/>
<path class="st19" d="M19.3,37.33c0.01,0.4,0.03,0.79,0.04,1.19c-0.16,0.93-0.33,1.86-0.49,2.79c-0.07,0.16-0.14,0.32-0.21,0.48
	c-0.23,0-0.45,0.01-0.68,0.01c0.06-0.38,0.17-0.76,0.15-1.14c-0.01-0.22-0.23-0.43-0.36-0.64c0.11-0.19,0.21-0.39,0.31-0.58
	c0.53,0.03,0.97-0.02,0.63-0.74c-0.02-0.15-0.04-0.3-0.05-0.45C18.87,37.95,19.09,37.64,19.3,37.33z"/>
<path class="st14" d="M48.14,17.88c0.06-0.48,0.13-0.95,0.19-1.43c0.16,0.48,0.32,0.96,0.48,1.44
	C48.59,17.88,48.37,17.88,48.14,17.88z"/>
<path class="st14" d="M48.82,17.89c0.15,0.24,0.31,0.47,0.46,0.71C49.12,18.36,48.97,18.13,48.82,17.89z"/>
<path class="st10" d="M48.58,45.58c0-0.74,0-1.49,0-2.49c1.22,0.92,0.26,1.78,0.47,2.5c-0.16,0-0.31,0-0.47,0.01
	C48.58,45.6,48.58,45.58,48.58,45.58z"/>
<path class="st1" d="M48.58,45.6c0.16,0,0.31,0,0.47-0.01c0.16,0.24,0.32,0.48,0.48,0.72c-0.32-0.08-0.64-0.16-0.95-0.24
	C48.58,45.92,48.58,45.76,48.58,45.6z"/>
<path class="st9" d="M76.82,41.48c-0.07,0.24-0.15,0.48-0.22,0.71C76.67,41.96,76.75,41.72,76.82,41.48z"/>
<path class="st9" d="M76.29,45.98c-0.06,0.16-0.11,0.32-0.17,0.49C76.18,46.3,76.24,46.14,76.29,45.98z"/>
<path class="st17" d="M48.82,89.91c0.79,0.16,1.57,0.31,2.36,0.47c-0.25,0.24-0.49,0.63-0.77,0.67c-0.67,0.1-1.37,0.03-2.06,0.02
	c-0.08-0.08-0.16-0.17-0.23-0.25C48.35,90.52,48.59,90.21,48.82,89.91z"/>
<path class="st15" d="M13.69,77.8c-0.15,0-0.3-0.01-0.45-0.01c0-0.49,0-0.98,0-1.47c-0.08-0.02-0.16-0.04-0.24-0.05
	c-0.2,0.34-0.39,0.68-0.59,1.02c-0.12-0.02-0.23-0.05-0.35-0.07c0.06-0.6,0.13-1.2,0.19-1.8c0,0-0.01-0.02-0.01-0.02
	c0.72,0.09,1.45,0.19,2.17,0.28C13.84,76.27,13.54,76.96,13.69,77.8z"/>
<path class="st17" d="M47.63,89.41c-0.31,0-0.62,0-0.93,0c0-0.16-0.01-0.31-0.01-0.46c0.02-0.76,0.05-1.51,0.06-2.27
	c0-0.51-0.04-1.02-0.07-1.53c0.25,0,0.51,0,0.76,0c-0.01,0.32-0.01,0.63-0.02,0.95c0.23,0.56,0.46,1.11,0.7,1.67
	c0,0.4-0.01,0.79-0.01,1.19C47.94,89.1,47.78,89.26,47.63,89.41z"/>
<path class="st11" d="M45.96,90.22c-0.44-0.24-0.88-0.48-1.32-0.72c0.13-0.16,0.33-0.47,0.39-0.44c0.43,0.16,0.84,0.4,1.25,0.61
	C46.18,89.84,46.07,90.03,45.96,90.22z"/>
<path class="st21" d="M50.24,75.22c0,1.13-0.17,2.16-1.42,2.6c0.08-1.12,0.34-2.28-0.48-2.94c0.18-1.12,0.34-2.05,0.49-2.98
	c0.78,0.07,1.09-0.17,0.83-1.02c-0.16-0.52-0.08-1.11,0.14-1.71c0.2,0.34,0.4,0.68,0.77,1.29c0.34-0.47,0.6-0.82,0.85-1.17
	c0.24,0.87,0.48,1.74,0.72,2.6c-0.16,0.4-0.32,0.79-0.48,1.19C50.52,73.35,50.04,74.07,50.24,75.22z"/>
<path class="st6" d="M51.65,73.07c0.16-0.4,0.32-0.79,0.48-1.19c1.23-0.15,0.91,0.76,0.96,1.42c0,0.09,0,0.19,0,0.28
	c0.01,0.13,0.02,0.27,0.03,0.4c-0.41,0.17-0.81,0.35-1.22,0.53C51.81,74.03,51.73,73.55,51.65,73.07z"/>
<path class="st6" d="M52.6,78.53c-0.06-0.49-0.11-0.97-0.18-1.56c0.33,0.05,0.61,0.09,0.89,0.14C53.26,77.67,53.56,78.42,52.6,78.53
	z"/>
<path class="st17" d="M53.09,73.58c0-0.09,0-0.19,0-0.28C53.09,73.39,53.09,73.49,53.09,73.58z"/>
<path class="st16" d="M48.1,88.95c0-0.4,0.01-0.79,0.01-1.19c0.44-0.6,1.36-1.02,0.8-1.97c-0.54,0.11-1.02,0.2-1.49,0.3
	c0.01-0.32,0.01-0.63,0.02-0.95c0.76,0,1.52,0,2.28,0c0.46,0.49,0.82,0.96,0.11,1.57c-0.17,0.14-0.23,0.57-0.16,0.82
	c0.24,0.81,0.02,1.3-0.84,1.44C48.59,88.97,48.34,88.96,48.1,88.95z"/>
<path class="st16" d="M49.51,83.99c0.16,0,0.32-0.01,0.48-0.01c-0.09,0.16-0.18,0.31-0.27,0.47C49.65,84.29,49.58,84.14,49.51,83.99
	z"/>
<path class="st15" d="M23.64,77.59c-0.4-0.08-0.8-0.16-1.19-0.23c0.01-0.68,0.02-1.37,0.04-2.05c0.07-0.06,0.14-0.12,0.2-0.18
	c0.32,0.05,0.63,0.09,0.95,0.14C23.64,76.04,23.64,76.82,23.64,77.59z"/>
<path class="st5" d="M58.28,22.43c0.06,1.02,0.13,2.05,0.19,3.07c-0.06,0.1-0.12,0.2-0.19,0.3c-1.19,0.09-2.39,0.19-3.58,0.28
	c0.17-0.44,0.35-0.88,0.52-1.31c-0.14-0.45-0.28-0.89-0.42-1.34c-0.07-0.47-0.14-0.94-0.22-1.41c1.18-0.11,2.37-0.21,3.55-0.32
	C58.18,21.95,58.23,22.19,58.28,22.43z M55.79,24.3c0.08,0.03,0.16,0.06,0.24,0.09c0.02-0.16,0.04-0.31,0.06-0.47
	c-0.05-0.01-0.1-0.02-0.14-0.03C55.89,24.02,55.84,24.16,55.79,24.3z"/>
<path class="st8" d="M54.58,22.03c0.07,0.47,0.14,0.94,0.22,1.41c-0.92-0.11-0.71-0.77-0.66-1.35
	C54.29,22.06,54.44,22.05,54.58,22.03z"/>
<path class="st16" d="M50.91,65.25c-0.15,0.32-0.29,0.64-0.44,0.97C50.62,65.89,50.77,65.57,50.91,65.25z"/>
<path class="st9" d="M24.2,58.62c-0.06-0.84-0.12-1.68-0.18-2.52c0.13-0.12,0.25-0.24,0.38-0.37c0.16,0.18,0.32,0.36,0.48,0.54
	c-0.01,0.78-0.01,1.57-0.02,2.35C24.64,58.62,24.42,58.62,24.2,58.62z"/>
<path class="st13" d="M21.06,75.15c0.47,0.05,0.95,0.11,1.42,0.16c-0.01,0.68-0.02,1.37-0.04,2.05c-2.92,0.15-5.84,0.29-8.76,0.44
	c-0.15-0.84,0.15-1.53,0.72-2.13c0-0.09,0.01-0.18,0.01-0.26c0.85-0.16,1.69-0.32,2.54-0.48c0.4,0.17,0.55,1.53,1.25,0.26
	c0.7-0.01,1.4-0.03,2.1-0.04C20.56,75.15,20.81,75.15,21.06,75.15z"/>
<path class="st16" d="M49.3,79.72c-0.16,0.24-0.33,0.47-0.49,0.71c-0.08,0-0.16-0.02-0.23,0.01c-0.39,0.17-0.78,0.36-1.16,0.54
	c-0.06-0.5-0.11-1.01-0.18-1.58c-0.2-0.1-0.49-0.25-0.79-0.41c0.01-0.15,0.02-0.31,0.03-0.46c0.15,0,0.31,0,0.46,0.01
	c0.07,0,0.14,0,0.22,0.01c0.16-0.39,0.33-0.78,0.5-1.2c0.43,0.52,0.79,0.97,1.16,1.43c0.17,0.07,0.33,0.15,0.5,0.22
	c0.02,0.07,0.02,0.13,0.03,0.2C49.32,79.37,49.31,79.54,49.3,79.72z"/>
<path class="st9" d="M78.9,30.39c0.02-0.57,0.04-1.14,0.05-1.71c0.22,0.04,0.44,0.08,0.66,0.12c-0.12,0.41-0.23,0.76-0.34,1.11
	c0,0.15-0.01,0.31-0.01,0.46C79.14,30.38,79.02,30.39,78.9,30.39z"/>
<path class="st19" d="M79.26,30.37c0-0.15,0.01-0.31,0.01-0.46c0.3,0.18,0.6,0.37,0.9,0.55c-0.23-0.03-0.46-0.06-0.69-0.09
	C79.41,30.38,79.34,30.38,79.26,30.37z"/>
<path class="st9" d="M81.2,31.31c-0.08-0.63-0.15-1.26-0.23-1.89c0.21,0,0.41,0,0.62,0c0.02,0.39,0.04,0.78,0.06,1.17
	c0,0.24,0,0.47,0,0.71c-0.08,0.01-0.15,0.02-0.23,0.02C81.34,31.32,81.27,31.32,81.2,31.31z"/>
<path class="st20" d="M81.59,29.42c-0.21,0-0.41,0-0.62,0c-0.02-0.54-0.05-1.08-0.07-1.63c0.17,0.08,0.35,0.15,0.52,0.25
	c0.22,0.13,0.43,0.27,0.65,0.41C81.9,28.77,81.74,29.1,81.59,29.42z"/>
<path class="st20" d="M81.64,31.3c0-0.24,0-0.47,0-0.71c0.06,0.25,0.12,0.51,0.18,0.76C81.77,31.33,81.7,31.31,81.64,31.3z"/>
<path class="st4" d="M58.28,22.43c-0.05-0.24-0.1-0.48-0.15-0.72c0.16-0.09,0.32-0.17,0.48-0.26C58.5,21.78,58.39,22.1,58.28,22.43z
	"/>
<path class="st4" d="M66.4,20.92c-0.11,0.11-0.22,0.22-0.33,0.33c-0.06-0.14-0.13-0.28-0.2-0.42C66.05,20.86,66.23,20.89,66.4,20.92
	z"/>
<path class="st10" d="M21.3,34.95c0.08,1.08,0.21,2.16,0.21,3.24c0.01,0.96-0.12,1.92-0.2,2.88c-0.16,0.71-0.31,1.42-0.47,2.13
	c-0.02-0.86-0.04-1.71-0.07-2.57c0.01-0.24,0.02-0.48,0.02-0.72c0.02-0.32,0.03-0.63,0.05-0.95c-0.02-1.26-0.05-2.52-0.07-3.78
	C20.96,35.11,21.13,35.03,21.3,34.95z"/>
<path class="st7" d="M24.4,55.72c-0.13,0.12-0.25,0.24-0.38,0.37c-0.12-0.73-0.27-2.49-0.38-3.22c0.23,0,0.21-1.2,0.44-1.2
	c0.08,0.15,0.43,2.55,0.51,2.7c0,0-0.01,0-0.01,0c0.01,0.15,0.01,0.31,0.02,0.46C24.53,55.13,24.46,55.43,24.4,55.72z"/>
<path class="st4" d="M58.29,25.8c0.06-0.1,0.12-0.2,0.19-0.3c0,0.1,0,0.2,0,0.31C58.41,25.8,58.35,25.8,58.29,25.8z"/>
<path class="st4" d="M68.72,20.89c-0.6,0.04-1.2,0.08-1.81,0.12C67.52,20.97,68.12,20.93,68.72,20.89z"/>
<path class="st12" d="M48.81,78.77c-0.37-0.45-0.74-0.9-1.16-1.43c-0.17,0.41-0.34,0.81-0.5,1.2c-0.07-0.01-0.14-0.01-0.22-0.01
	c-0.15,0-0.31,0-0.46-0.01c0.01-1.1,0.03-2.2,0.04-3.31c0.13-0.1,0.26-0.21,0.38-0.31c-0.13-0.14-0.25-0.28-0.38-0.42
	c0.01-0.23,0.02-0.46,0.02-0.69c0.06-0.24,0.11-0.47,0.17-0.71c0.03-0.17,0.05-0.34,0.08-0.51c0.04-0.31,0.07-0.62,0.11-0.93
	c0.04-0.24,0.09-0.48,0.13-0.72c0.35-0.39,0.71-0.79,1.06-1.18c0.16,0.26,0.38,0.5,0.47,0.79c0.13,0.44,0.17,0.9,0.25,1.36
	c-0.15,0.93-0.3,1.86-0.49,2.98c0.82,0.67,0.56,1.82,0.48,2.94c0,0.24,0,0.47,0,0.71C48.81,78.61,48.81,78.69,48.81,78.77z"/>
<path class="st11" d="M46.52,74.49c0.13,0.14,0.25,0.28,0.38,0.42c-0.13,0.1-0.26,0.21-0.38,0.31
	C46.51,74.98,46.51,74.73,46.52,74.49z"/>
<path class="st21" d="M48.1,88.95c0.24,0.01,0.48,0.02,0.73,0.03c0,0.31,0,0.62,0,0.93c-0.23,0.31-0.47,0.62-0.7,0.92
	c-0.32,0.01-0.63,0.02-0.95,0.03c0.15-0.48,0.3-0.96,0.45-1.44C47.78,89.26,47.94,89.1,48.1,88.95z"/>
<path class="st11" d="M51.62,22.95c-0.04-0.05-0.1-0.1-0.13-0.15c-0.01-0.02,0.03-0.06,0.05-0.1C51.57,22.78,51.6,22.87,51.62,22.95
	z"/>
<path class="st9" d="M80.2,31.21c0.24,0.05-0.11-1.56,0.13-1.51c0.08,0.49,0.27,3.9,0.34,4.39c-0.37,1.67,0.22,3.36,0.83,4.98
	c0.22,0.58,0.07,1.31,0.08,1.96c-0.13,0-0.27,0-0.4,0C81,40.51,80.75,40,80.63,39.46c-0.22-1.01-0.42-2.03-0.53-3.05
	c-0.11-1.07-0.1-2.16-0.11-3.24C80,32.95,80.12,31.42,80.2,31.21z"/>
<path class="st14" d="M81.19,41.04c0.13,0,0.27,0,0.4,0c0.03,0.55,0.06,1.1,0.09,1.64c0.06,0.8,0.1,1.61,0.18,2.4
	c0.03,0.31,0.17,0.61,0.26,0.92c0.09,0.79,0.17,1.58,0.26,2.37c-0.25,0-0.49,0-0.74,0c-0.07-0.54-0.13-1.07-0.2-1.61
	c-0.1-0.84-0.24-1.68-0.28-2.53C81.12,43.17,81.18,42.1,81.19,41.04z"/>
<path class="st4" d="M82.67,56.87c-0.18,0.01-0.35,0.02-0.53,0.02c-0.01-1.57-0.01-3.15-0.02-4.72c0.17-0.09,0.34-0.18,0.51-0.27
	C82.64,53.55,82.65,55.21,82.67,56.87z"/>
<path class="st20" d="M81.43,34.17c-0.08-0.49-0.12-0.96-0.2-1.45c0.09-0.46-0.13-0.95-0.04-1.4c0.07,0.01,0.14,0.01,0.21,0.01
	c0.35,1.61,0.71,3.21,1.06,4.82c0.05,0.22,0.05,0.46,0.07,0.69c-0.3-0.62-0.59-1.24-0.9-1.85C81.49,34.7,81.59,34.43,81.43,34.17z"
	/>
<path class="st11" d="M82.63,51.9c-0.17,0.09-0.34,0.18-0.51,0.27c-0.16-1.26-0.32-2.53-0.48-3.79c0.25,0,0.49,0,0.74,0
	c0.05,0.07,0.1,0.14,0.15,0.22c0.02,0.16,0.03,0.33,0.05,0.49C82.59,50.02,82.61,50.96,82.63,51.9z"/>
<path class="st25" d="M82.58,49.09c-0.02-0.16-0.03-0.33-0.05-0.49C82.55,48.76,82.56,48.92,82.58,49.09z"/>
<path class="st20" d="M79.86,62.41c-0.18-0.02-0.36-0.04-0.55-0.05c-0.18-1.66-0.42-3.32-0.53-4.99c-0.08-1.33,0-2.68,0-4.02
	c0.08-0.15,0.15-0.3,0.23-0.46c0.12-0.02,0.24-0.04,0.35-0.06C79.53,56.02,79.7,59.21,79.86,62.41z"/>
<path class="st9" d="M78.28,36.04c0-0.08,0.01-0.15,0.06-0.22c0.35-0.07,0.71-0.14,1.06-0.21c0.01,0.14,0.01,0.29,0.02,0.43
	c-0.72,0.66-0.41,1.29,0.07,1.91c-0.06,1.73-0.11,3.47-0.17,5.2c-0.26,0.09-0.52,0.17-0.77,0.26c-0.13-2.29-0.25-4.58-0.38-6.86
	C78.2,36.37,78.24,36.21,78.28,36.04z"/>
<path class="st4" d="M79.37,52.82c-0.12,0.02-0.24,0.04-0.35,0.06c-0.07-0.01-0.14-0.02-0.21-0.02c-0.03-2.02-0.07-4.05-0.08-6.07
	c0-0.28,0.17-0.55,0.25-0.83c0.1,0.01,0.19,0.03,0.29,0.04C79.31,48.28,79.34,50.55,79.37,52.82z"/>
<path class="st9" d="M79.3,43.64c0.02,0.63,0.03,1.25,0.05,1.88c-0.11,0.09-0.22,0.19-0.34,0.28c-0.11-0.63-0.22-1.27-0.33-1.9
	C78.89,43.81,79.1,43.72,79.3,43.64z"/>
<path class="st20" d="M79.3,43.64c-0.21,0.09-0.41,0.17-0.62,0.26c-0.05-0.16-0.1-0.33-0.15-0.49c0.26-0.09,0.52-0.17,0.77-0.26
	C79.31,43.31,79.31,43.47,79.3,43.64z"/>
<path class="st20" d="M79.01,45.8c0.11-0.09,0.23-0.19,0.34-0.28c-0.03,0.16-0.05,0.33-0.08,0.49c-0.1-0.01-0.19-0.03-0.29-0.04
	C78.98,45.91,78.99,45.85,79.01,45.8z"/>
<path class="st25" d="M78.81,52.87c0.07,0,0.14,0.01,0.21,0.02c-0.08,0.15-0.15,0.3-0.23,0.46C78.79,53.19,78.8,53.03,78.81,52.87z"
	/>
<path class="st14" d="M79.39,35.61c-0.35,0.07-0.71,0.14-1.06,0.21c0.19-1.81,0.38-3.62,0.57-5.42c0.12-0.01,0.24-0.01,0.36-0.02
	c0.07,0.01,0.15,0.01,0.22,0c0.02,0.63,0.04,1.27,0.06,1.9C79.49,33.39,79.44,34.5,79.39,35.61z"/>
<path class="st19" d="M79.49,37.95c-0.48-0.62-0.8-1.24-0.07-1.91C79.44,36.67,79.46,37.31,79.49,37.95z"/>
<path class="st22" d="M51.65,73.07c0.08,0.48,0.17,0.95,0.25,1.43c0,1.53-1.04,0.62-1.66,0.72C50.04,74.07,50.52,73.35,51.65,73.07z
	"/>
<path class="st21" d="M48.81,78.77c0-0.08,0-0.16,0.01-0.24c0.16,0.15,0.33,0.31,0.49,0.46C49.14,78.92,48.97,78.85,48.81,78.77z"/>
<path class="st21" d="M49.3,79.72c0.01-0.17,0.02-0.35,0.03-0.52c0.14,0.01,0.29,0.03,0.43,0.04C49.61,79.4,49.45,79.56,49.3,79.72z
	"/>
<path class="st19" d="M13.75,66.67c0.19-2.21,0.33-4.43,0.59-6.63c0.18-1.51,0.51-3,0.77-4.5c0.1,0.1,0.2,0.2,0.31,0.3
	c-0.13,1.93,0.07,3.84-0.66,5.78c-0.55,1.45-0.28,3.2-0.38,4.82C14.17,66.51,13.96,66.59,13.75,66.67z"/>
<path class="st7" d="M17.96,41.81c0.23,0,0.45-0.01,0.68-0.01c-0.05,0.26-0.09,0.53-0.15,0.79c-0.5,2.11-1,4.21-1.51,6.32
	c-0.16,0-0.32,0-0.48,0c-0.36-2.05,0.59-3.89,0.96-5.82C17.56,42.65,17.8,42.23,17.96,41.81z"/>
<path class="st26" d="M16.51,48.91c0.16,0,0.32,0,0.48,0c-0.15,0.82-0.31,1.64-0.45,2.46c-0.21,1.25-0.4,2.5-0.64,3.74
	c-0.05,0.27-0.31,0.49-0.48,0.73c-0.1-0.1-0.2-0.2-0.31-0.3c0.26-1.89,0.5-3.77,0.8-5.65C15.97,49.54,16.3,49.23,16.51,48.91z"/>
<path class="st7" d="M13.75,66.67c0.21-0.08,0.42-0.16,0.63-0.24c-0.2,1.82-0.4,3.64-0.6,5.45c-0.24,0.09-0.49,0.17-0.73,0.26
	C13.28,70.32,13.52,68.5,13.75,66.67z"/>
<path class="st20" d="M13.05,72.15c0.24-0.09,0.49-0.17,0.73-0.26c-0.05,0.71,0.03,1.46-0.19,2.11c-0.32,0.92,0.1,1.22,0.83,1.41
	c0,0.09-0.01,0.18-0.01,0.26c-0.72-0.09-1.45-0.19-2.17-0.28C12.51,74.31,12.78,73.23,13.05,72.15z"/>
<path class="st7" d="M19.39,41.58c0.15-0.32,0.31-0.65,0.46-0.97c0.07,0.02,0.13,0.02,0.2,0.02c0.2,1.22,0.2,2.41-0.68,3.42
	C19.38,43.23,19.39,42.4,19.39,41.58z"/>
<path class="st27" d="M20.85,38.97c-0.02,0.32-0.03,0.63-0.05,0.95C20.82,39.6,20.84,39.28,20.85,38.97z"/>
<path class="st21" d="M47.42,86.1c0.48-0.1,0.96-0.19,1.49-0.3c0.56,0.95-0.36,1.37-0.8,1.97C47.88,87.21,47.65,86.65,47.42,86.1z"
	/>
<path class="st8" d="M55.79,24.3c0.05-0.14,0.1-0.27,0.15-0.41c0.05,0.01,0.1,0.02,0.14,0.03c-0.02,0.16-0.04,0.31-0.06,0.47
	C55.94,24.35,55.87,24.33,55.79,24.3z"/>
<path class="st26" d="M20.45,63.66c0.05-0.77,0.11-1.55,0.15-2.32c0.08-1.62,0.16-3.23,0.22-4.85c0.08-2.31,0.17-4.63,0.18-6.94
	c0.01-1.45-0.13-2.89-0.18-4.34c-0.02-0.67,0.02-1.33,0.04-2c0.16-0.71,0.31-1.42,0.47-2.13c0.15,0.64,0.3,1.29,0.45,1.93
	c-0.01,0.84-0.15,1.72,0.03,2.52c0.15,0.67-0.71,1.41,0.18,1.97c-0.15,2.37-0.34,4.75-0.42,7.12c-0.04,1.24,0.12,2.49,0.18,3.74
	c-0.07,0.25-0.14,0.5-0.22,0.75c-0.01,2.04,0,4.09-0.03,6.13c-0.01,0.4-0.16,0.8-0.25,1.2c-0.08-0.92-0.17-1.85-0.26-2.82
	C20.83,63.63,20.64,63.64,20.45,63.66z"/>
<path class="st19" d="M20.31,75.14c0.02-1.05,0.02-2.1,0.05-3.15c0.04-1.13,0.1-2.27,0.16-3.4c0.1-0.01,0.19-0.01,0.29-0.02
	c0.04,0.11,0.08,0.22,0.12,0.33c0.04,2.08,0.08,4.16,0.13,6.25C20.81,75.15,20.56,75.15,20.31,75.14z"/>
<path class="st3" d="M20.81,68.58c-0.1,0.01-0.19,0.01-0.29,0.02c-0.02-1.65-0.05-3.29-0.07-4.94c0.19-0.02,0.38-0.03,0.53-0.04
	c0.09,0.97,0.17,1.89,0.26,2.82c-0.02,0.54-0.04,1.08-0.05,1.62C21.06,68.23,20.94,68.4,20.81,68.58z"/>
<path class="st27" d="M21.52,59.1c0.07-0.25,0.14-0.5,0.22-0.75C21.66,58.6,21.59,58.85,21.52,59.1z"/>
<path class="st26" d="M20.81,68.58c0.12-0.18,0.25-0.35,0.37-0.53c-0.08,0.28-0.17,0.57-0.25,0.85
	C20.89,68.8,20.85,68.69,20.81,68.58z"/>
<path class="st19" d="M16.96,74.93c0.01-2.32-0.05-4.64,0.06-6.95c0.15-3.2,0.44-6.4,0.67-9.59c0.15,0.01,0.3,0.02,0.45,0.03
	c-0.15,4.19-0.31,8.37-0.44,12.56c-0.03,0.98-0.05,1.97,0.03,2.94c0.03,0.43,0.31,0.84,0.48,1.26
	C17.51,76.46,17.36,75.1,16.96,74.93z"/>
<path class="st11" d="M46.93,78.54c0.07,0,0.14,0,0.22,0.01C47.07,78.54,47,78.54,46.93,78.54z"/>
<path class="st7" d="M18.14,55.79c0.18-2.98,0.35-5.97,0.55-8.95c0.02-0.23,0.31-0.44,0.48-0.66c0.15,0.2,0.3,0.4,0.44,0.61
	c-0.29,2.16-0.59,4.31-0.85,6.47c-0.09,0.76-0.07,1.53-0.1,2.29C18.5,55.63,18.32,55.71,18.14,55.79z"/>
<path class="st26" d="M18.14,55.79c0.18-0.08,0.35-0.16,0.53-0.24c-0.18,0.96-0.35,1.91-0.53,2.87c-0.15-0.01-0.3-0.02-0.45-0.03
	C17.84,57.52,17.99,56.65,18.14,55.79z"/>
<path class="st20" d="M19.62,46.78c-0.15-0.2-0.3-0.4-0.44-0.61c0.07-0.04,0.34-1.63,0.4-1.67C19.66,44.75,19.54,46.54,19.62,46.78z
	"/>
<path class="st20" d="M19.4,45.56c-0.01-0.27,0-2.17-0.01-2.44c0.15,0.08,0.28,1.79,0.43,1.87C19.68,45.18,19.54,45.37,19.4,45.56z"
	/>
<path class="st10" d="M19.66,41.1c-0.03-1.08-0.11-1.73-0.15-2.25c-0.08-0.96,0.2-1.92,0.31-2.87c0.18-0.7,0.25-0.71,0.44-1.41
	c0.42,0.13,0.09,1.02,0.08,1.87c-0.02,0.24-0.18,0.19-0.2,0.43c-0.03,0.31,0.09,0.92,0.06,1.23c-0.02,1.26-0.03,2.29-0.05,3.55
	C19.98,41.72,19.84,41.03,19.66,41.1z"/>
</svg>
