<?xml version="1.0" encoding="utf-8"?>
<!-- Generator: Adobe Illustrator 28.0.0, SVG Export Plug-In . SVG Version: 6.00 Build 0)  -->
<svg version="1.1" id="Layer_1" xmlns="http://www.w3.org/2000/svg" xmlns:xlink="http://www.w3.org/1999/xlink" x="0px" y="0px"
	 viewBox="0 0 100 100" style="enable-background:new 0 0 100 100;" xml:space="preserve">
<style type="text/css">
	.st0{fill:#5B4655;}
	.st1{fill:#AD7D5E;}
	.st2{fill:#CE9F67;}
	.st3{fill:#B08B77;}
	.st4{fill:#8C563A;}
	.st5{fill:#BB751E;}
	.st6{fill:#874C2C;}
	.st7{fill:#C4AFA6;}
	.st8{fill:#C88E46;}
	.st9{fill:#A88475;}
	.st10{fill:#BD967D;}
	.st11{fill:#A57C65;}
	.st12{fill:#94654B;}
	.st13{fill:#8A7B82;}
	.st14{fill:#A07561;}
	.st15{fill:#836255;}
	.st16{fill:#A77149;}
	.st17{fill:#79411E;}
	.st18{fill:#60341F;}
	.st19{fill:#B49B90;}
	.st20{fill:#B29285;}
	.st21{fill:#9E5F33;}
	.st22{fill:#975727;}
	.st23{fill:#F9F7F6;}
	.st24{fill:#F5F0EE;}
	.st25{fill:#EAE3DF;}
	.st26{fill:#CFBCB4;}
	.st27{fill:#FAF9F8;}
</style>
<g>
	<path class="st0" d="M88.1,71.51c1.41-0.11,2.81-0.23,4.22-0.34c0.17,0.09,0.34,0.18,0.5,0.27c0.29,0.14,0.58,0.27,1.21,0.57
		c-0.76,0.6-1.33,1.06-1.91,1.52c-0.17,0.02-0.34,0.04-0.51,0.06c-0.29,0.03-0.58,0.06-0.88,0.09c-0.61-0.5-1.23-1-2.05-1.68
		c0.1,1.75-1.07,1.24-1.96,1.32c-0.5,0.05-0.99,0.24-1.49,0.37c-4.33-0.05-8.65-0.1-12.98-0.15c-0.16,0-0.32,0-0.49-0.01
		c-0.15-0.04-0.3-0.07-0.45-0.11c0.04-0.42,0.08-0.83,0.13-1.25c1.1,0.95,1.58,0.9,2.06-0.15c0.13-0.28,0.28-0.54,0.42-0.81
		c0.1-0.03,0.19-0.07,0.29-0.1c0.36,0.06,0.73,0.13,1.09,0.19c0.04,0.07,0.1,0.1,0.19,0.1c1.28-0.15,2.56-0.3,3.84-0.46
		c0.11,0.21,0.21,0.43,0.32,0.64c0.14-0.15,0.27-0.29,0.41-0.44c0.67-0.04,1.33-0.08,2-0.12c0.59,0.05,1.19,0.1,1.78,0.15
		c0.55,0.06,1.11,0.13,1.66,0.19c-0.09,0.12-0.18,0.25-0.27,0.37c0.62,0.12,1.24,0.32,1.86,0.32C87.44,72.08,87.77,71.71,88.1,71.51
		z"/>
	<path class="st1" d="M48.17,61.46c0.02-0.38,0.04-0.77,0.06-1.15c0.04-0.48,0.09-0.96,0.13-1.44c-0.01-0.16-0.03-0.32-0.04-0.48
		c0.04,0.03,0.08,0.04,0.12,0.05c0.45-0.15,0.91-0.3,1.36-0.45c-0.04-0.09-0.08-0.19-0.12-0.28c-0.42-0.17-0.84-0.34-1.26-0.51
		c-0.03-0.23-0.06-0.46-0.09-0.7c-0.03-0.17-0.07-0.33-0.1-0.5c-0.06-0.07-0.11-0.14-0.17-0.21c0.02-0.63,0.04-1.27,0.06-1.9
		c0.07-0.15,0.14-0.3,0.2-0.45c0.09-1.27,0.17-2.54,0.26-3.81c0.39,0.02,0.86,0.43,1.06-0.34c0.05-0.19,0.55-0.26,0.85-0.39
		c0.16,0.16,0.31,0.33,0.47,0.49c-0.08,0.24-0.15,0.48-0.23,0.72c-0.07,0.7-0.15,1.4-0.2,2.1c-0.01,0.21,0.02,0.52,0.16,0.62
		c0.14,0.1,0.44,0.02,0.65-0.04c0.21-0.07,0.41-0.21,0.61-0.32c0.08,0.19,0.16,0.39,0.24,0.58c-0.06,0.29-0.11,0.57-0.17,0.86
		c-0.41,0.13-1.05,0.16-1.18,0.43c-0.18,0.39-0.03,0.96,0.07,1.44c0.01,0.06,0.59,0,0.9-0.01c0.23,2.33,0.56,4.65,0.65,6.98
		c0.08,1.94-0.11,3.9-0.18,5.85c-0.28,0-0.56-0.01-0.85-0.01c-0.01-0.24-0.01-0.48-0.02-0.73c0.04-0.15,0.09-0.3,0.1-0.46
		c0.14-2.29,0.83-4.57,0.14-6.87l0.01-0.01c0-0.08,0-0.17,0-0.25c-0.97-0.91-0.79,1.04-1.31,0.74c-0.56-0.44-0.91-0.71-1.27-0.99
		c-0.13,0.09-0.25,0.18-0.38,0.27c0.24,0.57,0.48,1.13,0.76,1.78c-0.29,0.04-0.58,0.08-0.87,0.13c0,0-0.01-0.01-0.01-0.01
		C48.44,61.94,48.3,61.7,48.17,61.46z"/>
	<path class="st2" d="M44.55,27.55c-0.55,0.06-1.1,0.11-1.64,0.17c-0.16,0.04-0.33,0.07-0.49,0.11c-0.15,0.01-0.31,0.03-0.46,0.04
		c-0.24-0.04-0.48-0.09-0.73-0.13c0.01-0.84,0.02-1.68,0.04-2.52c-0.07-0.15-0.15-0.31-0.22-0.46c-0.1-0.47-0.2-0.94-0.29-1.41
		c0.63-0.08,1.26-0.17,1.89-0.25c1.52-0.31,3.04-0.43,4.51,0.24c0.39,0.61,0.78,1.23,1.18,1.84c0.03,0.05,0.14,0.06,0.21,0.08
		c-0.07,0.47-0.14,0.93-0.21,1.4c-0.1,0.1-0.2,0.21-0.3,0.31c-0.09-0.01-0.18-0.02-0.28-0.02c-0.2,0.04-0.41,0.09-0.61,0.13
		c0.01,0.04,0.02,0.08,0.03,0.12c-0.63,0.06-1.27,0.12-1.9,0.17C45.04,27.43,44.79,27.49,44.55,27.55z"/>
	<path class="st3" d="M42.65,23.1c-0.63,0.08-1.26,0.17-1.89,0.25c-0.31,0.08-0.61,0.16-0.92,0.25c-0.2,0.05-0.4,0.11-0.61,0.16
		c0.13,0.09,0.26,0.18,0.38,0.27c0.21,0.81,0.43,1.61,0.63,2.42c0.11,0.45,0.19,0.91,0.28,1.36c0,0.08,0,0.17,0,0.25
		c-1.42,0.08-2.83,0.15-4.25,0.23c-0.4,0-0.8,0-1.2,0c-1.08-0.01-2.16-0.02-3.24-0.03c-0.02-0.05-0.05-0.11-0.08-0.16
		c0.54-0.17,1.09-0.35,1.63-0.52c0.59,0.46,0.72,0.12,0.76-0.43c0.06-0.78,0.14-1.56,0.21-2.34c0.07-0.69-0.2-1.06-0.93-1
		c0.07-0.13,0.13-0.26,0.2-0.38c2.72-0.24,5.43-0.5,8.16-0.71C42.06,22.7,42.36,22.97,42.65,23.1z M37.99,23.62
		c-0.73,0-1.45,0-2.18,0c0.98,0.14,2.02,0.18,1.45,1.68c-0.04,0.11,0.29,0.36,0.46,0.55c0.15-0.2,0.42-0.39,0.42-0.59
		C38.15,24.73,38.05,24.2,37.99,23.62z"/>
	<path class="st4" d="M65.15,23.31c0.15,0,0.31,0,0.46,0c0,0.08,0,0.17,0,0.25c-0.08,1-0.13,2-0.26,3c-0.05,0.36-0.29,0.7-0.44,1.04
		c-0.47,0-0.95-0.08-1.4,0.02c-0.42,0.1-0.81,0.38-1.21,0.59c-0.95-0.05-1.9-0.09-2.85-0.14c-0.08-0.08-0.17-0.17-0.25-0.25
		c0.15-1.55,0.31-3.11,0.46-4.66c1.11,0.02,2.21,0.04,3.32,0.06c0.4,0.02,0.8,0.04,1.2,0.05C64.51,23.28,64.83,23.29,65.15,23.31z"
		/>
	<path class="st2" d="M33.39,27.58c-0.54,0.17-1.09,0.35-1.63,0.52c-0.24,0.06-0.47,0.12-0.71,0.18c-0.55,0-1.09,0-1.64,0
		c-0.32,0-0.64,0-0.97,0c-0.94-0.07-1.89-0.14-2.83-0.22c-0.17-0.05-0.33-0.1-0.5-0.15c0-0.06,0.01-0.11,0.04-0.17
		c0.36-0.12,0.73-0.36,1.08-0.33c0.62,0.05,1.23,0.33,1.85,0.36c0.32,0.01,0.8-0.24,0.93-0.51c0.1-0.22-0.15-0.69-0.35-0.96
		c-0.22-0.29-0.8-0.45-0.84-0.72c-0.21-1.38-0.88-0.87-1.57-0.47c-1.16,0.67-2.4,0.77-3.68,0.41c2.61-0.57,5.22-1.16,7.84-1.69
		c1.06-0.21,2.15-0.28,3.23-0.41c-0.07,0.13-0.14,0.26-0.2,0.39c-0.01,0.07-0.02,0.14-0.02,0.21c-0.08,0.24-0.15,0.48-0.23,0.72
		C33.25,25.7,33.32,26.64,33.39,27.58z M31.1,25.73c-0.06-0.18-0.12-0.37-0.19-0.55c-0.46,0.12-0.93,0.25-1.39,0.37
		c0.13,0.2,0.28,0.58,0.37,0.56C30.31,26.05,30.7,25.87,31.1,25.73z"/>
	<path class="st5" d="M71.52,28.1c-0.15-0.01-0.29-0.01-0.44-0.02c-1.06-0.16-2.13-0.26-3.17-0.49c-0.56-0.12-1.06-0.45-1.59-0.69
		c0.02-0.33,0.04-0.66,0.06-0.98c0.77-1.28,1.99-1.31,3.27-1.17c0.23,0.02,0.47,0,0.71,0c0.79,0.17,1.59,0.33,2.38,0.5
		c0.15,0.07,0.29,0.13,0.44,0.2c0.64,0.08,1.28,0.17,1.93,0.25c0.85,0.13,1.7,0.27,2.54,0.4c0.04,0.11,0.07,0.22,0.11,0.32
		c-0.31,0.16-0.62,0.35-0.94,0.48c-0.65,0.25-1.31,0.46-1.96,0.69c-0.16,0.01-0.31,0.02-0.47,0.03
		C73.33,27.21,72.37,27.35,71.52,28.1z"/>
	<path class="st6" d="M58.06,91.26c-0.71-0.01-1.42-0.01-2.13-0.02c0.33-1.83,0.05-2.11-1.77-1.82c-0.04,0.01-0.08,0-0.12,0
		c0-0.52,0-1.04,0-1.55c-0.15-0.08-0.29-0.15-0.44-0.23c-0.09,0.2-0.18,0.41-0.27,0.61c-0.16,0-0.32,0-0.48,0
		c-0.16,0-0.31-0.01-0.47-0.01c-0.42-0.94-1.03-1.89,0-2.83c1.03-0.73,1.03-1.81,0-2.36c-0.16,0-0.31,0-0.47,0
		c0-0.16-0.01-0.31-0.01-0.47c0.08-0.34,0.33-0.82,0.19-1c-0.67-0.88-0.28-1.87-0.42-2.8c0.24,0,0.47,0,0.71,0
		c0.32,0.63,0.63,1.27,0.95,1.9c-0.25,1.2,0.2,2.32,0.33,3.47c0.15,1.32,0.64,2.36,1.33,3.4c0.5,0.76,1.09,1.34,2.09,1.19
		c0.09,0.15,0.18,0.31,0.28,0.46c0.02,0.74,0.32,0.93,0.94,0.47c0.06,0.25,0.19,0.51,0.15,0.74C58.38,90.7,58.19,90.97,58.06,91.26z
		"/>
	<path class="st1" d="M51.82,31.84c0.01,0.09,0.03,0.17,0.04,0.26c-0.62-0.08-1.24-0.15-1.86-0.23c-0.52-0.17-1.03-0.33-1.55-0.5
		c0-1.17-0.01-2.34-0.01-3.51c0.6-0.37,0.25-0.55-0.15-0.72c-0.06-0.04-0.07-0.09-0.03-0.14c0.76-0.12,1.53-0.35,2.29-0.32
		c1.36,0.06,0.43-1.49,1.3-1.71c0.02,0.4,0.04,0.8,0.06,1.2c0,0.17-0.01,0.33-0.01,0.5c-0.02,0.3-0.04,0.61-0.06,0.91
		c-0.02,0.72-0.04,1.43-0.06,2.15C51.06,30.44,51.42,31.14,51.82,31.84z"/>
	<path class="st3" d="M50,31.87c0.62,0.08,1.24,0.15,1.86,0.23c0.14,0.36,0.39,0.72,0.4,1.09c0.1,3.15,0.16,6.29,0.2,9.44
		c0,0.29-0.18,0.58-0.28,0.87c-0.17-0.01-0.35-0.01-0.52-0.02c0.08-0.56,0.15-1.13,0.23-1.69c0-0.06,0-0.12,0-0.18
		c0.1-0.98,0.2-1.96,0.3-2.94c-0.14-0.01-0.27-0.02-0.41-0.03c-0.04,0.27-0.08,0.54-0.12,0.82c-0.31-0.05-0.62-0.09-1.07-0.16
		c0.34-0.57,0.57-0.95,0.78-1.3c-0.41-0.82-1.98,0.09-1.85-1.36c0.32-0.23,0.64-0.47,0.97-0.7c0.34-0.4,0.81-0.75,0.99-1.22
		c0.21-0.54,0.27-1.2,0.18-1.77c-0.04-0.24-0.64-0.39-0.98-0.58c-0.15,0.43-0.3,0.85-0.44,1.29c-0.03,0.11-0.01,0.23-0.01,0.35
		c-0.41,0.08-0.83,0.14-1.23,0.26c-0.22,0.07-0.41,0.24-0.62,0.37c0.14,0.2,0.3,0.38,0.41,0.59c0.18,0.38,0.33,0.77,0.49,1.16
		c-0.38-0.16-0.76-0.32-1.14-0.48c-0.07-0.16-0.14-0.33-0.21-0.49c0.14-0.71,0.27-1.41,0.41-2.12C48.88,32.81,49.44,32.34,50,31.87z
		"/>
	<path class="st7" d="M11.61,51.5c0.52-1.95,1.01-3.91,1.58-5.85c0.64-2.19,1.31-4.37,2.04-6.52c0.73-2.12,1.55-4.21,2.34-6.32
		c0.38,0,0.76-0.01,1.14-0.01c-0.02,0.17-0.03,0.34-0.05,0.52c-0.22,0.31-0.43,0.62-0.65,0.93c-0.08,0.15-0.15,0.31-0.23,0.46
		c-0.12,0.24-0.23,0.48-0.35,0.72c-0.1,0.19-0.21,0.38-0.31,0.58c-0.08,0.3-0.14,0.61-0.24,0.91c-0.74,2.18-1.51,4.35-2.22,6.54
		c-0.57,1.77-1.07,3.56-1.61,5.34c-0.3,0.99-0.64,1.98-0.96,2.96C11.93,51.67,11.77,51.59,11.61,51.5z"/>
	<path class="st8" d="M22.56,25.53c1.28,0.36,2.51,0.26,3.68-0.41c0.69-0.4,1.36-0.91,1.57,0.47c0.04,0.27,0.62,0.43,0.84,0.72
		c0.21,0.27,0.46,0.74,0.35,0.96c-0.13,0.27-0.61,0.53-0.93,0.51c-0.62-0.03-1.23-0.32-1.85-0.36c-0.35-0.03-0.72,0.21-1.08,0.33
		c-1.19-0.13-2.37-0.27-3.56-0.4c-0.21-0.05-0.42-0.1-0.63-0.15c-0.03-0.19-0.06-0.37-0.08-0.56c0.07-0.37,0.14-0.75,0.21-1.12
		C21.59,25.53,22.07,25.53,22.56,25.53z"/>
	<path class="st9" d="M75.03,55.58c-0.16,0.1-0.44,0.17-0.47,0.29c-0.41,1.66-0.75,3.33-1.19,4.98c-0.21,0.78-2.02,8.83-2.32,9.59
		c-0.08-0.47,1.14-8.28,1.23-8.73c0.45-2.28,0.94-4.55,1.5-6.81c0.31-1.23,0.78-2.43,1.17-3.64c0.21,0.23,0.4,0.47,0.62,0.69
		c0.18,0.18,0.39,0.34,0.58,0.51c-0.16,1.24-0.33,2.48-0.49,3.72C75.45,55.98,75.24,55.78,75.03,55.58z"/>
	<path class="st10" d="M51.88,41.6c0,0.06,0,0.12,0,0.18c-0.24,0.01-0.48,0.03-0.72,0.04c-0.79-0.5-1.58-0.99-2.56-0.96
		c-0.19-0.31-0.38-0.62-0.56-0.93c-0.05-0.16-0.09-0.31-0.14-0.47c0.07-1.19,0.15-2.38,0.22-3.57c0.38,0.16,0.76,0.32,1.14,0.48
		c0.08,0.08,0.17,0.16,0.25,0.25c-0.13,1.45,1.44,0.54,1.85,1.36c-0.21,0.35-0.44,0.74-0.78,1.3c0.45,0.07,0.76,0.11,1.07,0.16
		C51.73,40.16,51.81,40.88,51.88,41.6z"/>
	<path class="st11" d="M51.65,20.96c0.01,0.32,0.01,0.63,0.02,0.95c-0.08,0.33-0.16,0.66-0.25,0.98c-0.87,0.94-1.87,0.29-2.82,0.22
		c-0.1-0.01-0.21-0.02-0.31-0.03c-0.08-1.62-0.17-3.25-0.25-4.87c0.04-0.11,0.07-0.22,0.11-0.32c0.22,0,0.45,0,0.67,0.01
		c0,0,0,0,0,0c0.15,0.24,0.31,0.47,0.46,0.71c0.15,0.23,0.26,0.5,0.46,0.68C50.35,19.86,51.01,20.4,51.65,20.96z"/>
	<path class="st3" d="M48.61,40.85c0.98-0.03,1.77,0.46,2.56,0.96c-0.18,0.91-0.36,1.82-0.53,2.73c-0.06,0.33-0.09,0.66-0.11,1
		c-0.03,0.5-0.04,0.99-0.05,1.49c-0.32,0.16-0.63,0.31-0.95,0.47c0-0.4,0-0.79,0.01-1.19c-0.16-0.24-0.32-0.48-0.48-0.72
		c-0.21-0.73,0.75-1.59-0.47-2.5c0,1.01,0,1.75,0,2.49c-0.18,0.01-0.36,0.02-0.54,0.03c-0.01-0.88-0.02-1.76-0.03-2.64
		C49.22,42.56,48.49,41.59,48.61,40.85z"/>
	<path class="st12" d="M76.15,52.46c-0.19-0.17-0.4-0.33-0.58-0.51c-0.22-0.22-0.42-0.46-0.62-0.69c0.01-0.14,0.03-0.28,0.04-0.43
		c0.32-0.23,0.63-0.46,1.24-0.89c-0.26-0.42-0.59-0.97-0.91-1.51c0.42-2.05,0.83-4.09,1.25-6.14c0.17,0.5,0.47,0.48,0.83,0.21
		c-0.16,1.34-0.32,2.68-0.49,4.02c-0.07,0.24-0.15,0.48-0.22,0.71c-0.1,1.26-0.2,2.52-0.3,3.78c-0.06,0.16-0.11,0.32-0.17,0.49
		C76.19,51.83,76.17,52.15,76.15,52.46z"/>
	<path class="st4" d="M54.03,89.42c0.04,0,0.08,0.01,0.12,0c1.83-0.29,2.1-0.01,1.77,1.82c-2.45,0.08-4.89,0.17-7.34,0.25
		c-0.08-0.14-0.15-0.28-0.23-0.42c0.69,0,1.39,0.07,2.06-0.02c0.28-0.04,0.51-0.44,0.77-0.67c0-0.24,0.01-0.49,0.01-0.73
		c1.01,0.08,1.58-0.37,1.64-1.4c0.16,0,0.32,0,0.48,0c-0.03,0.6-0.07,1.21-0.11,1.88c0.22-0.04,0.42-0.02,0.5-0.11
		C53.86,89.85,53.93,89.62,54.03,89.42z"/>
	<path class="st13" d="M6.83,73.38c-0.16-0.62-1.29-0.85-0.71-1.77c0.92,0,1.84,0,2.76,0c0.91-0.07,1.82-0.15,2.73-0.22
		c-0.06,0.6-0.13,1.2-0.19,1.8c0.12,0.02,0.23,0.05,0.35,0.07c0.2-0.34,0.39-0.68,0.59-1.02c0.08,0.02,0.16,0.04,0.24,0.05
		c0,0.49,0,0.98,0,1.47c-0.03,0.07-0.06,0.13-0.07,0.21c-0.17-0.02-0.34-0.03-0.51-0.05C10.29,73.74,8.56,73.56,6.83,73.38z"/>
	<path class="st14" d="M46.69,91.36c-1.5,0.03-3.01,0.06-4.51,0.09c0.08-0.59,0.16-1.19,0.25-1.78c0.47-0.39,0.95-0.78,1.42-1.18
		c0.47-0.08,0.95-0.16,1.42-0.25c0.47,0.24,0.95,0.47,1.42,0.71c0,0.15,0.01,0.31,0.01,0.46C46.7,90.06,46.7,90.71,46.69,91.36z
		 M45.96,90.22c0.11-0.19,0.22-0.37,0.33-0.56c-0.41-0.21-0.82-0.44-1.25-0.61c-0.07-0.02-0.26,0.29-0.39,0.44
		C45.08,89.74,45.52,89.98,45.96,90.22z"/>
	<path class="st12" d="M53.32,80.67c-0.32-0.63-0.63-1.27-0.95-1.9c0.08-0.08,0.16-0.16,0.23-0.24c0.96-0.11,0.66-0.86,0.71-1.42
		c-0.06-1.04-0.13-2.09-0.19-3.13c-0.01-0.13-0.02-0.26-0.03-0.4c0-0.09,0-0.19,0-0.28c-0.05-0.66,0.28-1.56-0.96-1.42
		c-0.24-0.87-0.48-1.74-0.72-2.6c0-0.23,0-0.46,0.01-0.69c0.28,0,0.56,0.01,0.85,0.01c1.3,2.12,1.41,4.53,1.61,6.91
		c0.09,1.09,0.02,2.19,0.03,3.29C52.73,79.11,53.56,80.05,53.32,80.67z"/>
	<path class="st15" d="M51.65,20.96c-0.64-0.56-1.3-1.11-1.92-1.69c-0.19-0.18-0.31-0.45-0.46-0.68c-0.15-0.24-0.31-0.47-0.46-0.71
		c0,0,0,0,0,0c-0.16-0.48-0.32-0.96-0.48-1.44c0-0.07-0.01-0.14-0.02-0.2c0.12-0.46,0.25-0.92,0.4-1.49
		c1.03,1.03,1.23,2.68,2.93,2.67c0.07,0.07,0.14,0.15,0.21,0.22C51.78,18.75,51.72,19.86,51.65,20.96z"/>
	<path class="st14" d="M92.83,71.44c-0.17-0.09-0.34-0.18-0.5-0.27c-0.66-2.46-1.34-4.93-1.99-7.4c-0.28-1.06-0.4-2.17-0.74-3.21
		c-0.22-0.69-0.05-1.1,0.51-1.17C90.99,63.32,91.95,67.51,92.83,71.44z"/>
	<path class="st16" d="M48.59,62.19c0.29-0.04,0.58-0.08,0.87-0.13c-0.28-0.65-0.52-1.21-0.76-1.78c0.13-0.09,0.25-0.18,0.38-0.27
		c0.36,0.28,0.71,0.56,1.27,0.99c0.53,0.29,0.34-1.65,1.31-0.74c0,0.08,0,0.17,0,0.25c0,0-0.01,0.01-0.01,0.01
		c-1.06,0.71-1.35,1.74-0.95,3.32c-0.24,0.29-0.62,0.55-0.68,0.88c-0.2,1.09-0.69,1.69-1.87,1.48c-0.06-0.47-0.11-0.95-0.17-1.42
		c0.03-0.24,0.06-0.47,0.09-0.71C49.64,63.82,48.61,62.87,48.59,62.19z"/>
	<path class="st17" d="M53.32,80.67c0.24-0.61-0.59-1.56,0.59-1.88c0.03,0.31,0.05,0.62,0.08,0.94c0.12,0.72,0.25,1.43,0.37,2.15
		c0.1,0.79,0.21,1.57,0.31,2.36c0.04,0.16,0.09,0.32,0.13,0.49c0.49,1.43,0.95,2.87,2.56,3.47c-0.1,0.18-0.19,0.36-0.29,0.54
		c-1.01,0.14-1.59-0.43-2.09-1.19c-0.68-1.04-1.18-2.08-1.33-3.4C53.52,82.98,53.06,81.87,53.32,80.67z"/>
	<path class="st18" d="M57.06,88.73c0.1-0.18,0.19-0.36,0.29-0.54c1.64,0.32,3.37,0.41,4.49,1.94c0.29,0.24,0.58,0.48,0.87,0.72
		c-0.23,0.17-0.46,0.47-0.69,0.47c-1.32,0.02-2.64-0.03-3.97-0.06c0.13-0.29,0.32-0.56,0.38-0.86c0.04-0.23-0.1-0.49-0.15-0.74
		c-0.31-0.16-0.63-0.31-0.94-0.47C57.25,89.04,57.16,88.88,57.06,88.73z"/>
	<path class="st11" d="M45.52,84.22c0.08-0.79,0.17-1.57,0.25-2.36c0.07,0,0.13-0.01,0.2-0.02c0.13,0.26,0.26,0.52,0.42,0.85
		c0.73-0.36,1.45-0.72,2.18-1.08c0.09,0.31,0.18,0.62,0.26,0.93c-0.07,0.41-0.15,0.82-0.24,1.32c0.34,0.04,0.63,0.08,0.92,0.12
		c0.07,0.15,0.14,0.31,0.21,0.46c0,0.23,0,0.47,0,0.7c-0.76,0-1.52,0-2.28,0c-0.25,0-0.51,0-0.76,0
		C46.29,84.84,45.91,84.53,45.52,84.22z"/>
	<path class="st9" d="M51.64,17.43c-1.69,0.01-1.9-1.64-2.93-2.67c-0.15,0.57-0.28,1.03-0.4,1.49c-0.24-0.01-0.48-0.02-0.72-0.02
		c0-0.23,0-0.46,0-0.7c0.25-0.56,0.5-1.12,0.75-1.67c0.04-0.07,0.08-0.14,0.11-0.21c0.14-0.1,0.28-0.2,0.42-0.3
		c0.46,0.41,0.95,0.64,1.54,0.24c0.14,0.1,0.28,0.2,0.42,0.3c0.06,0.05,0.11,0.11,0.13,0.19c0.24,0.4,0.47,0.81,0.71,1.21
		c0.02,0.35,0.04,0.71,0.06,1.06C51.7,16.71,51.67,17.07,51.64,17.43z"/>
	<path class="st17" d="M78.49,29.5c0.05-0.56,0.11-1.11,0.16-1.67c0.08-0.16,0.15-0.32,0.23-0.48c-0.15-0.62-0.3-1.24-0.46-1.86
		c0.52,0.05,1.04,0.09,1.55,0.16c0.33,0.04,0.66,0.14,0.99,0.21c-0.22,0.35-0.37,0.77-0.67,1.02c-0.68,0.56-0.67,1,0.05,1.46
		c0.07,0.06,0.09,0.13,0.06,0.22c-0.17,0.6-1.65,0.55-0.82,1.65c-0.16,0.73-0.33,1.47-0.49,2.2c-0.26-0.18-0.51-0.37-0.77-0.55
		c0.01-0.55,0.02-1.1,0.03-1.65C78.4,29.97,78.44,29.74,78.49,29.5z"/>
	<path class="st13" d="M26.7,73.42c-1.22,0.18-2.44,0.36-3.66,0.54c-0.01-0.13-0.03-0.26-0.04-0.38c0-0.77,0-1.55,0-2.32
		c0.56,0.05,1.11,0.11,1.67,0.16c0.84,0.46,1.63,0.32,2.38-0.22C26.91,71.93,27.51,72.79,26.7,73.42z"/>
	<path class="st16" d="M78.42,25.5c0.15,0.62,0.3,1.24,0.46,1.86c-0.24,0-0.47,0.01-0.71,0.01c-0.99,0.11-1.98,0.22-2.96,0.33
		c-0.12-0.04-0.24-0.08-0.36-0.11c0.65-0.23,1.31-0.44,1.96-0.69c0.33-0.13,0.63-0.32,0.94-0.48c-0.04-0.11-0.07-0.22-0.11-0.32
		c-0.85-0.13-1.7-0.27-2.54-0.4c-0.57-0.63-1.18-1-1.93-0.25c-0.15-0.07-0.29-0.13-0.44-0.2c-0.01-0.27-0.02-0.55-0.03-0.82
		c1.25,0.26,2.49,0.55,3.74,0.76c0.64,0.11,1.31,0.06,1.96,0.08C78.41,25.34,78.42,25.42,78.42,25.5z"/>
	<path class="st19" d="M8.88,71.6c-0.92,0-1.84,0-2.76,0c1.15-0.7,0.84-2.04,1.32-3.04c0.16-0.34,0.21-0.73,0.32-1.09
		c0.09-0.3,0.19-0.59,0.28-0.89c0.2-1.37,0.38-2.73,0.62-4.09c0.04-0.21,0.31-0.38,0.48-0.58c0.21-0.07,0.41-0.14,0.62-0.21
		c-0.67,2.75-1.34,5.51-2.01,8.26c-0.16,0.65-0.31,1.28,0.71,1.31C8.59,71.28,8.74,71.49,8.88,71.6z"/>
	<path class="st3" d="M52.18,53.05c-0.08-0.19-0.16-0.39-0.24-0.58c-0.02-0.63-0.04-1.26-0.06-1.89c-0.08-0.32-0.17-0.64-0.25-0.96
		c-0.07-0.87-0.14-1.73-0.22-2.6c0.08-0.95,0.16-1.9,0.24-2.85c0.18-0.01,0.36-0.02,0.54-0.03c0.09,0.32,0.27,0.63,0.27,0.95
		c0.04,2.25,0.07,4.51,0.05,6.77C52.52,52.26,52.3,52.66,52.18,53.05z"/>
	<path class="st15" d="M71.32,71.06c0.63-0.03,1.25-0.07,1.88-0.1c0.24,0.09,0.49,0.18,0.73,0.28c-0.14,0.27-0.3,0.53-0.42,0.81
		c-0.48,1.04-0.97,1.1-2.06,0.15c-0.04,0.42-0.08,0.83-0.13,1.25c-0.63-0.46-1.31-0.87-1.83-1.44c-0.1-0.11,0.45-0.82,0.69-1.25
		c0.22,0.07,0.43,0.14,0.65,0.21c0.07,0.12,0.13,0.24,0.2,0.37C71.13,71.23,71.22,71.15,71.32,71.06z"/>
	<path class="st2" d="M51.91,26.16c-0.02-0.4-0.04-0.8-0.06-1.2c0.02-0.47,0.03-0.93,0.05-1.4c0.24-0.15,0.47-0.31,0.71-0.46
		c0.29-0.01,0.58-0.02,0.86-0.03c0.1-0.03,0.2-0.07,0.3-0.1c0.24-0.03,0.48-0.06,0.73-0.1c0,0.07,0,0.15,0,0.22
		c-0.13,0.57-0.45,1.19,0.45,1.44c0.07,0.46,0.14,0.92,0.22,1.39c-0.19-0.03-0.46,0.02-0.56-0.09c-0.78-0.82-1.48-0.74-2.16,0.12
		C52.33,26.08,52.09,26.09,51.91,26.16z"/>
	<path class="st20" d="M21.75,34c0.12,0.94,0.24,1.89,0.36,2.83c0.13,0.56,0.26,1.12,0.39,1.68c0.04,0.54,0.09,1.09,0.13,1.63
		c0.14,0.63,0.27,1.25,0.41,1.88c0.05,0.25,0.11,0.5,0.16,0.75c0.01,0.15,0.02,0.3,0.04,0.45c-0.33,0.1-0.66,0.19-1,0.29
		c-0.06-0.02-0.11-0.04-0.17-0.05c-0.17-1.5-0.34-2.99-0.5-4.49c-0.09-1.66-0.18-3.32-0.27-4.97C21.45,34,21.6,34,21.75,34z"/>
	<path class="st1" d="M48.15,66.2c1.18,0.21,1.67-0.4,1.87-1.48c0.06-0.32,0.44-0.59,0.68-0.88c0.07,0.47,0.14,0.93,0.21,1.4
		c-0.15,0.32-0.29,0.64-0.44,0.97c-0.01,0.39-0.02,0.78-0.03,1.17c-0.74,0.07-1.36,0.23-1.45,1.18c-0.02,0.2-0.54,0.36-0.84,0.54
		l-0.07-0.07c-0.03-0.39-0.07-0.78-0.1-1.17c0.01-0.24,0.01-0.48,0.02-0.73c0-0.15,0-0.31,0-0.46
		C48.06,66.53,48.11,66.37,48.15,66.2z"/>
	<path class="st20" d="M25.11,60.59c0.07,0.53,0.13,1.07,0.2,1.6c-0.27,0-0.54,0-0.81,0c-0.15-0.8-0.35-1.6-0.44-2.4
		c-0.19-1.73-0.33-3.46-0.5-5.2c0.22,0,0.43,0,0.65,0c0.17,1.27,0.33,2.53,0.5,3.8c0,0.16,0,0.31-0.01,0.47
		C24.85,59.44,24.98,60.02,25.11,60.59z"/>
	<path class="st20" d="M27.06,71.19c-0.75,0.54-1.54,0.68-2.39,0.22c0-0.07,0-0.15,0-0.22c0.75-0.14,0.77-0.64,0.64-1.25
		c-0.4-1.86,0.18-3.87-0.84-5.63c0.35,0.32,0.7,0.63,1.05,0.95c0.13,0.74,0.28,1.47,0.38,2.22c0.11,0.89,0.09,1.8,0.28,2.67
		c0.07,0.34,0.58,0.58,0.89,0.87C27.07,71.07,27.07,71.13,27.06,71.19z"/>
	<path class="st9" d="M83.69,39.92c-0.16-0.48-0.32-0.97-0.48-1.45c0.22-0.08,0.44-0.17,0.66-0.25c0.63,1.88,1.27,3.77,1.9,5.65
		c-0.16,0.1-0.33,0.2-0.49,0.3c-0.54-1.34-1.08-2.68-1.61-4.03c0.03-0.02,0.07-0.04,0.07-0.06C83.73,40.03,83.71,39.98,83.69,39.92z
		"/>
	<path class="st7" d="M22.24,43.52c0.33-0.1,0.66-0.19,1-0.29c0.29,1.02,0.57,2.25,0.85,3.27c-0.04,0.09,0,0.41-0.05,0.5
		c-0.21-0.05-0.49-0.53-0.69-0.58c0.03,0.2,0.06,0.41,0.09,0.61c0.02,0.39,0.03,0.78,0.05,1.18c-0.15,0.31-0.31,0.62-0.46,0.93
		C22.77,47.26,22.5,45.39,22.24,43.52z"/>
	<path class="st19" d="M28.49,70.73c-0.49-2.22-0.97-4.43-1.46-6.65c0.16-0.08,0.33-0.16,0.49-0.25c0.38,1.1,0.8,2.18,1.12,3.29
		c0.34,1.16,0.58,2.35,0.86,3.52C29.16,70.67,28.82,70.7,28.49,70.73z"/>
	<path class="st19" d="M23.01,73.57c0.01,0.13,0.03,0.26,0.04,0.38c-0.55,0-1.1,0-1.64,0.01c-2.74,0.06-5.49,0.12-8.23,0.16
		c-0.21,0-0.43-0.11-0.64-0.16c0.01-0.07,0.04-0.14,0.07-0.2c0.15,0.01,0.3,0.01,0.45,0.01c2.92-0.15,5.84-0.29,8.76-0.44
		C22.21,73.42,22.61,73.49,23.01,73.57z"/>
	<path class="st12" d="M48.57,81.61c-0.72,0.36-1.45,0.72-2.18,1.08c-0.16-0.32-0.29-0.59-0.42-0.85c-0.01-0.48-0.01-0.95-0.02-1.43
		c0.04,0.02,0.09,0.04,0.14,0.05c0.05-0.17,0.09-0.34,0.14-0.5c0.02-0.31,0.03-0.61,0.05-0.92c0.06,0,0.12-0.01,0.17-0.04
		c0.3,0.15,0.59,0.31,0.79,0.41c0.06,0.57,0.12,1.08,0.18,1.58c0.39-0.18,0.77-0.37,1.16-0.54c0.07-0.03,0.15-0.01,0.23-0.01
		C48.72,80.82,48.65,81.22,48.57,81.61z"/>
	<path class="st3" d="M78.32,31.86c0.26,0.18,0.51,0.37,0.77,0.55c0.24,0.05,0.48,0.1,0.72,0.16c0.31,0.32,0.63,0.63,0.94,0.95
		c-0.17,0.66-0.29,2.35-0.46,3.01c-0.3-0.18-0.64-1.39-0.94-1.57c0.11-0.35,0.21-0.7,0.34-1.11c-0.22-0.04-0.44-0.08-0.66-0.12
		c-0.14-0.21-0.28-0.41-0.5-0.74c-0.11,0.5-0.18,0.79-0.24,1.08c-0.16,0.06-0.32,0.11-0.48,0.17
		C77.98,33.45,78.15,32.65,78.32,31.86z"/>
	<path class="st19" d="M90.2,59.75c-0.39-0.47-0.56,0.95-0.72,0.42c-0.5-1.64-1.41-5.8-1.81-7.48c0.22,0.08,0.45,0.17,0.67,0.25
		c0.51,1.34,1.16,2.63,1.22,4.13C89.59,57.76,90.04,59.07,90.2,59.75z"/>
	<path class="st19" d="M11.61,51.5c0.16,0.09,0.32,0.17,0.48,0.26c-0.22,0.77-0.45,1.53-0.65,2.3c-0.35,1.36-0.68,2.73-1.02,4.1
		c-0.22,0-0.43,0-0.65,0C10.39,55.94,11,53.72,11.61,51.5z"/>
	<path class="st14" d="M48.04,45.62c0.18-0.01,0.36-0.03,0.54-0.04l0,0.02c0,0.18,0,0.36,0,0.54c0,1.33,0,2.66,0,3.99
		c-0.09,1.43-0.17,2.85-0.26,4.28c-0.09-0.01-0.19-0.01-0.28-0.02c-0.07-2.04-0.15-4.07-0.22-6.11c0-0.45,0-0.89,0-1.34
		C47.89,46.49,47.97,46.06,48.04,45.62z"/>
	<path class="st0" d="M49.9,8.96c0.11,0.21,0.22,0.42,0.34,0.63c0.07,0.19,0.14,0.38,0.21,0.57c0.07,0.28,0.14,0.55,0.2,0.83
		c-0.07,0.08-0.15,0.17-0.22,0.25c-0.41-0.03-0.82-0.06-1.11-0.08c-0.28,0.31-0.52,0.56-0.75,0.81c0.09-1.01,0.18-2.03,0.28-3.04
		C49.2,8.93,49.55,8.94,49.9,8.96z"/>
	<path class="st4" d="M45.52,84.22c0.39,0.31,0.77,0.62,1.16,0.93c0.02,0.51,0.07,1.02,0.07,1.53c0,0.76-0.04,1.51-0.06,2.27
		c-0.47-0.24-0.95-0.47-1.42-0.71c0.23-0.14,0.68-0.32,0.66-0.43c-0.14-0.91-0.37-1.82-0.57-2.72
		C45.41,84.8,45.47,84.51,45.52,84.22z"/>
	<path class="st8" d="M51.91,26.16c0.18-0.07,0.42-0.08,0.53-0.21c0.69-0.86,1.38-0.94,2.16-0.12c0.11,0.11,0.37,0.07,0.57,0.09
		c-0.24,0.41-0.48,0.81-0.72,1.22c-0.14,0.12-0.29,0.23-0.43,0.35c-0.31-0.06-0.62-0.12-0.93-0.18c-0.4-0.21-0.8-0.43-1.19-0.64
		C51.9,26.5,51.91,26.33,51.91,26.16z"/>
	<path class="st9" d="M54.5,23.1c0-0.07,0-0.15,0-0.22c0.64-0.08,1.29-0.26,1.93-0.24c1.95,0.05,3.89,0.16,5.84,0.28
		c0.25,0.01,0.48,0.19,0.72,0.3c-1.11-0.02-2.21-0.04-3.32-0.06c-0.22,0-0.44,0-0.66,0c-0.17,0.06-0.34,0.12-0.51,0.18
		c-1.19-0.07-2.37-0.15-3.56-0.22C54.8,23.11,54.65,23.1,54.5,23.1z"/>
	<path class="st7" d="M25.12,51.41c0.2,1.17,0.39,2.33,0.59,3.5c0.05,0.16,0.1,0.32,0.15,0.48c-0.02,0.14-0.03,0.28-0.05,0.42
		c-0.06,0.18-0.11,0.35-0.17,0.53c-0.24-0.19-0.65-0.35-0.69-0.57c-0.23-1.47-0.37-2.95-0.54-4.42c0.09-0.47-0.63-5.29-0.55-5.76
		c0.02,0.3,0.57,2.81,0.59,3.12C24.6,48.9,24.99,51.23,25.12,51.41z"/>
	<path class="st12" d="M78.42,25.5c-0.01-0.08-0.01-0.16-0.02-0.24c0.83-0.11,1.69-0.41,2.48-0.29c0.88,0.14,0.88,1.3,0.14,2.08
		c-0.32,0.34-0.46,0.86-0.69,1.29c-0.72-0.46-0.73-0.91-0.05-1.46c0.3-0.25,0.45-0.67,0.67-1.02c-0.33-0.07-0.65-0.17-0.99-0.21
		C79.46,25.58,78.94,25.55,78.42,25.5z"/>
	<path class="st14" d="M81.97,32.09c0.06,0.47,1.12,3.7,1.18,4.17c-0.21-0.14-1.43-3.05-1.65-3.17c-0.17-0.09-0.35-0.17-0.52-0.25
		c-0.07,0.23-0.14,0.45-0.22,0.68c-0.31-0.32-0.63-0.63-0.94-0.95c0.45-0.72,0.9-1.43,1.34-2.15C81.43,30.98,81.7,31.53,81.97,32.09
		z"/>
	<path class="st4" d="M20.88,26.65c0.03,0.19,0.06,0.37,0.08,0.56c0.11,0.76,0.21,1.53,0.32,2.29c0.01,0.08,0.02,0.16,0.02,0.23
		c-0.02,0.23-0.04,0.46-0.06,0.69c-0.33,0.04-0.65,0.09-0.88,0.12c-0.23-0.96-0.44-1.84-0.64-2.71c-0.04-0.3-0.09-0.59-0.13-0.89
		C20.02,26.85,20.45,26.75,20.88,26.65z"/>
	<path class="st18" d="M66.38,25.92c-0.02,0.33-0.04,0.66-0.06,0.98c0.01,0.32,0.02,0.64,0.02,0.95c0.02,0.1,0.04,0.2,0.06,0.29
		c-0.42,0.01-0.84,0.01-1.27,0.02c-0.07-0.19-0.15-0.38-0.22-0.57c0.15-0.35,0.39-0.68,0.44-1.04c0.13-0.99,0.18-2,0.26-3
		c0.22,0.03,0.45,0.05,0.67,0.08c0.04,0.15,0.09,0.3,0.13,0.44C66.41,24.7,66.39,25.31,66.38,25.92z"/>
	<path class="st11" d="M85.28,44.18c0.16-0.1,0.33-0.2,0.49-0.3c0.38,1.48,0.77,2.96,1.15,4.45c0.08,0.29,0.15,0.59,0.23,0.88
		c-0.01,0.09-0.03,0.19-0.04,0.28c-0.25-0.43-0.57-0.84-0.73-1.31c-0.37-1.09-0.67-2.2-0.99-3.31c0.01-0.02,0.05-0.05,0.04-0.07
		c-0.01-0.05-0.04-0.09-0.06-0.14C85.34,44.5,85.31,44.34,85.28,44.18z"/>
	<path class="st15" d="M43.85,88.49c-0.47,0.39-0.95,0.78-1.42,1.18c-0.4,0.16-0.79,0.32-1.19,0.48c-0.39,0.16-0.78,0.31-1.17,0.47
		c-0.25-0.36-0.49-0.72-0.74-1.08c0.51-0.22,1.02-0.44,1.53-0.66c0.2-0.04,0.41-0.09,0.61-0.13c0.3-0.02,0.59-0.03,0.89-0.05
		c0.5-0.15,1-0.29,1.5-0.44C43.85,88.32,43.85,88.4,43.85,88.49z"/>
	<path class="st13" d="M28.49,70.73c0.34-0.03,0.67-0.05,1.01-0.08c0.28,0.34,0.87,0.8,0.79,1.01c-0.28,0.77-0.48,1.75-1.61,1.8
		c-0.08-0.87-0.15-1.73-0.23-2.6C28.41,70.8,28.43,70.75,28.49,70.73z"/>
	<path class="st15" d="M48.57,11.96c0.23-0.25,0.46-0.5,0.75-0.81c0.29,0.02,0.7,0.05,1.11,0.08c0.08,0.09,0.17,0.18,0.25,0.27
		c0.01,0.08,0.01,0.16-0.01,0.23c-0.04,0.26-0.09,0.52-0.13,0.77c-0.01,0.2-0.02,0.4-0.03,0.6c-0.03,0.16-0.07,0.32-0.1,0.48
		c-0.59,0.4-1.08,0.18-1.54-0.24c-0.11-0.38-0.22-0.77-0.33-1.15C48.55,12.12,48.56,12.04,48.57,11.96z"/>
	<path class="st21" d="M20.88,26.65c-0.43,0.1-0.86,0.19-1.29,0.29c-0.27-0.02-0.54-0.05-0.82-0.07c-0.17-0.43-0.34-0.87-0.51-1.3
		c0.44-0.06,0.89-0.17,1.33-0.18c0.5,0,1,0.09,1.49,0.14C21.03,25.91,20.96,26.28,20.88,26.65z"/>
	<path class="st13" d="M85.24,73.7c0.5-0.13,0.99-0.33,1.49-0.37c0.89-0.08,2.06,0.43,1.96-1.32c0.82,0.67,1.44,1.17,2.05,1.68
		C88.91,73.69,87.08,73.69,85.24,73.7z"/>
	<path class="st6" d="M43.85,88.49c0-0.08,0-0.16,0-0.25c0.01-0.12,0.02-0.24,0.03-0.35c0.49-0.93,0.98-1.86,1.47-2.8
		c0.2,0.91,0.43,1.81,0.57,2.72c0.02,0.1-0.43,0.28-0.66,0.43C44.79,88.32,44.32,88.4,43.85,88.49z"/>
	<path class="st15" d="M28.44,70.86c0.08,0.87,0.15,1.73,0.23,2.6c-0.66-0.01-1.31-0.02-1.97-0.04c0.81-0.63,0.2-1.49,0.35-2.23
		c0.02-0.06,0.02-0.12,0-0.18C27.52,70.96,27.98,70.91,28.44,70.86z"/>
	<path class="st11" d="M19.73,27.83c0.21,0.88,0.42,1.75,0.64,2.71c0.22-0.03,0.55-0.07,0.88-0.12c0.04,0.24,0.08,0.48,0.12,0.72
		c-0.02,0.16-0.04,0.31-0.06,0.47c-0.09,0.03-0.19,0.05-0.28,0.08c-0.12-0.26-0.25-0.51-0.37-0.77c-0.17,0.08-0.35,0.16-0.52,0.24
		c-0.07-0.02-0.13-0.02-0.2,0c-0.34-0.59-0.69-1.19-1.03-1.78c0.05-0.11,0.1-0.23,0.15-0.34c0.06-0.16,0.13-0.32,0.19-0.48
		c0.05-0.23,0.09-0.46,0.14-0.69C19.51,27.85,19.62,27.84,19.73,27.83z"/>
	<path class="st6" d="M77.39,42.51c-0.36,0.27-0.66,0.29-0.83-0.21c0.05-0.56,0.11-1.11,0.16-1.67c0.07-0.27,0.14-0.55,0.21-0.82
		c0.12-0.67,0.24-1.34,0.35-2.02c1.02,0.09,0.24,0.96,0.57,1.34c-0.08,0.72-0.16,1.44-0.24,2.16
		C77.55,41.71,77.47,42.11,77.39,42.51z"/>
	<path class="st19" d="M70.83,70.95c-0.22-0.07-0.43-0.14-0.65-0.21c0.3-1.31,0.57-2.62,0.91-3.92c0.08-0.31,0.44-0.54,0.67-0.81
		c-0.09,0.79-0.17,1.58-0.28,2.37c-0.11,0.84-0.24,1.68-0.37,2.52C71.03,70.92,70.93,70.94,70.83,70.95z"/>
	<path class="st12" d="M77.86,39.14c-0.34-0.39,0.44-1.25-0.57-1.34c0.05-0.23,0.09-0.46,0.14-0.69c0.06-0.2,0.13-0.4,0.19-0.6
		c0.07-0.75,0.13-1.51,0.2-2.26c0.16-0.06,0.32-0.11,0.48-0.17C78.51,35.8,78.67,37.51,77.86,39.14z"/>
	<path class="st3" d="M54.02,27.49c0.14-0.12,0.29-0.23,0.43-0.35c1.2,0.09,2.39,0.17,3.58,0.26c0.06,0.01,0.12,0.02,0.18,0.03
		c0.33,0.13,0.67,0.25,1,0.38c0.08,0.08,0.17,0.17,0.25,0.25C57.65,27.87,55.84,27.68,54.02,27.49z"/>
	<path class="st20" d="M27.52,63.83c-0.16,0.08-0.33,0.16-0.49,0.25c-0.29-1.26-1.35-6.72-1.64-7.98c0.14-0.26,0.28-0.26,0.42-0.52
		C26.12,57.03,27.2,62.39,27.52,63.83z"/>
	<path class="st9" d="M66.29,23.64c-0.22-0.03-0.45-0.05-0.67-0.08c0-0.08,0-0.17,0-0.25c1.82,0.32,3.63,0.64,5.45,0.96
		c-0.23,0.06-0.47,0.12-0.7,0.18c-0.42-0.11-0.85-0.22-1.27-0.33c-0.6-0.05-1.2-0.1-1.8-0.15c-0.16-0.06-0.33-0.11-0.49-0.17
		C66.63,23.75,66.46,23.7,66.29,23.64z"/>
	<path class="st20" d="M9.78,58.16c0.22,0,0.43,0,0.65,0c-0.23,1.18-0.45,2.37-0.68,3.55c-0.21,0.07-0.41,0.14-0.62,0.21
		C9.35,60.67,9.56,59.41,9.78,58.16z"/>
	<path class="st14" d="M87.1,49.49c0.01-0.09,0.03-0.19,0.04-0.28c0.4,1.25,0.8,2.49,1.2,3.74c-0.22-0.08-0.45-0.17-0.67-0.25
		c-0.2-0.7-0.44-1.4-0.59-2.11C87.01,50.23,87.09,49.85,87.1,49.49z"/>
	<path class="st16" d="M66.34,27.86c-0.01-0.32-0.02-0.64-0.02-0.95c0.53,0.24,1.04,0.57,1.59,0.69c1.04,0.23,2.11,0.33,3.17,0.49
		c-0.8,0.05-1.59,0.09-2.39,0.14c-0.59-0.02-1.17-0.05-1.76-0.07c-0.14,0.01-0.29,0.03-0.43,0.04
		C66.45,28.08,66.4,27.97,66.34,27.86z"/>
	<path class="st6" d="M81.16,30.42c-0.45,0.72-0.9,1.43-1.34,2.15c-0.24-0.05-0.48-0.11-0.72-0.16c0.16-0.73,0.33-1.47,0.49-2.2
		c0.36-0.34,0.72-0.69,1.07-1.03C80.83,29.59,80.99,30.01,81.16,30.42z"/>
	<path class="st18" d="M39.33,89.52c0.25,0.36,0.49,0.72,0.74,1.08c-0.16,0.23-0.32,0.47-0.48,0.7c-0.7,0-1.41,0-2.11,0
		c-0.01-0.11-0.03-0.22-0.04-0.32C38.06,90.5,38.7,90.01,39.33,89.52z"/>
	<path class="st19" d="M6.83,73.38c1.73,0.18,3.46,0.36,5.19,0.55C10.23,74.26,8.48,74.28,6.83,73.38z"/>
	<path class="st11" d="M25.52,65.25c-0.35-0.32-0.7-0.63-1.05-0.95c0.01-0.7,0.02-1.41,0.03-2.11c0.27,0,0.54,0,0.81,0
		C25.38,63.22,25.45,64.24,25.52,65.25z"/>
	<path class="st6" d="M51.8,55.76c-0.31,0.01-0.89,0.07-0.9,0.01c-0.1-0.48-0.25-1.05-0.07-1.44c0.13-0.27,0.77-0.29,1.18-0.43
		C51.94,54.52,51.87,55.14,51.8,55.76z"/>
	<path class="st14" d="M48.61,40.85c-0.12,0.73,0.61,1.7-0.6,2.13c0.01-1.02,0.02-2.04,0.03-3.05
		C48.23,40.24,48.42,40.55,48.61,40.85z"/>
	<path class="st9" d="M75.31,48.44c0.33,0.54,0.66,1.08,0.91,1.51c-0.6,0.44-0.92,0.66-1.24,0.89C75.1,50.04,75.2,49.24,75.31,48.44
		z"/>
	<path class="st10" d="M48.22,32.34c0.08-0.33,0.15-0.65,0.23-0.98c0.52,0.17,1.03,0.33,1.55,0.5c-0.56,0.47-1.12,0.94-1.68,1.42
		C48.29,32.97,48.25,32.65,48.22,32.34z"/>
	<path class="st14" d="M39.59,91.31c0.16-0.23,0.32-0.47,0.48-0.7c0.39-0.16,0.78-0.31,1.17-0.47c0.08,0.45,0.17,0.9,0.25,1.34
		C40.85,91.42,40.22,91.37,39.59,91.31z"/>
	<path class="st16" d="M71.52,28.1c0.85-0.75,1.81-0.89,2.86-0.49c-0.25,0.19-0.49,0.37-0.74,0.56
		C72.94,28.15,72.23,28.12,71.52,28.1z"/>
	<path class="st12" d="M41.48,91.48c-0.08-0.45-0.17-0.9-0.25-1.34c0.4-0.16,0.79-0.32,1.19-0.48c-0.08,0.59-0.16,1.19-0.25,1.78
		C41.95,91.46,41.72,91.47,41.48,91.48z"/>
	<path class="st6" d="M64.92,27.6c0.07,0.19,0.15,0.38,0.22,0.57c-0.94,0.01-1.88,0.02-2.83,0.03c0.4-0.2,0.78-0.49,1.21-0.59
		C63.97,27.52,64.45,27.6,64.92,27.6z"/>
	<path class="st22" d="M70.36,24.46c0.23-0.06,0.47-0.12,0.7-0.18c0.55,0.05,1.09,0.1,1.64,0.15c0.01,0.27,0.02,0.55,0.03,0.82
		c-0.79-0.17-1.59-0.33-2.38-0.5C70.36,24.65,70.36,24.55,70.36,24.46z"/>
	<path class="st7" d="M17.64,32.36c0.21-0.56,0.42-1.12,0.63-1.68c0.22,0.15,0.45,0.3,0.67,0.46c-0.05,0.24-0.1,0.49-0.16,0.73
		C18.51,32.27,18.24,32.69,17.64,32.36z"/>
	<path class="st20" d="M18.94,31.13c-0.22-0.15-0.45-0.3-0.67-0.46c0.22-0.43,0.43-0.86,0.65-1.3c0.34,0.59,0.69,1.19,1.03,1.78
		C19.58,32.31,19.28,31,18.94,31.13z"/>
	<path class="st4" d="M46.69,91.36c0-0.65,0-1.29,0.01-1.94c0.31,0,0.62,0,0.93,0c-0.15,0.48-0.3,0.96-0.45,1.44
		c-0.01,0.17-0.01,0.34-0.02,0.51C47,91.37,46.85,91.36,46.69,91.36z"/>
	<path class="st1" d="M48.28,23.08c0.1,0.01,0.21,0.02,0.31,0.03c-0.02,0.71-0.03,1.43-0.05,2.14c-0.07-0.03-0.18-0.03-0.21-0.08
		c-0.4-0.61-0.79-1.22-1.18-1.84C47.53,23.25,47.91,23.16,48.28,23.08z"/>
	<path class="st15" d="M82.67,37.55c0.03-0.24,0.06-0.49,0.08-0.73c0.13-0.17,0.27-0.34,0.41-0.51c0.24,0.64,0.47,1.28,0.71,1.92
		c-0.22,0.08-0.44,0.17-0.66,0.25c-0.03-0.15-0.05-0.3-0.08-0.45c-0.11-0.16-0.22-0.32-0.33-0.48
		C82.76,37.54,82.72,37.55,82.67,37.55z"/>
	<path class="st10" d="M48.43,57.2c0.42,0.17,0.84,0.34,1.26,0.51c0.04,0.09,0.08,0.19,0.12,0.28c-0.45,0.15-0.91,0.3-1.36,0.45
		c-0.05-0.33-0.1-0.66-0.15-0.99C48.34,57.37,48.39,57.28,48.43,57.2z"/>
	<path class="st1" d="M48.59,62.19c0.03,0.68,1.05,1.63-0.51,1.89c0-0.55,0-1.11,0.01-1.66c0.16-0.08,0.33-0.16,0.49-0.24
		L48.59,62.19z"/>
	<path class="st19" d="M47.59,16.23c0.24,0.01,0.48,0.02,0.72,0.02c0.01,0.07,0.02,0.13,0.02,0.2c-0.06,0.48-0.12,0.95-0.19,1.43
		c-0.04,0.11-0.07,0.22-0.11,0.32C47.89,17.55,47.74,16.89,47.59,16.23z"/>
	<path class="st12" d="M80.66,29.18c-0.36,0.34-0.72,0.69-1.07,1.03c-0.82-1.1,0.65-1.05,0.82-1.65
		C80.49,28.77,80.57,28.97,80.66,29.18z"/>
	<path class="st12" d="M54.35,81.87c-0.12-0.72-0.25-1.43-0.37-2.15C54.11,80.44,54.23,81.15,54.35,81.87z"/>
	<path class="st3" d="M51.82,31.84c-0.4-0.7-0.76-1.4-0.04-2.12C51.79,30.43,51.81,31.13,51.82,31.84z"/>
	<path class="st11" d="M46.96,70.4c0.38-0.45,0.75-0.9,1.13-1.36c0,0,0.08,0.09,0.08,0.09c-0.03,0.3-0.05,0.61-0.08,0.91
		c-0.41,0.56-0.82,1.12-1.23,1.68c-0.07,0.03-0.15,0.05-0.23,0.06c0.05-0.23,0.09-0.46,0.14-0.68
		C46.83,70.87,46.89,70.63,46.96,70.4z"/>
	<path class="st3" d="M51.9,26.66c0.4,0.21,0.8,0.43,1.19,0.64c-0.42,0.09-0.84,0.18-1.26,0.27C51.86,27.27,51.88,26.97,51.9,26.66z
		"/>
	<path class="st19" d="M48.34,13.86c-0.25,0.56-0.5,1.12-0.75,1.67C47.17,14.67,47.76,14.27,48.34,13.86z"/>
	<path class="st19" d="M21.04,31.69c0.09-0.03,0.19-0.05,0.28-0.08c0.03,0.24,0.06,0.48,0.08,0.72c0.07,0.24,0.13,0.48,0.2,0.72
		c0,0.08,0.01,0.16,0.01,0.24c0.06,0.16,0.13,0.33,0.19,0.49c-0.02,0.08-0.03,0.16-0.05,0.23c-0.15,0-0.3,0-0.45,0
		C21.21,33.23,21.12,32.46,21.04,31.69z"/>
	<path class="st14" d="M47.15,91.37c0.01-0.17,0.01-0.34,0.02-0.51c0.32-0.01,0.63-0.02,0.95-0.03c0.08,0.08,0.16,0.17,0.23,0.25
		c0.08,0.14,0.15,0.28,0.23,0.42C48.11,91.45,47.63,91.41,47.15,91.37z"/>
	<path class="st23" d="M24.72,58.87c0.13,0.58,0.27,1.15,0.4,1.73"/>
	<path class="st20" d="M19.73,27.83c-0.11,0.01-0.22,0.02-0.33,0.03c-0.21-0.33-0.41-0.66-0.62-0.99c0.27,0.02,0.54,0.04,0.82,0.07
		C19.64,27.24,19.68,27.54,19.73,27.83z"/>
	<path class="st24" d="M22.49,38.51c-0.13-0.56-0.26-1.12-0.39-1.68C22.23,37.39,22.36,37.95,22.49,38.51z"/>
	<path class="st3" d="M73.64,28.17c0.25-0.19,0.49-0.37,0.74-0.56c0.16-0.01,0.31-0.02,0.47-0.03c0.12,0.04,0.24,0.08,0.36,0.11
		C74.68,27.86,74.16,28.01,73.64,28.17z"/>
	<path class="st14" d="M43.88,87.89c-0.01,0.12-0.02,0.24-0.03,0.35c-0.5,0.15-1,0.29-1.5,0.44C42.86,88.41,43.37,88.15,43.88,87.89
		z"/>
	<path class="st19" d="M48.54,12.2c0.11,0.38,0.22,0.77,0.33,1.15c-0.14,0.1-0.28,0.2-0.42,0.3C48.48,13.16,48.51,12.68,48.54,12.2z
		"/>
	<path class="st19" d="M51.67,15.28c-0.24-0.4-0.47-0.81-0.71-1.21C51.19,14.48,51.43,14.88,51.67,15.28z"/>
	<path class="st19" d="M51.64,17.43c0.03-0.36,0.06-0.72,0.09-1.08c0.04,0.43,0.08,0.87,0.12,1.3
		C51.78,17.58,51.71,17.5,51.64,17.43z"/>
	<path class="st24" d="M35.08,28.29c0.4,0,0.8,0,1.2,0C35.88,28.29,35.48,28.29,35.08,28.29z"/>
	<path class="st19" d="M17.64,32.36c0.6,0.33,0.87-0.09,1.15-0.49c-0.02,0.31-0.05,0.62-0.07,0.93c-0.38,0-0.76,0.01-1.14,0.01
		C17.59,32.66,17.62,32.51,17.64,32.36z"/>
	<path class="st19" d="M49.9,8.96c-0.35-0.01-0.7-0.03-1.05-0.04c0.21-0.15,0.4-0.37,0.63-0.41C49.59,8.48,49.76,8.8,49.9,8.96z"/>
	<path class="st19" d="M52.61,23.1c-0.24,0.15-0.47,0.31-0.71,0.46c0,0-0.02,0.01-0.02,0.01c-0.01-0.09-0.03-0.17-0.04-0.26
		c-0.03-0.1-0.07-0.2-0.1-0.3c0.03-0.03,0.06-0.06,0.1-0.09C52.09,22.98,52.35,23.04,52.61,23.1z"/>
	<path class="st3" d="M78.17,27.37c0.24,0,0.47-0.01,0.71-0.01c-0.08,0.16-0.15,0.32-0.23,0.48C78.49,27.68,78.33,27.52,78.17,27.37
		z"/>
	<path class="st17" d="M62.72,90.85c-0.29-0.24-0.58-0.48-0.87-0.72C62.14,90.37,62.43,90.61,62.72,90.85z"/>
	<path class="st19" d="M51.42,22.89c0.08-0.33,0.16-0.66,0.25-0.98c0.06,0.34,0.11,0.67,0.17,1.01c-0.03,0.03-0.06,0.06-0.09,0.09
		C51.63,22.97,51.53,22.93,51.42,22.89z"/>
	<path class="st9" d="M65.15,23.31c-0.32-0.02-0.64-0.03-0.96-0.05C64.51,23.28,64.83,23.29,65.15,23.31z"/>
	<path class="st11" d="M46.59,72.63c0.04-0.32,0.08-0.64,0.13-0.95c0.06,0,0.12-0.01,0.19-0.02c-0.04,0.31-0.07,0.62-0.11,0.93
		C46.73,72.61,46.66,72.62,46.59,72.63z"/>
	<path class="st24" d="M28.45,28.29c0.32,0,0.64,0,0.97,0C29.09,28.28,28.77,28.29,28.45,28.29z"/>
	<path class="st4" d="M83.16,36.31c-0.14,0.17-0.27,0.34-0.41,0.51c-0.01-0.3-0.77-2.77-0.78-3.07c0.12-0.01,1,2.16,1.12,2.15
		C83.12,36.04,83.14,36.17,83.16,36.31z"/>
	<path class="st10" d="M48.57,62.18c-0.16,0.08-0.33,0.16-0.49,0.24c0.03-0.32,0.06-0.64,0.09-0.96
		C48.3,61.7,48.44,61.94,48.57,62.18z"/>
	<path class="st3" d="M66.93,28.15c0.59,0.02,1.17,0.05,1.76,0.07C68.1,28.2,67.52,28.17,66.93,28.15z"/>
	<path class="st11" d="M46.55,73.84c-0.03-0.17-0.07-0.33-0.1-0.5c0.05-0.29,0.1-0.58,0.16-0.86c0,0,0.12,0,0.12,0
		s0.12,0.01,0.12,0.01C46.75,72.95,46.65,73.4,46.55,73.84z"/>
	<path class="st12" d="M76.93,39.82c-0.07,0.27-0.14,0.55-0.21,0.82C76.79,40.36,76.86,40.09,76.93,39.82z"/>
	<path class="st10" d="M52.19,44.15c-0.18,0.01-0.36,0.02-0.54,0.03c0-0.24,0-0.47,0-0.71c0.17,0.01,0.35,0.01,0.52,0.02
		C52.18,43.71,52.19,43.93,52.19,44.15z"/>
	<path class="st3" d="M78.49,29.5c-0.05,0.24-0.09,0.47-0.14,0.71C78.4,29.97,78.44,29.74,78.49,29.5z"/>
	<path class="st24" d="M48.02,67.15C48.01,67.39,48,67.64,48,67.88C48,67.64,48.01,67.39,48.02,67.15z"/>
	<path class="st19" d="M50.41,13.59c0.03-0.16,0.07-0.32,0.1-0.48c0.11,0.26,0.21,0.52,0.31,0.78
		C50.69,13.78,50.55,13.68,50.41,13.59z"/>
	<path class="st19" d="M50.54,12.51c0.04-0.26,0.09-0.52,0.13-0.77C50.63,11.99,50.59,12.25,50.54,12.51z"/>
	<path class="st24" d="M21.6,33.05c-0.07-0.24-0.13-0.48-0.2-0.72C21.47,32.57,21.53,32.81,21.6,33.05z"/>
	<path class="st7" d="M8.03,66.59c-0.09,0.3-0.19,0.59-0.28,0.89C7.85,67.18,7.94,66.88,8.03,66.59z"/>
	<path class="st24" d="M31.05,28.28c0.24-0.06,0.47-0.12,0.71-0.18c0.03,0.05,0.05,0.11,0.08,0.16
		C31.57,28.27,31.31,28.28,31.05,28.28z"/>
	<path class="st7" d="M23.04,42.02c0.06,0.02,0.13,0.04,0.19,0.06c-0.01,0.23-0.02,0.46-0.03,0.69
		C23.15,42.52,23.09,42.27,23.04,42.02z"/>
	<path class="st10" d="M45.28,27.37c0,0.07-0.01,0.15-0.01,0.22c-0.24-0.01-0.47-0.03-0.71-0.04
		C44.79,27.49,45.04,27.43,45.28,27.37z"/>
	<path class="st20" d="M19.26,28.56c-0.06,0.16-0.13,0.32-0.19,0.48C19.13,28.88,19.2,28.72,19.26,28.56z"/>
	<path class="st19" d="M50.45,10.15c-0.07-0.19-0.14-0.38-0.21-0.57C50.31,9.77,50.38,9.96,50.45,10.15z"/>
	<path class="st15" d="M71.77,73.54c0.16,0,0.32,0,0.49,0.01C72.1,73.55,71.94,73.54,71.77,73.54z"/>
	<path class="st13" d="M91.62,73.59c0.17-0.02,0.34-0.04,0.51-0.06C91.96,73.55,91.79,73.57,91.62,73.59z"/>
	<path class="st11" d="M46.22,79.95c-0.05,0.17-0.09,0.34-0.14,0.5C46.13,80.29,46.18,80.12,46.22,79.95z"/>
	<path class="st12" d="M54.79,84.72c-0.04-0.16-0.09-0.32-0.13-0.49C54.71,84.39,54.75,84.55,54.79,84.72z"/>
	<path class="st3" d="M77.62,36.5c-0.06,0.2-0.13,0.4-0.19,0.6C77.49,36.91,77.55,36.7,77.62,36.5z"/>
	<path class="st24" d="M42.42,27.83c0.16-0.04,0.33-0.08,0.49-0.11C42.75,27.75,42.58,27.79,42.42,27.83z"/>
	<path class="st14" d="M41.47,88.73c-0.2,0.04-0.41,0.09-0.61,0.13C41.06,88.82,41.26,88.77,41.47,88.73z"/>
	<path class="st24" d="M21.8,33.77c-0.06-0.16-0.13-0.33-0.19-0.49C21.67,33.44,21.73,33.61,21.8,33.77z"/>
	<path class="st24" d="M25.12,27.92c0.17,0.05,0.33,0.1,0.5,0.15C25.45,28.02,25.29,27.97,25.12,27.92z"/>
	<path class="st10" d="M47.76,26.95c-0.04,0.09-0.08,0.17-0.13,0.26c-0.16-0.04-0.32-0.08-0.49-0.12
		C47.36,27.03,47.56,26.99,47.76,26.95z"/>
	<path class="st19" d="M50.69,11.5c-0.08-0.09-0.17-0.18-0.25-0.27c0.07-0.08,0.15-0.17,0.22-0.25
		C50.67,11.15,50.68,11.33,50.69,11.5z"/>
	<path class="st14" d="M83.1,35.9c-0.12,0.01-0.25,0.01-0.37,0.02c0.11-0.09,0.22-0.17,0.33-0.26C83.07,35.74,83.09,35.82,83.1,35.9
		z"/>
	<path class="st19" d="M53.78,22.97c-0.1,0.03-0.2,0.07-0.3,0.1C53.57,23.04,53.67,23,53.78,22.97z"/>
	<path class="st3" d="M66.34,27.86c0.05,0.11,0.11,0.22,0.16,0.34c0,0-0.09-0.04-0.09-0.04C66.39,28.05,66.37,27.95,66.34,27.86z"/>
	<path class="st9" d="M86.63,71.35c-0.14-1.65-0.25-3.3-0.43-4.95c-0.2-1.91-0.48-3.8-0.7-5.71c-0.14-1.16-0.45-3.23-0.57-4.39
		c0.08-0.17,0.34-0.74,0.54-1.17c0.27,0.61,0.59,2.32,0.64,2.74c0.23,1.87,0.39,3.75,0.59,5.62c0.08,0.7,0.24,1.39,0.29,2.09
		c0.04,0.6-0.06,1.21-0.02,1.81c0.05,0.62,0.17,1.25,0.31,1.86c0.17,0.72,0.4,1.43,0.6,2.14C87.48,71.38,87.06,71.36,86.63,71.35z"
		/>
	<path class="st14" d="M84.93,56.3c-0.21-2.13-0.35-4.27-0.64-6.39c-0.24-1.76-0.67-3.5-1.01-5.25c-0.04-0.22,0-0.46,0-0.7
		c0.18,0,0.35-0.01,0.53-0.01c0.55,3.29,1.12,6.57,1.64,9.86c0.11,0.73,0.06,1.48,0.03,2.23C85.47,56.13,85.12,56.21,84.93,56.3z"/>
	<path class="st12" d="M82.88,42.31c-0.09-0.15-0.17-0.29-0.26-0.44c-0.02-0.23-0.02-0.46-0.07-0.69c-0.35-1.61-0.7-3.21-1.06-4.82
		c0.08,0,0.16-0.01,0.23-0.02c0.06,0.01,0.13,0.03,0.19,0.05c0.25,0.38-0.01,0.36,0.24,0.75c0.04,0,0.06,0.47,0.11,0.47
		c0.04,0.17,0.2,0.43,0.24,0.6c0.04,0.79,0.49,1.41,0.54,2.2c0.02,0.38,0.08,0.75,0.12,1.13C83.06,41.8,82.97,42.05,82.88,42.31z"/>
	<path class="st18" d="M86.63,71.35c0.42,0.01,0.84,0.03,1.27,0.04c0.07,0.04,0.14,0.08,0.2,0.11c-0.33,0.21-0.66,0.58-1,0.58
		c-0.62,0.01-1.24-0.2-1.86-0.32c0.09-0.12,0.18-0.25,0.27-0.37C85.88,71.38,86.26,71.37,86.63,71.35z"/>
	<path class="st9" d="M82.88,42.31c0.09-0.25,0.19-0.51,0.28-0.76c0.22,0.8,0.43,1.6,0.65,2.4c-0.18,0-0.35,0.01-0.53,0.01
		C83.14,43.41,83.01,42.86,82.88,42.31z"/>
	<path class="st20" d="M82.92,38.04c-0.04-0.17-0.07-0.33-0.11-0.5c0.11,0.16,0.22,0.32,0.33,0.48c0,0-0.11,0-0.11,0L82.92,38.04z"
		/>
	<path class="st9" d="M85.36,44.67c0.02,0.05,0.05,0.09,0.06,0.14c0,0.02-0.03,0.04-0.04,0.07C85.33,44.81,85.32,44.74,85.36,44.67z
		"/>
	<path class="st20" d="M83.69,39.92c0.02,0.05,0.04,0.11,0.05,0.17c0,0.02-0.05,0.04-0.07,0.06C83.65,40.07,83.66,40,83.69,39.92z"
		/>
	<path class="st9" d="M82.07,71.06c0.21-0.51,0.6-1.03,0.58-1.54c-0.07-1.83-0.29-3.65-0.42-5.48c-0.05-0.7,0-1.41,0-2.11
		c0.18-0.01,0.35-0.02,0.53-0.02c0.2,2.4,0.38,4.81,0.62,7.21c0.07,0.71,0.31,1.39,0.48,2.09C83.26,71.16,82.66,71.11,82.07,71.06z"
		/>
	<path class="st6" d="M79.95,67.45c0.04,1.24,0.09,2.48,0.13,3.72c-0.14,0.15-0.27,0.29-0.41,0.44c-0.11-0.21-0.21-0.43-0.32-0.64
		c0.02-1.19,0.03-2.38,0.05-3.57C79.58,67.42,79.76,67.44,79.95,67.45z"/>
	<path class="st9" d="M73.96,69.99c0.09,0.38,0.18,0.76,0.26,1.14c-0.1,0.03-0.19,0.07-0.29,0.1c-0.24-0.09-0.49-0.18-0.73-0.28
		C73.45,70.63,73.7,70.31,73.96,69.99z"/>
	<path class="st9" d="M75.31,71.33c0.06,0.03,0.13,0.07,0.19,0.1C75.42,71.43,75.35,71.4,75.31,71.33z"/>
	<path class="st16" d="M48.1,69.75c0.02-0.21,0.04-0.43,0.07-0.64c0.29-0.18,0.82-0.34,0.84-0.54c0.09-0.95,0.71-1.11,1.45-1.18
		c0.32,0.16,0.64,0.32,0.96,0.47c0,0.24,0.01,0.48,0.02,0.73c0,0.23,0,0.46-0.01,0.69c-0.26,0.35-0.51,0.7-0.85,1.17
		c-0.37-0.62-0.57-0.96-0.77-1.29c-0.22,0.61-0.3,1.2-0.14,1.71c0.26,0.85-0.05,1.09-0.83,1.02c-0.08-0.45-0.12-0.92-0.25-1.36
		C48.48,70.25,48.26,70.01,48.1,69.75z"/>
	<path class="st21" d="M51.41,67.86c-0.32-0.16-0.64-0.32-0.96-0.47c0.01-0.39,0.02-0.78,0.03-1.17c0.15-0.32,0.29-0.64,0.44-0.97
		c-0.07-0.47-0.14-0.93-0.21-1.4c-0.4-1.58-0.11-2.61,0.95-3.32c0.69,2.31,0,4.59-0.14,6.87C51.5,67.56,51.44,67.71,51.41,67.86z"/>
	<path class="st16" d="M48.58,49.63c0-1.18,0-2.37,0-3.55c0.32,0.08,0.64,0.16,0.95,0.24c0,0.4,0,0.79-0.01,1.19
		c0.02,0.34,0.03,0.67,0.04,0.85c0.38,0.23,0.65,0.39,0.92,0.55c-0.29,0.13-0.8,0.2-0.85,0.39C49.44,50.06,48.97,49.64,48.58,49.63z
		"/>
	<path class="st21" d="M50.49,48.9c-0.27-0.16-0.54-0.32-0.92-0.55c-0.01-0.18-0.02-0.52-0.04-0.85c0.32-0.16,0.63-0.31,0.95-0.47
		c0.31,0,0.62,0,0.94,0c0.07,0.87,0.14,1.73,0.22,2.6c-0.23-0.08-0.45-0.16-0.68-0.23C50.8,49.23,50.64,49.06,50.49,48.9z"/>
	<path class="st21" d="M51.88,50.58c0.02,0.63,0.04,1.26,0.06,1.89c-0.2,0.11-0.39,0.25-0.61,0.32c-0.21,0.06-0.5,0.14-0.65,0.04
		c-0.13-0.09-0.17-0.41-0.16-0.62c0.04-0.7,0.13-1.4,0.2-2.1C51.11,50.27,51.49,50.42,51.88,50.58z"/>
	<path class="st16" d="M51.88,50.58c-0.39-0.16-0.77-0.32-1.16-0.47c0.08-0.24,0.15-0.48,0.23-0.72c0.23,0.08,0.45,0.16,0.68,0.23
		C51.71,49.94,51.8,50.26,51.88,50.58z"/>
	<path class="st21" d="M51.66,60.52c0-0.08,0-0.17,0-0.25C51.66,60.35,51.66,60.43,51.66,60.52z"/>
	<path class="st15" d="M51.42,22.89c0.11,0.04,0.21,0.08,0.32,0.12c0.03,0.1,0.07,0.2,0.1,0.3c-0.02,0.03-0.07,0.07-0.07,0.09
		c0.02,0.06,0.07,0.11,0.11,0.17c0,0,0.02-0.01,0.02-0.01c-0.02,0.47-0.03,0.93-0.05,1.4c-0.87,0.22,0.06,1.77-1.3,1.71
		c-0.76-0.03-1.53,0.21-2.29,0.32c0,0-0.01-0.02-0.01-0.02c0.03-0.11,0.06-0.22,0.09-0.33c0.07-0.47,0.14-0.94,0.21-1.4
		c0.02-0.71,0.03-1.43,0.05-2.14C49.55,23.19,50.55,23.84,51.42,22.89z"/>
	<path class="st15" d="M41.23,27.74c-0.24,0.02-0.47,0.05-0.71,0.07c-0.09-0.45-0.17-0.91-0.28-1.36c-0.2-0.81-0.42-1.62-0.63-2.42
		c0.07-0.15,0.15-0.29,0.22-0.44c0.31-0.08,0.61-0.16,0.92-0.25c0.1,0.47,0.2,0.94,0.29,1.41c0.07,0.15,0.15,0.31,0.22,0.46
		C41.25,26.06,41.24,26.9,41.23,27.74z"/>
	<path class="st3" d="M41.27,25.22c-0.07-0.15-0.15-0.31-0.22-0.46C41.12,24.91,41.19,25.06,41.27,25.22z"/>
	<path class="st1" d="M48.34,26.65c-0.03,0.11-0.06,0.22-0.09,0.33c0,0-0.11,0.03-0.11,0.03s-0.1-0.04-0.1-0.04
		C48.14,26.86,48.24,26.76,48.34,26.65z"/>
	<path class="st14" d="M33.41,24.03c0.01-0.07,0.01-0.14,0.02-0.21c0.74-0.06,1,0.31,0.93,1c-0.08,0.78-0.16,1.56-0.21,2.34
		c-0.04,0.55-0.17,0.88-0.76,0.43c-0.07-0.94-0.14-1.89-0.21-2.83C33.25,24.51,33.33,24.27,33.41,24.03z"/>
	<path class="st11" d="M37.99,23.62c0.06,0.58,0.16,1.11,0.15,1.63c-0.01,0.2-0.27,0.4-0.42,0.59c-0.16-0.19-0.5-0.44-0.46-0.55
		c0.57-1.5-0.46-1.55-1.45-1.68C36.53,23.62,37.26,23.62,37.99,23.62z"/>
	<path class="st11" d="M39.84,23.59c-0.07,0.15-0.15,0.29-0.22,0.44c-0.13-0.09-0.26-0.18-0.38-0.27
		C39.43,23.7,39.63,23.65,39.84,23.59z"/>
	<path class="st18" d="M59.22,27.81c-0.33-0.13-0.67-0.25-1-0.38c0.02-0.1,0.03-0.2,0.04-0.3c0.09-1.02,0.19-2.04,0.28-3.06
		c0.16-0.31,0.32-0.61,0.47-0.92c0.22,0,0.44,0,0.66,0C59.52,24.71,59.37,26.26,59.22,27.81z"/>
	<path class="st11" d="M75.66,56.18c-0.44,4.19-1.09,10.57-1.53,14.76c-0.16-0.13-0.43-0.32-0.42-0.44c0.08-1.24,0.38-4.61,0.5-5.85
		c0.03-0.31,0.13-0.61,0.16-0.92c0.22-2.72,0.44-5.45,0.66-8.17C75.24,55.78,75.45,55.98,75.66,56.18z"/>
	<path class="st9" d="M70.83,70.95c0.1-0.01,0.2-0.03,0.3-0.04c0.07,0.05,0.13,0.1,0.2,0.15c-0.1,0.09-0.2,0.17-0.3,0.26
		C70.96,71.2,70.89,71.07,70.83,70.95z"/>
	<path class="st8" d="M31.1,25.73c-0.4,0.14-0.79,0.32-1.2,0.38c-0.09,0.01-0.25-0.36-0.37-0.56c0.46-0.12,0.93-0.25,1.39-0.37
		C30.98,25.37,31.04,25.55,31.1,25.73z"/>
	<path class="st3" d="M33.41,24.03c-0.08,0.24-0.15,0.48-0.23,0.72C33.25,24.51,33.33,24.27,33.41,24.03z"/>
	<path class="st16" d="M70.36,24.46c0,0.1-0.01,0.19-0.01,0.29c-0.24,0-0.47,0.03-0.71,0c-1.28-0.14-2.5-0.11-3.27,1.17
		c0.02-0.61,0.03-1.22,0.05-1.83c0.12-0.09,0.25-0.19,0.37-0.28c0.16,0.06,0.33,0.11,0.49,0.17c0.6,0.05,1.2,0.1,1.8,0.15
		C69.52,24.24,69.94,24.35,70.36,24.46z"/>
	<path class="st22" d="M73.17,25.44c0.75-0.75,1.35-0.38,1.93,0.25C74.46,25.61,73.81,25.53,73.17,25.44z"/>
	<path class="st17" d="M52.6,78.53c-0.08,0.08-0.16,0.16-0.23,0.24c-0.24,0-0.47,0-0.71,0c-0.63,0.16-1.27,0.31-1.9,0.47
		c-0.14-0.01-0.29-0.03-0.43-0.04c0-0.07-0.01-0.13-0.03-0.2c-0.16-0.15-0.33-0.31-0.49-0.46c0-0.24,0-0.47,0-0.71
		c1.26-0.44,1.42-1.48,1.42-2.6c0.62-0.09,1.66,0.81,1.66-0.72c0.41-0.18,0.81-0.35,1.22-0.53c0.06,1.04,0.13,2.09,0.19,3.13
		c-0.28-0.04-0.56-0.09-0.89-0.14C52.49,77.56,52.55,78.04,52.6,78.53z"/>
	<path class="st22" d="M49.72,85.15c0-0.23,0-0.47,0-0.7c0.09-0.16,0.18-0.31,0.27-0.47c0.56,0.25,1.11,0.5,1.91,0.86
		c0-0.58,0-1.2,0-1.81c0.16,0,0.31,0,0.47,0c0,0.79,0,1.57,0,2.36c-1.03,0.94-0.41,1.89,0,2.83c-0.36-0.03-0.72-0.07-1.18-0.11
		c0,0.56,0,1.04,0,1.53c0,0.24-0.01,0.49-0.01,0.73c-0.79-0.16-1.57-0.31-2.36-0.47c0-0.31,0-0.62,0-0.93
		c0.86-0.14,1.07-0.63,0.84-1.44c-0.07-0.25-0.01-0.67,0.16-0.82C50.54,86.11,50.18,85.64,49.72,85.15z"/>
	<path class="st22" d="M49.76,79.23c0.63-0.16,1.27-0.31,1.9-0.47c0.14,0.93-0.25,1.92,0.42,2.8c0.14,0.18-0.12,0.66-0.19,1
		c-1.02,0-2.04-0.01-3.06-0.01c-0.09-0.31-0.18-0.62-0.26-0.93c0.08-0.4,0.16-0.8,0.23-1.19c0.16-0.24,0.33-0.47,0.49-0.71
		C49.45,79.56,49.61,79.4,49.76,79.23z"/>
	<path class="st21" d="M48.83,82.55c1.02,0,2.04,0.01,3.06,0.01c0,0.16,0,0.31,0.01,0.47c0,0.62,0,1.23,0,1.81
		c-0.79-0.36-1.35-0.61-1.9-0.86c-0.16,0-0.32,0.01-0.48,0.01c-0.29-0.04-0.58-0.08-0.92-0.12C48.68,83.37,48.76,82.96,48.83,82.55z
		"/>
	<path class="st16" d="M51.19,89.65c0-0.48,0-0.97,0-1.53c0.46,0.04,0.82,0.08,1.18,0.11c0.16,0,0.31,0.01,0.47,0.01
		C52.77,89.28,52.21,89.72,51.19,89.65z"/>
	<path class="st12" d="M54.03,89.42c-0.1,0.2-0.17,0.43-0.32,0.59c-0.08,0.09-0.28,0.07-0.5,0.11c0.04-0.67,0.07-1.28,0.11-1.88
		c0.09-0.2,0.18-0.41,0.27-0.61c0.15,0.08,0.29,0.15,0.44,0.23C54.03,88.38,54.03,88.9,54.03,89.42z"/>
	<path class="st21" d="M52.37,85.4c0-0.79,0-1.57,0-2.36C53.39,83.58,53.39,84.66,52.37,85.4z"/>
	<path class="st17" d="M57.34,89.19c0.31,0.16,0.63,0.31,0.94,0.47C57.66,90.12,57.36,89.93,57.34,89.19z"/>
	<path class="st10" d="M48.44,27.86c-0.05-0.24-0.1-0.48-0.15-0.72C48.69,27.31,49.03,27.48,48.44,27.86z"/>
	<path class="st1" d="M51.41,47.03c-0.31,0-0.63,0-0.94,0c0.02-0.5,0.02-0.99,0.05-1.49c0.02-0.33,0.05-0.67,0.11-1
		c0.17-0.91,0.35-1.82,0.53-2.73c0.24-0.01,0.48-0.02,0.72-0.04c-0.08,0.56-0.15,1.13-0.23,1.69c0,0.24,0,0.47,0,0.71
		C51.58,45.13,51.5,46.08,51.41,47.03z"/>
	<path class="st16" d="M50.22,33.98c0-0.12-0.02-0.24,0.01-0.35c0.14-0.43,0.29-0.86,0.44-1.29c0.34,0.19,0.94,0.34,0.98,0.58
		c0.09,0.57,0.03,1.23-0.18,1.77c-0.18,0.46-0.65,0.82-0.99,1.22c-0.12-0.18-0.32-0.36-0.33-0.55
		C50.13,34.9,50.19,34.44,50.22,33.98z"/>
	<path class="st1" d="M50.22,33.98c-0.03,0.46-0.09,0.92-0.06,1.38c0.01,0.19,0.21,0.37,0.33,0.55c-0.32,0.23-0.64,0.47-0.97,0.7
		c-0.08-0.08-0.17-0.16-0.25-0.25c-0.16-0.39-0.31-0.78-0.49-1.16c-0.1-0.21-0.27-0.39-0.41-0.59c0.2-0.13,0.39-0.3,0.62-0.37
		C49.39,34.12,49.81,34.07,50.22,33.98z"/>
	<path class="st11" d="M51.88,41.6c-0.08-0.72-0.15-1.44-0.23-2.16c0.04-0.27,0.08-0.54,0.12-0.82c0.14,0.01,0.27,0.02,0.41,0.03
		C52.08,39.64,51.98,40.62,51.88,41.6z"/>
	<path class="st19" d="M18.67,33.31c0.01,0.4,0.03,0.79,0.04,1.19c-0.16,0.93-0.33,1.86-0.49,2.79c-0.07,0.16-0.14,0.32-0.21,0.48
		c-0.23,0-0.45,0.01-0.68,0.01c0.06-0.38,0.17-0.76,0.15-1.14c-0.01-0.22-0.23-0.43-0.36-0.64c0.11-0.19,0.21-0.39,0.31-0.58
		c0.53,0.03,0.97-0.02,0.63-0.74c-0.02-0.15-0.04-0.3-0.05-0.45C18.24,33.93,18.45,33.62,18.67,33.31z"/>
	<path class="st14" d="M48.14,17.88c0.06-0.48,0.13-0.95,0.19-1.43c0.16,0.48,0.32,0.96,0.48,1.44
		C48.59,17.88,48.37,17.88,48.14,17.88z"/>
	<path class="st14" d="M48.82,17.89c0.15,0.24,0.31,0.47,0.46,0.71C49.12,18.36,48.97,18.13,48.82,17.89z"/>
	<path class="st10" d="M48.58,45.58c0-0.74,0-1.49,0-2.49c1.22,0.92,0.26,1.78,0.47,2.5c-0.16,0-0.31,0-0.47,0.01
		C48.58,45.6,48.58,45.58,48.58,45.58z"/>
	<path class="st1" d="M48.58,45.6c0.16,0,0.31,0,0.47-0.01c0.16,0.24,0.32,0.48,0.48,0.72c-0.32-0.08-0.64-0.16-0.95-0.24
		C48.58,45.92,48.58,45.76,48.58,45.6z"/>
	<path class="st9" d="M76.91,46.53c-0.07,0.24-0.15,0.48-0.22,0.71C76.76,47.01,76.83,46.77,76.91,46.53z"/>
	<path class="st9" d="M76.38,51.02c-0.06,0.16-0.11,0.32-0.17,0.49C76.27,51.35,76.32,51.19,76.38,51.02z"/>
	<path class="st17" d="M48.82,89.91c0.79,0.16,1.57,0.31,2.36,0.47c-0.25,0.24-0.49,0.63-0.77,0.67c-0.67,0.1-1.37,0.03-2.06,0.02
		c-0.08-0.08-0.16-0.17-0.23-0.25C48.35,90.52,48.59,90.21,48.82,89.91z"/>
	<path class="st15" d="M13.06,73.78c-0.15,0-0.3-0.01-0.45-0.01c0-0.49,0-0.98,0-1.47c-0.08-0.02-0.16-0.04-0.24-0.05
		c-0.2,0.34-0.39,0.68-0.59,1.02c-0.12-0.02-0.23-0.05-0.35-0.07c0.06-0.6,0.13-1.2,0.19-1.8c0,0-0.01-0.02-0.01-0.02
		c0.72,0.09,1.45,0.19,2.17,0.28C13.21,72.25,12.91,72.94,13.06,73.78z"/>
	<path class="st17" d="M47.63,89.41c-0.31,0-0.62,0-0.93,0c0-0.16-0.01-0.31-0.01-0.46c0.02-0.76,0.05-1.51,0.06-2.27
		c0-0.51-0.04-1.02-0.07-1.53c0.25,0,0.51,0,0.76,0c-0.01,0.32-0.01,0.63-0.02,0.95c0.23,0.56,0.46,1.11,0.7,1.67
		c0,0.4-0.01,0.79-0.01,1.19C47.94,89.1,47.78,89.26,47.63,89.41z"/>
	<path class="st11" d="M45.96,90.22c-0.44-0.24-0.88-0.48-1.32-0.72c0.13-0.16,0.33-0.47,0.39-0.44c0.43,0.16,0.84,0.4,1.25,0.61
		C46.18,89.84,46.07,90.03,45.96,90.22z"/>
	<path class="st21" d="M50.24,75.22c0,1.13-0.17,2.16-1.42,2.6c0.08-1.12,0.34-2.28-0.48-2.94c0.18-1.12,0.34-2.05,0.49-2.98
		c0.78,0.07,1.09-0.17,0.83-1.02c-0.16-0.52-0.08-1.11,0.14-1.71c0.2,0.34,0.4,0.68,0.77,1.29c0.34-0.47,0.6-0.82,0.85-1.17
		c0.24,0.87,0.48,1.74,0.72,2.6c-0.16,0.4-0.32,0.79-0.48,1.19C50.52,73.35,50.04,74.07,50.24,75.22z"/>
	<path class="st6" d="M51.65,73.07c0.16-0.4,0.32-0.79,0.48-1.19c1.23-0.15,0.91,0.76,0.96,1.42c0,0.09,0,0.19,0,0.28
		c0.01,0.13,0.02,0.27,0.03,0.4c-0.41,0.17-0.81,0.35-1.22,0.53C51.81,74.03,51.73,73.55,51.65,73.07z"/>
	<path class="st6" d="M52.6,78.53c-0.06-0.49-0.11-0.97-0.18-1.56c0.33,0.05,0.61,0.09,0.89,0.14
		C53.26,77.67,53.56,78.42,52.6,78.53z"/>
	<path class="st17" d="M53.09,73.58c0-0.09,0-0.19,0-0.28C53.09,73.39,53.09,73.49,53.09,73.58z"/>
	<path class="st16" d="M48.1,88.95c0-0.4,0.01-0.79,0.01-1.19c0.44-0.6,1.36-1.02,0.8-1.97c-0.54,0.11-1.02,0.2-1.49,0.3
		c0.01-0.32,0.01-0.63,0.02-0.95c0.76,0,1.52,0,2.28,0c0.46,0.49,0.82,0.96,0.11,1.57c-0.17,0.14-0.23,0.57-0.16,0.82
		c0.24,0.81,0.02,1.3-0.84,1.44C48.59,88.97,48.34,88.96,48.1,88.95z"/>
	<path class="st16" d="M49.51,83.99c0.16,0,0.32-0.01,0.48-0.01c-0.09,0.16-0.18,0.31-0.27,0.47
		C49.65,84.29,49.58,84.14,49.51,83.99z"/>
	<path class="st15" d="M23.01,73.57c-0.4-0.08-0.8-0.16-1.19-0.23c0.01-0.68,0.02-1.37,0.04-2.05c0.07-0.06,0.14-0.12,0.2-0.18
		c0.32,0.05,0.63,0.09,0.95,0.14C23,72.02,23.01,72.8,23.01,73.57z"/>
	<path class="st5" d="M58.54,24.07c-0.09,1.02-0.19,2.04-0.28,3.06c-0.08,0.09-0.15,0.18-0.23,0.27c-1.19-0.09-2.39-0.17-3.58-0.26
		c0.24-0.41,0.48-0.81,0.72-1.22c-0.07-0.46-0.14-0.92-0.22-1.39c0-0.47,0-0.95,0-1.42c1.19,0.07,2.37,0.15,3.56,0.22
		C58.52,23.58,58.53,23.82,58.54,24.07z M55.79,25.54c0.07,0.04,0.15,0.08,0.22,0.12c0.04-0.15,0.09-0.3,0.13-0.45
		c-0.05-0.02-0.09-0.03-0.14-0.05C55.93,25.28,55.86,25.41,55.79,25.54z"/>
	<path class="st8" d="M54.95,23.11c0,0.47,0,0.95,0,1.42c-0.9-0.25-0.58-0.87-0.45-1.44C54.65,23.1,54.8,23.11,54.95,23.11z"/>
	<path class="st16" d="M50.91,65.25c-0.15,0.32-0.29,0.64-0.44,0.97C50.62,65.89,50.77,65.57,50.91,65.25z"/>
	<path class="st9" d="M23.57,54.59c-0.06-0.84-0.12-1.68-0.18-2.52c0.13-0.12,0.25-0.24,0.38-0.37c0.16,0.18,0.32,0.36,0.48,0.54
		c-0.01,0.78-0.01,1.57-0.02,2.35C24.01,54.6,23.79,54.6,23.57,54.59z"/>
	<path class="st13" d="M20.43,71.13c0.47,0.05,0.95,0.11,1.42,0.16c-0.01,0.68-0.02,1.37-0.04,2.05c-2.92,0.15-5.84,0.29-8.76,0.44
		c-0.15-0.84,0.15-1.53,0.72-2.13c0-0.09,0.01-0.18,0.01-0.26c0.85-0.16,1.69-0.32,2.54-0.48c0.4,0.17,0.55,1.53,1.25,0.26
		c0.7-0.01,1.4-0.03,2.1-0.04C19.93,71.12,20.18,71.13,20.43,71.13z"/>
	<path class="st16" d="M49.3,79.72c-0.16,0.24-0.33,0.47-0.49,0.71c-0.08,0-0.16-0.02-0.23,0.01c-0.39,0.17-0.78,0.36-1.16,0.54
		c-0.06-0.5-0.11-1.01-0.18-1.58c-0.2-0.1-0.49-0.25-0.79-0.41c0.01-0.15,0.02-0.31,0.03-0.46c0.15,0,0.31,0,0.46,0.01
		c0.07,0,0.14,0,0.22,0.01c0.16-0.39,0.33-0.78,0.5-1.2c0.43,0.52,0.79,0.97,1.16,1.43c0.17,0.07,0.33,0.15,0.5,0.22
		c0.02,0.07,0.02,0.13,0.03,0.2C49.32,79.37,49.31,79.54,49.3,79.72z"/>
	<path class="st9" d="M78.98,35.44c0.02-0.57,0.04-1.14,0.05-1.71c0.22,0.04,0.44,0.08,0.66,0.12c-0.12,0.41-0.23,0.76-0.34,1.11
		c0,0.15-0.01,0.31-0.01,0.46C79.23,35.42,79.11,35.43,78.98,35.44z"/>
	<path class="st19" d="M79.35,35.42c0-0.15,0.01-0.31,0.01-0.46c0.3,0.18,0.6,0.37,0.9,0.55c-0.23-0.03-0.46-0.06-0.69-0.09
		C79.5,35.43,79.42,35.43,79.35,35.42z"/>
	<path class="st9" d="M81.28,36.36c-0.08-0.63-0.15-1.26-0.23-1.89c0.21,0,0.41,0,0.62,0c0.02,0.39,0.04,0.78,0.06,1.17
		c0,0.24,0,0.47,0,0.71c-0.08,0.01-0.15,0.02-0.23,0.02C81.42,36.37,81.35,36.36,81.28,36.36z"/>
	<path class="st20" d="M81.67,34.47c-0.21,0-0.41,0-0.62,0c-0.02-0.54-0.05-1.08-0.07-1.63c0.17,0.08,0.35,0.15,0.52,0.25
		c0.22,0.13,0.43,0.27,0.65,0.41C81.99,33.82,81.83,34.14,81.67,34.47z"/>
	<path class="st20" d="M81.73,36.34c0-0.24,0-0.47,0-0.71c0.06,0.25,0.12,0.51,0.18,0.76C81.85,36.37,81.79,36.36,81.73,36.34z"/>
	<path class="st4" d="M58.54,24.07c-0.01-0.25-0.03-0.49-0.04-0.74c0.17-0.06,0.34-0.12,0.51-0.18
		C58.86,23.45,58.7,23.76,58.54,24.07z"/>
	<path class="st4" d="M66.8,23.81c-0.12,0.09-0.25,0.19-0.37,0.28c-0.04-0.15-0.09-0.3-0.13-0.44C66.46,23.7,66.63,23.75,66.8,23.81
		z"/>
	<path class="st10" d="M20.67,30.93c0.08,1.08,0.21,2.16,0.21,3.24c0.01,0.96-0.12,1.92-0.2,2.88c-0.16,0.71-0.31,1.42-0.47,2.13
		c-0.02-0.86-0.04-1.71-0.07-2.57c0.01-0.24,0.02-0.48,0.02-0.72c0.02-0.32,0.03-0.63,0.05-0.95c-0.02-1.26-0.05-2.52-0.07-3.78
		C20.32,31.09,20.5,31.01,20.67,30.93z"/>
	<path class="st7" d="M23.77,51.7c-0.13,0.12-0.25,0.24-0.38,0.37c-0.12-0.73-0.27-2.49-0.38-3.22c0.23,0,0.21-1.2,0.44-1.2
		c0.08,0.15,0.43,2.55,0.51,2.7c0,0-0.01,0-0.01,0c0.01,0.15,0.01,0.31,0.02,0.46C23.9,51.11,23.83,51.41,23.77,51.7z"/>
	<path class="st4" d="M58.04,27.4c0.08-0.09,0.15-0.18,0.23-0.27c-0.01,0.1-0.03,0.2-0.04,0.3C58.16,27.42,58.1,27.41,58.04,27.4z"
		/>
	<path class="st4" d="M69.09,24.13c-0.6-0.05-1.2-0.1-1.8-0.15C67.89,24.02,68.49,24.07,69.09,24.13z"/>
	<path class="st12" d="M48.81,78.77c-0.37-0.45-0.74-0.9-1.16-1.43c-0.17,0.41-0.34,0.81-0.5,1.2c-0.07-0.01-0.14-0.01-0.22-0.01
		c-0.15,0-0.31,0-0.46-0.01c0.01-1.1,0.03-2.2,0.04-3.31c0.13-0.1,0.26-0.21,0.38-0.31c-0.13-0.14-0.25-0.28-0.38-0.42
		c0.01-0.23,0.02-0.46,0.02-0.69c0.06-0.24,0.11-0.47,0.17-0.71c0.03-0.17,0.05-0.34,0.08-0.51c0.04-0.31,0.07-0.62,0.11-0.93
		c0.04-0.24,0.09-0.48,0.13-0.72c0.35-0.39,0.71-0.79,1.06-1.18c0.16,0.26,0.38,0.5,0.47,0.79c0.13,0.44,0.17,0.9,0.25,1.36
		c-0.15,0.93-0.3,1.86-0.49,2.98c0.82,0.67,0.56,1.82,0.48,2.94c0,0.24,0,0.47,0,0.71C48.81,78.61,48.81,78.69,48.81,78.77z"/>
	<path class="st11" d="M46.52,74.49c0.13,0.14,0.25,0.28,0.38,0.42c-0.13,0.1-0.26,0.21-0.38,0.31
		C46.51,74.98,46.51,74.73,46.52,74.49z"/>
	<path class="st21" d="M48.1,88.95c0.24,0.01,0.48,0.02,0.73,0.03c0,0.31,0,0.62,0,0.93c-0.23,0.31-0.47,0.62-0.7,0.92
		c-0.32,0.01-0.63,0.02-0.95,0.03c0.15-0.48,0.3-0.96,0.45-1.44C47.78,89.26,47.94,89.1,48.1,88.95z"/>
	<path class="st11" d="M51.88,23.57c-0.04-0.06-0.08-0.11-0.11-0.17c-0.01-0.02,0.04-0.06,0.07-0.09
		C51.86,23.4,51.87,23.49,51.88,23.57z"/>
	<path class="st9" d="M80.29,36.26c0.24,0.05-0.11-1.56,0.13-1.51c0.08,0.49,0.27,3.9,0.34,4.39c-0.37,1.67,0.22,3.36,0.83,4.98
		c0.22,0.58,0.07,1.31,0.08,1.96c-0.13,0-0.27,0-0.4,0c-0.19-0.53-0.44-1.04-0.56-1.58c-0.22-1.01-0.42-2.03-0.53-3.05
		c-0.11-1.07-0.1-2.16-0.11-3.24C80.08,37.99,80.21,36.47,80.29,36.26z"/>
	<path class="st14" d="M81.28,46.08c0.13,0,0.27,0,0.4,0c0.03,0.55,0.06,1.1,0.09,1.64c0.06,0.8,0.1,1.61,0.18,2.4
		c0.03,0.31,0.17,0.61,0.26,0.92c0.09,0.79,0.17,1.58,0.26,2.37c-0.25,0-0.49,0-0.74,0c-0.07-0.54-0.13-1.07-0.2-1.61
		c-0.1-0.84-0.24-1.68-0.28-2.53C81.21,48.22,81.27,47.15,81.28,46.08z"/>
	<path class="st4" d="M82.75,61.91c-0.18,0.01-0.35,0.02-0.53,0.02c-0.01-1.57-0.01-3.15-0.02-4.72c0.17-0.09,0.34-0.18,0.51-0.27
		C82.73,58.6,82.74,60.25,82.75,61.91z"/>
	<path class="st20" d="M81.52,39.21c-0.08-0.49-0.12-0.96-0.2-1.45c0.09-0.46-0.13-0.95-0.04-1.4c0.07,0.01,0.14,0.01,0.21,0.01
		c0.35,1.61,0.71,3.21,1.06,4.82c0.05,0.22,0.05,0.46,0.07,0.69c-0.3-0.62-0.59-1.24-0.9-1.85C81.58,39.74,81.68,39.48,81.52,39.21z
		"/>
	<path class="st11" d="M82.72,56.94c-0.17,0.09-0.34,0.18-0.51,0.27c-0.16-1.26-0.32-2.53-0.48-3.79c0.25,0,0.49,0,0.74,0
		c0.05,0.07,0.1,0.14,0.15,0.22c0.02,0.16,0.03,0.33,0.05,0.49C82.68,55.07,82.7,56,82.72,56.94z"/>
	<path class="st25" d="M82.66,54.13c-0.02-0.16-0.03-0.33-0.05-0.49C82.63,53.8,82.65,53.97,82.66,54.13z"/>
	<path class="st20" d="M79.95,67.45c-0.18-0.02-0.36-0.04-0.55-0.05c-0.18-1.66-0.42-3.32-0.53-4.99c-0.08-1.33,0-2.68,0-4.02
		c0.08-0.15,0.15-0.3,0.23-0.46c0.12-0.02,0.24-0.04,0.35-0.06C79.62,61.06,79.78,64.26,79.95,67.45z"/>
	<path class="st9" d="M78.36,41.08c0-0.08,0.01-0.15,0.06-0.22c0.35-0.07,0.71-0.14,1.06-0.21c0.01,0.14,0.01,0.29,0.02,0.43
		c-0.72,0.66-0.41,1.29,0.07,1.91c-0.06,1.73-0.11,3.47-0.17,5.2c-0.26,0.09-0.52,0.17-0.77,0.26c-0.13-2.29-0.25-4.58-0.38-6.86
		C78.29,41.42,78.32,41.25,78.36,41.08z"/>
	<path class="st4" d="M79.45,57.87c-0.12,0.02-0.24,0.04-0.35,0.06c-0.07-0.01-0.14-0.02-0.21-0.02c-0.03-2.02-0.07-4.05-0.08-6.07
		c0-0.28,0.17-0.55,0.25-0.83c0.1,0.01,0.19,0.03,0.29,0.04C79.39,53.32,79.42,55.6,79.45,57.87z"/>
	<path class="st9" d="M79.39,48.68c0.02,0.63,0.03,1.25,0.05,1.88c-0.11,0.09-0.22,0.19-0.34,0.28c-0.11-0.63-0.22-1.27-0.33-1.9
		C78.98,48.86,79.19,48.77,79.39,48.68z"/>
	<path class="st20" d="M79.39,48.68c-0.21,0.09-0.41,0.17-0.62,0.26c-0.05-0.16-0.1-0.33-0.15-0.49c0.26-0.09,0.52-0.17,0.77-0.26
		C79.4,48.36,79.39,48.52,79.39,48.68z"/>
	<path class="st20" d="M79.1,50.84c0.11-0.09,0.23-0.19,0.34-0.28c-0.03,0.16-0.05,0.33-0.08,0.49c-0.1-0.01-0.19-0.03-0.29-0.04
		C79.07,50.95,79.08,50.9,79.1,50.84z"/>
	<path class="st25" d="M78.89,57.91c0.07,0,0.14,0.01,0.21,0.02c-0.08,0.15-0.15,0.3-0.23,0.46C78.88,58.23,78.89,58.07,78.89,57.91
		z"/>
	<path class="st14" d="M79.48,40.65c-0.35,0.07-0.71,0.14-1.06,0.21c0.19-1.81,0.38-3.62,0.57-5.42c0.12-0.01,0.24-0.01,0.36-0.02
		c0.07,0.01,0.15,0.01,0.22,0c0.02,0.63,0.04,1.27,0.06,1.9C79.58,38.43,79.53,39.54,79.48,40.65z"/>
	<path class="st19" d="M79.57,42.99c-0.48-0.62-0.8-1.24-0.07-1.91C79.52,41.72,79.55,42.36,79.57,42.99z"/>
	<path class="st22" d="M51.65,73.07c0.08,0.48,0.17,0.95,0.25,1.43c0,1.53-1.04,0.62-1.66,0.72C50.04,74.07,50.52,73.35,51.65,73.07
		z"/>
	<path class="st21" d="M48.81,78.77c0-0.08,0-0.16,0.01-0.24c0.16,0.15,0.33,0.31,0.49,0.46C49.14,78.92,48.97,78.85,48.81,78.77z"
		/>
	<path class="st21" d="M49.3,79.72c0.01-0.17,0.02-0.35,0.03-0.52c0.14,0.01,0.29,0.03,0.43,0.04C49.61,79.4,49.45,79.56,49.3,79.72
		z"/>
	<path class="st19" d="M13.12,62.65c0.19-2.21,0.33-4.43,0.59-6.63c0.18-1.51,0.51-3,0.77-4.5c0.1,0.1,0.2,0.2,0.31,0.3
		c-0.13,1.93,0.07,3.84-0.66,5.78c-0.55,1.45-0.28,3.2-0.38,4.82C13.54,62.49,13.33,62.57,13.12,62.65z"/>
	<path class="st7" d="M17.33,37.78c0.23,0,0.45-0.01,0.68-0.01c-0.05,0.26-0.09,0.53-0.15,0.79c-0.5,2.11-1,4.21-1.51,6.32
		c-0.16,0-0.32,0-0.48,0c-0.36-2.05,0.59-3.89,0.96-5.82C16.92,38.63,17.16,38.21,17.33,37.78z"/>
	<path class="st26" d="M15.88,44.89c0.16,0,0.32,0,0.48,0c-0.15,0.82-0.31,1.64-0.45,2.46c-0.21,1.25-0.4,2.5-0.64,3.74
		c-0.05,0.27-0.31,0.49-0.48,0.73c-0.1-0.1-0.2-0.2-0.31-0.3c0.26-1.89,0.5-3.77,0.8-5.65C15.34,45.51,15.67,45.21,15.88,44.89z"/>
	<path class="st7" d="M13.12,62.65c0.21-0.08,0.42-0.16,0.63-0.24c-0.2,1.82-0.4,3.64-0.6,5.45c-0.24,0.09-0.49,0.17-0.73,0.26
		C12.65,66.3,12.89,64.47,13.12,62.65z"/>
	<path class="st20" d="M12.41,68.13c0.24-0.09,0.49-0.17,0.73-0.26c-0.05,0.71,0.03,1.46-0.19,2.11c-0.32,0.92,0.1,1.22,0.83,1.41
		c0,0.09-0.01,0.18-0.01,0.26c-0.72-0.09-1.45-0.19-2.17-0.28C11.87,70.29,12.14,69.21,12.41,68.13z"/>
	<path class="st7" d="M18.76,37.56c0.15-0.32,0.31-0.65,0.46-0.97c0.07,0.02,0.13,0.02,0.2,0.02c0.2,1.22,0.2,2.41-0.68,3.42
		C18.75,39.2,18.75,38.38,18.76,37.56z"/>
	<path class="st27" d="M20.22,34.95c-0.02,0.32-0.03,0.63-0.05,0.95C20.19,35.58,20.21,35.26,20.22,34.95z"/>
	<path class="st21" d="M47.42,86.1c0.48-0.1,0.96-0.19,1.49-0.3c0.56,0.95-0.36,1.37-0.8,1.97C47.88,87.21,47.65,86.65,47.42,86.1z"
		/>
	<path class="st8" d="M55.79,25.54c0.07-0.13,0.14-0.26,0.21-0.38c0.05,0.02,0.09,0.03,0.14,0.05c-0.04,0.15-0.09,0.3-0.13,0.45
		C55.94,25.62,55.87,25.58,55.79,25.54z"/>
	<path class="st26" d="M19.82,59.64c0.05-0.77,0.11-1.55,0.15-2.32c0.08-1.62,0.16-3.23,0.22-4.85c0.08-2.31,0.17-4.63,0.18-6.94
		c0.01-1.45-0.13-2.89-0.18-4.34c-0.02-0.67,0.02-1.33,0.04-2c0.16-0.71,0.31-1.42,0.47-2.13c0.15,0.64,0.3,1.29,0.45,1.93
		c-0.01,0.84-0.15,1.72,0.03,2.52c0.15,0.67-0.71,1.41,0.18,1.97c-0.15,2.37-0.34,4.75-0.42,7.12c-0.04,1.24,0.12,2.49,0.18,3.74
		c-0.07,0.25-0.14,0.5-0.22,0.75c-0.01,2.04,0,4.09-0.03,6.13c-0.01,0.4-0.16,0.8-0.25,1.2c-0.08-0.92-0.17-1.85-0.26-2.82
		C20.2,59.61,20.01,59.62,19.82,59.64z"/>
	<path class="st19" d="M19.68,71.12c0.02-1.05,0.02-2.1,0.05-3.15c0.04-1.13,0.1-2.27,0.16-3.4c0.1-0.01,0.19-0.01,0.29-0.02
		c0.04,0.11,0.08,0.22,0.12,0.33c0.04,2.08,0.08,4.16,0.13,6.25C20.18,71.13,19.93,71.12,19.68,71.12z"/>
	<path class="st3" d="M20.18,64.56c-0.1,0.01-0.19,0.01-0.29,0.02c-0.02-1.65-0.05-3.29-0.07-4.94c0.19-0.02,0.38-0.03,0.53-0.04
		c0.09,0.97,0.17,1.89,0.26,2.82c-0.02,0.54-0.04,1.08-0.05,1.62C20.43,64.21,20.3,64.38,20.18,64.56z"/>
	<path class="st27" d="M20.89,55.08c0.07-0.25,0.14-0.5,0.22-0.75C21.03,54.58,20.96,54.83,20.89,55.08z"/>
	<path class="st26" d="M20.18,64.56c0.12-0.18,0.25-0.35,0.37-0.53c-0.08,0.28-0.17,0.57-0.25,0.85
		C20.26,64.77,20.22,64.66,20.18,64.56z"/>
	<path class="st19" d="M16.33,70.9c0.01-2.32-0.05-4.64,0.06-6.95c0.15-3.2,0.44-6.4,0.67-9.59c0.15,0.01,0.3,0.02,0.45,0.03
		c-0.15,4.19-0.31,8.37-0.44,12.56c-0.03,0.98-0.05,1.97,0.03,2.94c0.03,0.43,0.31,0.84,0.48,1.26
		C16.88,72.44,16.73,71.07,16.33,70.9z"/>
	<path class="st11" d="M46.93,78.54c0.07,0,0.14,0,0.22,0.01C47.07,78.54,47,78.54,46.93,78.54z"/>
	<path class="st7" d="M17.51,51.76c0.18-2.98,0.35-5.97,0.55-8.95c0.02-0.23,0.31-0.44,0.48-0.66c0.15,0.2,0.3,0.4,0.44,0.61
		c-0.29,2.16-0.59,4.31-0.85,6.47c-0.09,0.76-0.07,1.53-0.1,2.29C17.86,51.6,17.69,51.68,17.51,51.76z"/>
	<path class="st26" d="M17.51,51.76c0.18-0.08,0.35-0.16,0.53-0.24c-0.18,0.96-0.35,1.91-0.53,2.87c-0.15-0.01-0.3-0.02-0.45-0.03
		C17.21,53.5,17.36,52.63,17.51,51.76z"/>
	<path class="st20" d="M18.99,42.76c-0.15-0.2-0.3-0.4-0.44-0.61c0.07-0.04,0.34-1.63,0.4-1.67C19.03,40.73,18.91,42.51,18.99,42.76
		z"/>
	<path class="st20" d="M18.76,41.54c-0.01-0.27,0-2.17-0.01-2.44c0.15,0.08,0.28,1.79,0.43,1.87C19.04,41.16,18.9,41.35,18.76,41.54
		z"/>
	<path class="st10" d="M19.03,37.08c-0.03-1.08-0.11-1.73-0.15-2.25c-0.08-0.96,0.2-1.92,0.31-2.87c0.18-0.7,0.25-0.71,0.44-1.41
		c0.42,0.13,0.09,1.02,0.08,1.87c-0.02,0.24-0.18,0.19-0.2,0.43c-0.03,0.31,0.09,0.92,0.06,1.23c-0.02,1.26-0.03,2.29-0.05,3.55
		C19.34,37.7,19.2,37.01,19.03,37.08z"/>
</g>
</svg>
